<?xml version="1.0" standalone="no"?>
<!DOCTYPE svg PUBLIC "-//W3C//DTD SVG 1.1//EN" "http://www.w3.org/Graphics/SVG/1.1/DTD/svg11.dtd" >
<svg>
<metadata>
Created by FontForge 20090622 at Mon Jan 25 19:35:15 2016
 By deploy user
Copyright &#194;&#169; 1988, 1990, 1993, 2003 Linotype Library GmbH, www.linotype.com. All rights reserved. Copyright &#194;&#169; 1988, 1990, 1993 Adobe Systems Incorporated. All Rights Reserved.
</metadata>
<defs>
<font id="HelveticaNeueLTPro-BlkCn" horiz-adv-x="520" >
  <font-face 
    font-family="HelveticaNeueLT Pro 97 BlkCn"
    font-weight="900"
    font-stretch="normal"
    units-per-em="1000"
    panose-1="2 11 8 6 3 7 2 4 2 4"
    ascent="714"
    descent="-286"
    x-height="541"
    cap-height="714"
    bbox="-165 -233 1099 952"
    underline-thickness="50"
    underline-position="-50"
    unicode-range="U+000D-U+FB02"
  />
<missing-glyph horiz-adv-x="512" 
d="M222 117h56v67h-56v-67zM225 234h46q0 52 6 72q6 19 43 52q37 34 50 60t13 60q0 59 -35 95t-89 36q-56 0 -92 -34t-43 -103l50 -8q11 95 82 95q31 0 53.5 -24.5t22.5 -60.5q0 -20 -9.5 -37t-40.5 -46q-31 -31 -46 -59q-13 -25 -13 -81zM462 50h-412v617h412v-617z
M512 718h-512v-718h512v718z" />
    <glyph glyph-name="IJ" unicode="IJ" horiz-adv-x="749" 
d="M37 0v714h186v-714h-186zM533 714h186v-491q0 -126 -57.5 -181.5t-175.5 -55.5q-114 0 -165.5 58t-51.5 173v15h168v-35q0 -85 48 -85t48 85v517z" />
    <glyph glyph-name="ij" unicode="ij" horiz-adv-x="511" 
d="M39 580v134h180v-134h-180zM39 0v541h180v-541h-180zM292 580v134h180v-134h-180zM292 -12v553h180v-576q0 -36 -9 -62.5t-23 -41.5t-36.5 -23.5t-45 -11t-53.5 -2.5q-36 0 -81 5v121q36 0 52 7.5t16 30.5z" />
    <glyph glyph-name="napostrophe" unicode="&#x22;n" horiz-adv-x="556" 
d="M72 0v541h174v-66h2q35 80 131 80q66 0 103.5 -33t37.5 -114v-408h-180v357q0 34 -10 49t-34 15t-34 -15t-10 -49v-357h-180zM16 714v105h142v-86q0 -97 -122 -97v42q26 5 34.5 12t10.5 24h-65z" />
    <glyph glyph-name="fi" unicode="fi" horiz-adv-x="556" 
d="M62 0v420h-62v121h62v39q0 82 37 115t130 33q44 0 86 -6v-113q-9 3 -30 3q-43 0 -43 -38v-33h73v-121h-73v-420h-180zM337 580v134h180v-134h-180zM337 0v541h180v-541h-180z" />
    <glyph glyph-name="fl" unicode="fl" horiz-adv-x="556" 
d="M62 0v420h-62v121h62v39q0 82 37 115t130 33q44 0 86 -6v-113q-9 3 -30 3q-43 0 -43 -38v-33h73v-121h-73v-420h-180zM337 0v714h180v-714h-180z" />
    <glyph glyph-name=".notdef" horiz-adv-x="512" 
d="M222 117h56v67h-56v-67zM225 234h46q0 52 6 72q6 19 43 52q37 34 50 60t13 60q0 59 -35 95t-89 36q-56 0 -92 -34t-43 -103l50 -8q11 95 82 95q31 0 53.5 -24.5t22.5 -60.5q0 -20 -9.5 -37t-40.5 -46q-31 -31 -46 -59q-13 -25 -13 -81zM462 50h-412v617h412v-617z
M512 718h-512v-718h512v718z" />
    <glyph glyph-name=".null" horiz-adv-x="500" 
 />
    <glyph glyph-name=".null" horiz-adv-x="500" 
 />
    <glyph glyph-name="nonmarkingreturn" horiz-adv-x="333" 
 />
    <glyph glyph-name="CR" unicode="&#xd;" horiz-adv-x="0" 
 />
    <glyph glyph-name="space" unicode=" " horiz-adv-x="260" 
 />
    <glyph glyph-name="exclam" unicode="!" horiz-adv-x="314" 
d="M89 207l-19 268v239h174v-239l-21 -268h-134zM74 0v158h168v-158h-168z" />
    <glyph glyph-name="quotedbl" unicode="&#x22;" horiz-adv-x="481" 
d="M55 340v374h140v-374h-140zM286 340v374h140v-374h-140z" />
    <glyph glyph-name="numbersign" unicode="#" 
d="M261 0l22 173h-90l-22 -173h-110l22 173h-73v116h88l14 116h-73v116h88l22 173h110l-22 -173h89l22 173h110l-22 -173h74v-116h-88l-15 -116h74v-116h-88l-22 -173h-110zM222 405l-14 -116h89l15 116h-90z" />
    <glyph glyph-name="dollar" unicode="$" 
d="M206 -104v90q-98 10 -145.5 56t-47.5 139v27h180v-19q0 -79 62 -79q28 0 44 18.5t16 46.5q0 37 -30 61t-73 40t-86 36.5t-73 65.5t-30 113q0 187 183 217v58h92v-58q100 -10 145 -60.5t45 -153.5h-174v15q0 32 -13.5 53.5t-39.5 21.5q-28 0 -43 -18.5t-15 -43.5
q0 -29 17 -49t43.5 -32t59 -23.5t65 -27.5t59 -38t43.5 -61t17 -91q0 -100 -52 -151.5t-157 -62.5v-90h-92z" />
    <glyph glyph-name="percent" unicode="%" horiz-adv-x="778" 
d="M17 516q0 105 35 148.5t122 43.5t122 -43.5t35 -148.5t-35 -148.5t-122 -43.5t-122 43.5t-35 148.5zM447 178q0 105 35 148.5t122 43.5t122 -43.5t35 -148.5t-35 -148.5t-122 -43.5t-122 43.5t-35 148.5zM139 516q0 -69 6.5 -90.5t28.5 -21.5t28.5 21.5t6.5 90.5
t-6.5 90.5t-28.5 21.5t-28.5 -21.5t-6.5 -90.5zM175 -14l317 722h110l-317 -722h-110zM569 178q0 -69 6.5 -90.5t28.5 -21.5t28.5 21.5t6.5 90.5t-6.5 90.5t-28.5 21.5t-28.5 -21.5t-6.5 -90.5z" />
    <glyph glyph-name="ampersand" unicode="&#x26;" horiz-adv-x="611" 
d="M316 150l-95 129q-44 -35 -44 -72q0 -34 23.5 -57.5t53.5 -23.5q32 0 62 24zM219 568q0 -27 47 -88q59 54 59 88q0 22 -15 36t-38 14t-38 -14t-15 -36zM528 134l96 -134h-198l-31 42q-47 -29 -84.5 -42.5t-88.5 -13.5q-94 0 -156.5 52.5t-62.5 148.5q0 136 134 207
q-68 93 -68 162q0 74 55.5 120t146.5 46q93 0 148.5 -45.5t55.5 -120.5q0 -103 -124 -183l81 -109q19 30 24 84h156q-7 -138 -84 -214z" />
    <glyph glyph-name="quotesingle" unicode="'" horiz-adv-x="260" 
d="M60 340v374h140v-374h-140z" />
    <glyph glyph-name="parenleft" unicode="(" horiz-adv-x="314" 
d="M318 -184h-146q-142 222 -142 449t142 449h146q-120 -199 -120 -449t120 -449z" />
    <glyph glyph-name="parenright" unicode=")" horiz-adv-x="314" 
d="M-4 714h146q142 -222 142 -449t-142 -449h-146q120 199 120 449t-120 449z" />
    <glyph glyph-name="asterisk" unicode="*" horiz-adv-x="406" 
d="M278 322l-75 108l-75 -108l-80 58l76 107l-128 41l31 93l127 -41v134h98v-134l127 41l31 -93l-128 -41l76 -107z" />
    <glyph glyph-name="plus" unicode="+" horiz-adv-x="600" 
d="M230 323v183h140v-183h183v-140h-183v-183h-140v183h-183v140h183z" />
    <glyph glyph-name="comma" unicode="," horiz-adv-x="260" 
d="M46 6v192h168v-180q0 -98 -40 -145t-128 -49v86q35 4 49.5 23.5t14.5 60.5v12h-64z" />
    <glyph glyph-name="hyphen" unicode="-" horiz-adv-x="368" 
d="M28 213v152h312v-152h-312z" />
    <glyph glyph-name="period" unicode="." horiz-adv-x="260" 
d="M46 0v198h168v-198h-168z" />
    <glyph glyph-name="slash" unicode="/" horiz-adv-x="333" 
d="M-22 -14l227 742h150l-227 -742h-150z" />
    <glyph glyph-name="zero" unicode="0" 
d="M205 464v-234q0 -73 12.5 -100.5t42.5 -27.5t42.5 27.5t12.5 100.5v234q0 73 -12.5 100.5t-42.5 27.5t-42.5 -27.5t-12.5 -100.5zM19 347q0 141 27 221t77.5 110t136.5 30t136.5 -30t77.5 -110t27 -221t-27 -221t-77.5 -110t-136.5 -30t-136.5 30t-77.5 110t-27 221z" />
    <glyph glyph-name="one" unicode="1" 
d="M369 0h-186v482h-134v116q86 0 127 24t59 86h134v-708z" />
    <glyph glyph-name="two" unicode="2" 
d="M199 468h-174q2 122 44 174q54 66 188 66q129 0 178.5 -51.5t49.5 -141.5q0 -122 -88 -210l-110 -107q-40 -40 -46 -58h244v-140h-466q0 161 106 271l124 126q28 28 39 52.5t11 63.5q0 79 -48 79q-52 0 -52 -94v-30z" />
    <glyph glyph-name="three" unicode="3" 
d="M195 494h-168q3 111 58 162q55 52 164 52q124 0 173.5 -48.5t49.5 -147.5q0 -50 -23.5 -90t-75.5 -51v-2q112 -22 112 -155q0 -118 -57 -173t-174 -55q-124 0 -179.5 50.5t-55.5 175.5h174q0 -53 13 -84q12 -26 42 -26q32 0 41.5 21t9.5 89q0 50 -15.5 69t-52.5 19h-47
v116h27q44 0 62.5 20.5t18.5 79.5q0 43 -11 59.5t-36 16.5q-27 0 -38.5 -21.5t-11.5 -76.5z" />
    <glyph glyph-name="four" unicode="4" 
d="M16 132v140l224 422h202v-428h62v-134h-62v-132h-174v132h-252zM156 266h118v236h-2z" />
    <glyph glyph-name="five" unicode="5" 
d="M25 301l16 393h411v-140h-269l-8 -119q57 52 131 52q177 0 177 -225q0 -144 -52 -210t-180 -66q-232 0 -232 203v23h174v-24q0 -48 12.5 -67t38.5 -19q30 0 41.5 28t11.5 124q0 58 -13 82.5t-40 24.5q-51 0 -51 -60h-168z" />
    <glyph glyph-name="six" unicode="6" 
d="M211 218q0 -67 11 -91.5t41 -24.5q27 0 39.5 25t12.5 91q0 67 -11 91.5t-41 24.5q-27 0 -39.5 -25t-12.5 -91zM487 526h-174q-1 36 -14 52q-11 14 -37 14q-22 0 -36.5 -17.5t-14.5 -49.5v-113h2q12 26 44.5 41t74.5 15q82 0 125.5 -49t43.5 -166q0 -140 -59.5 -203.5
t-177.5 -63.5q-127 0 -186 67t-59 234v79q0 89 8.5 146.5t34 105t75 69t126.5 21.5q224 0 224 -182z" />
    <glyph glyph-name="seven" unicode="7" 
d="M25 542v152h462v-139q-73 -115 -124 -268t-61 -287h-192q33 313 200 542h-285z" />
    <glyph glyph-name="eight" unicode="8" 
d="M205 207q0 -60 13.5 -82.5t41.5 -22.5t41.5 22.5t13.5 82.5q0 59 -13.5 81.5t-41.5 22.5t-41.5 -22.5t-13.5 -81.5zM212 507q0 -86 48 -86t48 86q0 85 -48 85t-48 -85zM260 -14q-121 0 -181 49.5t-60 174.5q0 67 30 111t88 52v2q-105 24 -105 143q0 89 55 139.5t173 50.5
t173 -50.5t55 -139.5q0 -119 -105 -143v-2q61 -11 89.5 -55t28.5 -108q0 -125 -60 -174.5t-181 -49.5z" />
    <glyph glyph-name="nine" unicode="9" 
d="M205 476q0 -67 11 -91.5t41 -24.5q27 0 39.5 25t12.5 91q0 67 -11 91.5t-41 24.5q-27 0 -39.5 -25t-12.5 -91zM33 168h174q1 -36 14 -52q11 -14 37 -14q22 0 36.5 17.5t14.5 48.5v113h-2q-12 -25 -45 -40t-74 -15q-82 0 -125.5 48.5t-43.5 166.5q0 140 59.5 203.5
t177.5 63.5q127 0 186 -67t59 -235v-78q0 -89 -8.5 -146.5t-34 -105t-75 -69t-126.5 -21.5q-126 0 -175 50t-49 132z" />
    <glyph glyph-name="colon" unicode=":" horiz-adv-x="260" 
d="M46 0v198h168v-198h-168zM46 343v198h168v-198h-168z" />
    <glyph glyph-name="semicolon" unicode=";" horiz-adv-x="260" 
d="M46 343v198h168v-198h-168zM46 6v192h168v-180q0 -98 -40 -145t-128 -49v86q35 4 49.5 23.5t14.5 60.5v12h-64z" />
    <glyph glyph-name="semicolon" unicode="&#x37e;" horiz-adv-x="260" 
d="M46 343v198h168v-198h-168zM46 6v192h168v-180q0 -98 -40 -145t-128 -49v86q35 4 49.5 23.5t14.5 60.5v12h-64z" />
    <glyph glyph-name="less" unicode="&#x3c;" horiz-adv-x="600" 
d="M47 190v126l506 208v-134l-338 -137l338 -137v-134z" />
    <glyph glyph-name="equal" unicode="=" horiz-adv-x="600" 
d="M47 71v140h506v-140h-506zM47 295v140h506v-140h-506z" />
    <glyph glyph-name="greater" unicode="&#x3e;" horiz-adv-x="600" 
d="M47 -18v134l338 137l-338 137v134l506 -208v-126z" />
    <glyph glyph-name="question" unicode="?" horiz-adv-x="500" 
d="M160 0v158h168v-158h-168zM200 488h-168q0 129 57 186q54 54 167 54q106 0 159 -52.5t53 -145.5q0 -90 -47 -142l-73 -83q-23 -25 -23 -98h-162v28q0 58 9.5 93t33.5 64l59 67q29 33 29 88q0 65 -45 65q-26 0 -37.5 -24.5t-11.5 -99.5z" />
    <glyph glyph-name="at" unicode="@" horiz-adv-x="800" 
d="M529 534h92l-40 -211q-7 -35 -7 -46q0 -22 17 -22q31 0 59.5 40.5t28.5 116.5q0 105 -73 164.5t-191 59.5q-125 0 -200.5 -78t-75.5 -202q0 -128 81 -203t212 -75q111 0 192 59h110q-55 -76 -135.5 -113.5t-198.5 -37.5q-154 0 -262.5 108.5t-108.5 262.5t108.5 262.5
t262.5 108.5q153 0 262 -83.5t109 -217.5q0 -60 -24.5 -113t-63 -86t-82.5 -52t-85 -19q-24 0 -39.5 11.5t-18.5 32.5h-4q-37 -44 -106 -44q-65 0 -110.5 48.5t-45.5 124.5q0 92 57 160t146 68q79 0 126 -61zM314 346q0 -33 20 -56t52 -23q44 0 73 30.5t29 71.5
q0 35 -21.5 57t-57.5 22q-39 0 -67 -32t-28 -70z" />
    <glyph glyph-name="A" unicode="A" horiz-adv-x="556" 
d="M330 265l-51 303h-2l-51 -303h104zM-13 0l174 714h234l174 -714h-198l-19 125h-148l-19 -125h-198z" />
    <glyph glyph-name="B" unicode="B" horiz-adv-x="574" 
d="M236 308v-174h52q28 0 47 23t19 65q0 40 -19 63t-47 23h-52zM236 580v-146h45q28 0 43.5 20.5t15.5 51.5q0 32 -15.5 53t-43.5 21h-45zM50 0v714h281q97 0 146 -47t49 -131q0 -61 -28 -105t-84 -55v-2q65 -6 98.5 -53.5t33.5 -109.5q0 -98 -52 -154.5t-163 -56.5h-281z
" />
    <glyph glyph-name="C" unicode="C" horiz-adv-x="537" 
d="M329 457v40q0 59 -11.5 82t-39.5 23q-41 0 -52 -47.5t-11 -197.5t11 -197.5t52 -47.5q33 0 44.5 36.5t11.5 138.5h180v-53q0 -248 -236 -248q-79 0 -128.5 19.5t-77.5 66.5t-38.5 113.5t-10.5 171.5q0 206 55.5 288.5t199.5 82.5q231 0 231 -226v-45h-180z" />
    <glyph glyph-name="D" unicode="D" horiz-adv-x="574" 
d="M44 0v714h270q45 0 80 -10.5t58.5 -27t40.5 -45t26 -55t14 -67.5t6 -73t1 -79t-1 -79t-6 -73t-14 -67.5t-26 -55t-40.5 -45t-58.5 -27t-80 -10.5h-270zM230 580v-446h37q54 0 67.5 38.5t13.5 184.5t-13.5 184.5t-67.5 38.5h-37z" />
    <glyph glyph-name="E" unicode="E" horiz-adv-x="500" 
d="M44 0v714h423v-152h-237v-122h222v-146h-222v-142h246v-152h-432z" />
    <glyph glyph-name="F" unicode="F" horiz-adv-x="481" 
d="M44 0v714h423v-152h-237v-122h222v-146h-222v-294h-186z" />
    <glyph glyph-name="G" unicode="G" horiz-adv-x="556" 
d="M284 262v126h240v-388h-126l-4 63h-2q-30 -77 -154 -77q-56 0 -94 17t-60 44.5t-34 78t-15 101t-3 130.5q0 96 11 160t39.5 114t81.5 73.5t134 23.5q104 0 165 -58t61 -182h-180q0 57 -10 83q-10 31 -43 31q-44 0 -55.5 -46.5t-11.5 -198.5q0 -150 11 -197.5t52 -47.5
q32 0 47.5 31.5t15.5 118.5h-66z" />
    <glyph glyph-name="H" unicode="H" horiz-adv-x="574" 
d="M44 0v714h186v-262h114v262h186v-714h-186v294h-114v-294h-186z" />
    <glyph glyph-name="I" unicode="I" horiz-adv-x="260" 
d="M37 0v714h186v-714h-186z" />
    <glyph glyph-name="J" unicode="J" horiz-adv-x="481" 
d="M265 714h186v-491q0 -126 -57.5 -181.5t-175.5 -55.5q-114 0 -165.5 58t-51.5 173v15h168v-35q0 -85 48 -85t48 85v517z" />
    <glyph glyph-name="K" unicode="K" horiz-adv-x="556" 
d="M37 0v714h186v-274h2l138 274h198l-180 -312l202 -402h-212l-109 249l-39 -60v-189h-186z" />
    <glyph glyph-name="L" unicode="L" horiz-adv-x="463" 
d="M44 0v714h186v-562h229v-152h-415z" />
    <glyph glyph-name="M" unicode="M" horiz-adv-x="758" 
d="M37 0v714h266l75 -423h2l75 423h266v-714h-174v532h-2l-99 -532h-134l-99 532h-2v-532h-174z" />
    <glyph glyph-name="N" unicode="N" horiz-adv-x="592" 
d="M44 0v714h208l120 -440h2v440h174v-714h-204l-124 441h-2v-441h-174z" />
    <glyph glyph-name="O" unicode="O" horiz-adv-x="556" 
d="M215 357q0 -150 11 -197.5t52 -47.5t52 47.5t11 197.5t-11 197.5t-52 47.5t-52 -47.5t-11 -197.5zM23 357q0 202 57 286.5t198 84.5t198 -84.5t57 -286.5t-57 -286.5t-198 -84.5t-198 84.5t-57 286.5z" />
    <glyph glyph-name="P" unicode="P" horiz-adv-x="537" 
d="M223 580v-174h35q72 0 72 87t-72 87h-35zM37 0v714h279q102 0 154 -61t52 -159q0 -110 -59.5 -166t-174.5 -56h-65v-272h-186z" />
    <glyph glyph-name="Q" unicode="Q" horiz-adv-x="556" 
d="M559 -22l-112 -97l-102 110q-6 -1 -16 -2t-16 -2q-5 -1 -17 -1h-18q-141 0 -198 84.5t-57 286.5t57 286.5t198 84.5t198 -84.5t57 -286.5q0 -206 -60 -290zM215 357q0 -150 11 -197.5t52 -47.5t52 47.5t11 197.5t-11 197.5t-52 47.5t-52 -47.5t-11 -197.5z" />
    <glyph glyph-name="R" unicode="R" horiz-adv-x="574" 
d="M230 580v-168h37q39 0 58.5 22.5t19.5 62.5q0 44 -18.5 63.5t-60.5 19.5h-36zM44 0v714h291q101 0 148.5 -51t47.5 -139q0 -151 -122 -170v-2q64 -6 90.5 -45.5t26.5 -114.5v-61q0 -84 9 -99q10 -15 21 -22v-10h-198q-18 37 -18 136v48q0 60 -13.5 81t-47.5 21h-49v-286
h-186z" />
    <glyph glyph-name="S" unicode="S" horiz-adv-x="537" 
d="M496 508h-174v17q0 34 -13.5 55.5t-39.5 21.5q-28 0 -43 -18.5t-15 -44.5q0 -38 31.5 -62.5t76 -41.5t89 -39t76 -70t31.5 -120q0 -220 -253 -220q-120 0 -180 47t-60 154v25h180v-17q0 -83 61 -83q28 0 44 19.5t16 49.5q0 28 -16 48.5t-42 33.5t-57 25t-62 28t-57 38.5
t-42 61t-16 89.5q0 223 234 223q122 0 176.5 -52.5t54.5 -167.5z" />
    <glyph glyph-name="T" unicode="T" horiz-adv-x="462" 
d="M138 0v556h-140v158h466v-158h-140v-556h-186z" />
    <glyph glyph-name="U" unicode="U" horiz-adv-x="556" 
d="M36 714h186v-515q0 -49 14 -68t42 -19t42 19t14 68v515h186v-468q0 -144 -59.5 -202t-182.5 -58t-182.5 58t-59.5 202v468z" />
    <glyph glyph-name="V" unicode="V" 
d="M140 0l-154 714h198l75 -538h2l75 538h198l-154 -714h-240z" />
    <glyph glyph-name="W" unicode="W" horiz-adv-x="778" 
d="M238 220l67 494h168l73 -494h2l50 494h180l-122 -714h-204l-62 480h-2l-62 -480h-204l-122 714h180l56 -494h2z" />
    <glyph glyph-name="X" unicode="X" horiz-adv-x="536" 
d="M157 362l-157 352h208l59 -207h2l59 207h208l-155 -352l167 -362h-208l-71 215h-2l-71 -215h-208z" />
    <glyph glyph-name="Y" unicode="Y" 
d="M167 0v281l-182 433h204l70 -249h2l70 249h204l-182 -433v-281h-186z" />
    <glyph glyph-name="Z" unicode="Z" horiz-adv-x="481" 
d="M20 0v134l224 428h-209v152h426v-134l-228 -428h228v-152h-441z" />
    <glyph glyph-name="bracketleft" unicode="[" horiz-adv-x="314" 
d="M44 -184v898h270v-126h-102v-646h102v-126h-270z" />
    <glyph glyph-name="backslash" unicode="\" horiz-adv-x="333" 
d="M205 -14l-227 742h150l227 -742h-150z" />
    <glyph glyph-name="bracketright" unicode="]" horiz-adv-x="314" 
d="M102 -58v646h-102v126h270v-898h-270v126h102z" />
    <glyph glyph-name="asciicircum" unicode="^" horiz-adv-x="600" 
d="M47 329l175 365h156l175 -365h-140l-113 239l-113 -239h-140z" />
    <glyph glyph-name="underscore" unicode="_" horiz-adv-x="500" 
d="M0 -125v50h500v-50h-500z" />
    <glyph glyph-name="grave" unicode="`" horiz-adv-x="260" 
d="M97 591l-96 146h168l44 -146h-116z" />
    <glyph glyph-name="a" unicode="a" horiz-adv-x="500" 
d="M232 107q56 0 56 89v65h-2q-5 -7 -13.5 -10t-23 -6.5t-24.5 -8.5q-37 -17 -37 -70q0 -27 12 -43t32 -16zM473 0h-174q-5 13 -11 61h-2q-15 -36 -47.5 -55.5t-74.5 -19.5q-78 0 -114 42.5t-36 116.5q0 76 32.5 115t117.5 59l71 17q29 7 41 20.5t12 38.5q0 50 -46 50
q-27 0 -38.5 -15t-12.5 -57h-156q0 55 20 93.5t53.5 56.5t65.5 25t68 7q104 0 159 -38t55 -136v-264q0 -85 17 -117z" />
    <glyph glyph-name="b" unicode="b" 
d="M219 270q0 -88 10 -119t40 -31q32 0 41.5 30.5t9.5 119.5q0 90 -9.5 120.5t-41.5 30.5q-30 0 -40 -31t-10 -120zM39 0v714h180v-234h2q25 75 113 75q83 0 124.5 -62t41.5 -211q0 -154 -37 -225t-125 -71q-47 0 -76.5 21t-46.5 67h-2v-74h-174z" />
    <glyph glyph-name="c" unicode="c" horiz-adv-x="481" 
d="M467 329h-162q0 61 -12 87q-11 23 -40 23q-31 0 -42 -35t-11 -134t11 -133.5t42 -34.5q26 0 39 20t13 69v35h162q0 -130 -48 -183q-51 -57 -166 -57q-57 0 -96 10.5t-72 39t-49 84.5t-16 141q0 93 18 153.5t53.5 90t74.5 40t96 10.5q113 0 159 -58t46 -168z" />
    <glyph glyph-name="d" unicode="d" 
d="M200 270q0 -89 9.5 -119.5t41.5 -30.5q30 0 40 31t10 119q0 89 -10 120t-40 31q-32 0 -41.5 -30.5t-9.5 -120.5zM301 480v234h180v-714h-174v74h-2q-17 -46 -46.5 -67t-76.5 -21q-88 0 -125 71t-37 225q0 146 43 209.5t123 63.5q88 0 113 -75h2z" />
    <glyph glyph-name="e" unicode="e" horiz-adv-x="481" 
d="M299 338v24q0 44 -11 63.5t-39 19.5q-27 0 -38 -19.5t-11 -63.5v-24h99zM467 240h-267v-71q0 -73 49 -73q26 0 38.5 20.5t12.5 73.5h162q-2 -102 -52.5 -153t-159.5 -51q-128 0 -179 64.5t-51 219.5q0 154 53.5 219.5t176.5 65.5q112 0 164.5 -58.5t52.5 -201.5v-55z" />
    <glyph glyph-name="f" unicode="f" horiz-adv-x="315" 
d="M62 0v420h-62v121h62v39q0 82 37 115t130 33q44 0 86 -6v-113q-9 3 -30 3q-43 0 -43 -38v-33h73v-121h-73v-420h-180z" />
    <glyph glyph-name="g" unicode="g" 
d="M313 466v75h168v-532q0 -193 -226 -193q-63 0 -106 11.5t-73 46.5t-31 94h162q0 -42 45 -42q25 0 40 13t15 54v103h-2q-30 -81 -122 -81q-158 0 -158 267q0 149 42 211t125 62q92 0 119 -89h2zM205 285q0 -81 12 -108.5t40 -27.5q27 0 38.5 27t11.5 109q0 80 -12 108
t-38 28q-27 0 -39.5 -28t-12.5 -108z" />
    <glyph glyph-name="h" unicode="h" 
d="M36 0v714h180v-233h2q40 74 125 74q63 0 102 -34t39 -113v-408h-180v357q0 34 -10 49t-34 15t-34 -15t-10 -49v-357h-180z" />
    <glyph glyph-name="i" unicode="i" horiz-adv-x="258" 
d="M39 580v134h180v-134h-180zM39 0v541h180v-541h-180z" />
    <glyph glyph-name="j" unicode="j" horiz-adv-x="258" 
d="M39 580v134h180v-134h-180zM39 -12v553h180v-576q0 -36 -9 -62.5t-23 -41.5t-36.5 -23.5t-45 -11t-53.5 -2.5q-36 0 -81 5v121q36 0 52 7.5t16 30.5z" />
    <glyph glyph-name="k" unicode="k" horiz-adv-x="500" 
d="M31 0v714h180v-360h2l100 187h192l-150 -223l169 -318h-192l-91 186l-30 -47v-139h-180z" />
    <glyph glyph-name="l" unicode="l" horiz-adv-x="258" 
d="M39 0v714h180v-714h-180z" />
    <glyph glyph-name="m" unicode="m" horiz-adv-x="778" 
d="M299 0v357q0 34 -10 49t-34 15t-34 -15t-10 -49v-357h-180v541h174v-66h2q35 80 131 80q55 0 84.5 -19.5t47.5 -63.5q38 83 136 83q66 0 103.5 -33t37.5 -114v-408h-180v357q0 34 -10 49t-34 15t-34 -15t-10 -49v-357h-180z" />
    <glyph glyph-name="n" unicode="n" 
d="M36 0v541h174v-66h2q35 80 131 80q66 0 103.5 -33t37.5 -114v-408h-180v357q0 34 -10 49t-34 15t-34 -15t-10 -49v-357h-180z" />
    <glyph glyph-name="o" unicode="o" horiz-adv-x="500" 
d="M200 270q0 -102 10 -135t40 -33q31 0 40.5 33t9.5 135q0 103 -9.5 136t-40.5 33q-30 0 -40 -33.5t-10 -135.5zM480 270q0 -48 -4 -84.5t-18.5 -76t-38.5 -65t-67 -42t-102 -16.5q-61 0 -104.5 15.5t-67.5 39t-37.5 63.5t-17 76.5t-3.5 90.5q0 48 4 84.5t18.5 76t38.5 65
t67 42t102 16.5q61 0 104.5 -15.5t67.5 -39t37.5 -63.5t17 -76.5t3.5 -90.5z" />
    <glyph glyph-name="p" unicode="p" 
d="M219 271q0 -89 10 -120t40 -31q32 0 41.5 30.5t9.5 120.5q0 89 -9.5 119.5t-41.5 30.5q-30 0 -40 -31t-10 -119zM39 -176v717h174v-74h2q31 88 123 88q88 0 125 -71t37 -225q0 -148 -43 -210.5t-123 -62.5q-88 0 -113 75h-2v-237h-180z" />
    <glyph glyph-name="q" unicode="q" 
d="M301 271q0 88 -10 119t-40 31q-32 0 -41.5 -30.5t-9.5 -119.5q0 -90 9.5 -120.5t41.5 -30.5q30 0 40 31t10 120zM301 -176v237h-2q-25 -75 -113 -75q-83 0 -124.5 62t-41.5 211q0 154 37 225t125 71q47 0 76.5 -21t46.5 -67h2v74h174v-717h-180z" />
    <glyph glyph-name="r" unicode="r" horiz-adv-x="352" 
d="M31 0v541h174v-86h2q15 48 47.5 74t73.5 26h29v-168q-21 4 -45 4q-50 0 -75.5 -22t-25.5 -74v-295h-180z" />
    <glyph glyph-name="s" unicode="s" horiz-adv-x="463" 
d="M17 168h158q0 -36 13 -53q13 -19 38 -19q22 0 37 12.5t15 33.5q0 26 -27 41.5t-65 27t-76.5 27.5t-65.5 53.5t-27 94.5q0 75 54.5 122t160.5 47q203 0 203 -170h-156q0 34 -11.5 47t-36.5 13q-21 0 -33.5 -11t-12.5 -31q0 -24 27 -38.5t65.5 -24.5t76.5 -25.5t65 -52.5
t27 -95q0 -80 -58.5 -130.5t-158.5 -50.5q-111 0 -161.5 45.5t-50.5 136.5z" />
    <glyph glyph-name="t" unicode="t" horiz-adv-x="315" 
d="M2 420v121h60v159h180v-159h71v-121h-71v-258q0 -42 43 -42h28v-120q-49 -6 -98 -6q-87 0 -120 26t-33 112v288h-60z" />
    <glyph glyph-name="u" unicode="u" 
d="M36 133v408h180v-357q0 -34 10 -49t34 -15t34 15t10 49v357h180v-541h-174v66h-2q-35 -80 -131 -80q-66 0 -103.5 33t-37.5 114z" />
    <glyph glyph-name="v" unicode="v" horiz-adv-x="463" 
d="M125 0l-131 541h186l51 -389h2l50 389h186l-132 -541h-212z" />
    <glyph glyph-name="w" unicode="w" horiz-adv-x="740" 
d="M110 0l-110 541h174l45 -389h2l53 389h192l53 -389h2l45 389h174l-110 -541h-204l-55 383h-2l-55 -383h-204z" />
    <glyph glyph-name="x" unicode="x" horiz-adv-x="481" 
d="M139 279l-137 262h180l54 -145l62 145h180l-136 -262l143 -279h-180l-63 163l-66 -163h-180z" />
    <glyph glyph-name="y" unicode="y" horiz-adv-x="463" 
d="M50 -172v126q17 -4 40 -4q30 0 45 14.5t15 26.5q0 10 -8 40l-143 510h186l55 -365h2l52 365h180l-145 -559q-23 -91 -63 -124.5t-115 -33.5q-60 0 -101 4z" />
    <glyph glyph-name="z" unicode="z" horiz-adv-x="444" 
d="M23 401v140h402v-134l-202 -267h207v-140h-416v140l194 261h-185z" />
    <glyph glyph-name="braceleft" unicode="{" horiz-adv-x="333" 
d="M63 -47v178q0 67 -68 67v134q68 0 68 58v187q0 137 150 137h120v-126h-56q-46 0 -46 -62v-168q0 -83 -108 -92v-2q20 -2 33 -5t33 -12t31 -30.5t11 -53.5v-159q0 -62 46 -62h56v-126h-120q-150 0 -150 137z" />
    <glyph glyph-name="bar" unicode="|" horiz-adv-x="222" 
d="M41 -14v742h140v-742h-140z" />
    <glyph glyph-name="braceright" unicode="}" horiz-adv-x="333" 
d="M0 -184v126h56q46 0 46 62v168q0 83 108 92v2q-20 2 -33 5t-33 12t-31 30.5t-11 53.5v159q0 62 -46 62h-56v126h120q150 0 150 -137v-178q0 -67 68 -67v-134q-68 0 -68 -58v-187q0 -137 -150 -137h-120z" />
    <glyph glyph-name="asciitilde" unicode="~" horiz-adv-x="600" 
d="M105 146l-36 125q39 86 125 86q40 0 114.5 -34t98.5 -34q43 0 88 71l36 -125q-55 -86 -125 -86q-38 0 -104 34t-113 34q-55 0 -84 -71z" />
    <glyph glyph-name="uni00A0" unicode="&#xa0;" horiz-adv-x="260" 
 />
    <glyph glyph-name="exclamdown" unicode="&#xa1;" horiz-adv-x="314" 
d="M70 -170v239l19 268h134l21 -268v-239h-174zM72 386v158h168v-158h-168z" />
    <glyph glyph-name="cent" unicode="&#xa2;" 
d="M229 -102v88q-102 9 -147 73q-45 65 -45 199q0 153 47 218.5t145 78.5v76h80v-76q102 -9 138 -66t36 -160h-162q0 61 -12 87q-11 23 -40 23q-30 0 -41 -35t-11 -134t11 -133.5t41 -34.5q26 0 39 20t13 69v35h162q0 -130 -48 -183q-41 -45 -126 -57v-88h-80z" />
    <glyph glyph-name="sterling" unicode="&#xa3;" 
d="M12 294v104h68q-43 64 -43 126q0 89 60.5 136.5t160.5 47.5q125 0 178.5 -51t55.5 -153h-162v16q0 37 -16 54.5t-41 17.5q-27 0 -41.5 -16.5t-14.5 -41.5q0 -47 49 -136h171v-104h-138q5 -20 5 -30q0 -67 -93 -137l2 -2q18 7 33 7q19 0 54.5 -12.5t53.5 -12.5
q30 0 104 39l50 -112q-67 -48 -161 -48q-31 0 -93 18t-93 18q-46 0 -108 -30l-41 105q112 77 112 168q0 9 -5 29h-107z" />
    <glyph glyph-name="currency" unicode="&#xa4;" 
d="M159 347q0 -53 26 -81t75 -28t75 28t26 81t-26 81t-75 28t-75 -28t-26 -81zM81 97l-72 77l52 51q-36 55 -36 122q0 65 38 126l-54 53l72 71l55 -51q56 36 124 36t124 -36l55 51l72 -71l-54 -53q38 -61 38 -126q0 -67 -36 -122l52 -51l-72 -77l-52 54q-55 -39 -127 -39
t-127 39z" />
    <glyph glyph-name="yen" unicode="&#xa5;" 
d="M170 0v123h-125v104h125v46l-6 17h-119v104h75l-125 300h192l72 -260h2l72 260h192l-125 -300h75v-104h-119l-6 -17v-46h125v-104h-125v-123h-180z" />
    <glyph glyph-name="brokenbar" unicode="&#xa6;" horiz-adv-x="222" 
d="M41 438v290h140v-290h-140zM41 -14v290h140v-290h-140z" />
    <glyph glyph-name="section" unicode="&#xa7;" 
d="M199 270l118 -54q43 31 43 67q0 26 -27 43t-69 32t-58 26q-46 -38 -46 -68q0 -27 39 -46zM473 552h-156q0 60 -53 60q-20 0 -33.5 -11.5t-13.5 -29.5q0 -21 21 -36.5t52.5 -24.5t68 -25t68 -35t52.5 -57t21 -89q0 -89 -72 -144q55 -42 55 -135t-61.5 -136t-165.5 -43
q-218 0 -219 182v16h168q0 -82 50 -82q48 0 48 56q0 28 -21 47t-52.5 29t-68 25t-68 33t-52.5 54.5t-21 88.5q0 43 23.5 84t59.5 60q-29 19 -44.5 51t-15.5 65q0 81 55 127t163 46q212 0 212 -157v-19z" />
    <glyph glyph-name="dieresis" unicode="&#xa8;" horiz-adv-x="260" 
d="M154 594v140h134v-140h-134zM-28 594v140h134v-140h-134z" />
    <glyph glyph-name="copyright" unicode="&#xa9;" horiz-adv-x="800" 
d="M157 357q0 -127 63.5 -194t179.5 -67t179.5 67t63.5 194t-63.5 194t-179.5 67t-179.5 -67t-63.5 -194zM29 357q0 154 108.5 262.5t262.5 108.5t262.5 -108.5t108.5 -262.5t-108.5 -262.5t-262.5 -108.5t-262.5 108.5t-108.5 262.5zM481 299h110q-12 -73 -60.5 -113.5
t-114.5 -40.5q-90 0 -146.5 59t-56.5 148q0 92 54.5 154t142.5 62q69 0 116 -38.5t59 -111.5h-104q-13 58 -71 58q-44 0 -68.5 -31.5t-24.5 -86.5t25.5 -88t70.5 -33q61 0 68 62z" />
    <glyph glyph-name="ordfeminine" unicode="&#xaa;" horiz-adv-x="352" 
d="M203 507v32h-2q-3 -5 -8.5 -7t-15 -4t-15.5 -5q-24 -10 -24 -42q0 -12 7.5 -20t21.5 -8q36 0 36 54zM140 604h-116q0 64 39.5 87t109.5 23q92 0 125 -23t33 -81v-159q0 -48 11 -71h-131q-1 2 -8 38h-2q-9 -22 -30 -33q-21 -12 -48 -12q-113 0 -113 95q0 46 23 66.5
t90 37.5l46 11q19 5 26.5 12.5t7.5 22.5q0 22 -30 22q-17 0 -24.5 -8t-8.5 -28z" />
    <glyph glyph-name="guillemotleft" unicode="&#xab;" horiz-adv-x="444" 
d="M49 179v220l156 104v-158l-84 -56l84 -56v-158zM239 179v220l156 104v-158l-84 -56l84 -56v-158z" />
    <glyph glyph-name="logicalnot" unicode="&#xac;" horiz-adv-x="600" 
d="M413 109v186h-366v140h506v-326h-140z" />
    <glyph glyph-name="uni00AD" unicode="&#xad;" horiz-adv-x="368" 
d="M28 213v152h312v-152h-312z" />
    <glyph glyph-name="registered" unicode="&#xae;" horiz-adv-x="800" 
d="M351 398h49q57 0 57 45q0 42 -57 42h-49v-87zM259 181v378h125q85 0 128 -27.5t43 -95.5q0 -49 -23.5 -74t-51.5 -28l85 -153h-102l-80 143h-32v-143h-92zM157 357q0 -127 63.5 -194t179.5 -67t179.5 67t63.5 194t-63.5 194t-179.5 67t-179.5 -67t-63.5 -194zM29 357
q0 154 108.5 262.5t262.5 108.5t262.5 -108.5t108.5 -262.5t-108.5 -262.5t-262.5 -108.5t-262.5 108.5t-108.5 262.5z" />
    <glyph glyph-name="macron" unicode="&#xaf;" horiz-adv-x="260" 
d="M-28 615v98h316v-98h-316z" />
    <glyph glyph-name="degree" unicode="&#xb0;" horiz-adv-x="400" 
d="M132 548q0 -29 19.5 -48.5t48.5 -19.5t48.5 19.5t19.5 48.5t-19.5 48.5t-48.5 19.5t-48.5 -19.5t-19.5 -48.5zM40 548q0 66 47 113t113 47t113 -47t47 -113t-47 -113t-113 -47t-113 47t-47 113z" />
    <glyph glyph-name="plusminus" unicode="&#xb1;" horiz-adv-x="600" 
d="M47 0v140h506v-140h-506zM230 418v88h140v-88h183v-140h-183v-88h-140v88h-183v140h183z" />
    <glyph glyph-name="twosuperior" unicode="&#xb2;" horiz-adv-x="370" 
d="M147 556h-128q0 82 28 112q34 40 136 40q97 0 132.5 -30.5t35.5 -86.5q0 -65 -58 -118l-71 -65q-26 -26 -30 -36h159v-92h-322q0 98 69 164l80 76q19 18 26 32.5t7 37.5q0 38 -32 38t-32 -58v-14z" />
    <glyph glyph-name="threesuperior" unicode="&#xb3;" horiz-adv-x="370" 
d="M146 582h-122q0 64 38 96q36 30 120 30q92 0 126.5 -28.5t34.5 -89.5q0 -71 -64 -86v-2q75 -11 75 -92q0 -72 -40 -104.5t-129 -32.5q-91 0 -130 30t-39 104h128q0 -22 10 -38q9 -16 27 -16q21 0 27 11t6 44q0 31 -10 42t-34 11h-31v74h18q28 0 40 11.5t12 45.5
q0 36 -30 36q-33 0 -33 -46z" />
    <glyph glyph-name="acute" unicode="&#xb4;" horiz-adv-x="260" 
d="M57 591l44 146h168l-96 -146h-116z" />
    <glyph glyph-name="mu" unicode="&#xb5;" 
d="M36 -176v717h180v-357q0 -34 10 -49t34 -15t34 15t10 49v357h180v-541h-174v66h-2q-34 -80 -77 -80q-9 0 -15 3v-165h-180z" />
    <glyph glyph-name="paragraph" unicode="&#xb6;" horiz-adv-x="666" 
d="M206 -140v470q-69 0 -121 50.5t-52 138.5q0 58 19.5 97.5t57 60t80 29t99.5 8.5h292v-854h-140v744h-95v-744h-140z" />
    <glyph glyph-name="periodcentered" unicode="&#xb7;" horiz-adv-x="260" 
d="M31 274q0 42 28.5 70.5t70.5 28.5t70.5 -28.5t28.5 -70.5t-28.5 -70.5t-70.5 -28.5t-70.5 28.5t-28.5 70.5z" />
    <glyph glyph-name="cedilla" unicode="&#xb8;" horiz-adv-x="260" 
d="M114 0h58l-33 -60q15 5 35 5q38 0 62 -20t24 -59q0 -49 -34.5 -74t-95.5 -25q-62 0 -114 20l22 56q33 -16 68 -16q23 0 36.5 9.5t13.5 24.5q0 32 -41 32q-15 0 -31 -7l-25 21z" />
    <glyph glyph-name="onesuperior" unicode="&#xb9;" horiz-adv-x="333" 
d="M109 280v282h-87v80q56 0 83 14.5t40 51.5h104v-428h-140z" />
    <glyph glyph-name="ordmasculine" unicode="&#xba;" horiz-adv-x="352" 
d="M144 543q0 -53 6.5 -71.5t25.5 -18.5t25.5 18.5t6.5 71.5q0 55 -6 73t-26 18q-19 0 -25.5 -18.5t-6.5 -72.5zM10 543q0 95 35 133t131 38t131 -38t35 -133t-35 -132.5t-131 -37.5t-131 37.5t-35 132.5z" />
    <glyph glyph-name="guillemotright" unicode="&#xbb;" horiz-adv-x="444" 
d="M239 75v158l84 56l-84 56v158l156 -104v-220zM49 75v158l84 56l-84 56v158l156 -104v-220z" />
    <glyph glyph-name="onequarter" unicode="&#xbc;" horiz-adv-x="814" 
d="M97 280v282h-87v80q56 0 83 14.5t40 51.5h104v-428h-140zM146 -31l387 756h110l-387 -756h-110zM456 72v92l146 257h157v-257h40v-92h-40v-72h-122v72h-181zM560 164h77v131h-2z" />
    <glyph glyph-name="onehalf" unicode="&#xbd;" horiz-adv-x="814" 
d="M599 276h-128q0 82 28 112q34 40 136 40q97 0 132.5 -30.5t35.5 -86.5q0 -65 -58 -118l-71 -65q-26 -26 -30 -36h159v-92h-322q0 98 69 164l80 76q19 18 26 32.5t7 37.5q0 38 -32 38t-32 -58v-14zM97 280v282h-87v80q56 0 83 14.5t40 51.5h104v-428h-140zM112 -31
l387 756h110l-387 -756h-110z" />
    <glyph glyph-name="threequarters" unicode="&#xbe;" horiz-adv-x="814" 
d="M145 582h-122q0 64 38 96q36 30 120 30q92 0 126.5 -28.5t34.5 -89.5q0 -71 -64 -86v-2q75 -11 75 -92q0 -72 -40 -104.5t-129 -32.5q-91 0 -130 30t-39 104h128q0 -22 10 -38q9 -16 27 -16q21 0 27 11t6 44q0 31 -10 42t-34 11h-31v74h18q28 0 40 11.5t12 45.5
q0 36 -30 36q-33 0 -33 -46zM183 -31l387 756h110l-387 -756h-110zM456 72v92l146 257h157v-257h40v-92h-40v-72h-122v72h-181zM548 164h77v131h-2z" />
    <glyph glyph-name="questiondown" unicode="&#xbf;" horiz-adv-x="500" 
d="M172 386v158h168v-158h-168zM300 56h168q0 -129 -57 -186q-54 -54 -167 -54q-106 0 -159 52.5t-53 145.5q0 90 47 142l73 83q23 25 23 98h162v-28q0 -58 -9.5 -93t-33.5 -64l-59 -67q-29 -33 -29 -88q0 -65 45 -65q26 0 37.5 24.5t11.5 99.5z" />
    <glyph glyph-name="Agrave" unicode="&#xc0;" horiz-adv-x="556" 
d="M330 265l-51 303h-2l-51 -303h104zM-13 0l174 714h234l174 -714h-198l-19 125h-148l-19 -125h-198zM230 765l-96 146h168l44 -146h-116z" />
    <glyph glyph-name="Aacute" unicode="&#xc1;" horiz-adv-x="556" 
d="M330 265l-51 303h-2l-51 -303h104zM-13 0l174 714h234l174 -714h-198l-19 125h-148l-19 -125h-198zM208 765l44 146h168l-96 -146h-116z" />
    <glyph glyph-name="Acircumflex" unicode="&#xc2;" horiz-adv-x="556" 
d="M330 265l-51 303h-2l-51 -303h104zM-13 0l174 714h234l174 -714h-198l-19 125h-148l-19 -125h-198zM119 765l62 146h192l62 -146h-122l-36 80l-36 -80h-122z" />
    <glyph glyph-name="Atilde" unicode="&#xc3;" horiz-adv-x="556" 
d="M330 265l-51 303h-2l-51 -303h104zM-13 0l174 714h234l174 -714h-198l-19 125h-148l-19 -125h-198zM356 908h86q-8 -71 -35 -105.5t-65 -34.5q-30 0 -70 15t-51 15q-23 0 -23 -30h-86q18 140 98 140q26 0 65 -15q45 -15 54 -15q23 0 27 30z" />
    <glyph glyph-name="Adieresis" unicode="&#xc4;" horiz-adv-x="556" 
d="M330 265l-51 303h-2l-51 -303h104zM-13 0l174 714h234l174 -714h-198l-19 125h-148l-19 -125h-198zM301 768v140h134v-140h-134zM119 768v140h134v-140h-134z" />
    <glyph glyph-name="Aring" unicode="&#xc5;" horiz-adv-x="556" 
d="M330 265l-51 303h-2l-51 -303h104zM-13 0l174 714h234l174 -714h-198l-19 125h-148l-19 -125h-198zM232 844q0 -19 13 -32t32 -13t32 13t13 32t-13 32t-32 13t-32 -13t-13 -32zM166 844q0 46 32.5 77t78.5 31t78.5 -31t32.5 -77t-32.5 -77t-78.5 -31q-48 0 -79.5 30
t-31.5 78z" />
    <glyph glyph-name="AE" unicode="&#xc6;" horiz-adv-x="778" 
d="M-13 0l270 714h494v-152h-212v-122h196v-146h-196v-142h223v-152h-397v119h-144l-36 -119h-198zM264 265h101v323h-2z" />
    <glyph glyph-name="Ccedilla" unicode="&#xc7;" horiz-adv-x="537" 
d="M329 457v40q0 59 -11.5 82t-39.5 23q-41 0 -52 -47.5t-11 -197.5t11 -197.5t52 -47.5q33 0 44.5 36.5t11.5 138.5h180v-53q0 -105 -40.5 -163t-108.5 -74q-32 -8 -69 -10l-25 -47q15 5 35 5q38 0 62 -20t24 -59q0 -49 -34.5 -74t-95.5 -25q-62 0 -114 20l22 56
q33 -16 68 -16q23 0 36.5 9.5t13.5 24.5q0 32 -41 32q-15 0 -31 -7l-25 21l47 81q-52 4 -88 18q-73 31 -100 112.5t-27 238.5q0 206 55.5 288.5t199.5 82.5q231 0 231 -226v-45h-180z" />
    <glyph glyph-name="Egrave" unicode="&#xc8;" horiz-adv-x="500" 
d="M44 0v714h423v-152h-237v-122h222v-146h-222v-142h246v-152h-432zM233 765l-96 146h168l44 -146h-116z" />
    <glyph glyph-name="Eacute" unicode="&#xc9;" horiz-adv-x="500" 
d="M44 0v714h423v-152h-237v-122h222v-146h-222v-142h246v-152h-432zM193 765l44 146h168l-96 -146h-116z" />
    <glyph glyph-name="Ecircumflex" unicode="&#xca;" horiz-adv-x="500" 
d="M44 0v714h423v-152h-237v-122h222v-146h-222v-142h246v-152h-432zM98 765l62 146h192l62 -146h-122l-36 80l-36 -80h-122z" />
    <glyph glyph-name="Edieresis" unicode="&#xcb;" horiz-adv-x="500" 
d="M44 0v714h423v-152h-237v-122h222v-146h-222v-142h246v-152h-432zM279 768v140h134v-140h-134zM97 768v140h134v-140h-134z" />
    <glyph glyph-name="Igrave" unicode="&#xcc;" horiz-adv-x="260" 
d="M37 0v714h186v-714h-186zM105 765l-96 146h168l44 -146h-116z" />
    <glyph glyph-name="Iacute" unicode="&#xcd;" horiz-adv-x="260" 
d="M37 0v714h186v-714h-186zM39 765l44 146h168l-96 -146h-116z" />
    <glyph glyph-name="Icircumflex" unicode="&#xce;" horiz-adv-x="260" 
d="M37 0v714h186v-714h-186zM-28 765l62 146h192l62 -146h-122l-36 80l-36 -80h-122z" />
    <glyph glyph-name="Idieresis" unicode="&#xcf;" horiz-adv-x="260" 
d="M37 0v714h186v-714h-186zM155 768v140h134v-140h-134zM-27 768v140h134v-140h-134z" />
    <glyph glyph-name="Eth" unicode="&#xd0;" horiz-adv-x="574" 
d="M230 434h52v-126h-52v-174h37q54 0 67.5 38.5t13.5 184.5t-13.5 184.5t-67.5 38.5h-37v-146zM44 0v308h-53v126h53v280h270q45 0 80 -10.5t58.5 -27t40.5 -45t26 -55t14 -67.5t6 -73t1 -79t-1 -79t-6 -73t-14 -67.5t-26 -55t-40.5 -45t-58.5 -27t-80 -10.5h-270z" />
    <glyph glyph-name="Ntilde" unicode="&#xd1;" horiz-adv-x="592" 
d="M44 0v714h208l120 -440h2v440h174v-714h-204l-124 441h-2v-441h-174zM378 908h86q-8 -71 -35 -105.5t-65 -34.5q-30 0 -70 15t-51 15q-23 0 -23 -30h-86q18 140 98 140q26 0 65 -15q45 -15 54 -15q23 0 27 30z" />
    <glyph glyph-name="Ograve" unicode="&#xd2;" horiz-adv-x="556" 
d="M215 357q0 -150 11 -197.5t52 -47.5t52 47.5t11 197.5t-11 197.5t-52 47.5t-52 -47.5t-11 -197.5zM23 357q0 202 57 286.5t198 84.5t198 -84.5t57 -286.5t-57 -286.5t-198 -84.5t-198 84.5t-57 286.5zM231 765l-96 146h168l44 -146h-116z" />
    <glyph glyph-name="Oacute" unicode="&#xd3;" horiz-adv-x="556" 
d="M215 357q0 -150 11 -197.5t52 -47.5t52 47.5t11 197.5t-11 197.5t-52 47.5t-52 -47.5t-11 -197.5zM23 357q0 202 57 286.5t198 84.5t198 -84.5t57 -286.5t-57 -286.5t-198 -84.5t-198 84.5t-57 286.5zM218 765l44 146h168l-96 -146h-116z" />
    <glyph glyph-name="Ocircumflex" unicode="&#xd4;" horiz-adv-x="556" 
d="M215 357q0 -150 11 -197.5t52 -47.5t52 47.5t11 197.5t-11 197.5t-52 47.5t-52 -47.5t-11 -197.5zM23 357q0 202 57 286.5t198 84.5t198 -84.5t57 -286.5t-57 -286.5t-198 -84.5t-198 84.5t-57 286.5zM121 765l62 146h192l62 -146h-122l-36 80l-36 -80h-122z" />
    <glyph glyph-name="Otilde" unicode="&#xd5;" horiz-adv-x="556" 
d="M215 357q0 -150 11 -197.5t52 -47.5t52 47.5t11 197.5t-11 197.5t-52 47.5t-52 -47.5t-11 -197.5zM23 357q0 202 57 286.5t198 84.5t198 -84.5t57 -286.5t-57 -286.5t-198 -84.5t-198 84.5t-57 286.5zM356 908h86q-8 -71 -35 -105.5t-65 -34.5q-30 0 -70 15t-51 15
q-23 0 -23 -30h-86q18 140 98 140q26 0 65 -15q45 -15 54 -15q23 0 27 30z" />
    <glyph glyph-name="Odieresis" unicode="&#xd6;" horiz-adv-x="556" 
d="M215 357q0 -150 11 -197.5t52 -47.5t52 47.5t11 197.5t-11 197.5t-52 47.5t-52 -47.5t-11 -197.5zM23 357q0 202 57 286.5t198 84.5t198 -84.5t57 -286.5t-57 -286.5t-198 -84.5t-198 84.5t-57 286.5zM302 768v140h134v-140h-134zM120 768v140h134v-140h-134z" />
    <glyph glyph-name="multiply" unicode="&#xd7;" horiz-adv-x="600" 
d="M201 253l-143 143l99 99l143 -143l143 143l99 -99l-143 -143l143 -143l-99 -99l-143 143l-143 -143l-99 99z" />
    <glyph glyph-name="Oslash" unicode="&#xd8;" horiz-adv-x="556" 
d="M87 -33l27 68q-49 39 -70 116t-21 206q0 202 57 286.5t198 84.5q57 0 104 -14l23 58l64 -25l-26 -66q48 -41 69 -118.5t21 -205.5q0 -202 -57 -286.5t-198 -84.5q-57 0 -104 14l-23 -58zM339 421l-108 -275q12 -34 47 -34q41 0 52 47.5t11 197.5v64h-2zM217 293l108 276
q-12 33 -47 33q-41 0 -52 -47.5t-11 -197.5v-64h2z" />
    <glyph glyph-name="Ugrave" unicode="&#xd9;" horiz-adv-x="556" 
d="M36 714h186v-515q0 -49 14 -68t42 -19t42 19t14 68v515h186v-468q0 -144 -59.5 -202t-182.5 -58t-182.5 58t-59.5 202v468zM242 765l-96 146h168l44 -146h-116z" />
    <glyph glyph-name="Uacute" unicode="&#xda;" horiz-adv-x="556" 
d="M36 714h186v-515q0 -49 14 -68t42 -19t42 19t14 68v515h186v-468q0 -144 -59.5 -202t-182.5 -58t-182.5 58t-59.5 202v468zM219 765l44 146h168l-96 -146h-116z" />
    <glyph glyph-name="Ucircumflex" unicode="&#xdb;" horiz-adv-x="556" 
d="M36 714h186v-515q0 -49 14 -68t42 -19t42 19t14 68v515h186v-468q0 -144 -59.5 -202t-182.5 -58t-182.5 58t-59.5 202v468zM121 765l62 146h192l62 -146h-122l-36 80l-36 -80h-122z" />
    <glyph glyph-name="Udieresis" unicode="&#xdc;" horiz-adv-x="556" 
d="M36 714h186v-515q0 -49 14 -68t42 -19t42 19t14 68v515h186v-468q0 -144 -59.5 -202t-182.5 -58t-182.5 58t-59.5 202v468zM302 768v140h134v-140h-134zM120 768v140h134v-140h-134z" />
    <glyph glyph-name="Yacute" unicode="&#xdd;" 
d="M167 0v281l-182 433h204l70 -249h2l70 249h204l-182 -433v-281h-186zM200 765l44 146h168l-96 -146h-116z" />
    <glyph glyph-name="Thorn" unicode="&#xde;" horiz-adv-x="537" 
d="M223 460v-174h35q72 0 72 87t-72 87h-35zM37 0v714h186v-120h93q102 0 154 -61t52 -159q0 -110 -59.5 -166t-174.5 -56h-65v-152h-186z" />
    <glyph glyph-name="germandbls" unicode="&#xdf;" 
d="M205 0h-174v510q0 119 58 168.5t179 49.5q218 0 218 -188q0 -53 -23.5 -91.5t-68.5 -44.5v-2q106 -16 106 -181q0 -123 -42 -175t-144 -52q-43 0 -72 6v121q16 -6 25 -6q29 0 41 25t12 97q0 53 -13 75t-43 22h-20v121h15q47 0 47 72q0 80 -52 80q-49 0 -49 -74v-533z" />
    <glyph glyph-name="agrave" unicode="&#xe0;" horiz-adv-x="500" 
d="M232 107q56 0 56 89v65h-2q-5 -7 -13.5 -10t-23 -6.5t-24.5 -8.5q-37 -17 -37 -70q0 -27 12 -43t32 -16zM473 0h-174q-5 13 -11 61h-2q-15 -36 -47.5 -55.5t-74.5 -19.5q-78 0 -114 42.5t-36 116.5q0 76 32.5 115t117.5 59l71 17q29 7 41 20.5t12 38.5q0 50 -46 50
q-27 0 -38.5 -15t-12.5 -57h-156q0 55 20 93.5t53.5 56.5t65.5 25t68 7q104 0 159 -38t55 -136v-264q0 -85 17 -117zM220 591l-96 146h168l44 -146h-116z" />
    <glyph glyph-name="aacute" unicode="&#xe1;" horiz-adv-x="500" 
d="M232 107q56 0 56 89v65h-2q-5 -7 -13.5 -10t-23 -6.5t-24.5 -8.5q-37 -17 -37 -70q0 -27 12 -43t32 -16zM473 0h-174q-5 13 -11 61h-2q-15 -36 -47.5 -55.5t-74.5 -19.5q-78 0 -114 42.5t-36 116.5q0 76 32.5 115t117.5 59l71 17q29 7 41 20.5t12 38.5q0 50 -46 50
q-27 0 -38.5 -15t-12.5 -57h-156q0 55 20 93.5t53.5 56.5t65.5 25t68 7q104 0 159 -38t55 -136v-264q0 -85 17 -117zM179 591l44 146h168l-96 -146h-116z" />
    <glyph glyph-name="acircumflex" unicode="&#xe2;" horiz-adv-x="500" 
d="M232 107q56 0 56 89v65h-2q-5 -7 -13.5 -10t-23 -6.5t-24.5 -8.5q-37 -17 -37 -70q0 -27 12 -43t32 -16zM473 0h-174q-5 13 -11 61h-2q-15 -36 -47.5 -55.5t-74.5 -19.5q-78 0 -114 42.5t-36 116.5q0 76 32.5 115t117.5 59l71 17q29 7 41 20.5t12 38.5q0 50 -46 50
q-27 0 -38.5 -15t-12.5 -57h-156q0 55 20 93.5t53.5 56.5t65.5 25t68 7q104 0 159 -38t55 -136v-264q0 -85 17 -117zM92 591l62 146h192l62 -146h-122l-36 80l-36 -80h-122z" />
    <glyph glyph-name="atilde" unicode="&#xe3;" horiz-adv-x="500" 
d="M232 107q56 0 56 89v65h-2q-5 -7 -13.5 -10t-23 -6.5t-24.5 -8.5q-37 -17 -37 -70q0 -27 12 -43t32 -16zM473 0h-174q-5 13 -11 61h-2q-15 -36 -47.5 -55.5t-74.5 -19.5q-78 0 -114 42.5t-36 116.5q0 76 32.5 115t117.5 59l71 17q29 7 41 20.5t12 38.5q0 50 -46 50
q-27 0 -38.5 -15t-12.5 -57h-156q0 55 20 93.5t53.5 56.5t65.5 25t68 7q104 0 159 -38t55 -136v-264q0 -85 17 -117zM327 734h86q-8 -71 -35 -105.5t-65 -34.5q-30 0 -70 15t-51 15q-23 0 -23 -30h-86q18 140 98 140q26 0 65 -15q45 -15 54 -15q23 0 27 30z" />
    <glyph glyph-name="adieresis" unicode="&#xe4;" horiz-adv-x="500" 
d="M232 107q56 0 56 89v65h-2q-5 -7 -13.5 -10t-23 -6.5t-24.5 -8.5q-37 -17 -37 -70q0 -27 12 -43t32 -16zM473 0h-174q-5 13 -11 61h-2q-15 -36 -47.5 -55.5t-74.5 -19.5q-78 0 -114 42.5t-36 116.5q0 76 32.5 115t117.5 59l71 17q29 7 41 20.5t12 38.5q0 50 -46 50
q-27 0 -38.5 -15t-12.5 -57h-156q0 55 20 93.5t53.5 56.5t65.5 25t68 7q104 0 159 -38t55 -136v-264q0 -85 17 -117zM273 594v140h134v-140h-134zM91 594v140h134v-140h-134z" />
    <glyph glyph-name="aring" unicode="&#xe5;" horiz-adv-x="500" 
d="M232 107q56 0 56 89v65h-2q-5 -7 -13.5 -10t-23 -6.5t-24.5 -8.5q-37 -17 -37 -70q0 -27 12 -43t32 -16zM473 0h-174q-5 13 -11 61h-2q-15 -36 -47.5 -55.5t-74.5 -19.5q-78 0 -114 42.5t-36 116.5q0 76 32.5 115t117.5 59l71 17q29 7 41 20.5t12 38.5q0 50 -46 50
q-27 0 -38.5 -15t-12.5 -57h-156q0 55 20 93.5t53.5 56.5t65.5 25t68 7q104 0 159 -38t55 -136v-264q0 -85 17 -117zM203 690q0 -19 13 -32t32 -13t32 13t13 32t-13 32t-32 13t-32 -13t-13 -32zM137 690q0 46 32.5 77t78.5 31t78.5 -31t32.5 -77t-32.5 -77t-78.5 -31
q-48 0 -79.5 30t-31.5 78z" />
    <glyph glyph-name="ae" unicode="&#xe6;" horiz-adv-x="740" 
d="M293 196v65h-2q-4 -7 -12.5 -10t-23 -7t-24.5 -8q-37 -17 -37 -70q0 -27 12 -43t32 -16q55 0 55 89zM197 373h-156q0 56 17.5 94t49 56t64.5 25t76 7q38 0 76.5 -15.5t63.5 -44.5q23 32 55.5 46t85.5 14q104 0 151 -58.5t47 -201.5v-55h-266v-71q0 -73 48 -73
q26 0 38 20.5t12 73.5h162q-2 -103 -50 -151q-53 -53 -149 -53q-84 0 -124 21.5t-64 70.5q-27 -52 -65.5 -72t-98.5 -20q-78 0 -114 42.5t-36 116.5q0 76 32.5 115t117.5 59l71 17q29 7 40.5 20.5t11.5 38.5q0 50 -45 50q-27 0 -38.5 -15t-12.5 -57zM559 338v24
q0 44 -11 63.5t-39 19.5q-26 0 -37 -19.5t-11 -63.5v-24h98z" />
    <glyph glyph-name="ccedilla" unicode="&#xe7;" horiz-adv-x="481" 
d="M467 329h-162q0 61 -12 87q-11 23 -40 23q-31 0 -42 -35t-11 -134t11 -133.5t42 -34.5q26 0 39 20t13 69v35h162q0 -130 -48 -183q-46 -51 -149 -56l-25 -47q15 5 35 5q38 0 62 -20t24 -59q0 -49 -34.5 -74t-95.5 -25q-62 0 -114 20l22 56q33 -16 68 -16q23 0 36.5 9.5
t13.5 24.5q0 32 -41 32q-15 0 -31 -7l-25 21l47 81q-26 1 -54 8q-138 32 -138 265q0 93 18 153.5t53.5 90t74.5 40t96 10.5q113 0 159 -58t46 -168z" />
    <glyph glyph-name="egrave" unicode="&#xe8;" horiz-adv-x="481" 
d="M299 338v24q0 44 -11 63.5t-39 19.5q-27 0 -38 -19.5t-11 -63.5v-24h99zM467 240h-267v-71q0 -73 49 -73q26 0 38.5 20.5t12.5 73.5h162q-2 -102 -52.5 -153t-159.5 -51q-128 0 -179 64.5t-51 219.5q0 154 53.5 219.5t176.5 65.5q112 0 164.5 -58.5t52.5 -201.5v-55z
M207 591l-96 146h168l44 -146h-116z" />
    <glyph glyph-name="eacute" unicode="&#xe9;" horiz-adv-x="481" 
d="M299 338v24q0 44 -11 63.5t-39 19.5q-27 0 -38 -19.5t-11 -63.5v-24h99zM467 240h-267v-71q0 -73 49 -73q26 0 38.5 20.5t12.5 73.5h162q-2 -102 -52.5 -153t-159.5 -51q-128 0 -179 64.5t-51 219.5q0 154 53.5 219.5t176.5 65.5q112 0 164.5 -58.5t52.5 -201.5v-55z
M192 591l44 146h168l-96 -146h-116z" />
    <glyph glyph-name="ecircumflex" unicode="&#xea;" horiz-adv-x="481" 
d="M299 338v24q0 44 -11 63.5t-39 19.5q-27 0 -38 -19.5t-11 -63.5v-24h99zM467 240h-267v-71q0 -73 49 -73q26 0 38.5 20.5t12.5 73.5h162q-2 -102 -52.5 -153t-159.5 -51q-128 0 -179 64.5t-51 219.5q0 154 53.5 219.5t176.5 65.5q112 0 164.5 -58.5t52.5 -201.5v-55z
M94 591l62 146h192l62 -146h-122l-36 80l-36 -80h-122z" />
    <glyph glyph-name="edieresis" unicode="&#xeb;" horiz-adv-x="481" 
d="M299 338v24q0 44 -11 63.5t-39 19.5q-27 0 -38 -19.5t-11 -63.5v-24h99zM467 240h-267v-71q0 -73 49 -73q26 0 38.5 20.5t12.5 73.5h162q-2 -102 -52.5 -153t-159.5 -51q-128 0 -179 64.5t-51 219.5q0 154 53.5 219.5t176.5 65.5q112 0 164.5 -58.5t52.5 -201.5v-55z
M276 594v140h134v-140h-134zM94 594v140h134v-140h-134z" />
    <glyph glyph-name="igrave" unicode="&#xec;" horiz-adv-x="258" 
d="M39 0v541h180v-541h-180zM100 591l-96 146h168l44 -146h-116z" />
    <glyph glyph-name="iacute" unicode="&#xed;" horiz-adv-x="258" 
d="M39 0v541h180v-541h-180zM39 591l44 146h168l-96 -146h-116z" />
    <glyph glyph-name="icircumflex" unicode="&#xee;" horiz-adv-x="258" 
d="M39 0v541h180v-541h-180zM-27 591l62 146h192l62 -146h-122l-36 80l-36 -80h-122z" />
    <glyph glyph-name="idieresis" unicode="&#xef;" horiz-adv-x="258" 
d="M39 0v541h180v-541h-180zM153 594v140h134v-140h-134zM-29 594v140h134v-140h-134z" />
    <glyph glyph-name="eth" unicode="&#xf0;" horiz-adv-x="500" 
d="M65 633l71 38q-29 29 -50 47l109 82q45 -36 69 -60l80 43l44 -69l-65 -35q157 -177 157 -393q0 -56 -4.5 -96t-18.5 -81t-38.5 -66t-67 -41t-101.5 -16q-128 0 -179 62t-51 210t47.5 210t122.5 62q44 0 82 -25l2 2q-20 37 -79 102l-84 -45zM200 270q0 -102 10 -135
t40 -33q31 0 40.5 33t9.5 135q0 85 -10 114.5t-40 29.5t-40 -30t-10 -114z" />
    <glyph glyph-name="ntilde" unicode="&#xf1;" 
d="M36 0v541h174v-66h2q35 80 131 80q66 0 103.5 -33t37.5 -114v-408h-180v357q0 34 -10 49t-34 15t-34 -15t-10 -49v-357h-180zM332 734h86q-8 -71 -35 -105.5t-65 -34.5q-30 0 -70 15t-51 15q-23 0 -23 -30h-86q18 140 98 140q26 0 65 -15q45 -15 54 -15q23 0 27 30z" />
    <glyph glyph-name="ograve" unicode="&#xf2;" horiz-adv-x="500" 
d="M200 270q0 -102 10 -135t40 -33q31 0 40.5 33t9.5 135q0 103 -9.5 136t-40.5 33q-30 0 -40 -33.5t-10 -135.5zM480 270q0 -48 -4 -84.5t-18.5 -76t-38.5 -65t-67 -42t-102 -16.5q-61 0 -104.5 15.5t-67.5 39t-37.5 63.5t-17 76.5t-3.5 90.5q0 48 4 84.5t18.5 76t38.5 65
t67 42t102 16.5q61 0 104.5 -15.5t67.5 -39t37.5 -63.5t17 -76.5t3.5 -90.5zM210 591l-96 146h168l44 -146h-116z" />
    <glyph glyph-name="oacute" unicode="&#xf3;" horiz-adv-x="500" 
d="M200 270q0 -102 10 -135t40 -33q31 0 40.5 33t9.5 135q0 103 -9.5 136t-40.5 33q-30 0 -40 -33.5t-10 -135.5zM480 270q0 -48 -4 -84.5t-18.5 -76t-38.5 -65t-67 -42t-102 -16.5q-61 0 -104.5 15.5t-67.5 39t-37.5 63.5t-17 76.5t-3.5 90.5q0 48 4 84.5t18.5 76t38.5 65
t67 42t102 16.5q61 0 104.5 -15.5t67.5 -39t37.5 -63.5t17 -76.5t3.5 -90.5zM193 591l44 146h168l-96 -146h-116z" />
    <glyph glyph-name="ocircumflex" unicode="&#xf4;" horiz-adv-x="500" 
d="M200 270q0 -102 10 -135t40 -33q31 0 40.5 33t9.5 135q0 103 -9.5 136t-40.5 33q-30 0 -40 -33.5t-10 -135.5zM480 270q0 -48 -4 -84.5t-18.5 -76t-38.5 -65t-67 -42t-102 -16.5q-61 0 -104.5 15.5t-67.5 39t-37.5 63.5t-17 76.5t-3.5 90.5q0 48 4 84.5t18.5 76t38.5 65
t67 42t102 16.5q61 0 104.5 -15.5t67.5 -39t37.5 -63.5t17 -76.5t3.5 -90.5zM93 591l62 146h192l62 -146h-122l-36 80l-36 -80h-122z" />
    <glyph glyph-name="otilde" unicode="&#xf5;" horiz-adv-x="500" 
d="M200 270q0 -102 10 -135t40 -33q31 0 40.5 33t9.5 135q0 103 -9.5 136t-40.5 33q-30 0 -40 -33.5t-10 -135.5zM480 270q0 -48 -4 -84.5t-18.5 -76t-38.5 -65t-67 -42t-102 -16.5q-61 0 -104.5 15.5t-67.5 39t-37.5 63.5t-17 76.5t-3.5 90.5q0 48 4 84.5t18.5 76t38.5 65
t67 42t102 16.5q61 0 104.5 -15.5t67.5 -39t37.5 -63.5t17 -76.5t3.5 -90.5zM330 734h86q-8 -71 -35 -105.5t-65 -34.5q-30 0 -70 15t-51 15q-23 0 -23 -30h-86q18 140 98 140q26 0 65 -15q45 -15 54 -15q23 0 27 30z" />
    <glyph glyph-name="odieresis" unicode="&#xf6;" horiz-adv-x="500" 
d="M200 270q0 -102 10 -135t40 -33q31 0 40.5 33t9.5 135q0 103 -9.5 136t-40.5 33q-30 0 -40 -33.5t-10 -135.5zM480 270q0 -48 -4 -84.5t-18.5 -76t-38.5 -65t-67 -42t-102 -16.5q-61 0 -104.5 15.5t-67.5 39t-37.5 63.5t-17 76.5t-3.5 90.5q0 48 4 84.5t18.5 76t38.5 65
t67 42t102 16.5q61 0 104.5 -15.5t67.5 -39t37.5 -63.5t17 -76.5t3.5 -90.5zM275 594v140h134v-140h-134zM93 594v140h134v-140h-134z" />
    <glyph glyph-name="divide" unicode="&#xf7;" horiz-adv-x="600" 
d="M201 41q0 42 28.5 70.5t70.5 28.5t70.5 -28.5t28.5 -70.5t-28.5 -70.5t-70.5 -28.5t-70.5 28.5t-28.5 70.5zM201 465q0 42 28.5 70.5t70.5 28.5t70.5 -28.5t28.5 -70.5t-28.5 -70.5t-70.5 -28.5t-70.5 28.5t-28.5 70.5zM47 183v140h506v-140h-506z" />
    <glyph glyph-name="oslash" unicode="&#xf8;" horiz-adv-x="500" 
d="M35 -26l41 70q-33 35 -44.5 90.5t-11.5 136.5q0 48 4 84.5t18.5 76t38.5 65t67 42t102 16.5q70 0 119 -20l40 68l56 -36l-42 -70q57 -59 57 -227q0 -48 -4 -84.5t-18.5 -76t-38.5 -65t-67 -42t-102 -16.5q-77 0 -119 21l-42 -69zM201 252l90 152q-10 35 -41 35
q-30 0 -40 -33.5t-10 -135.5v-10q0 -6 1 -8zM298 290l-88 -151q9 -37 40 -37t40.5 33t9.5 135v20h-2z" />
    <glyph glyph-name="ugrave" unicode="&#xf9;" 
d="M36 133v408h180v-357q0 -34 10 -49t34 -15t34 15t10 49v357h180v-541h-174v66h-2q-35 -80 -131 -80q-66 0 -103.5 33t-37.5 114zM223 591l-96 146h168l44 -146h-116z" />
    <glyph glyph-name="uacute" unicode="&#xfa;" 
d="M36 133v408h180v-357q0 -34 10 -49t34 -15t34 15t10 49v357h180v-541h-174v66h-2q-35 -80 -131 -80q-66 0 -103.5 33t-37.5 114zM197 591l44 146h168l-96 -146h-116z" />
    <glyph glyph-name="ucircumflex" unicode="&#xfb;" 
d="M36 133v408h180v-357q0 -34 10 -49t34 -15t34 15t10 49v357h180v-541h-174v66h-2q-35 -80 -131 -80q-66 0 -103.5 33t-37.5 114zM101 591l62 146h192l62 -146h-122l-36 80l-36 -80h-122z" />
    <glyph glyph-name="udieresis" unicode="&#xfc;" 
d="M36 133v408h180v-357q0 -34 10 -49t34 -15t34 15t10 49v357h180v-541h-174v66h-2q-35 -80 -131 -80q-66 0 -103.5 33t-37.5 114zM283 594v140h134v-140h-134zM101 594v140h134v-140h-134z" />
    <glyph glyph-name="yacute" unicode="&#xfd;" horiz-adv-x="463" 
d="M50 -172v126q17 -4 40 -4q30 0 45 14.5t15 26.5q0 10 -8 40l-143 510h186l55 -365h2l52 365h180l-145 -559q-23 -91 -63 -124.5t-115 -33.5q-60 0 -101 4zM180 591l44 146h168l-96 -146h-116z" />
    <glyph glyph-name="thorn" unicode="&#xfe;" 
d="M219 271q0 -89 10 -120t40 -31q32 0 41.5 30.5t9.5 120.5q0 89 -9.5 119.5t-41.5 30.5q-30 0 -40 -31t-10 -119zM39 -176v890h180v-247h2q16 46 45 67q28 21 72 21q88 0 125 -71t37 -225q0 -149 -41.5 -211t-124.5 -62q-88 0 -113 75h-2v-237h-180z" />
    <glyph glyph-name="ydieresis" unicode="&#xff;" horiz-adv-x="463" 
d="M50 -172v126q17 -4 40 -4q30 0 45 14.5t15 26.5q0 10 -8 40l-143 510h186l55 -365h2l52 365h180l-145 -559q-23 -91 -63 -124.5t-115 -33.5q-60 0 -101 4zM265 594v140h134v-140h-134zM83 594v140h134v-140h-134z" />
    <glyph glyph-name="Amacron" unicode="&#x100;" horiz-adv-x="556" 
d="M330 265l-51 303h-2l-51 -303h104zM-13 0l174 714h234l174 -714h-198l-19 125h-148l-19 -125h-198zM120 789v98h316v-98h-316z" />
    <glyph glyph-name="amacron" unicode="&#x101;" horiz-adv-x="500" 
d="M232 107q56 0 56 89v65h-2q-5 -7 -13.5 -10t-23 -6.5t-24.5 -8.5q-37 -17 -37 -70q0 -27 12 -43t32 -16zM473 0h-174q-5 13 -11 61h-2q-15 -36 -47.5 -55.5t-74.5 -19.5q-78 0 -114 42.5t-36 116.5q0 76 32.5 115t117.5 59l71 17q29 7 41 20.5t12 38.5q0 50 -46 50
q-27 0 -38.5 -15t-12.5 -57h-156q0 55 20 93.5t53.5 56.5t65.5 25t68 7q104 0 159 -38t55 -136v-264q0 -85 17 -117zM90 615v98h316v-98h-316z" />
    <glyph glyph-name="Abreve" unicode="&#x102;" horiz-adv-x="556" 
d="M330 265l-51 303h-2l-51 -303h104zM-13 0l174 714h234l174 -714h-198l-19 125h-148l-19 -125h-198zM126 911h80q5 -66 71 -66t71 66h80q-5 -69 -43 -107.5t-108 -38.5t-108 38.5t-43 107.5z" />
    <glyph glyph-name="abreve" unicode="&#x103;" horiz-adv-x="500" 
d="M232 107q56 0 56 89v65h-2q-5 -7 -13.5 -10t-23 -6.5t-24.5 -8.5q-37 -17 -37 -70q0 -27 12 -43t32 -16zM473 0h-174q-5 13 -11 61h-2q-15 -36 -47.5 -55.5t-74.5 -19.5q-78 0 -114 42.5t-36 116.5q0 76 32.5 115t117.5 59l71 17q29 7 41 20.5t12 38.5q0 50 -46 50
q-27 0 -38.5 -15t-12.5 -57h-156q0 55 20 93.5t53.5 56.5t65.5 25t68 7q104 0 159 -38t55 -136v-264q0 -85 17 -117zM103 737h80q5 -66 71 -66t71 66h80q-5 -69 -43 -107.5t-108 -38.5t-108 38.5t-43 107.5z" />
    <glyph glyph-name="Aogonek" unicode="&#x104;" horiz-adv-x="556" 
d="M461 -137l39 -40q-35 -32 -65.5 -44t-78.5 -12q-46 0 -72 24t-26 61q0 42 25.5 75t87.5 73l-19 125h-148l-19 -125h-198l174 714h234l174 -714h-121q-59 -56 -74 -83q-12 -24 -12 -46q0 -17 10 -27t25 -10q27 0 64 29zM330 265l-51 303h-2l-51 -303h104z" />
    <glyph glyph-name="aogonek" unicode="&#x105;" horiz-adv-x="500" 
d="M299 0q-5 13 -11 61h-2q-15 -36 -47.5 -55.5t-74.5 -19.5q-78 0 -114 42.5t-36 116.5q0 76 32.5 115t117.5 59l71 17q29 7 41 20.5t12 38.5q0 50 -46 50q-27 0 -38.5 -15t-12.5 -57h-156q0 55 20 93.5t53.5 56.5t65.5 25t68 7q104 0 159 -38t55 -136v-264q0 -85 17 -117
h-105q-45 -57 -58 -84q-11 -27 -11 -47q0 -36 31 -36q24 0 60 28l36 -41q-34 -29 -62 -41t-71 -12q-40 0 -64 24t-24 59q0 38 22 71.5t72 78.5zM232 107q56 0 56 89v65h-2q-5 -7 -13.5 -10t-23 -6.5t-24.5 -8.5q-37 -17 -37 -70q0 -27 12 -43t32 -16z" />
    <glyph glyph-name="Cacute" unicode="&#x106;" horiz-adv-x="537" 
d="M329 457v40q0 59 -11.5 82t-39.5 23q-41 0 -52 -47.5t-11 -197.5t11 -197.5t52 -47.5q33 0 44.5 36.5t11.5 138.5h180v-53q0 -248 -236 -248q-79 0 -128.5 19.5t-77.5 66.5t-38.5 113.5t-10.5 171.5q0 206 55.5 288.5t199.5 82.5q231 0 231 -226v-45h-180zM217 765
l44 146h168l-96 -146h-116z" />
    <glyph glyph-name="cacute" unicode="&#x107;" horiz-adv-x="481" 
d="M467 329h-162q0 61 -12 87q-11 23 -40 23q-31 0 -42 -35t-11 -134t11 -133.5t42 -34.5q26 0 39 20t13 69v35h162q0 -130 -48 -183q-51 -57 -166 -57q-57 0 -96 10.5t-72 39t-49 84.5t-16 141q0 93 18 153.5t53.5 90t74.5 40t96 10.5q113 0 159 -58t46 -168zM200 591
l44 146h168l-96 -146h-116z" />
    <glyph glyph-name="Ccircumflex" unicode="&#x108;" horiz-adv-x="537" 
d="M329 457v40q0 59 -11.5 82t-39.5 23q-41 0 -52 -47.5t-11 -197.5t11 -197.5t52 -47.5q33 0 44.5 36.5t11.5 138.5h180v-53q0 -248 -236 -248q-79 0 -128.5 19.5t-77.5 66.5t-38.5 113.5t-10.5 171.5q0 206 55.5 288.5t199.5 82.5q231 0 231 -226v-45h-180zM119 765
l62 146h192l62 -146h-122l-36 80l-36 -80h-122z" />
    <glyph glyph-name="ccircumflex" unicode="&#x109;" horiz-adv-x="481" 
d="M467 329h-162q0 61 -12 87q-11 23 -40 23q-31 0 -42 -35t-11 -134t11 -133.5t42 -34.5q26 0 39 20t13 69v35h162q0 -130 -48 -183q-51 -57 -166 -57q-57 0 -96 10.5t-72 39t-49 84.5t-16 141q0 93 18 153.5t53.5 90t74.5 40t96 10.5q113 0 159 -58t46 -168zM99 591
l62 146h192l62 -146h-122l-36 80l-36 -80h-122z" />
    <glyph glyph-name="Cdotaccent" unicode="&#x10a;" horiz-adv-x="537" 
d="M329 457v40q0 59 -11.5 82t-39.5 23q-41 0 -52 -47.5t-11 -197.5t11 -197.5t52 -47.5q33 0 44.5 36.5t11.5 138.5h180v-53q0 -248 -236 -248q-79 0 -128.5 19.5t-77.5 66.5t-38.5 113.5t-10.5 171.5q0 206 55.5 288.5t199.5 82.5q231 0 231 -226v-45h-180zM209 768v140
h134v-140h-134z" />
    <glyph glyph-name="cdotaccent" unicode="&#x10b;" horiz-adv-x="481" 
d="M467 329h-162q0 61 -12 87q-11 23 -40 23q-31 0 -42 -35t-11 -134t11 -133.5t42 -34.5q26 0 39 20t13 69v35h162q0 -130 -48 -183q-51 -57 -166 -57q-57 0 -96 10.5t-72 39t-49 84.5t-16 141q0 93 18 153.5t53.5 90t74.5 40t96 10.5q113 0 159 -58t46 -168zM187 594v140
h134v-140h-134z" />
    <glyph glyph-name="Ccaron" unicode="&#x10c;" horiz-adv-x="537" 
d="M329 457v40q0 59 -11.5 82t-39.5 23q-41 0 -52 -47.5t-11 -197.5t11 -197.5t52 -47.5q33 0 44.5 36.5t11.5 138.5h180v-53q0 -248 -236 -248q-79 0 -128.5 19.5t-77.5 66.5t-38.5 113.5t-10.5 171.5q0 206 55.5 288.5t199.5 82.5q231 0 231 -226v-45h-180zM185 765
l-62 146h122l36 -80l36 80h122l-62 -146h-192z" />
    <glyph glyph-name="ccaron" unicode="&#x10d;" horiz-adv-x="481" 
d="M467 329h-162q0 61 -12 87q-11 23 -40 23q-31 0 -42 -35t-11 -134t11 -133.5t42 -34.5q26 0 39 20t13 69v35h162q0 -130 -48 -183q-51 -57 -166 -57q-57 0 -96 10.5t-72 39t-49 84.5t-16 141q0 93 18 153.5t53.5 90t74.5 40t96 10.5q113 0 159 -58t46 -168zM164 591
l-62 146h122l36 -80l36 80h122l-62 -146h-192z" />
    <glyph glyph-name="Dcaron" unicode="&#x10e;" horiz-adv-x="574" 
d="M44 0v714h270q45 0 80 -10.5t58.5 -27t40.5 -45t26 -55t14 -67.5t6 -73t1 -79t-1 -79t-6 -73t-14 -67.5t-26 -55t-40.5 -45t-58.5 -27t-80 -10.5h-270zM230 580v-446h37q54 0 67.5 38.5t13.5 184.5t-13.5 184.5t-67.5 38.5h-37zM163 765l-62 146h122l36 -80l36 80h122
l-62 -146h-192z" />
    <glyph glyph-name="dcaron" unicode="&#x10f;" horiz-adv-x="657" 
d="M200 270q0 -89 9.5 -119.5t41.5 -30.5q30 0 40 31t10 119q0 89 -10 120t-40 31q-32 0 -41.5 -30.5t-9.5 -120.5zM301 480v234h180v-714h-174v74h-2q-17 -46 -46.5 -67t-76.5 -21q-88 0 -125 71t-37 225q0 146 43 209.5t123 63.5q88 0 113 -75h2zM516 569l25 146h142
l-58 -146h-109z" />
    <glyph glyph-name="Dcroat" unicode="&#x110;" horiz-adv-x="574" 
d="M230 434h52v-126h-52v-174h37q54 0 67.5 38.5t13.5 184.5t-13.5 184.5t-67.5 38.5h-37v-146zM44 0v308h-53v126h53v280h270q45 0 80 -10.5t58.5 -27t40.5 -45t26 -55t14 -67.5t6 -73t1 -79t-1 -79t-6 -73t-14 -67.5t-26 -55t-40.5 -45t-58.5 -27t-80 -10.5h-270z" />
    <glyph glyph-name="dcroat" unicode="&#x111;" horiz-adv-x="571" 
d="M236 574v82h65v58h180v-58h94v-82h-94v-574h-174v74h-2q-17 -46 -46.5 -67t-76.5 -21q-88 0 -125 71t-37 225q0 146 43 209.5t123 63.5q88 0 113 -75h2v94h-65zM200 270q0 -89 9.5 -119.5t41.5 -30.5q30 0 40 31t10 119q0 89 -10 120t-40 31q-32 0 -41.5 -30.5
t-9.5 -120.5z" />
    <glyph glyph-name="Emacron" unicode="&#x112;" horiz-adv-x="500" 
d="M44 0v714h423v-152h-237v-122h222v-146h-222v-142h246v-152h-432zM100 789v98h316v-98h-316z" />
    <glyph glyph-name="emacron" unicode="&#x113;" horiz-adv-x="481" 
d="M299 338v24q0 44 -11 63.5t-39 19.5q-27 0 -38 -19.5t-11 -63.5v-24h99zM467 240h-267v-71q0 -73 49 -73q26 0 38.5 20.5t12.5 73.5h162q-2 -102 -52.5 -153t-159.5 -51q-128 0 -179 64.5t-51 219.5q0 154 53.5 219.5t176.5 65.5q112 0 164.5 -58.5t52.5 -201.5v-55z
M94 615v98h316v-98h-316z" />
    <glyph glyph-name="Ebreve" unicode="&#x114;" horiz-adv-x="500" 
d="M44 0v714h423v-152h-237v-122h222v-146h-222v-142h246v-152h-432zM105 911h80q5 -66 71 -66t71 66h80q-5 -69 -43 -107.5t-108 -38.5t-108 38.5t-43 107.5z" />
    <glyph glyph-name="ebreve" unicode="&#x115;" horiz-adv-x="481" 
d="M299 338v24q0 44 -11 63.5t-39 19.5q-27 0 -38 -19.5t-11 -63.5v-24h99zM467 240h-267v-71q0 -73 49 -73q26 0 38.5 20.5t12.5 73.5h162q-2 -102 -52.5 -153t-159.5 -51q-128 0 -179 64.5t-51 219.5q0 154 53.5 219.5t176.5 65.5q112 0 164.5 -58.5t52.5 -201.5v-55z
M99 737h80q5 -66 71 -66t71 66h80q-5 -69 -43 -107.5t-108 -38.5t-108 38.5t-43 107.5z" />
    <glyph glyph-name="Edotaccent" unicode="&#x116;" horiz-adv-x="500" 
d="M44 0v714h423v-152h-237v-122h222v-146h-222v-142h246v-152h-432zM192 768v140h134v-140h-134z" />
    <glyph glyph-name="edotaccent" unicode="&#x117;" horiz-adv-x="481" 
d="M299 338v24q0 44 -11 63.5t-39 19.5q-27 0 -38 -19.5t-11 -63.5v-24h99zM467 240h-267v-71q0 -73 49 -73q26 0 38.5 20.5t12.5 73.5h162q-2 -102 -52.5 -153t-159.5 -51q-128 0 -179 64.5t-51 219.5q0 154 53.5 219.5t176.5 65.5q112 0 164.5 -58.5t52.5 -201.5v-55z
M181 594v140h134v-140h-134z" />
    <glyph glyph-name="Eogonek" unicode="&#x118;" horiz-adv-x="500" 
d="M435 -137l39 -40q-35 -32 -65.5 -44t-78.5 -12q-46 0 -72 24t-26 61q0 42 25.5 75t87.5 73h-301v714h423v-152h-237v-122h222v-146h-222v-142h246v-152h-54q-59 -56 -74 -83q-12 -24 -12 -46q0 -17 10 -27t25 -10q27 0 64 29z" />
    <glyph glyph-name="eogonek" unicode="&#x119;" horiz-adv-x="481" 
d="M327 -137l39 -40q-35 -32 -65.5 -44t-78.5 -12q-46 0 -72 24t-26 61q0 43 25 75q21 28 68 60q-43 3 -76 14q-66 24 -93.5 87.5t-27.5 181.5q0 154 53.5 219.5t176.5 65.5q112 0 164.5 -58.5t52.5 -201.5v-55h-267v-71q0 -73 49 -73q26 0 38.5 20.5t12.5 73.5h162
q-2 -100 -51 -152q-37 -38 -108 -48q-52 -52 -63 -73q-12 -24 -12 -46q0 -17 10 -27t25 -10q27 0 64 29zM299 338v24q0 44 -11 63.5t-39 19.5q-27 0 -38 -19.5t-11 -63.5v-24h99z" />
    <glyph glyph-name="Ecaron" unicode="&#x11a;" horiz-adv-x="500" 
d="M44 0v714h423v-152h-237v-122h222v-146h-222v-142h246v-152h-432zM158 765l-62 146h122l36 -80l36 80h122l-62 -146h-192z" />
    <glyph glyph-name="ecaron" unicode="&#x11b;" horiz-adv-x="481" 
d="M299 338v24q0 44 -11 63.5t-39 19.5q-27 0 -38 -19.5t-11 -63.5v-24h99zM467 240h-267v-71q0 -73 49 -73q26 0 38.5 20.5t12.5 73.5h162q-2 -102 -52.5 -153t-159.5 -51q-128 0 -179 64.5t-51 219.5q0 154 53.5 219.5t176.5 65.5q112 0 164.5 -58.5t52.5 -201.5v-55z
M154 591l-62 146h122l36 -80l36 80h122l-62 -146h-192z" />
    <glyph glyph-name="Gcircumflex" unicode="&#x11c;" horiz-adv-x="556" 
d="M284 262v126h240v-388h-126l-4 63h-2q-30 -77 -154 -77q-56 0 -94 17t-60 44.5t-34 78t-15 101t-3 130.5q0 96 11 160t39.5 114t81.5 73.5t134 23.5q104 0 165 -58t61 -182h-180q0 57 -10 83q-10 31 -43 31q-44 0 -55.5 -46.5t-11.5 -198.5q0 -150 11 -197.5t52 -47.5
q32 0 47.5 31.5t15.5 118.5h-66zM130 765l62 146h192l62 -146h-122l-36 80l-36 -80h-122z" />
    <glyph glyph-name="gcircumflex" unicode="&#x11d;" 
d="M313 466v75h168v-532q0 -193 -226 -193q-63 0 -106 11.5t-73 46.5t-31 94h162q0 -42 45 -42q25 0 40 13t15 54v103h-2q-30 -81 -122 -81q-158 0 -158 267q0 149 42 211t125 62q92 0 119 -89h2zM205 285q0 -81 12 -108.5t40 -27.5q27 0 38.5 27t11.5 109q0 80 -12 108
t-38 28q-27 0 -39.5 -28t-12.5 -108zM117 591l62 146h192l62 -146h-122l-36 80l-36 -80h-122z" />
    <glyph glyph-name="Gbreve" unicode="&#x11e;" horiz-adv-x="556" 
d="M284 262v126h240v-388h-126l-4 63h-2q-30 -77 -154 -77q-56 0 -94 17t-60 44.5t-34 78t-15 101t-3 130.5q0 96 11 160t39.5 114t81.5 73.5t134 23.5q104 0 165 -58t61 -182h-180q0 57 -10 83q-10 31 -43 31q-44 0 -55.5 -46.5t-11.5 -198.5q0 -150 11 -197.5t52 -47.5
q32 0 47.5 31.5t15.5 118.5h-66zM135 911h80q5 -66 71 -66t71 66h80q-5 -69 -43 -107.5t-108 -38.5t-108 38.5t-43 107.5z" />
    <glyph glyph-name="gbreve" unicode="&#x11f;" 
d="M313 466v75h168v-532q0 -193 -226 -193q-63 0 -106 11.5t-73 46.5t-31 94h162q0 -42 45 -42q25 0 40 13t15 54v103h-2q-30 -81 -122 -81q-158 0 -158 267q0 149 42 211t125 62q92 0 119 -89h2zM205 285q0 -81 12 -108.5t40 -27.5q27 0 38.5 27t11.5 109q0 80 -12 108
t-38 28q-27 0 -39.5 -28t-12.5 -108zM118 737h80q5 -66 71 -66t71 66h80q-5 -69 -43 -107.5t-108 -38.5t-108 38.5t-43 107.5z" />
    <glyph glyph-name="Gdotaccent" unicode="&#x120;" horiz-adv-x="556" 
d="M284 262v126h240v-388h-126l-4 63h-2q-30 -77 -154 -77q-56 0 -94 17t-60 44.5t-34 78t-15 101t-3 130.5q0 96 11 160t39.5 114t81.5 73.5t134 23.5q104 0 165 -58t61 -182h-180q0 57 -10 83q-10 31 -43 31q-44 0 -55.5 -46.5t-11.5 -198.5q0 -150 11 -197.5t52 -47.5
q32 0 47.5 31.5t15.5 118.5h-66zM221 768v140h134v-140h-134z" />
    <glyph glyph-name="gdotaccent" unicode="&#x121;" 
d="M313 466v75h168v-532q0 -193 -226 -193q-63 0 -106 11.5t-73 46.5t-31 94h162q0 -42 45 -42q25 0 40 13t15 54v103h-2q-30 -81 -122 -81q-158 0 -158 267q0 149 42 211t125 62q92 0 119 -89h2zM205 285q0 -81 12 -108.5t40 -27.5q27 0 38.5 27t11.5 109q0 80 -12 108
t-38 28q-27 0 -39.5 -28t-12.5 -108zM212 594v140h134v-140h-134z" />
    <glyph glyph-name="Gcommaaccent" unicode="&#x122;" horiz-adv-x="556" 
d="M284 262v126h240v-388h-126l-4 63h-2q-30 -77 -154 -77q-56 0 -94 17t-60 44.5t-34 78t-15 101t-3 130.5q0 96 11 160t39.5 114t81.5 73.5t134 23.5q104 0 165 -58t61 -182h-180q0 57 -10 83q-10 31 -43 31q-44 0 -55.5 -46.5t-11.5 -198.5q0 -150 11 -197.5t52 -47.5
q32 0 47.5 31.5t15.5 118.5h-66zM211 -155v105h142v-86q0 -97 -122 -97v42q26 5 34.5 12t10.5 24h-65z" />
    <glyph glyph-name="gcommaaccent" unicode="&#x123;" 
d="M313 466v75h168v-532q0 -193 -226 -193q-63 0 -106 11.5t-73 46.5t-31 94h162q0 -42 45 -42q25 0 40 13t15 54v103h-2q-30 -81 -122 -81q-158 0 -158 267q0 149 42 211t125 62q92 0 119 -89h2zM205 285q0 -81 12 -108.5t40 -27.5q27 0 38.5 27t11.5 109q0 80 -12 108
t-38 28q-27 0 -39.5 -28t-12.5 -108zM341 714v-105h-142v86q0 97 122 97v-42q-24 -5 -33.5 -12.5t-11.5 -23.5h65z" />
    <glyph glyph-name="Hcircumflex" unicode="&#x124;" horiz-adv-x="574" 
d="M44 0v714h186v-262h114v262h186v-714h-186v294h-114v-294h-186zM130 765l62 146h192l62 -146h-122l-36 80l-36 -80h-122z" />
    <glyph glyph-name="hcircumflex" unicode="&#x125;" 
d="M36 0v714h180v-233h2q40 74 125 74q63 0 102 -34t39 -113v-408h-180v357q0 34 -10 49t-34 15t-34 -15t-10 -49v-357h-180zM100 765l62 146h192l62 -146h-122l-36 80l-36 -80h-122z" />
    <glyph glyph-name="Hbar" unicode="&#x126;" horiz-adv-x="574" 
d="M44 0v714h186v-131h114v131h186v-714h-186v263h-114v-263h-186zM230 411h114v90h-114v-90z" />
    <glyph glyph-name="hbar" unicode="&#x127;" horiz-adv-x="570" 
d="M-4 574v82h90v58h180v-58h70v-82h-70v-93h2q40 74 125 74q63 0 102 -34t39 -113v-408h-180v357q0 34 -10 49t-34 15t-34 -15t-10 -49v-357h-180v574h-90z" />
    <glyph glyph-name="Itilde" unicode="&#x128;" horiz-adv-x="260" 
d="M37 0v714h186v-714h-186zM209 908h86q-8 -71 -35 -105.5t-65 -34.5q-30 0 -70 15t-51 15q-23 0 -23 -30h-86q18 140 98 140q26 0 65 -15q45 -15 54 -15q23 0 27 30z" />
    <glyph glyph-name="itilde" unicode="&#x129;" horiz-adv-x="258" 
d="M39 0v541h180v-541h-180zM210 734h86q-8 -71 -35 -105.5t-65 -34.5q-30 0 -70 15t-51 15q-23 0 -23 -30h-86q18 140 98 140q26 0 65 -15q45 -15 54 -15q23 0 27 30z" />
    <glyph glyph-name="Imacron" unicode="&#x12a;" horiz-adv-x="260" 
d="M37 0v714h186v-714h-186zM-27 789v98h316v-98h-316z" />
    <glyph glyph-name="imacron" unicode="&#x12b;" horiz-adv-x="258" 
d="M39 0v541h180v-541h-180zM-27 615v98h316v-98h-316z" />
    <glyph glyph-name="Iogonek" unicode="&#x12e;" horiz-adv-x="260" 
d="M207 -137l39 -40q-35 -32 -65.5 -44t-78.5 -12q-46 0 -72 24t-26 61q0 42 25.5 75t87.5 73h-80v714h186v-714h-29q-59 -56 -74 -83q-12 -24 -12 -46q0 -17 10 -27t25 -10q27 0 64 29z" />
    <glyph glyph-name="iogonek" unicode="&#x12f;" horiz-adv-x="258" 
d="M201 -137l39 -40q-35 -32 -65.5 -44t-78.5 -12q-46 0 -72 24t-26 61q0 42 25.5 75t87.5 73h-72v541h180v-541h-31q-59 -56 -74 -83q-12 -24 -12 -46q0 -17 10 -27t25 -10q27 0 64 29zM39 580v134h180v-134h-180z" />
    <glyph glyph-name="Idotaccent" unicode="&#x130;" horiz-adv-x="260" 
d="M37 0v714h186v-714h-186zM63 768v140h134v-140h-134z" />
    <glyph glyph-name="dotlessi" unicode="&#x131;" horiz-adv-x="258" 
d="M39 0v541h180v-541h-180z" />
    <glyph glyph-name="Jcircumflex" unicode="&#x134;" horiz-adv-x="481" 
d="M265 714h186v-491q0 -126 -57.5 -181.5t-175.5 -55.5q-114 0 -165.5 58t-51.5 173v15h168v-35q0 -85 48 -85t48 85v517zM197 765l62 146h192l62 -146h-122l-36 80l-36 -80h-122z" />
    <glyph glyph-name="jcircumflex" unicode="&#x135;" horiz-adv-x="258" 
d="M39 -12v553h180v-576q0 -36 -9 -62.5t-23 -41.5t-36.5 -23.5t-45 -11t-53.5 -2.5q-36 0 -81 5v121q36 0 52 7.5t16 30.5zM-33 591l62 146h192l62 -146h-122l-36 80l-36 -80h-122z" />
    <glyph glyph-name="Kcommaaccent" unicode="&#x136;" horiz-adv-x="556" 
d="M37 0v714h186v-274h2l138 274h198l-180 -312l202 -402h-212l-109 249l-39 -60v-189h-186zM229 -155v105h142v-86q0 -97 -122 -97v42q26 5 34.5 12t10.5 24h-65z" />
    <glyph glyph-name="kcommaaccent" unicode="&#x137;" horiz-adv-x="500" 
d="M31 0v714h180v-360h2l100 187h192l-150 -223l169 -318h-192l-91 186l-30 -47v-139h-180zM201 -155v105h142v-86q0 -97 -122 -97v42q26 5 34.5 12t10.5 24h-65z" />
    <glyph glyph-name="Lacute" unicode="&#x139;" horiz-adv-x="463" 
d="M44 0v714h186v-562h229v-152h-415zM77 765l44 146h168l-96 -146h-116z" />
    <glyph glyph-name="lacute" unicode="&#x13a;" horiz-adv-x="258" 
d="M39 0v714h180v-714h-180zM42 765l44 146h168l-96 -146h-116z" />
    <glyph glyph-name="Lcommaaccent" unicode="&#x13b;" horiz-adv-x="463" 
d="M44 0v714h186v-562h229v-152h-415zM189 -155v105h142v-86q0 -97 -122 -97v42q26 5 34.5 12t10.5 24h-65z" />
    <glyph glyph-name="lcommaaccent" unicode="&#x13c;" horiz-adv-x="258" 
d="M39 0v714h180v-714h-180zM60 -155v105h142v-86q0 -97 -122 -97v42q26 5 34.5 12t10.5 24h-65z" />
    <glyph glyph-name="Lcaron" unicode="&#x13d;" horiz-adv-x="463" 
d="M44 0v714h186v-562h229v-152h-415zM283 568l25 146h142l-58 -146h-109z" />
    <glyph glyph-name="lcaron" unicode="&#x13e;" horiz-adv-x="395" 
d="M39 0v714h180v-714h-180zM254 568l25 146h142l-58 -146h-109z" />
    <glyph glyph-name="Ldot" unicode="&#x13f;" horiz-adv-x="463" 
d="M44 0v714h186v-562h229v-152h-415zM289 401v140h134v-140h-134z" />
    <glyph glyph-name="ldot" unicode="&#x140;" horiz-adv-x="419" 
d="M39 0v714h180v-714h-180zM265 401v140h134v-140h-134z" />
    <glyph glyph-name="Lslash" unicode="&#x141;" horiz-adv-x="463" 
d="M44 0v215l-58 -37v116l58 37v383h186v-265l124 79v-116l-124 -79v-181h229v-152h-415z" />
    <glyph glyph-name="lslash" unicode="&#x142;" horiz-adv-x="278" 
d="M49 0v270l-58 -36v110l58 36v334h180v-224l58 36v-110l-58 -36v-380h-180z" />
    <glyph glyph-name="Nacute" unicode="&#x143;" horiz-adv-x="592" 
d="M44 0v714h208l120 -440h2v440h174v-714h-204l-124 441h-2v-441h-174zM239 765l44 146h168l-96 -146h-116z" />
    <glyph glyph-name="nacute" unicode="&#x144;" 
d="M36 0v541h174v-66h2q35 80 131 80q66 0 103.5 -33t37.5 -114v-408h-180v357q0 34 -10 49t-34 15t-34 -15t-10 -49v-357h-180zM199 591l44 146h168l-96 -146h-116z" />
    <glyph glyph-name="Ncommaaccent" unicode="&#x145;" horiz-adv-x="592" 
d="M44 0v714h208l120 -440h2v440h174v-714h-204l-124 441h-2v-441h-174zM223 -155v105h142v-86q0 -97 -122 -97v42q26 5 34.5 12t10.5 24h-65z" />
    <glyph glyph-name="ncommaaccent" unicode="&#x146;" 
d="M36 0v541h174v-66h2q35 80 131 80q66 0 103.5 -33t37.5 -114v-408h-180v357q0 34 -10 49t-34 15t-34 -15t-10 -49v-357h-180zM192 -155v105h142v-86q0 -97 -122 -97v42q26 5 34.5 12t10.5 24h-65z" />
    <glyph glyph-name="Ncaron" unicode="&#x147;" horiz-adv-x="592" 
d="M44 0v714h208l120 -440h2v440h174v-714h-204l-124 441h-2v-441h-174zM200 765l-62 146h122l36 -80l36 80h122l-62 -146h-192z" />
    <glyph glyph-name="ncaron" unicode="&#x148;" 
d="M36 0v541h174v-66h2q35 80 131 80q66 0 103.5 -33t37.5 -114v-408h-180v357q0 34 -10 49t-34 15t-34 -15t-10 -49v-357h-180zM159 591l-62 146h122l36 -80l36 80h122l-62 -146h-192z" />
    <glyph glyph-name="Omacron" unicode="&#x14c;" horiz-adv-x="556" 
d="M215 357q0 -150 11 -197.5t52 -47.5t52 47.5t11 197.5t-11 197.5t-52 47.5t-52 -47.5t-11 -197.5zM23 357q0 202 57 286.5t198 84.5t198 -84.5t57 -286.5t-57 -286.5t-198 -84.5t-198 84.5t-57 286.5zM119 789v98h316v-98h-316z" />
    <glyph glyph-name="omacron" unicode="&#x14d;" horiz-adv-x="500" 
d="M200 270q0 -102 10 -135t40 -33q31 0 40.5 33t9.5 135q0 103 -9.5 136t-40.5 33q-30 0 -40 -33.5t-10 -135.5zM480 270q0 -48 -4 -84.5t-18.5 -76t-38.5 -65t-67 -42t-102 -16.5q-61 0 -104.5 15.5t-67.5 39t-37.5 63.5t-17 76.5t-3.5 90.5q0 48 4 84.5t18.5 76t38.5 65
t67 42t102 16.5q61 0 104.5 -15.5t67.5 -39t37.5 -63.5t17 -76.5t3.5 -90.5zM94 615v98h316v-98h-316z" />
    <glyph glyph-name="Obreve" unicode="&#x14e;" horiz-adv-x="556" 
d="M215 357q0 -150 11 -197.5t52 -47.5t52 47.5t11 197.5t-11 197.5t-52 47.5t-52 -47.5t-11 -197.5zM23 357q0 202 57 286.5t198 84.5t198 -84.5t57 -286.5t-57 -286.5t-198 -84.5t-198 84.5t-57 286.5zM127 911h80q5 -66 71 -66t71 66h80q-5 -69 -43 -107.5t-108 -38.5
t-108 38.5t-43 107.5z" />
    <glyph glyph-name="obreve" unicode="&#x14f;" horiz-adv-x="500" 
d="M200 270q0 -102 10 -135t40 -33q31 0 40.5 33t9.5 135q0 103 -9.5 136t-40.5 33q-30 0 -40 -33.5t-10 -135.5zM480 270q0 -48 -4 -84.5t-18.5 -76t-38.5 -65t-67 -42t-102 -16.5q-61 0 -104.5 15.5t-67.5 39t-37.5 63.5t-17 76.5t-3.5 90.5q0 48 4 84.5t18.5 76t38.5 65
t67 42t102 16.5q61 0 104.5 -15.5t67.5 -39t37.5 -63.5t17 -76.5t3.5 -90.5zM101 737h80q5 -66 71 -66t71 66h80q-5 -69 -43 -107.5t-108 -38.5t-108 38.5t-43 107.5z" />
    <glyph glyph-name="Ohungarumlaut" unicode="&#x150;" horiz-adv-x="556" 
d="M215 357q0 -150 11 -197.5t52 -47.5t52 47.5t11 197.5t-11 197.5t-52 47.5t-52 -47.5t-11 -197.5zM23 357q0 202 57 286.5t198 84.5t198 -84.5t57 -286.5t-57 -286.5t-198 -84.5t-198 84.5t-57 286.5zM318 765l44 146h168l-96 -146h-116zM118 765l44 146h168l-96 -146
h-116z" />
    <glyph glyph-name="ohungarumlaut" unicode="&#x151;" horiz-adv-x="500" 
d="M200 270q0 -102 10 -135t40 -33q31 0 40.5 33t9.5 135q0 103 -9.5 136t-40.5 33q-30 0 -40 -33.5t-10 -135.5zM480 270q0 -48 -4 -84.5t-18.5 -76t-38.5 -65t-67 -42t-102 -16.5q-61 0 -104.5 15.5t-67.5 39t-37.5 63.5t-17 76.5t-3.5 90.5q0 48 4 84.5t18.5 76t38.5 65
t67 42t102 16.5q61 0 104.5 -15.5t67.5 -39t37.5 -63.5t17 -76.5t3.5 -90.5zM290 591l44 146h168l-96 -146h-116zM90 591l44 146h168l-96 -146h-116z" />
    <glyph glyph-name="OE" unicode="&#x152;" horiz-adv-x="759" 
d="M209 357q0 -151 11 -198t54 -47q41 0 52 47.5t11 197.5t-11 197.5t-52 47.5q-43 0 -54 -47t-11 -198zM511 294v-142h232v-152h-384v31h-2q-37 -45 -123 -45q-126 0 -168.5 80.5t-42.5 290.5q0 207 47 289t159 82q82 0 130 -45v31h375v-152h-223v-122h208v-146h-208z" />
    <glyph glyph-name="oe" unicode="&#x153;" horiz-adv-x="740" 
d="M559 190h162q-2 -103 -50 -151q-53 -53 -149 -53q-116 0 -149 67q-42 -67 -146 -67q-113 0 -163.5 64.5t-50.5 219.5q0 153 52.5 219t175.5 66q45 0 84.5 -18t55.5 -43q54 61 148 61q104 0 151 -58.5t47 -201.5v-55h-266v-71q0 -73 48 -73q26 0 38 20.5t12 73.5zM461 362
v-24h98v24q0 44 -11 63.5t-39 19.5q-26 0 -37 -19.5t-11 -63.5zM193 270q0 -102 10 -135t40 -33q31 0 40.5 33t9.5 135q0 103 -9.5 136t-40.5 33q-30 0 -40 -33.5t-10 -135.5z" />
    <glyph glyph-name="Racute" unicode="&#x154;" horiz-adv-x="574" 
d="M230 580v-168h37q39 0 58.5 22.5t19.5 62.5q0 44 -18.5 63.5t-60.5 19.5h-36zM44 0v714h291q101 0 148.5 -51t47.5 -139q0 -151 -122 -170v-2q64 -6 90.5 -45.5t26.5 -114.5v-61q0 -84 9 -99q10 -15 21 -22v-10h-198q-18 37 -18 136v48q0 60 -13.5 81t-47.5 21h-49v-286
h-186zM193 765l44 146h168l-96 -146h-116z" />
    <glyph glyph-name="racute" unicode="&#x155;" horiz-adv-x="352" 
d="M31 0v541h174v-86h2q15 48 47.5 74t73.5 26h29v-168q-21 4 -45 4q-50 0 -75.5 -22t-25.5 -74v-295h-180zM89 591l44 146h168l-96 -146h-116z" />
    <glyph glyph-name="Rcommaaccent" unicode="&#x156;" horiz-adv-x="574" 
d="M230 580v-168h37q39 0 58.5 22.5t19.5 62.5q0 44 -18.5 63.5t-60.5 19.5h-36zM44 0v714h291q101 0 148.5 -51t47.5 -139q0 -151 -122 -170v-2q64 -6 90.5 -45.5t26.5 -114.5v-61q0 -84 9 -99q10 -15 21 -22v-10h-198q-18 37 -18 136v48q0 60 -13.5 81t-47.5 21h-49v-286
h-186zM223 -155v105h142v-86q0 -97 -122 -97v42q26 5 34.5 12t10.5 24h-65z" />
    <glyph glyph-name="rcommaaccent" unicode="&#x157;" horiz-adv-x="352" 
d="M31 0v541h174v-86h2q15 48 47.5 74t73.5 26h29v-168q-21 4 -45 4q-50 0 -75.5 -22t-25.5 -74v-295h-180zM51 -155v105h142v-86q0 -97 -122 -97v42q26 5 34.5 12t10.5 24h-65z" />
    <glyph glyph-name="Rcaron" unicode="&#x158;" horiz-adv-x="574" 
d="M230 580v-168h37q39 0 58.5 22.5t19.5 62.5q0 44 -18.5 63.5t-60.5 19.5h-36zM44 0v714h291q101 0 148.5 -51t47.5 -139q0 -151 -122 -170v-2q64 -6 90.5 -45.5t26.5 -114.5v-61q0 -84 9 -99q10 -15 21 -22v-10h-198q-18 37 -18 136v48q0 60 -13.5 81t-47.5 21h-49v-286
h-186zM174 765l-62 146h122l36 -80l36 80h122l-62 -146h-192z" />
    <glyph glyph-name="rcaron" unicode="&#x159;" horiz-adv-x="352" 
d="M31 0v541h174v-86h2q15 48 47.5 74t73.5 26h29v-168q-21 4 -45 4q-50 0 -75.5 -22t-25.5 -74v-295h-180zM97 591l-62 146h122l36 -80l36 80h122l-62 -146h-192z" />
    <glyph glyph-name="Sacute" unicode="&#x15a;" horiz-adv-x="537" 
d="M496 508h-174v17q0 34 -13.5 55.5t-39.5 21.5q-28 0 -43 -18.5t-15 -44.5q0 -38 31.5 -62.5t76 -41.5t89 -39t76 -70t31.5 -120q0 -220 -253 -220q-120 0 -180 47t-60 154v25h180v-17q0 -83 61 -83q28 0 44 19.5t16 49.5q0 28 -16 48.5t-42 33.5t-57 25t-62 28t-57 38.5
t-42 61t-16 89.5q0 223 234 223q122 0 176.5 -52.5t54.5 -167.5zM208 765l44 146h168l-96 -146h-116z" />
    <glyph glyph-name="sacute" unicode="&#x15b;" horiz-adv-x="463" 
d="M17 168h158q0 -36 13 -53q13 -19 38 -19q22 0 37 12.5t15 33.5q0 26 -27 41.5t-65 27t-76.5 27.5t-65.5 53.5t-27 94.5q0 75 54.5 122t160.5 47q203 0 203 -170h-156q0 34 -11.5 47t-36.5 13q-21 0 -33.5 -11t-12.5 -31q0 -24 27 -38.5t65.5 -24.5t76.5 -25.5t65 -52.5
t27 -95q0 -80 -58.5 -130.5t-158.5 -50.5q-111 0 -161.5 45.5t-50.5 136.5zM174 591l44 146h168l-96 -146h-116z" />
    <glyph glyph-name="Scircumflex" unicode="&#x15c;" horiz-adv-x="537" 
d="M496 508h-174v17q0 34 -13.5 55.5t-39.5 21.5q-28 0 -43 -18.5t-15 -44.5q0 -38 31.5 -62.5t76 -41.5t89 -39t76 -70t31.5 -120q0 -220 -253 -220q-120 0 -180 47t-60 154v25h180v-17q0 -83 61 -83q28 0 44 19.5t16 49.5q0 28 -16 48.5t-42 33.5t-57 25t-62 28t-57 38.5
t-42 61t-16 89.5q0 223 234 223q122 0 176.5 -52.5t54.5 -167.5zM111 765l62 146h192l62 -146h-122l-36 80l-36 -80h-122z" />
    <glyph glyph-name="scircumflex" unicode="&#x15d;" horiz-adv-x="463" 
d="M17 168h158q0 -36 13 -53q13 -19 38 -19q22 0 37 12.5t15 33.5q0 26 -27 41.5t-65 27t-76.5 27.5t-65.5 53.5t-27 94.5q0 75 54.5 122t160.5 47q203 0 203 -170h-156q0 34 -11.5 47t-36.5 13q-21 0 -33.5 -11t-12.5 -31q0 -24 27 -38.5t65.5 -24.5t76.5 -25.5t65 -52.5
t27 -95q0 -80 -58.5 -130.5t-158.5 -50.5q-111 0 -161.5 45.5t-50.5 136.5zM75 591l62 146h192l62 -146h-122l-36 80l-36 -80h-122z" />
    <glyph glyph-name="Scedilla" unicode="&#x15e;" horiz-adv-x="537" 
d="M496 508h-174v17q0 34 -13.5 55.5t-39.5 21.5q-28 0 -43 -18.5t-15 -44.5q0 -38 31.5 -62.5t76 -41.5t89 -39t76 -70t31.5 -120q0 -114 -65 -167q-60 -48 -164 -52l-25 -47q15 5 35 5q38 0 62 -20t24 -59q0 -49 -34.5 -74t-95.5 -25q-62 0 -114 20l22 56q33 -16 68 -16
q23 0 36.5 9.5t13.5 24.5q0 32 -41 32q-15 0 -31 -7l-25 21l47 80q-32 1 -69 10q-137 31 -137 190v25h180v-17q0 -83 61 -83q28 0 44 19.5t16 49.5q0 28 -16 48.5t-42 33.5t-57 25t-62 28t-57 38.5t-42 61t-16 89.5q0 223 234 223q122 0 176.5 -52.5t54.5 -167.5z" />
    <glyph glyph-name="Scedilla" unicode="&#xf6c1;" horiz-adv-x="537" 
d="M496 508h-174v17q0 34 -13.5 55.5t-39.5 21.5q-28 0 -43 -18.5t-15 -44.5q0 -38 31.5 -62.5t76 -41.5t89 -39t76 -70t31.5 -120q0 -114 -65 -167q-60 -48 -164 -52l-25 -47q15 5 35 5q38 0 62 -20t24 -59q0 -49 -34.5 -74t-95.5 -25q-62 0 -114 20l22 56q33 -16 68 -16
q23 0 36.5 9.5t13.5 24.5q0 32 -41 32q-15 0 -31 -7l-25 21l47 80q-32 1 -69 10q-137 31 -137 190v25h180v-17q0 -83 61 -83q28 0 44 19.5t16 49.5q0 28 -16 48.5t-42 33.5t-57 25t-62 28t-57 38.5t-42 61t-16 89.5q0 223 234 223q122 0 176.5 -52.5t54.5 -167.5z" />
    <glyph glyph-name="scedilla" unicode="&#x15f;" horiz-adv-x="463" 
d="M17 168h158q0 -36 13 -53q13 -19 38 -19q22 0 37 12.5t15 33.5q0 26 -27 41.5t-65 27t-76.5 27.5t-65.5 53.5t-27 94.5q0 75 54.5 122t160.5 47q203 0 203 -170h-156q0 34 -11.5 47t-36.5 13q-21 0 -33.5 -11t-12.5 -31q0 -24 27 -38.5t65.5 -24.5t76.5 -25.5t65 -52.5
t27 -95q0 -60 -33 -104t-93 -63q-35 -12 -68 -13l-25 -47q15 5 35 5q38 0 62 -20t24 -59q0 -49 -34.5 -74t-95.5 -25q-62 0 -114 20l22 56q33 -16 68 -16q23 0 36.5 9.5t13.5 24.5q0 32 -41 32q-15 0 -31 -7l-25 21l47 80q-86 8 -128 45q-49 46 -49 136z" />
    <glyph glyph-name="scedilla" unicode="&#xf6c2;" horiz-adv-x="463" 
d="M17 168h158q0 -36 13 -53q13 -19 38 -19q22 0 37 12.5t15 33.5q0 26 -27 41.5t-65 27t-76.5 27.5t-65.5 53.5t-27 94.5q0 75 54.5 122t160.5 47q203 0 203 -170h-156q0 34 -11.5 47t-36.5 13q-21 0 -33.5 -11t-12.5 -31q0 -24 27 -38.5t65.5 -24.5t76.5 -25.5t65 -52.5
t27 -95q0 -60 -33 -104t-93 -63q-35 -12 -68 -13l-25 -47q15 5 35 5q38 0 62 -20t24 -59q0 -49 -34.5 -74t-95.5 -25q-62 0 -114 20l22 56q33 -16 68 -16q23 0 36.5 9.5t13.5 24.5q0 32 -41 32q-15 0 -31 -7l-25 21l47 80q-86 8 -128 45q-49 46 -49 136z" />
    <glyph glyph-name="Scaron" unicode="&#x160;" horiz-adv-x="537" 
d="M496 508h-174v17q0 34 -13.5 55.5t-39.5 21.5q-28 0 -43 -18.5t-15 -44.5q0 -38 31.5 -62.5t76 -41.5t89 -39t76 -70t31.5 -120q0 -220 -253 -220q-120 0 -180 47t-60 154v25h180v-17q0 -83 61 -83q28 0 44 19.5t16 49.5q0 28 -16 48.5t-42 33.5t-57 25t-62 28t-57 38.5
t-42 61t-16 89.5q0 223 234 223q122 0 176.5 -52.5t54.5 -167.5zM174 765l-62 146h122l36 -80l36 80h122l-62 -146h-192z" />
    <glyph glyph-name="scaron" unicode="&#x161;" horiz-adv-x="463" 
d="M17 168h158q0 -36 13 -53q13 -19 38 -19q22 0 37 12.5t15 33.5q0 26 -27 41.5t-65 27t-76.5 27.5t-65.5 53.5t-27 94.5q0 75 54.5 122t160.5 47q203 0 203 -170h-156q0 34 -11.5 47t-36.5 13q-21 0 -33.5 -11t-12.5 -31q0 -24 27 -38.5t65.5 -24.5t76.5 -25.5t65 -52.5
t27 -95q0 -80 -58.5 -130.5t-158.5 -50.5q-111 0 -161.5 45.5t-50.5 136.5zM138 591l-62 146h122l36 -80l36 80h122l-62 -146h-192z" />
    <glyph glyph-name="Tcommaaccent" unicode="&#x162;" horiz-adv-x="462" 
d="M138 0v556h-140v158h466v-158h-140v-556h-186zM161 -155v105h142v-86q0 -97 -122 -97v42q26 5 34.5 12t10.5 24h-65z" />
    <glyph glyph-name="tcommaaccent" unicode="&#x163;" horiz-adv-x="315" 
d="M2 420v121h60v159h180v-159h71v-121h-71v-258q0 -42 43 -42h28v-120q-49 -6 -98 -6q-87 0 -120 26t-33 112v288h-60zM120 -155v105h142v-86q0 -97 -122 -97v42q26 5 34.5 12t10.5 24h-65z" />
    <glyph glyph-name="Tcaron" unicode="&#x164;" horiz-adv-x="462" 
d="M138 0v556h-140v158h466v-158h-140v-556h-186zM138 765l-62 146h122l36 -80l36 80h122l-62 -146h-192z" />
    <glyph glyph-name="tcaron" unicode="&#x165;" horiz-adv-x="445" 
d="M302 568l25 146h142l-58 -146h-109zM2 420v121h60v159h180v-159h71v-121h-71v-258q0 -42 43 -42h28v-120q-49 -6 -98 -6q-87 0 -120 26t-33 112v288h-60z" />
    <glyph glyph-name="Tbar" unicode="&#x166;" horiz-adv-x="462" 
d="M32 333v83h106v140h-140v158h466v-158h-140v-140h104v-83h-104v-333h-186v333h-106z" />
    <glyph glyph-name="tbar" unicode="&#x167;" horiz-adv-x="315" 
d="M-7 261v82h69v77h-60v121h60v159h180v-159h71v-121h-71v-77h80v-82h-80v-99q0 -42 43 -42h28v-120q-49 -6 -98 -6q-87 0 -120 26t-33 112v129h-69z" />
    <glyph glyph-name="Utilde" unicode="&#x168;" horiz-adv-x="556" 
d="M36 714h186v-515q0 -49 14 -68t42 -19t42 19t14 68v515h186v-468q0 -144 -59.5 -202t-182.5 -58t-182.5 58t-59.5 202v468zM358 908h86q-8 -71 -35 -105.5t-65 -34.5q-30 0 -70 15t-51 15q-23 0 -23 -30h-86q18 140 98 140q26 0 65 -15q45 -15 54 -15q23 0 27 30z" />
    <glyph glyph-name="utilde" unicode="&#x169;" 
d="M36 133v408h180v-357q0 -34 10 -49t34 -15t34 15t10 49v357h180v-541h-174v66h-2q-35 -80 -131 -80q-66 0 -103.5 33t-37.5 114zM340 734h86q-8 -71 -35 -105.5t-65 -34.5q-30 0 -70 15t-51 15q-23 0 -23 -30h-86q18 140 98 140q26 0 65 -15q45 -15 54 -15q23 0 27 30z
" />
    <glyph glyph-name="Umacron" unicode="&#x16a;" horiz-adv-x="556" 
d="M36 714h186v-515q0 -49 14 -68t42 -19t42 19t14 68v515h186v-468q0 -144 -59.5 -202t-182.5 -58t-182.5 58t-59.5 202v468zM121 789v98h316v-98h-316z" />
    <glyph glyph-name="umacron" unicode="&#x16b;" 
d="M36 133v408h180v-357q0 -34 10 -49t34 -15t34 15t10 49v357h180v-541h-174v66h-2q-35 -80 -131 -80q-66 0 -103.5 33t-37.5 114zM103 615v98h316v-98h-316z" />
    <glyph glyph-name="Ubreve" unicode="&#x16c;" horiz-adv-x="556" 
d="M36 714h186v-515q0 -49 14 -68t42 -19t42 19t14 68v515h186v-468q0 -144 -59.5 -202t-182.5 -58t-182.5 58t-59.5 202v468zM127 911h80q5 -66 71 -66t71 66h80q-5 -69 -43 -107.5t-108 -38.5t-108 38.5t-43 107.5z" />
    <glyph glyph-name="ubreve" unicode="&#x16d;" 
d="M36 133v408h180v-357q0 -34 10 -49t34 -15t34 15t10 49v357h180v-541h-174v66h-2q-35 -80 -131 -80q-66 0 -103.5 33t-37.5 114zM109 737h80q5 -66 71 -66t71 66h80q-5 -69 -43 -107.5t-108 -38.5t-108 38.5t-43 107.5z" />
    <glyph glyph-name="Uring" unicode="&#x16e;" horiz-adv-x="556" 
d="M36 714h186v-515q0 -49 14 -68t42 -19t42 19t14 68v515h186v-468q0 -144 -59.5 -202t-182.5 -58t-182.5 58t-59.5 202v468zM233 844q0 -19 13 -32t32 -13t32 13t13 32t-13 32t-32 13t-32 -13t-13 -32zM167 844q0 46 32.5 77t78.5 31t78.5 -31t32.5 -77t-32.5 -77
t-78.5 -31q-48 0 -79.5 30t-31.5 78z" />
    <glyph glyph-name="uring" unicode="&#x16f;" 
d="M36 133v408h180v-357q0 -34 10 -49t34 -15t34 15t10 49v357h180v-541h-174v66h-2q-35 -80 -131 -80q-66 0 -103.5 33t-37.5 114zM215 690q0 -19 13 -32t32 -13t32 13t13 32t-13 32t-32 13t-32 -13t-13 -32zM149 690q0 46 32.5 77t78.5 31t78.5 -31t32.5 -77t-32.5 -77
t-78.5 -31q-48 0 -79.5 30t-31.5 78z" />
    <glyph glyph-name="Uhungarumlaut" unicode="&#x170;" horiz-adv-x="556" 
d="M36 714h186v-515q0 -49 14 -68t42 -19t42 19t14 68v515h186v-468q0 -144 -59.5 -202t-182.5 -58t-182.5 58t-59.5 202v468zM319 765l44 146h168l-96 -146h-116zM119 765l44 146h168l-96 -146h-116z" />
    <glyph glyph-name="uhungarumlaut" unicode="&#x171;" 
d="M36 133v408h180v-357q0 -34 10 -49t34 -15t34 15t10 49v357h180v-541h-174v66h-2q-35 -80 -131 -80q-66 0 -103.5 33t-37.5 114zM301 591l44 146h168l-96 -146h-116zM101 591l44 146h168l-96 -146h-116z" />
    <glyph glyph-name="Uogonek" unicode="&#x172;" horiz-adv-x="556" 
d="M353 -137l39 -40q-35 -32 -65.5 -44t-78.5 -12q-46 0 -72 24t-26 61q0 43 25 75q21 28 68 60q-37 3 -69 12q-138 37 -138 247v468h186v-515q0 -49 14 -68t42 -19t42 19t14 68v515h186v-468q0 -110 -34.5 -169.5t-104.5 -77.5q-23 -7 -53 -10q-52 -50 -62 -72
q-12 -24 -12 -46q0 -17 10 -27t25 -10q27 0 64 29z" />
    <glyph glyph-name="uogonek" unicode="&#x173;" 
d="M36 133v408h180v-357q0 -34 10 -49t34 -15t34 15t10 49v357h180v-541h-100q-46 -55 -58 -79q-11 -27 -11 -50q0 -17 9.5 -27t22.5 -10q24 0 58 29l35 -40q-32 -32 -59.5 -44t-70.5 -12q-41 0 -65 24.5t-24 60.5q0 40 20 71.5t69 76.5v66h-2q-35 -80 -131 -80
q-66 0 -103.5 33t-37.5 114z" />
    <glyph glyph-name="Wcircumflex" unicode="&#x174;" horiz-adv-x="778" 
d="M238 220l67 494h168l73 -494h2l50 494h180l-122 -714h-204l-62 480h-2l-62 -480h-204l-122 714h180l56 -494h2zM233 765l62 146h192l62 -146h-122l-36 80l-36 -80h-122z" />
    <glyph glyph-name="wcircumflex" unicode="&#x175;" horiz-adv-x="740" 
d="M110 0l-110 541h174l45 -389h2l53 389h192l53 -389h2l45 389h174l-110 -541h-204l-55 383h-2l-55 -383h-204zM213 591l62 146h192l62 -146h-122l-36 80l-36 -80h-122z" />
    <glyph glyph-name="Ycircumflex" unicode="&#x176;" 
d="M167 0v281l-182 433h204l70 -249h2l70 249h204l-182 -433v-281h-186zM102 765l62 146h192l62 -146h-122l-36 80l-36 -80h-122z" />
    <glyph glyph-name="ycircumflex" unicode="&#x177;" horiz-adv-x="463" 
d="M50 -172v126q17 -4 40 -4q30 0 45 14.5t15 26.5q0 10 -8 40l-143 510h186l55 -365h2l52 365h180l-145 -559q-23 -91 -63 -124.5t-115 -33.5q-60 0 -101 4zM84 591l62 146h192l62 -146h-122l-36 80l-36 -80h-122z" />
    <glyph glyph-name="Ydieresis" unicode="&#x178;" 
d="M167 0v281l-182 433h204l70 -249h2l70 249h204l-182 -433v-281h-186zM284 768v140h134v-140h-134zM102 768v140h134v-140h-134z" />
    <glyph glyph-name="Zacute" unicode="&#x179;" horiz-adv-x="481" 
d="M20 0v134l224 428h-209v152h426v-134l-228 -428h228v-152h-441zM188 765l44 146h168l-96 -146h-116z" />
    <glyph glyph-name="zacute" unicode="&#x17a;" horiz-adv-x="444" 
d="M23 401v140h402v-134l-202 -267h207v-140h-416v140l194 261h-185zM159 591l44 146h168l-96 -146h-116z" />
    <glyph glyph-name="Zdotaccent" unicode="&#x17b;" horiz-adv-x="481" 
d="M20 0v134l224 428h-209v152h426v-134l-228 -428h228v-152h-441zM184 768v140h134v-140h-134z" />
    <glyph glyph-name="zdotaccent" unicode="&#x17c;" horiz-adv-x="444" 
d="M23 401v140h402v-134l-202 -267h207v-140h-416v140l194 261h-185zM161 594v140h134v-140h-134z" />
    <glyph glyph-name="Zcaron" unicode="&#x17d;" horiz-adv-x="481" 
d="M20 0v134l224 428h-209v152h426v-134l-228 -428h228v-152h-441zM153 765l-62 146h122l36 -80l36 80h122l-62 -146h-192z" />
    <glyph glyph-name="zcaron" unicode="&#x17e;" horiz-adv-x="444" 
d="M23 401v140h402v-134l-202 -267h207v-140h-416v140l194 261h-185zM130 591l-62 146h122l36 -80l36 80h122l-62 -146h-192z" />
    <glyph glyph-name="florin" unicode="&#x192;" 
d="M60 316l20 104h107l23 120q17 91 68.5 132.5t149.5 41.5q28 0 82 -8l-23 -110q-22 2 -34 2q-31 0 -49 -19.5t-30 -72.5l-19 -86h111l-20 -104h-109l-57 -295q-12 -62 -31.5 -102t-48.5 -60.5t-59.5 -27.5t-75.5 -7q-37 0 -91 8l25 108h42q31 0 46.5 20.5t27.5 81.5
l51 274h-106z" />
    <glyph glyph-name="Scommaaccent" unicode="&#x218;" horiz-adv-x="537" 
d="M496 508h-174v17q0 34 -13.5 55.5t-39.5 21.5q-28 0 -43 -18.5t-15 -44.5q0 -38 31.5 -62.5t76 -41.5t89 -39t76 -70t31.5 -120q0 -220 -253 -220q-120 0 -180 47t-60 154v25h180v-17q0 -83 61 -83q28 0 44 19.5t16 49.5q0 28 -16 48.5t-42 33.5t-57 25t-62 28t-57 38.5
t-42 61t-16 89.5q0 223 234 223q122 0 176.5 -52.5t54.5 -167.5zM193 -155v105h142v-86q0 -97 -122 -97v42q26 5 34.5 12t10.5 24h-65z" />
    <glyph glyph-name="scommaaccent" unicode="&#x219;" horiz-adv-x="463" 
d="M17 168h158q0 -36 13 -53q13 -19 38 -19q22 0 37 12.5t15 33.5q0 26 -27 41.5t-65 27t-76.5 27.5t-65.5 53.5t-27 94.5q0 75 54.5 122t160.5 47q203 0 203 -170h-156q0 34 -11.5 47t-36.5 13q-21 0 -33.5 -11t-12.5 -31q0 -24 27 -38.5t65.5 -24.5t76.5 -25.5t65 -52.5
t27 -95q0 -80 -58.5 -130.5t-158.5 -50.5q-111 0 -161.5 45.5t-50.5 136.5zM163 -155v105h142v-86q0 -97 -122 -97v42q26 5 34.5 12t10.5 24h-65z" />
    <glyph glyph-name="uni021A" unicode="&#x21a;" horiz-adv-x="462" 
d="M138 0v556h-140v158h466v-158h-140v-556h-186zM161 -155v105h142v-86q0 -97 -122 -97v42q26 5 34.5 12t10.5 24h-65z" />
    <glyph glyph-name="uni021B" unicode="&#x21b;" horiz-adv-x="315" 
d="M2 420v121h60v159h180v-159h71v-121h-71v-258q0 -42 43 -42h28v-120q-49 -6 -98 -6q-87 0 -120 26t-33 112v288h-60zM120 -155v105h142v-86q0 -97 -122 -97v42q26 5 34.5 12t10.5 24h-65z" />
    <glyph glyph-name="circumflex" unicode="&#x2c6;" horiz-adv-x="260" 
d="M-28 591l62 146h192l62 -146h-122l-36 80l-36 -80h-122z" />
    <glyph glyph-name="caron" unicode="&#x2c7;" horiz-adv-x="260" 
d="M34 591l-62 146h122l36 -80l36 80h122l-62 -146h-192z" />
    <glyph glyph-name="uni02C9" unicode="&#x2c9;" horiz-adv-x="260" 
d="M-28 615v98h316v-98h-316z" />
    <glyph glyph-name="breve" unicode="&#x2d8;" horiz-adv-x="260" 
d="M-21 737h80q5 -66 71 -66t71 66h80q-5 -69 -43 -107.5t-108 -38.5t-108 38.5t-43 107.5z" />
    <glyph glyph-name="dotaccent" unicode="&#x2d9;" horiz-adv-x="260" 
d="M63 594v140h134v-140h-134z" />
    <glyph glyph-name="ring" unicode="&#x2da;" horiz-adv-x="260" 
d="M85 690q0 -19 13 -32t32 -13t32 13t13 32t-13 32t-32 13t-32 -13t-13 -32zM19 690q0 46 32.5 77t78.5 31t78.5 -31t32.5 -77t-32.5 -77t-78.5 -31q-48 0 -79.5 30t-31.5 78z" />
    <glyph glyph-name="ogonek" unicode="&#x2db;" horiz-adv-x="260" 
d="M212 -137l39 -40q-35 -32 -65.5 -44t-78.5 -12q-46 0 -72 24t-26 61q0 42 25.5 75t87.5 73h77q-59 -56 -74 -83q-12 -24 -12 -46q0 -17 9.5 -27t25.5 -10q27 0 64 29z" />
    <glyph glyph-name="tilde" unicode="&#x2dc;" horiz-adv-x="260" 
d="M209 734h86q-8 -71 -35 -105.5t-65 -34.5q-30 0 -70 15t-51 15q-23 0 -23 -30h-86q18 140 98 140q26 0 65 -15q45 -15 54 -15q23 0 27 30z" />
    <glyph glyph-name="hungarumlaut" unicode="&#x2dd;" horiz-adv-x="260" 
d="M147 591l44 146h168l-96 -146h-116zM-53 591l44 146h168l-96 -146h-116z" />
    <glyph glyph-name="uni0394" unicode="&#x394;" horiz-adv-x="722" 
d="M486 150l-134 386l-124 -386h258zM710 0h-698l249 712h177z" />
    <glyph glyph-name="uni03A9" unicode="&#x3a9;" horiz-adv-x="778" 
d="M726 416q0 -88 -45.5 -161.5t-127.5 -90.5v-19h172v-145h-302v222q63 11 94.5 60t31.5 117q0 75 -41.5 125t-115.5 50q-75 0 -119 -52.5t-44 -128.5q0 -66 31.5 -112.5t92.5 -58.5v-222h-302v145h173v19q-84 23 -128.5 91.5t-44.5 159.5q0 144 98 225t244 81
q141 0 237 -82.5t96 -222.5z" />
    <glyph glyph-name="uni03BC" unicode="&#x3bc;" 
d="M36 -176v717h180v-357q0 -34 10 -49t34 -15t34 15t10 49v357h180v-541h-174v66h-2q-34 -80 -77 -80q-9 0 -15 3v-165h-180z" />
    <glyph glyph-name="pi" unicode="&#x3c0;" horiz-adv-x="629" 
d="M604 134v-113q-58 -30 -109 -30q-70 0 -98.5 38t-28.5 109v217h-143v-355h-155v355h-70v141h604v-141h-81v-155q0 -3 -0.5 -14t0 -15.5l1.5 -14t3.5 -14t6.5 -9.5t11 -7.5t16 -2.5q19 0 43 11z" />
    <glyph glyph-name="endash" unicode="&#x2013;" horiz-adv-x="500" 
d="M0 216v146h500v-146h-500z" />
    <glyph glyph-name="emdash" unicode="&#x2014;" horiz-adv-x="1000" 
d="M0 216v146h1000v-146h-1000z" />
    <glyph glyph-name="quoteleft" unicode="&#x2018;" horiz-adv-x="260" 
d="M46 340v180q0 98 40 145t128 49v-86q-35 -4 -49.5 -23.5t-14.5 -60.5v-12h64v-192h-168z" />
    <glyph glyph-name="quoteright" unicode="&#x2019;" horiz-adv-x="260" 
d="M46 522v192h168v-180q0 -98 -40 -145t-128 -49v86q35 4 49.5 23.5t14.5 60.5v12h-64z" />
    <glyph glyph-name="quotesinglbase" unicode="&#x201a;" horiz-adv-x="260" 
d="M46 6v192h168v-180q0 -98 -40 -145t-128 -49v86q35 4 49.5 23.5t14.5 60.5v12h-64z" />
    <glyph glyph-name="quotedblleft" unicode="&#x201c;" horiz-adv-x="481" 
d="M42 340v180q0 98 40 145t128 49v-86q-35 -4 -49.5 -23.5t-14.5 -60.5v-12h64v-192h-168zM271 340v180q0 98 40 145t128 49v-86q-35 -4 -49.5 -23.5t-14.5 -60.5v-12h64v-192h-168z" />
    <glyph glyph-name="quotedblright" unicode="&#x201d;" horiz-adv-x="481" 
d="M271 522v192h168v-180q0 -98 -40 -145t-128 -49v86q35 4 49.5 23.5t14.5 60.5v12h-64zM42 522v192h168v-180q0 -98 -40 -145t-128 -49v86q35 4 49.5 23.5t14.5 60.5v12h-64z" />
    <glyph glyph-name="quotedblbase" unicode="&#x201e;" horiz-adv-x="481" 
d="M271 6v192h168v-180q0 -98 -40 -145t-128 -49v86q35 4 49.5 23.5t14.5 60.5v12h-64zM42 6v192h168v-180q0 -98 -40 -145t-128 -49v86q35 4 49.5 23.5t14.5 60.5v12h-64z" />
    <glyph glyph-name="dagger" unicode="&#x2020;" 
d="M170 520v194h180v-194h162v-140h-162v-520h-180v520h-162v140h162z" />
    <glyph glyph-name="daggerdbl" unicode="&#x2021;" 
d="M8 54v140h162v186h-162v140h162v194h180v-194h162v-140h-162v-186h162v-140h-162v-194h-180v194h-162z" />
    <glyph glyph-name="bullet" unicode="&#x2022;" horiz-adv-x="500" 
d="M72 357q0 74 52 126t126 52t126 -52t52 -126t-52 -126t-126 -52t-126 52t-52 126z" />
    <glyph glyph-name="ellipsis" unicode="&#x2026;" horiz-adv-x="1000" 
d="M749 0v198h168v-198h-168zM416 0v198h168v-198h-168zM83 0v198h168v-198h-168z" />
    <glyph glyph-name="perthousand" unicode="&#x2030;" horiz-adv-x="1111" 
d="M907 178q0 -69 6.5 -90.5t28.5 -21.5t28.5 21.5t6.5 90.5t-6.5 90.5t-28.5 21.5t-28.5 -21.5t-6.5 -90.5zM785 178q0 105 35 148.5t122 43.5t122 -43.5t35 -148.5t-35 -148.5t-122 -43.5t-122 43.5t-35 148.5zM12 516q0 105 35 148.5t122 43.5t122 -43.5t35 -148.5
t-35 -148.5t-122 -43.5t-122 43.5t-35 148.5zM436 178q0 105 35 148.5t122 43.5t122 -43.5t35 -148.5t-35 -148.5t-122 -43.5t-122 43.5t-35 148.5zM134 516q0 -69 6.5 -90.5t28.5 -21.5t28.5 21.5t6.5 90.5t-6.5 90.5t-28.5 21.5t-28.5 -21.5t-6.5 -90.5zM167 -14l317 722
h110l-317 -722h-110zM558 178q0 -69 6.5 -90.5t28.5 -21.5t28.5 21.5t6.5 90.5t-6.5 90.5t-28.5 21.5t-28.5 -21.5t-6.5 -90.5z" />
    <glyph glyph-name="guilsinglleft" unicode="&#x2039;" horiz-adv-x="240" 
d="M42 179v220l156 104v-158l-84 -56l84 -56v-158z" />
    <glyph glyph-name="guilsinglright" unicode="&#x203a;" horiz-adv-x="240" 
d="M42 75v158l84 56l-84 56v158l156 -104v-220z" />
    <glyph glyph-name="fraction" unicode="&#x2044;" horiz-adv-x="167" 
d="M-165 -31l387 756h110l-387 -756h-110z" />
    <glyph glyph-name="Euro" unicode="&#x20ac;" 
d="M491 674l-52 -158q-41 76 -98 76q-34 0 -52 -19t-22 -41t-4 -57h168l-27 -98h-142v-36v-14h134l-27 -98h-105q0 -3 0.5 -15.5t1 -17t2 -16.5t2.5 -17.5t4 -15.5t6.5 -14.5l8.5 -11.5t11.5 -10t15 -5.5t18.5 -2.5q76 0 140 113v-181q-65 -50 -160 -50q-116 0 -166 61.5
t-56 182.5h-61l27 98h31v41v9h-53l27 98h30q9 121 62 179.5t171 58.5q76 0 165 -39z" />
    <glyph glyph-name="afii61289" unicode="&#x2113;" horiz-adv-x="500" 
d="M465 56q-85 -70 -181 -70q-82 0 -127.5 42.5t-45.5 108.5v25l-54 -45h-2l-54 84l109 86v233q0 85 54 143t138 58q73 0 116.5 -42.5t43.5 -112.5q0 -77 -47 -149t-149 -154v-101q0 -33 16.5 -48t40.5 -15q36 0 88 37h2zM336 557q0 26 -9.5 44t-25.5 18q-15 0 -25 -19.5
t-10 -49.5v-157q70 71 70 164z" />
    <glyph glyph-name="trademark" unicode="&#x2122;" horiz-adv-x="1000" 
d="M830 302v260h-2l-90 -260h-86l-90 260h-2v-260h-128v412h174l89 -219l89 219h174v-412h-128zM114 302v308h-104v104h348v-104h-104v-308h-140z" />
    <glyph glyph-name="Omega" unicode="&#x2126;" horiz-adv-x="778" 
d="M726 416q0 -88 -45.5 -161.5t-127.5 -90.5v-19h172v-145h-302v222q63 11 94.5 60t31.5 117q0 75 -41.5 125t-115.5 50q-75 0 -119 -52.5t-44 -128.5q0 -66 31.5 -112.5t92.5 -58.5v-222h-302v145h173v19q-84 23 -128.5 91.5t-44.5 159.5q0 144 98 225t244 81
q141 0 237 -82.5t96 -222.5z" />
    <glyph glyph-name="estimated" unicode="&#x212e;" horiz-adv-x="600" 
d="M561 259h-404v-181q59 -59 145 -59q122 0 193 120l35 -21q-46 -72 -98 -103.5t-130 -31.5q-115 0 -186.5 79t-71.5 197q0 119 71 197.5t187 78.5q115 0 186.5 -77t72.5 -199zM157 295h291v145q-63 60 -147 60t-144 -60v-145z" />
    <glyph glyph-name="partialdiff" unicode="&#x2202;" horiz-adv-x="593" 
d="M391 273v21q-43 43 -95 43q-48 0 -74.5 -36t-26.5 -85q0 -46 24 -81t68 -35q29 0 51 17.5t32.5 45.5t15.5 55.5t5 54.5zM548 358q0 -71 -11.5 -131.5t-39 -117.5t-81 -90t-129.5 -33q-107 0 -174.5 65t-67.5 172q0 97 63.5 163.5t161.5 66.5q67 0 123 -41q0 32 -5.5 62.5
t-17.5 61t-37 49t-60 18.5q-58 0 -120 -58l-84 93q46 43 92.5 63t107.5 20q62 0 110.5 -20.5t79.5 -55t51.5 -82t29 -98t8.5 -107.5z" />
    <glyph glyph-name="Delta" unicode="&#x2206;" horiz-adv-x="722" 
d="M486 150l-134 386l-124 -386h258zM710 0h-698l249 712h177z" />
    <glyph glyph-name="product" unicode="&#x220f;" horiz-adv-x="759" 
d="M711 -214h-156v845h-350v-845h-157v1000h663v-1000z" />
    <glyph glyph-name="summation" unicode="&#x2211;" horiz-adv-x="704" 
d="M674 -214h-644v135l286 372l-275 356v137h621v-156h-413l251 -337l-266 -351h440v-156z" />
    <glyph glyph-name="minus" unicode="&#x2212;" horiz-adv-x="600" 
d="M47 183v140h506v-140h-506z" />
    <glyph glyph-name="uni2215" unicode="&#x2215;" horiz-adv-x="167" 
d="M-165 -31l387 756h110l-387 -756h-110z" />
    <glyph glyph-name="uni2219" unicode="&#x2219;" horiz-adv-x="260" 
d="M31 274q0 42 28.5 70.5t70.5 28.5t70.5 -28.5t28.5 -70.5t-28.5 -70.5t-70.5 -28.5t-70.5 28.5t-28.5 70.5z" />
    <glyph glyph-name="radical" unicode="&#x221a;" horiz-adv-x="611" 
d="M617 786l-225 -1000h-142l-140 286l-58 -27l-58 122l198 91l104 -232l155 760h166z" />
    <glyph glyph-name="infinity" unicode="&#x221e;" horiz-adv-x="889" 
d="M365 271q-22 32 -53.5 57t-62.5 25q-33 0 -52.5 -23.5t-19.5 -57.5q0 -35 19.5 -56.5t53.5 -21.5q62 0 115 77zM712 273q0 35 -20.5 57.5t-55.5 22.5q-57 0 -113 -82q55 -78 116 -78q35 0 54 22.5t19 57.5zM844 276q0 -96 -54 -158.5t-149 -62.5q-111 0 -197 118
q-41 -57 -85.5 -87t-105.5 -30q-96 0 -152 61.5t-56 158.5q0 95 54 154.5t149 59.5q65 0 107 -31t89 -95q44 63 87.5 94.5t109.5 31.5q95 0 149 -59.5t54 -154.5z" />
    <glyph glyph-name="integral" unicode="&#x222b;" horiz-adv-x="667" 
d="M573 684q0 -32 -20 -52.5t-52 -20.5q-33 0 -49 17t-17 37.5t-5.5 37.5t-17.5 17q-20 0 -20 -40q0 -34 4 -101t4 -101l1 -302v-32q1 -45 0.5 -69t-4 -67.5t-10.5 -69t-21.5 -58.5t-35.5 -51t-53.5 -31t-74.5 -13q-52 0 -97 26.5t-45 75.5q0 32 19.5 52.5t51.5 20.5
t48.5 -17t18 -37t6.5 -37t17 -17q20 0 20 42q0 30 -4.5 87t-4.5 86v389v49t2 48.5t5.5 52.5t11.5 46t19 46t29 36t41 32q36 20 90 20q53 0 98 -26t45 -76z" />
    <glyph glyph-name="approxequal" unicode="&#x2248;" horiz-adv-x="593" 
d="M477 253h102q-3 -49 -17.5 -95t-50 -84t-85.5 -38q-41 0 -130.5 30t-127.5 30q-46 0 -53 -52h-101q0 44 17.5 92t54 85t82.5 37q44 0 129 -29.5t129 -29.5q25 0 36 13.5t15 40.5zM477 503h102q-3 -49 -19 -95.5t-53 -83.5t-87 -37q-35 0 -124.5 30t-128.5 30
q-22 0 -36 -15.5t-16 -38.5h-101q0 47 17 95t54.5 84.5t86.5 36.5q39 0 127.5 -29.5t126.5 -29.5q46 0 51 53z" />
    <glyph glyph-name="notequal" unicode="&#x2260;" horiz-adv-x="593" 
d="M569 72h-285l-80 -163l-138 68l46 95h-89v157h167l42 87h-209v158h287l80 161l137 -68l-46 -93h88v-158h-165l-43 -87h208v-157z" />
    <glyph glyph-name="lessequal" unicode="&#x2264;" horiz-adv-x="593" 
d="M569 -53h-546v157h546v-157zM569 128l-546 164v156l546 148v-160l-326 -66l326 -81v-161z" />
    <glyph glyph-name="greaterequal" unicode="&#x2265;" horiz-adv-x="593" 
d="M569 -53h-546v157h546v-157zM569 292l-546 -164v161l327 81l-327 66v160l546 -148v-156z" />
    <glyph glyph-name="lozenge" unicode="&#x25ca;" horiz-adv-x="593" 
d="M400 356l-104 231l-105 -231l105 -231zM562 356l-196 -391h-142l-194 391l196 391h140z" />
    <glyph glyph-name="commaaccent" unicode="&#xf004;" horiz-adv-x="260" 
d="M62 -155v105h142v-86q0 -97 -122 -97v42q26 5 34.5 12t10.5 24h-65z" />
    <glyph glyph-name="commaaccent" unicode="&#xf6c3;" horiz-adv-x="260" 
d="M62 -155v105h142v-86q0 -97 -122 -97v42q26 5 34.5 12t10.5 24h-65z" />
    <glyph glyph-name="dotlessj" unicode="&#xf6be;" horiz-adv-x="258" 
d="M39 -12v553h180v-576q0 -36 -9 -62.5t-23 -41.5t-36.5 -23.5t-45 -11t-53.5 -2.5q-36 0 -81 5v121q36 0 52 7.5t16 30.5z" />
    <glyph glyph-name="dotlessj" unicode="&#xfb0f;" horiz-adv-x="258" 
d="M39 -12v553h180v-576q0 -36 -9 -62.5t-23 -41.5t-36.5 -23.5t-45 -11t-53.5 -2.5q-36 0 -81 5v121q36 0 52 7.5t16 30.5z" />
    <glyph glyph-name="uniF8FF" unicode="&#xf8ff;" horiz-adv-x="512" 
d="M222 117h56v67h-56v-67zM225 234h46q0 52 6 72q6 19 43 52q37 34 50 60t13 60q0 59 -35 95t-89 36q-56 0 -92 -34t-43 -103l50 -8q11 95 82 95q31 0 53.5 -24.5t22.5 -60.5q0 -20 -9.5 -37t-40.5 -46q-31 -31 -46 -59q-13 -25 -13 -81zM462 50h-412v617h412v-617z
M512 718h-512v-718h512v718z" />
    <glyph glyph-name="commaaccent.alt" horiz-adv-x="260" 
d="M202 714v-105h-142v86q0 97 122 97v-42q-24 -5 -33.5 -12.5t-11.5 -23.5h65z" />
    <glyph glyph-name="caron.alt" horiz-adv-x="260" 
d="M57 568l25 146h142l-58 -146h-109z" />
    <glyph glyph-name="grave.cap" horiz-adv-x="260" 
d="M97 765l-96 146h168l44 -146h-116z" />
    <glyph glyph-name="acute.cap" horiz-adv-x="260" 
d="M57 765l44 146h168l-96 -146h-116z" />
    <glyph glyph-name="circumflex.cap" horiz-adv-x="260" 
d="M-28 765l62 146h192l62 -146h-122l-36 80l-36 -80h-122z" />
    <glyph glyph-name="caron.cap" horiz-adv-x="260" 
d="M34 765l-62 146h122l36 -80l36 80h122l-62 -146h-192z" />
    <glyph glyph-name="tilde.cap" horiz-adv-x="260" 
d="M209 908h86q-8 -71 -35 -105.5t-65 -34.5q-30 0 -70 15t-51 15q-23 0 -23 -30h-86q18 140 98 140q26 0 65 -15q45 -15 54 -15q23 0 27 30z" />
    <glyph glyph-name="dieresis.cap" horiz-adv-x="260" 
d="M154 768v140h134v-140h-134zM-28 768v140h134v-140h-134z" />
    <glyph glyph-name="macron.cap" horiz-adv-x="260" 
d="M-28 789v98h316v-98h-316z" />
    <glyph glyph-name="breve.cap" horiz-adv-x="260" 
d="M-21 911h80q5 -66 71 -66t71 66h80q-5 -69 -43 -107.5t-108 -38.5t-108 38.5t-43 107.5z" />
    <glyph glyph-name="ring.cap" horiz-adv-x="260" 
d="M85 690q0 -19 13 -32t32 -13t32 13t13 32t-13 32t-32 13t-32 -13t-13 -32zM19 690q0 46 32.5 77t78.5 31t78.5 -31t32.5 -77t-32.5 -77t-78.5 -31q-48 0 -79.5 30t-31.5 78z" />
    <glyph glyph-name="hungarumlaut.cap" horiz-adv-x="260" 
d="M147 765l44 146h168l-96 -146h-116zM-53 765l44 146h168l-96 -146h-116z" />
    <glyph glyph-name="dotaccent.cap" horiz-adv-x="260" 
d="M63 768v140h134v-140h-134z" />
    </font>
</defs>
</svg>
