<?xml version="1.0" standalone="no"?>
<!DOCTYPE svg PUBLIC "-//W3C//DTD SVG 1.1//EN" "http://www.w3.org/Graphics/SVG/1.1/DTD/svg11.dtd" >
<svg xmlns="http://www.w3.org/2000/svg">
<metadata></metadata>
<defs>
<font id="pepparegular" horiz-adv-x="964" >
<font-face units-per-em="2048" ascent="1638" descent="-410" />
<missing-glyph horiz-adv-x="585" />
<glyph horiz-adv-x="0" />
<glyph unicode="&#xd;" horiz-adv-x="585" />
<glyph unicode=" "  horiz-adv-x="585" />
<glyph unicode="&#x09;" horiz-adv-x="585" />
<glyph unicode="&#xa0;" horiz-adv-x="585" />
<glyph unicode="!" horiz-adv-x="407" d="M84 104q0 -61 57 -92q23 -12 43 -12q47 0 82 44t35 97q0 43 -27.5 72t-70.5 29q-47 0 -83 -43t-36 -95zM125 838q0 -98 2 -154q14 -307 61 -307q16 0 39 29q94 125 95 509q0 250 -48 353q-41 88 -71 88q-78 0 -78 -518z" />
<glyph unicode="&#x22;" horiz-adv-x="690" d="M92 1513q-2 -133 10 -217q12 -100 64 -143q16 -14 33 -14q53 0 71 186q10 129 4 217q-8 92 -67 92q-29 0 -71 -17.5t-44 -103.5zM414 1513q-2 -133 10 -217q14 -100 63 -143q18 -14 33 -14q55 0 72 186q10 129 4 217q-8 92 -68 92q-29 0 -67 -16q-45 -18 -47 -105z" />
<glyph unicode="#" horiz-adv-x="1556" d="M76 469q0 -57 184 -53q43 2 135 2q-20 -145 -20 -242q0 -164 59 -164q37 0 64 66q35 90 80 340h301q-20 -145 -21 -242q0 -164 57 -164q37 0 64 66q35 90 82 340q94 -6 131 -6q147 0 192 55q31 37 31 63q0 72 -258 86q-6 0 -57 2q23 113 43 254q76 -6 114 -6 q148 1 193 58q31 35 31 63q0 72 -258 86q-4 0 -54 2l13 105q16 125 16 174q0 106 -45 106q-27 0 -70 -37t-67 -159q-14 -96 -29 -193q-47 -2 -303 -20l16 129q16 125 17 174q0 106 -45 106q-27 0 -70 -35q-45 -41 -72 -176l-28 -196l-2 -13q-51 -2 -76 -2q-111 0 -197 -36.5 t-86 -77.5q0 -57 185 -52q49 0 145 2q-29 -158 -49 -288q-51 -2 -64 -2q-111 0 -196.5 -38t-85.5 -77zM614 594q25 121 45 280q168 -2 293 0q-25 -141 -45 -260q-35 0 -293 -20z" />
<glyph unicode="$" horiz-adv-x="974" d="M84 899q0 131 127 227q74 53 166 68q6 111 43 157t65 46q55 0 64 -209q125 -25 242 -103l45 -65q4 -23 4 -41q0 -47 -41 -47q-35 0 -105 37q-49 25 -96 49q-20 8 -43 14l6 -327q102 -29 129 -37q61 -20 86 -37q115 -80 115 -232q0 -111 -61.5 -215t-157.5 -149 q-45 -20 -133 -35q-14 -147 -43 -168q-14 -12 -29 -12q-53 0 -78 168q-283 -6 -283 116q0 35 27 78q80 -12 242 -30q-4 57 -4 174q-2 123 0 274q-287 84 -287 299zM221 909q0 -78 152 -141l4 168q0 18 -2 113q-80 -10 -117 -54.5t-37 -85.5zM549 172q76 31 123 109 q45 70 45 122q0 92 -156 144q-2 -88 -6 -162q-2 -57 -6 -213z" />
<glyph unicode="%" horiz-adv-x="1802" d="M94 1094q0 -111 82 -213.5t191 -120.5q31 -6 61 -6q158 0 282 119.5t124 275.5q0 57 -19 111q-35 94 -126 143t-204 49q-153 0 -249 -82q-61 -51 -101 -141q-41 -59 -41 -135zM233 1040q0 78 74 146.5t158 83.5q29 4 55 4q80 0 122 -42t42 -106q0 -63 -41 -126.5 t-109.5 -96.5t-123.5 -33q-94 0 -154 93q-23 37 -23 77zM453 -2q0 -61 51 -51q47 8 174 223q78 137 153 274q102 170 357 682q102 211 102 273q0 41 -35 41q-25 0 -67 -21q-59 -29 -135 -166q-53 -102 -105 -204q-200 -365 -309 -576q-186 -365 -186 -475zM967 340 q0 -113 83 -215t189 -121q31 -6 61 -6q158 0 283 120t125 275q0 57 -20 113q-33 92 -129 143q-88 47 -199 47q-156 0 -252 -82q-59 -51 -98 -141q-43 -57 -43 -133zM1106 285q0 78 76 149q72 66 155 80q29 6 56 6q80 0 125 -45q39 -39 38 -104q0 -63 -40.5 -126t-112.5 -98 q-63 -33 -119 -32q-96 0 -154 94q-25 35 -24 76z" />
<glyph unicode="&#x26;" horiz-adv-x="1443" d="M90 293q0 -94 35 -170q86 -186 367 -189q307 -2 493 132q133 -63 258 -64q111 0 111 59q-1 64 -99 132q-53 35 -131 65q27 66 27 117q0 53 -33 87t-86 34q-80 0 -155 -146q-43 20 -78 43q-154 100 -279 262q66 55 180 154q190 166 179 291q-8 100 -131 157 q-94 45 -220 54q-104 6 -186 -47.5t-121 -149.5q-23 -61 -22 -133q0 -129 75 -281q-184 -164 -184 -407zM289 252q-12 125 104 270q102 -127 402 -342q-29 -51 -54 -69q-70 -49 -172 -50q-104 0 -184 50q-86 53 -96 141zM373 963q-4 61 41 129.5t108 68.5q31 0 64 -18 q57 -37 57 -88q0 -98 -219 -250q-43 84 -51 158z" />
<glyph unicode="'" horiz-adv-x="458" d="M94 934q0 -29 49 -29q51 0 84 17q59 31 98.5 99.5t39.5 139.5q0 53 -23 92t-84 39q-31 0 -55 -10q-43 -20 -43 -68q0 -23 10 -59q12 -51 14 -57q10 -53 -8 -86q-8 -12 -42 -31.5t-38 -34.5q-2 -6 -2 -12z" />
<glyph unicode="(" horiz-adv-x="815" d="M106 537q0 231 76 491q84 274 203 395q37 39 121 76t133 37q70 0 70 -68q0 -27 -11 -63q-8 -25 -80 -64q-84 -43 -96 -55q-59 -63 -127 -227q-61 -154 -82 -273q-10 -72 -10 -153q0 -207 64 -352q39 -90 156.5 -138.5t141 -107t23.5 -92.5q0 -68 -74 -68q-51 0 -127 31 q-63 27 -94 53q-115 92 -192 236q-94 168 -95 342z" />
<glyph unicode=")" horiz-adv-x="716" d="M57 1468q0 -27 11 -63q8 -25 79 -64q84 -43 97 -55q61 -63 127 -227q61 -154 82 -273q12 -72 12 -153q0 -207 -64 -352q-39 -90 -156.5 -138.5t-141 -107t-23.5 -92.5q0 -68 74 -68q51 0 125 31q63 27 94 53q115 92 192 236q94 168 94 342q2 231 -75 491 q-82 274 -203 395q-37 39 -121 76t-133 37q-70 0 -70 -68z" />
<glyph unicode="*" horiz-adv-x="978" d="M82 803q0 -57 92 -103q78 -39 178 -49q-147 -158 -147 -245q0 -68 67 -68q59 0 134 104q55 78 96 176q137 -264 221 -264q23 0 40 22.5t17 47.5q0 74 -149 238q94 12 176 51q92 43 90 84q-4 70 -80 69q-90 0 -235 -82q8 80 8 142q0 170 -68 170q-18 0 -41 -13 q-47 -25 -47 -147q0 -57 12 -143q-68 31 -133 63q-80 35 -129 35q-51 0 -82 -37q-20 -27 -20 -51z" />
<glyph unicode="+" horiz-adv-x="1236" d="M66 729q0 -29 26 -63q37 -57 160 -58q31 0 94 6q57 4 78 4q20 -2 94 -2q0 -37 2 -110q2 -20 -2 -78q-6 -63 -6 -96q0 -121 55 -160q37 -25 66 -25q72 0 86 213q6 104 -6 256q207 2 305 -2q154 -6 153 52q0 41 -70.5 78.5t-164 38t-240.5 12.5q-12 137 -12 226t-39 163 q-37 68 -76 67q-57 0 -51 -151q2 -98 0 -289q-139 10 -239 4q-213 -14 -213 -86z" />
<glyph unicode="," horiz-adv-x="442" d="M94 -102q0 14 37 52t43 58q2 8 2 25q0 16 -5 60t-5 65q0 61 43 61q10 0 22 -2l56 -20q61 -37 61 -121q0 -78 -52 -146.5t-124 -68.5q-18 0 -37 4q-41 12 -41 33z" />
<glyph unicode="-" horiz-adv-x="897" d="M102 395q0 -57 97 -53q122 -2 370 4q14 0 51 -4t58 -4q76 0 100 55q16 37 17 64q0 72 -133 86q-27 4 -56 4q-59 0 -178 -18.5t-178.5 -18.5t-103.5 -38t-44 -77z" />
<glyph unicode="." horiz-adv-x="391" d="M68 74q0 43 26.5 71.5t67.5 28.5q43 0 85 -28.5t42 -69.5q0 -51 -78 -84q-20 -10 -43 -10q-41 0 -70.5 26.5t-29.5 65.5z" />
<glyph unicode="/" horiz-adv-x="915" d="M63 10q13 66 93 242q150 328 159 350q92 199 172 344q74 139 146 279q121 221 166 231q12 2 22 0q43 -8 27 -100q-23 -127 -166 -432q-100 -215 -291 -586q-47 -104 -96 -207q-72 -139 -131 -172q-49 -25 -76 -20q-37 6 -25 71z" />
<glyph unicode="0" horiz-adv-x="1148" d="M111 625q0 233 88 415q96 199 264 250q47 25 94 35q41 6 80 6q199 0 319 -186q109 -170 109 -416q0 -75 -12 -149q-63 -385 -240 -498q-143 -94 -291 -98v2q-104 2 -188 67q-109 82 -168 242q-55 150 -55 330zM250 666q0 -174 55 -330q45 -123 150 -195l-4 11 q14 -31 61 -31q94 0 193 63q248 166 247 512q1 121 -34 244q-57 201 -293 201q-66 0 -125 -19q-250 -78 -250 -456z" />
<glyph unicode="1" horiz-adv-x="561" d="M113 1069q0 -25 6 -49q14 -4 28 -4q66 0 148 45q2 -66 2 -172q-8 -311 -6 -490q6 -408 92 -407q39 0 55.5 66.5t22.5 215.5q2 86 6 172q10 150 -2 580q0 80 -16 203q-6 16 -33 47q-102 -2 -195 -53q-109 -59 -108 -154z" />
<glyph unicode="2" horiz-adv-x="1097" d="M90 1014q0 -59 62 -60q29 0 69 15q8 4 137 78q96 55 154 55q29 0 51 -12q72 -37 72 -138q0 -141 -148 -399q-88 -109 -176 -217q-139 -170 -139 -254q0 -25 12 -45q25 -43 275 -53q61 -4 170 2q121 8 168 8q12 0 58 -5t73 -5q78 0 98 36q12 18 12 37q0 72 -118 95 q-29 6 -146 -9q-137 -14 -194 -14q-197 0 -107 131q49 72 123 164q264 334 264 553q0 61 -16 117q-61 201 -299 200q-117 0 -230 -53q-195 -92 -219 -186q-6 -23 -6 -41z" />
<glyph unicode="3" horiz-adv-x="995" d="M111 1157q0 -27 38.5 -33t75.5 -8q188 -29 322 -29q94 0 178 13q-76 -68 -152 -135q-90 -82 -157 -127q-55 -35 -109 -68q-80 -55 -80 -98q0 -10 4 -21q27 -49 146 -55q158 -10 166 -12q88 -29 141 -88q57 -66 57 -146q0 -27 -8 -55q-18 -78 -69.5 -127t-116.5 -49 q-41 0 -84 20q-8 4 -90 80q-72 68 -111 68q-41 0 -53 -76q-8 -59 92 -131q82 -59 150 -76q39 -10 75 -10q139 0 254 111.5t115 248.5q0 139 -103.5 246t-244.5 107q-37 0 -76 -9q49 57 197 156q133 90 188 171t55 132q0 84 -155 103q-135 18 -310 6q-90 -6 -180 -11 q-125 -18 -149 -75q-6 -14 -6 -23z" />
<glyph unicode="4" horiz-adv-x="960" d="M55 358q-12 164 92 439q109 285 244 407q20 37 74.5 81t93.5 44q37 0 41 -51q6 -57 -104 -195q-102 -125 -185 -315q-31 -70 -61 -139q-41 -100 -41 -154q0 -14 2 -26q121 -2 303 -9q4 27 10 149t6 126q16 92 72 90q61 -4 62 -62q0 -14 -5.5 -42.5t-5.5 -38.5 q6 -70 11 -213q8 0 53 2t74 2q156 0 155 -60q0 -8 -2 -18q-20 -61 -121 -78q-80 -8 -159 -14q-4 -2 -7 -74q-2 -90 -12 -137q-18 -78 -61 -88q-14 -4 -25 -4q-72 0 -72 124q0 55 15 140q12 68 10 67q-221 6 -244 8q-211 10 -213 39z" />
<glyph unicode="5" horiz-adv-x="989" d="M88 238q0 29 25.5 47t54.5 18q45 0 119 -45q94 -57 106 -61q59 -23 117 -23q141 0 209 123q29 51 29 109q0 82 -56.5 155.5t-138.5 108.5q-23 10 -51 10q-49 0 -155.5 -44t-151.5 -44t-76 32.5t-31 104.5q0 41 12.5 116t12.5 99q2 188 10 225q31 131 158 131 q10 0 110.5 5.5t171.5 5.5q394 -1 361 -144q-12 -51 -185 -61h-213q-14 0 -73.5 6t-92.5 6q-74 0 -97 -25.5t-23 -119.5q0 -51 6 -127l10 -96q-2 41 104 63q86 18 138 12q135 -12 257 -135t122 -248q0 -113 -101 -258q-127 -182 -323 -182q-70 0 -138 29q-55 23 -131 80 q-96 74 -96 127z" />
<glyph unicode="6" horiz-adv-x="925" d="M102 520q6 -152 29 -233q31 -113 119 -207t209 -94q90 0 184 56t149.5 149.5t55.5 189.5q0 166 -154 264q-96 61 -223 72q-47 2 -117 -6q-92 -10 -94 -37q10 109 80 223q66 109 156 180l110 66q82 53 82 90q0 31 -51 51q-31 12 -64 12q-170 0 -356 -315 q-123 -209 -115 -461zM250 395q0 92 46 150.5t128 58.5q90 0 201 -72q100 -63 100 -165q0 -98 -83 -185.5t-179 -87.5q-104 0 -162 109q-51 96 -51 192z" />
<glyph unicode="7" horiz-adv-x="919" d="M106 1206q0 -53 87 -73q51 -10 116 -11q35 0 107.5 4t109.5 4q90 0 156 -20q-111 -367 -303 -682q-57 -92 -115 -182q-92 -156 -92 -219q0 -41 41 -41q12 0 29 4q90 23 168 143q49 78 115.5 243t95.5 208q160 264 217 508q29 131 -72 178q-65 30 -217 30q-39 0 -120 11.5 t-122 11.5q-84 0 -142.5 -35t-58.5 -82z" />
<glyph unicode="8" horiz-adv-x="1017" d="M141 973q0 -119 76 -201q49 -51 127 -88q-199 -117 -199 -328q0 -84 37 -170q88 -199 338 -198q217 0 363 149q82 86 82 199q0 102 -65 197.5t-169 148.5q199 143 199 326q0 156 -166 258q-106 63 -234 63q-221 0 -331 -164q-57 -88 -58 -192zM266 975q0 94 103 151 q88 50 188 50q180 0 227 -134q16 -45 17 -88q0 -96 -73 -158.5t-171 -66.5q-41 8 -74 8q-80 18 -137 78q-80 82 -80 160zM287 383q0 92 80 160q74 63 174 63q94 0 164 -63q90 -86 90 -207q0 -84 -50 -146q-55 -68 -153 -86q-23 -4 -43 -4q-102 0 -182 90.5t-80 192.5z" />
<glyph unicode="9" horiz-adv-x="933" d="M106 909q0 -166 152 -264q98 -61 225 -72q45 -2 117 7q92 10 94 36q-10 -109 -77.5 -220t-159.5 -183q-53 -33 -109 -66q-82 -53 -82 -90q0 -31 51 -51q31 -12 64 -12q168 0 356 315q123 209 115 461q-6 152 -29 234q-31 113 -120 207t-207 94q-90 0 -184.5 -56.5 t-150 -149.5t-55.5 -190zM229 924q0 98 82.5 186t180.5 88q104 0 161 -111q51 -96 52 -192q0 -92 -46.5 -150.5t-130.5 -58.5q-88 0 -200 72q-98 63 -99 166z" />
<glyph unicode=":" horiz-adv-x="352" d="M86 92q14 66 78 66q35 0 69.5 -23.5t34.5 -58.5q0 -41 -63 -70q-18 -8 -37 -8q-39 0 -64.5 27.5t-17.5 66.5zM86 502q14 68 78 67q35 0 69.5 -24.5t34.5 -57.5q0 -43 -63 -71q-18 -8 -37 -8q-39 0 -64.5 27.5t-17.5 66.5z" />
<glyph unicode=";" horiz-adv-x="425" d="M86 -102q0 14 37 52t43 58q4 8 4 25q0 16 -6 60t-6 65q0 61 43 61q10 0 22 -2l58 -20q59 -37 59 -121q0 -78 -52 -146.5t-124 -68.5q-18 0 -35 4q-43 12 -43 33zM143 502q14 68 76 67q37 0 72 -24.5t35 -57.5q0 -43 -66 -71q-16 -8 -35 -8q-39 0 -64.5 27.5t-17.5 66.5z " />
<glyph unicode="&#x3c;" horiz-adv-x="1058" d="M80 729q4 -92 186 -227q164 -123 381 -213q59 -27 117 -53q100 -41 156 -41q51 0 59 38q12 74 -113 142q-84 39 -168 76q-37 18 -110 53q-20 10 -164 98q-106 66 -100 74q28 35 102 76q125 70 250 139q143 86 231 164q59 53 60 94q0 41 -56 41q-25 0 -53 -8 q-68 -18 -158 -70q-76 -45 -153 -90q-49 -29 -242 -145q-61 -31 -121 -62q-100 -51 -102 -70q-2 -8 -2 -16z" />
<glyph unicode="=" horiz-adv-x="1228" d="M53 924q0 -57 154 -52q197 -1 594 5q20 0 80.5 -5.5t91.5 -5.5q123 0 162 58q25 35 24 63q0 72 -213 86q-43 2 -88 2q-94 0 -283.5 -17.5t-284.5 -17.5t-166 -37.5t-71 -78.5zM70 385q0 -59 151 -53q197 -2 594 4q23 0 82 -4t92 -4q123 0 160 55q25 37 25 63 q0 72 -213 86q-41 2 -87 3q-94 0 -283.5 -17.5t-284.5 -17.5t-165.5 -38t-70.5 -77z" />
<glyph unicode="&#x3e;" horiz-adv-x="1064" d="M84 233q-14 74 111 142q86 39 170 76q37 18 110 53q20 10 164 98q106 66 98 74q-26 35 -100 76q-125 70 -250 139q-143 86 -233 164q-59 53 -60 94q0 41 58 41q23 0 51 -8q70 -18 159 -70l152 -90q51 -29 244 -145q59 -31 121 -62q100 -51 102 -70q2 -8 2 -16 q-4 -92 -188 -227q-164 -123 -379 -213q-59 -27 -119 -53q-100 -41 -154 -41q-53 0 -59 38z" />
<glyph unicode="?" horiz-adv-x="954" d="M76 1067q0 -53 19.5 -93t68.5 -40q53 0 87 35t60 147q23 100 81.5 134t111.5 34q76 0 124 -58.5t48 -135.5q0 -39 -12 -72q-29 -78 -143.5 -159t-145.5 -167q-27 -72 -19 -155q6 -51 31 -107q31 -70 68 -68q47 6 57 132q14 150 20 159q37 61 97 97q92 55 106 69 q49 41 62 51q33 33 47 62q35 66 35 145q0 98 -52.5 182t-142.5 117q-115 43 -225 43q-109 0 -195 -41q-100 -47 -144 -138t-44 -173zM336 94q0 -63 55 -94q23 -12 45 -12q47 0 82 45t35 96q0 43 -28.5 71.5t-71.5 28.5q-47 0 -82 -43t-35 -92z" />
<glyph unicode="@" horiz-adv-x="1546" d="M109 731q0 -270 147 -455q59 -76 166 -145q178 -117 395 -131q178 -12 440 152q53 33 76 53q37 33 56 74q10 27 10 49q0 45 -39 45t-100 -49q-88 -72 -95 -76q-111 -63 -241 -98q-51 -14 -105 -15q-176 0 -323 129l-82 62q-47 35 -66.5 75.5t-40.5 108.5q-25 88 -33 111 q-18 49 -18 110q0 102 47 215q45 106 111 180q162 180 438 166q162 -8 276 -67q55 -29 113.5 -123t67.5 -160q4 -49 4 -96q0 -176 -72 -256q-47 -53 -108 -53q-90 0 -86 102q8 66 20 190q10 109 -39 183q-86 129 -237 129q-27 0 -60 -4q-121 -14 -226.5 -127t-117.5 -234 q-2 -25 -2 -49q0 -164 90 -276q109 -133 289 -117q55 4 151 67q25 18 50 19q18 0 49 -14q45 -20 55 -25q25 -8 49 -8q109 0 217 157q100 147 103 320q2 203 -74 338q-72 127 -248 201q-158 68 -330 67q-47 0 -88 -6q-61 -8 -125 -33q-358 -143 -440 -481q-25 -100 -24 -205z M485 707q0 113 80 196q68 72 193 72q43 0 80 -10q98 -31 98 -154q0 -66 -26.5 -143.5t-78.5 -130.5q-61 -66 -133 -66q-31 0 -63 14q-47 18 -66 35q-33 25 -55 68q-29 55 -29 119z" />
<glyph unicode="A" horiz-adv-x="1144" d="M86 33q0 -53 33 -53q29 0 84 40q68 51 116 187q35 111 68 219q20 59 62 184q120 -15 210 -15q84 0 142 13q25 -160 49 -319q43 -221 129 -271q20 -12 37 -12q41 0 41 84q0 127 -62 326q-74 239 -86 319q-53 369 -159 559q-61 113 -119 113q-57 0 -117 -131 q-43 -113 -86 -223q-20 -45 -113 -348q-23 -78 -69 -189q-70 -166 -76 -182q-84 -215 -84 -301zM485 731q16 47 27 80q6 14 84 164q70 131 66 149q0 -2 108 -393q-42 7 -113.5 7t-171.5 -7z" />
<glyph unicode="B" horiz-adv-x="1122" d="M82 246q0 -139 122 -211t347 -76h11q100 0 204 33q123 39 197.5 111.5t76.5 172.5q1 148 -122 271q-55 55 -144 90q100 47 165 143.5t65 202.5q0 158 -150 277q-129 102 -297 133q-43 6 -88 6q-164 0 -268 -88q-90 -78 -90 -196v-5q0 -45 -11 -145l-4 -52q-5 -50 -5 -131 q0 -60 3 -137t3 -138q0 -81 -5 -132l-4 -31q-6 -66 -6 -98zM276 438q0 88 38 119t112 31q76 0 166 -29q82 -27 129 -61q61 -45 82 -84q27 -51 26 -101q0 -98 -106 -157q-89 -50 -195 -50q-41 0 -82 9q-109 20 -137 94q-8 16 -28 166q-4 35 -5 63zM297 827q0 20 3 58.5 t3 52.5v51v12q0 111 35 150q45 49 133 49q117 0 222.5 -67.5t125.5 -178.5q2 -14 2 -27q0 -44 -26 -77q-45 -55 -179 -88q-93 -23 -175 -23q-23 0 -44 2q-59 4 -79.5 23.5t-20.5 62.5z" />
<glyph unicode="C" horiz-adv-x="1359" d="M70 653q0 -168 45 -291q66 -184 219 -278q137 -88 319 -88q162 0 317.5 68.5t262.5 189.5q59 68 59 131q0 55 -43 68q-9 2 -18 2q-41 0 -98 -41q-35 -27 -113 -131q-59 -82 -143 -109q-71 -22 -140 -22h-6q-221 0 -362 204q-115 167 -115 374q0 28 2 58q16 215 136 332 t310 117q70 0 144 -16q31 -6 158 -66q91 -42 139 -42q8 0 14 1q78 12 78 60q0 49 -92 137q-133 127 -371 127q-285 0 -473 -156q-113 -94 -174 -274q-55 -166 -55 -355z" />
<glyph unicode="D" horiz-adv-x="1204" d="M76 242q6 -147 41 -201q43 -63 155 -64q51 0 155.5 16.5t145.5 16.5q104 0 140 4q80 10 135 41q154 84 239 269q80 172 80 372q0 180 -63 320q-53 115 -156 213q-108 106 -223 145q-35 10 -172 25q-154 16 -270 16q-178 0 -187 -39q-12 -55 -14 -131q-1 -24 -1 -58t1 -79 t1 -77.5t-1 -53.5q-6 -269 -6 -449v-84v-202zM254 172q-4 34 -4 90q0 90 10 236q6 90 7 214q0 31 -1 64l-6 282v-1q0 104 21.5 141t87.5 37q37 0 102 -10q201 -35 363 -193q170 -162 170 -349v-17q-4 -127 -87 -254t-194 -191q-29 -16 -164 -41q-142 -28 -225 -28h-6 q-72 0 -74 20z" />
<glyph unicode="E" horiz-adv-x="884" d="M37 231q0 29 5 107t5 125v84q0 179 6 448q0 29 -6 99.5t-6 107.5q0 86 29 131q70 113 356 113q43 0 154 -4q266 -14 266 -88q0 -31 -55 -70q-31 -20 -107 -20q-55 0 -174 14q-97 12 -134 12h-9q-47 -10 -144 -20q2 -35 6 -127q4 -113 11 -336q188 24 315 24h10 q244 0 244 -88q0 -8 -4 -18q-20 -84 -344 -84q-111 0 -223 10q-2 -74 -7 -137q0 -96 -14 -317q94 12 221 12q172 0 262 -27q76 -24 76 -65q0 -20 -18 -45q-57 -80 -254 -80q-98 0 -291 28q-102 16 -143 72q-33 47 -33 139z" />
<glyph unicode="F" horiz-adv-x="907" d="M51 1167q-1 -37 7 -109q5 -51 6 -78q0 -11 -1 -19q-6 -270 -6 -449v-84q6 -444 97 -444q43 0 59 72.5t23 234.5q4 94 6 188q4 63 6 137q113 -10 223 -10q324 0 344 84q4 10 4 19q0 88 -244 88q-131 0 -325 -27q-2 43 -10 338q0 39 -7 127q53 8 144 20h10q39 0 139 -12 q116 -14 168 -14q76 0 107 20q55 39 55 70q0 74 -266 86q-111 6 -154 6q-285 0 -356 -113q-29 -47 -29 -131z" />
<glyph unicode="G" horiz-adv-x="1519" d="M23 680q0 -158 55 -334q68 -211 231 -293q127 -65 364 -65h7h4q321 0 461 151q29 29 53.5 106t24.5 144q0 27 -4 49q135 8 161 13q106 16 117 65q1 4 1 7q0 25 -23 59q-35 51 -150 61h-168q-60 5 -152 5q-46 0 -100 -1q-25 -4 -86 -31q-78 -33 -78 -53q0 -8 9 -12 q127 -80 294 -107l-32 -180q-29 -111 -135 -135q-74 -18 -160 -18q-203 0 -316 88q-203 160 -202 465q0 309 202 481q152 129 387 129q78 0 146 -19q6 0 131 -81q115 -76 166 -76t51 67q0 25 -8 58q-23 115 -203 176q-141 47 -315 47q-43 0 -76 -4q-399 -43 -561 -365 q-96 -193 -96 -397z" />
<glyph unicode="H" horiz-adv-x="1320" d="M109 455q6 -444 96 -445q41 0 58.5 73t23.5 236q4 92 6 187q4 49 6 106q27 -4 59 -4q49 0 152 10q80 7 112 7h7q4 0 129 -21q106 -16 172 -16q59 0 98 12q0 -86 2 -156q4 -444 96 -444q41 0 58.5 72.5t23.5 234.5q2 94 6 189q4 68 4 188q0 168 -8 440q-6 256 -67 256 q-27 0 -69 -46t-42 -197q0 -31 2 -85.5t2 -74.5l-6 -219q-75 24 -227 24h-12q-125 0 -490 -30q0 55 -10 383q-8 256 -68 256q-29 0 -67 -43q-45 -49 -45 -201q0 -31 2 -85t2 -75q-6 -270 -6 -448v-84z" />
<glyph unicode="I" horiz-adv-x="370" d="M94 436q4 -430 96 -430q41 0 58.5 70.5t23.5 228.5q2 90 7 180q4 63 4 174q0 166 -9 437q-6 247 -67 247q-28 0 -69 -44q-42 -44 -42 -193q0 -27 2 -81t2 -73q-6 -262 -6 -435v-81z" />
<glyph unicode="J" horiz-adv-x="1089" d="M115 246q0 61 21.5 111.5t60.5 50.5q23 0 47 -19q35 -27 41 -98q6 -78 24 -96q41 -43 76 -43q68 0 102 170q25 111 25 237v14q0 90 -22 255q-25 180 -25 268q0 55 8 104l-125 6l-102 -4q-72 2 -95.5 31t-23.5 55q0 57 82 66h565q199 -18 199 -88q0 -35 -60 -56 q-55 -21 -138 -21q-16 0 -34 1l-71 4q6 -37 6 -82q0 -47 -14 -176q-8 -87 -8 -143q0 -17 1 -31q9 -129 9 -244.5t-9 -218.5q-16 -154 -20 -172q-25 -86 -113 -121q-29 -12 -65 -12q-92 0 -197.5 60.5t-134.5 131.5q-10 20 -10 60z" />
<glyph unicode="K" horiz-adv-x="966" d="M68 170q0 -74 14 -107q29 -65 56 -65h1q45 0 92 141q31 96 37 242q2 47 2 262q66 -180 260 -414q168 -201 260 -201q28 0 50 19q18 14 18 41q0 88 -199 307q-145 150 -290 299q53 31 127 97q113 100 120 106q63 51 158 170q127 158 127 244q0 59 -63 75q-4 1 -9 1 q-109 0 -550 -566v15q14 82 28 163q25 135 25 222q0 205 -127 211h-7q-130 0 -130 -230q0 -74 14 -193.5t14 -140.5q0 -199 -14 -483q0 -8 -8 -98q-6 -72 -6 -117z" />
<glyph unicode="L" horiz-adv-x="823" d="M55 610q-6 -139 -6 -240q-1 -126 9 -192q18 -119 75 -149q35 -18 180 -29q205 -12 252 -12q137 0 166 26q39 35 39 64q0 107 -472 107q-33 0 -69 -1q16 76 19 193q2 39 2 87t-2 105q-2 111 -2 127q15 326 16 326v-2q0 358 -125 360l-14 -28q-45 -242 -68 -742z" />
<glyph unicode="M" horiz-adv-x="1673" d="M125 424q2 -383 90 -434q16 -9 32 -9q19 0 37 11q36 20 42 102q5 43 5 121q0 59 -3 137q-1 46 -1 74t1 37q6 76 10 430q25 -53 90 -184l33 -68q92 -186 166 -344q10 -23 37 -88q31 -74 94 -201q11 -18 29 -18h4q55 0 208 260q51 88 70 110q35 47 76 123q35 63 67 127 q33 57 148 240l10 16l-2 -82q-4 -198 -4 -280v-41q0 -8 -2 -37q-1 -36 -1 -69q0 -312 69 -351q12 -7 25 -7q17 0 36 11q23 12 37 68q19 72 19 314q0 44 -1 93v174q0 14 2 172q1 54 1 99t-1 80q-2 98 -10 170v4l-4 22q-8 80 -16 113q-16 59 -48 70q-6 2 -12 2q-16 1 -36 -11 q-28 -16 -38 -34l-110 -191q-43 -72 -141 -246q-33 -63 -140 -274q-113 -227 -170 -332q-76 176 -229 524q-203 444 -268 516q-43 45 -78 46q-109 0 -117 -443l-2 -194q-4 -225 -4 -318v-10z" />
<glyph unicode="N" horiz-adv-x="1091" d="M82 250q0 164 47 627q0 -3 -1 -3q-3 0 -3 275q0 174 31 205q14 12 30 12q72 0 205 -242q76 -156 154 -311q96 -188 131 -252q82 -145 149 -225q4 70 4 152q0 131 -10 294q-18 295 -18 285q0 154 49 256q35 74 70 74q12 0 26 -11q64 -53 64 -196q0 -59 -17 -160 q-20 -123 -22 -151q-8 -99 -8 -264v-68q2 -94 2 -166q0 -108 -4 -164q-12 -223 -76 -223q-31 0 -45 22q-10 2 -19 4q-51 10 -106 144q-37 94 -74 186q-74 115 -203 340q-45 98 -139 293v-43v-365q-2 -219 -25 -360q-29 -205 -104 -205q-38 0 -64 64q-25 60 -24 161v15z" />
<glyph unicode="O" horiz-adv-x="1488" d="M115 487q-19 92 -19 181q0 184 80 356q129 272 397 338q66 27 125.5 35t110.5 8q272 0 436 -197q147 -178 148 -436q0 -82 -17 -160q-86 -403 -325 -524q-182 -90 -346 -100q-19 -1 -37 -1q-148 0 -269 72q-223 131 -284 428zM285 705q0 -303 157 -463q33 -35 76 -62 q57 -41 84 -47q20 -4 47 -4q61 2 148 29q68 20 104 41q338 172 338 536q0 127 -47 256q-39 109 -158 164q-102 47 -239 47q-88 0 -172 -18q-174 -43 -263 -183q-75 -122 -75 -296z" />
<glyph unicode="P" horiz-adv-x="835" d="M33 797q4 -80 4 -200q0 -80 -2 -179q-3 -120 -3 -210t3 -149l2 -36l2 -5q14 -35 49 -41q7 -1 14 -1q45 0 82 44q20 23 20 107q0 15 -1 31v24v133q-1 60 -1 104.5t1 74.5q6 68 16 204q104 -49 207 -49q68 0 127 23q279 100 299 340q2 21 1 40q0 211 -196 296 q-160 67 -280 67h-4q-152 0 -248 -104q-68 -74 -80 -193q-13 -138 -13 -250q0 -37 1 -71zM215 993q0 74 12 140q23 127 154 127q66 0 143 -33q70 -29 109 -68q49 -47 49 -132v-13q-6 -96 -70 -144q-88 -65 -202 -65h-17q-57 2 -87 18.5t-70 63.5q-20 25 -21 106z" />
<glyph unicode="Q" horiz-adv-x="1427" d="M-10 477q59 -295 284 -428q119 -70 265 -70q20 0 41 1q121 6 256 59q45 -74 90 -111q87 -71 145 -71h2q41 0 41 45q0 18 -6 41q-10 39 -109 182q178 133 252 477q16 80 17 160q0 258 -150 438q-162 195 -434 195q-53 0 -109 -6q-63 -10 -126 -35q-268 -68 -398 -340 q-80 -169 -80 -354q0 -90 19 -183zM160 696q0 174 76 295q88 141 262 183q82 20 170 20q139 0 241 -47q119 -57 158 -164q47 -129 47 -256q0 -279 -209 -455q-63 90 -121 90q-35 0 -67 -32l-15 -60q23 -27 56 -90q-78 -31 -123 -41q-66 -18 -113 -18q-37 0 -94 29 q-137 70 -207 233q-61 139 -61 313z" />
<glyph unicode="R" horiz-adv-x="1013" d="M96 414q-2 -96 -2 -173q0 -116 4 -190v-37l2 -4q14 -35 52 -41q7 -1 14 -1q43 0 80 44q20 24 20 115v25v24q0 45 -2 135v67q0 127 6 193q55 -55 136 -151q100 -125 129 -158l10 -10q207 -242 299 -242q55 0 67 72q1 4 1 8q0 71 -191 281q-16 18 -41 47l-25 31 q-57 70 -182 200q10 -1 21 -1q64 0 122 22q279 100 299 344q2 24 3 46q0 211 -197 294q-160 69 -282 69h-3q-152 0 -248 -104q-68 -74 -79 -195q-14 -146 -14 -264q0 -33 1 -63q3 -68 3 -163.5t-3 -219.5zM279 997q0 74 12 142q23 127 153 127q68 0 144 -33q70 -29 108 -68 q50 -48 50 -131q0 -9 -1 -18q-6 -96 -69 -144q-88 -67 -203 -68q-8 0 -16 1q-57 4 -87 19.5t-71 64.5q-20 25 -20 108z" />
<glyph unicode="S" horiz-adv-x="989" d="M90 1004q0 150 129 260q100 84 234 84q172 0 346 -131l45 -74q4 -27 4 -47q0 -55 -41 -56q-35 0 -107 43q-47 29 -96 58q-82 37 -176 37q-115 0 -162 -64q-37 -51 -37 -96q0 -82 121 -148q72 -39 246 -96q154 -51 188 -76q115 -90 115 -264q0 -127 -61.5 -244.5 t-157.5 -171.5q-104 -55 -301 -55q-147 0 -217 47q-47 34 -47 87q0 40 26 91q6 -2 142 -24q86 -14 141 -14q174 0 256 147q43 82 43 143q0 100 -139 158q-129 43 -258 84q-109 45 -172.5 133t-63.5 189z" />
<glyph unicode="T" horiz-adv-x="1173" d="M10 1280q-1 9 -1 16q0 46 50 70q25 10 113 25q109 16 285 16q217 0 362 -23q150 -6 375 -24q18 -4 18 -23q0 -25 -32 -71q-27 -39 -41 -49q-39 -29 -197 -35q-47 -2 -89 -2q-63 0 -116 4q-14 -590 -14 -623q0 -16 14.5 -136t14.5 -194q0 -234 -123 -234q-17 0 -37 5 q-49 68 -49 209q0 53 8 137q8 102 10 123q14 334 14 393q0 215 -34 338h-11q-5 1 -17 1q-24 0 -73 -3q-86 -2 -137 -2q-279 0 -293 82z" />
<glyph unicode="U" horiz-adv-x="1216" d="M100 586q0 -162 29 -297q31 -154 137 -234q93 -73 230 -73h4q162 0 321.5 96t222.5 293q39 121 62 381q10 131 10 223q0 396 -159 396q-21 0 -44 -7q2 -217 2 -436q-4 -346 -61 -531q-82 -260 -276 -260q-63 0 -142 31q-178 66 -178 348q0 59 18 264q2 12 35 191 q29 156 29 246q0 182 -111 184l-73 -31q-2 -125 -29 -387t-27 -397z" />
<glyph unicode="V" horiz-adv-x="1191" d="M76 1303q0 108 82 108h2q14 0 30 -2q88 -16 138 -172q29 -115 57 -229q57 -164 74 -234q27 -104 63 -358q86 170 124 246.5t153 390.5q113 307 182 346q59 35 92 35q43 0 43 -64q0 -21 -8 -78q-20 -135 -107 -319q-33 -70 -161 -303q-80 -180 -162 -363 q-113 -240 -217 -307q-96 270 -148 492q-20 82 -59 198q-51 158 -64 197q-33 90 -65 182q-49 150 -49 234z" />
<glyph unicode="W" horiz-adv-x="1705" d="M80 1202q0 -61 16 -196q13 -117 13 -165v-7l-17 -187q-10 -137 -10 -233q0 -307 111 -404q61 -55 139 -55q176 0 356 231q172 219 172 398q0 27 -4 49q45 -190 53 -279q18 -150 105 -250q90 -106 213 -106q102 0 207 78q127 92 163 356q10 63 23 412q6 145 6 168 q0 290 -137 370q-113 -84 -113 -327q0 -66 9.5 -194t9.5 -181q0 -51 -6 -88q-25 -160 -46 -227q-45 -143 -118 -144q-45 0 -103 60q-80 82 -110 329q-20 178 -41 359l-23 196q-16 152 -39 181q-35 45 -75 45q-86 0 -119 -129q-16 -55 -17 -127q0 -41 11 -162q5 -67 5 -115 q0 -24 -1 -43q-6 -82 -66 -283q-29 -102 -90 -194q-80 -121 -162 -121q-25 0 -51 12q-90 45 -90 263q0 102 24 284q23 168 23 211v6q0 12 2 56.5t2 72.5q0 275 -107 275q-8 0 -16 -2h-43q-59 -55 -59 -193z" />
<glyph unicode="X" horiz-adv-x="1116" d="M70 61q0 -65 73 -65h2q98 0 250 164q106 113 203 260q193 -465 309 -465q63 0 64 84q0 156 -234 575q166 207 215 287q96 155 96 271q0 13 -1 26q-10 109 -62 109q-68 0 -203 -185q-82 -119 -164 -235l-18 -27q-88 147 -170 264q-45 66 -90 131q-72 94 -115 95 q-39 0 -53 -78q-1 -6 -1 -14q0 -39 34 -107q31 -57 61 -115q37 -84 203 -360l-164 -238q-68 -86 -135 -172q-100 -137 -100 -205z" />
<glyph unicode="Y" horiz-adv-x="1177" d="M74 1376q0 -80 135 -293q92 -145 172 -247q37 -45 115 -121q-12 -92 -17 -260q-2 -188 -10 -258q-6 -61 -6 -88q0 -113 63 -113q31 0 74 24q96 55 96 404q0 186 -24 344q176 137 309 283q172 188 172 295q0 35 -22.5 62.5t-57.5 27.5q-92 0 -256 -207 q-116 -145 -227 -338q-66 147 -236 346q-160 188 -231 188q-49 0 -49 -49z" />
<glyph unicode="Z" horiz-adv-x="1116" d="M66 162q0 -41 22 -72q72 -100 412 -100q272 0 409 45q100 35 101 65q-1 43 -183 68q-231 33 -272 33q-80 0 -141 -21l-31 -2q57 88 139 264q94 207 101 217q31 55 149 205q135 168 186 248q92 139 93 223q0 109 -201 109q-33 0 -199 -17h-430q-100 -35 -100 -65 q0 -35 117 -62q88 -18 161 -22q41 0 189 -12q92 -6 156 -6h30q-80 -86 -178 -252q-61 -109 -123 -220q-23 -41 -137 -178q-125 -150 -180 -231q-90 -135 -90 -217z" />
<glyph unicode="[" horiz-adv-x="550" d="M8 295q2 -184 10 -285q20 -233 80 -248q14 -27 88 -26q49 0 136.5 13t93.5 13q37 8 73.5 18.5t36.5 47.5q0 74 -55 100q-39 18 -127 19h-35.5h-34.5q-59 0 -90 8l9 401q12 455 -3 981q0 37 -4 119q217 -4 299 8q59 10 60 66q0 66 -41 86q-41 12 -82 26q-51 2 -96 3 q-215 0 -271 -52q-45 -57 -45 -241q0 -35 2 -101.5t2 -91.5q-10 -477 -6 -864z" />
<glyph unicode="\" horiz-adv-x="888" d="M39 1356q-16 92 27 100q10 2 22 0q45 -10 166 -231q72 -139 145 -279q80 -145 172 -344q10 -22 160 -350q78 -176 90 -242t-24 -71q-25 -4 -74 20q-59 33 -133 172q-47 102 -96 207q-188 371 -289 586q-143 305 -166 432z" />
<glyph unicode="]" horiz-adv-x="684" d="M74 1530q0 66 41 86q41 12 80 26q51 2 98 3q215 0 270 -52q43 -57 43 -241q0 -35 -2 -105q-2 -63 0 -88q10 -477 6 -864q-2 -184 -10 -285q-23 -233 -80 -248q-14 -27 -88 -26q-49 0 -136 13t-95 13q-35 8 -73 18.5t-38 47.5q0 74 57 100q39 18 127 19h34h36q59 0 90 8 l-10 401q-10 455 4 981q0 37 2 119q-217 -4 -299 8q-57 10 -57 66z" />
<glyph unicode="^" horiz-adv-x="843" d="M172 952q0 -51 53 -43q29 6 72 60q31 39 60.5 77.5t62.5 88.5q37 -59 72 -103q29 -39 55 -80q41 -53 71 -57q51 -10 52 43q0 61 -72 199q-51 96 -86 145q-51 74 -98 74q-41 0 -82 -58q-37 -49 -88 -147q-72 -137 -72 -199z" />
<glyph unicode="_" horiz-adv-x="1644" d="M-16 -535q0 -82 231 -73q150 4 448.5 2t452.5 2q33 2 119 -4q96 -8 145 -8q184 0 242 79q39 51 39 88q0 70 -125 101q-57 12 -199 22q-63 4 -131 4q-145 0 -432 -25.5t-436 -25.5q-139 0 -246.5 -53t-107.5 -109z" />
<glyph unicode="`" horiz-adv-x="555" d="M92 1241q0 -33 37 -80q84 -105 145 -162q78 -70 142 -69q47 -2 47 37q0 57 -96 190q-68 92 -113 138t-74 46q-43 0 -82 -71q-6 -14 -6 -29z" />
<glyph unicode="a" horiz-adv-x="886" d="M51 385q0 -168 92 -283q97 -120 257 -120h3q162 0 232 108q27 -66 78 -90q29 -12 57 -12q68 0 66 67v2q-4 53 -39 83t-72 57q-43 39 -52 111.5t-18 142.5q-12 78 -47 129q-18 27 -69 67q-90 70 -203 70q-55 0 -105 -21q-88 -33 -137 -127q-43 -82 -43 -184zM160 350 q0 86 41 152q53 82 135 82q55 0 117.5 -38t93.5 -157q14 -55 14 -101q0 -61 -25 -106q-44 -78 -116 -78q-43 0 -113 33q-47 20 -67 35q-35 27 -57.5 72t-22.5 106z" />
<glyph unicode="b" horiz-adv-x="868" d="M82 1077q0 -29 6 -76q6 -57 8 -77q-2 -60 -2 -150.5t2 -210.5l4 -246q4 -170 37 -233q45 -88 187 -88q147 0 278 70q184 100 184 278q0 109 -64.5 198t-166.5 122q-73 24 -203 24h-10q-74 0 -125 -12l-4 41q-3 39 -3 88q0 74 7 170q12 160 12 153q0 61 -16 87t-39 26 q-47 0 -76 -74q-16 -39 -16 -90zM229 528q107 15 166 15q21 0 35 -2q78 -10 139 -54q72 -53 72 -131q0 -28 -12 -61q-47 -135 -273 -135q-47 0 -116 6q0 172 -11 362z" />
<glyph unicode="c" horiz-adv-x="806" d="M59 358q0 -156 136 -274q92 -82 223 -82q74 0 145 29q45 18 109 71q74 66 73 107q1 41 -79 49h-5q-39 0 -131 -52q-98 -56 -147 -59h-14q-188 0 -205 156q-1 14 -1 28q0 79 48 142q53 68 145 98q82 6 162 13q119 8 119 53q0 23 -23 51l-39 27q-61 18 -124 18 q-162 0 -277 -112.5t-115 -262.5z" />
<glyph unicode="d" horiz-adv-x="905" d="M100 344q0 -178 183 -278q133 -70 278 -70q143 0 189 88q31 63 36 233v245t5 362q2 20 8 77q6 47 6 74q-1 53 -17 92q-29 74 -77 74q-23 0 -38.5 -25.5t-15.5 -87.5q1 6 13 -154q7 -89 6 -158q0 -56 -4 -99q0 -2 -2 -39q-51 10 -125 10q-137 0 -213 -24 q-102 -33 -167 -122t-65 -198zM246 356q0 78 71 131q59 43 140 54q15 2 37 2q58 0 163 -15q-10 -163 -10 -312v-50q-70 -6 -119 -6q-223 0 -272 135q-10 33 -10 61z" />
<glyph unicode="e" horiz-adv-x="790" d="M6 377q0 -217 176 -320q100 -59 215 -59q156 0 232 96q31 41 30 62q0 49 -69 51q-16 0 -57 -23.5t-54 -25.5q-42 -10 -100 -10q-51 0 -115 8q-119 12 -121 188v9q0 46 19 89q154 -45 295 -45q250 0 250 156q0 16 -5 37q-33 186 -256 186q-145 0 -266 -74 q-174 -106 -174 -325zM201 524q20 35 61 92q16 16 90 35q25 6 51 6q72 0 129 -47q25 -18 25 -45q0 -55 -63 -67q-11 -2 -28 -2q-40 0 -112 10q-130 18 -150 18h-3z" />
<glyph unicode="f" horiz-adv-x="737" d="M12 930q-3 -19 -3 -34q0 -20 5 -32q20 -47 203 -63q-3 -72 -3 -154q0 -122 7 -266l-10 -47v-199q10 -139 53 -139q35 0 88 80q45 70 56 293q2 158 2 313q1 24 1 53.5t-1 65.5q201 18 237 82q14 23 15 43q0 80 -236 80h-23q0 186 46 280q57 125 204 139q18 2 48 -9t38 -11 q23 0 29 43q1 6 1 12q0 70 -112 121q-43 20 -88 21q-143 0 -223 -160q-86 -172 -115 -447q-201 -16 -208 -20t-11 -45z" />
<glyph unicode="g" horiz-adv-x="933" d="M78 313q0 -137 84 -233q85 -100 219 -100h10q184 4 318 151q1 -20 1 -39q0 -331 -163 -422q-43 -24 -75 -24h-3q-35 0 -74 43q-43 51 -80 63q-27 8 -47 8q-49 0 -49 -51q0 -39 25.5 -88t58.5 -76q70 -57 143 -57q102 0 205 109q80 86 135 206q72 156 72 357 q0 164 -55 268q-71 141 -139 188q-91 60 -214 60h-4q-113 -2 -210 -63.5t-136 -166.5q-22 -60 -22 -127v-6zM197 293q0 147 143 201q4 0 61 16h27q57 0 131 -6q121 -41 121 -152q0 -68 -44 -137.5t-110 -107t-127 -37.5q-88 0 -145 67.5t-57 155.5z" />
<glyph unicode="h" horiz-adv-x="946" d="M96 909q0 -51 4 -202q3 -83 3 -143q0 -30 -1 -54q-3 -92 -3 -165q0 -155 12 -220q25 -123 67 -123q39 0 75 92q32 83 32 164v18l-2 43q8 59 14 84q12 43 33 68q61 78 182 78q70 0 117 -33q57 -41 71 -143q4 -29 5 -174q2 -231 55 -232q25 0 59.5 42t34.5 143 q0 154 -69.5 337t-143 209.5t-141.5 26.5q-139 0 -228 -100q-4 115 -4 206q0 18 6.5 106.5t6.5 143.5q0 219 -95 219h-8l-39 -14q-43 -147 -43 -377z" />
<glyph unicode="i" horiz-adv-x="411" d="M106 926q0 -41 32 -70t77 -29q25 0 47 11q82 37 82 90q0 45 -45 75.5t-90 30.5t-74 -31.5t-29 -76.5zM125 449q0 -63 20 -267q8 -63 40 -128.5t67 -65.5q36 0 65 80q14 41 15 102q0 25 -19 203l-12 180q-16 147 -63 147q-31 0 -78 -67q-35 -53 -35 -184z" />
<glyph unicode="j" horiz-adv-x="753" d="M86 -469v-15q0 -128 137 -128q80 0 168 42t125 95q92 135 117 346q8 76 10 371q0 295 -65 295q-14 0 -35 -21q-86 -94 -86 -291q0 -51 10 -180q5 -75 5 -125q0 -25 -1 -43q-12 -188 -88 -258q-45 -43 -74 -43q-10 0 -39.5 10.5t-58.5 12.5q-14 0 -37.5 4t-36.5 4 q-47 0 -51 -76zM428 788q0 -43 32 -71.5t75 -28.5q25 0 49 10q86 39 86 90q0 43 -47.5 76t-92.5 33t-73.5 -31.5t-28.5 -77.5z" />
<glyph unicode="k" horiz-adv-x="776" d="M72 741q0 -154 18 -319q6 -104 12 -209q8 -123 43 -201q31 -14 56 -14q99 0 99 226q0 23 -1 48q37 -39 117 -108q59 -53 121 -107q83 -72 115 -72q3 0 5 1q47 14 48 51q0 76 -164 221q-142 127 -230 170q166 80 236 131q125 94 147 217q-23 2 -43 2q-96 0 -202 -71 q-57 -39 -175 -148v16q0 55 10 179q12 144 13 219q0 193 -64 270l-77 -14q-84 -168 -84 -488z" />
<glyph unicode="l" horiz-adv-x="489" d="M76 815q-2 -62 -2 -124q0 -204 20 -421q18 -203 86 -245q25 -14 72 -15q66 0 118 31q42 25 42 64q0 9 -2 18q-4 18 -49.5 38.5t-51.5 28.5q-14 16 -39 91q-20 54 -20 140v23q0 143 -2 168q-1 6 -1 14q0 51 23 191q27 174 27 256q0 137 -61 176q-23 12 -41 13 q-104 0 -119 -447z" />
<glyph unicode="m" horiz-adv-x="1497" d="M102 569q0 -53 27 -151q31 -111 35 -156q10 -96 20 -133q23 -90 72 -102q14 -6 29 -7q61 0 92 84q21 52 21 111q0 12 -1 23q-2 25 -25.5 123t-23.5 147q0 117 107 131q20 2 39 0q70 -61 100 -209q10 -49 31 -229q23 -229 94 -230q31 0 69 49q54 45 54 164v13 q45 209 76 278q63 141 176 141q31 0 67 -10q63 -57 64 -182q0 -39 -7.5 -111.5t-7.5 -101.5q2 -59 33 -131q37 -78 76 -78q33 0 59 57q16 35 17 105q0 168 -47 307q-53 154 -95 205q-67 78 -195 78h-18q-225 -10 -278 -283q-23 139 -76 205q-31 68 -106 88q-43 10 -84 10 q-154 0 -236 -143q-16 88 -61 88q-35 0 -66 -47t-31 -103z" />
<glyph unicode="n" horiz-adv-x="864" d="M88 561q0 -39 39 -227q4 -27 12 -164q6 -109 29 -154l12 -24q36 -25 62 -25h4q76 6 90 174q6 154 14 308q23 163 124 163h1q35 0 78 -16q82 -31 82 -133q0 -41 -14 -111q-14 -78 -17 -102q-1 -13 -1 -27q0 -61 15 -127q20 -100 64 -100q29 0 63 47q31 39 31 147 q0 35 -26 293q-33 291 -236 291q-41 0 -88 -12q-111 -31 -176 -123q-37 90 -82 90q-39 0 -64 -74q-16 -41 -16 -94z" />
<glyph unicode="o" horiz-adv-x="946" d="M94 340q0 82 45 145q41 97 109 152q102 88 270 88q121 0 220.5 -53.5t135.5 -153.5q20 -59 21 -121q0 -168 -134 -298t-304 -130q-35 0 -68 6q-117 23 -206 132.5t-89 232.5zM246 281q0 -45 24 -84q64 -101 166 -101q61 0 134 36t118 104.5t45 138.5q0 68 -43 112 q-49 47 -135 48q-29 0 -59 -7q-92 -14 -168 -88q-82 -76 -82 -159z" />
<glyph unicode="p" horiz-adv-x="837" d="M68 -403q0 -51 16 -93q29 -73 77 -73h1q23 0 38 25.5t15 86.5q0 -4 -13 155q-6 85 -6 152q0 60 5 107q0 12 2 39q51 -12 125 -12q137 0 213 24q102 33 166.5 123t64.5 197q0 180 -182 278q-133 72 -279 72q-143 0 -188 -90q-33 -61 -37 -232q-1 -82 -1 -163v-81v-54 q0 -116 -3 -310q-2 -20 -8 -72.5t-6 -78.5zM215 143q10 190 10 363q70 6 117 6q225 0 274 -135q10 -31 11 -62q0 -76 -72 -129q-59 -45 -139 -55q-16 -2 -39 -2q-58 0 -162 14z" />
<glyph unicode="q" horiz-adv-x="876" d="M-8 338q0 -109 63.5 -198t165.5 -122q73 -24 203 -24h10q74 0 125 12q2 -14 4 -41q4 -41 4 -92q0 -72 -8 -164q-6 -80 -6 -115q0 -167 87 -167h1q25 0 57 12q55 25 117 90q70 78 70 139q0 39 -29.5 66.5t-54.5 19.5q-16 -4 -37 -30q-29 -39 -35 -46q-27 -27 -45 -34 q-16 57 -16 143q0 43 8 170q5 69 5 118q0 25 -1 44q-2 123 -4 248q-4 170 -35 231q-45 88 -188 88q-147 0 -279 -70q-182 -100 -182 -278zM135 326q0 29 12 61q49 135 273 135q49 0 119 -6v-50q0 -151 10 -312q-106 -15 -164 -15q-22 0 -37 2q-80 10 -139 56q-74 51 -74 129 z" />
<glyph unicode="r" horiz-adv-x="806" d="M113 305q0 -162 43 -233q37 -66 71 -66q55 0 72 139q4 34 4 102q0 45 -2 105q-3 108 -3 164q0 28 1 43v12q31 29 78 29q53 0 123 -41q12 -8 24 -47q10 -31 56 -39q12 -4 26 -4q88 0 90 92v9q0 74 -66 118q-70 47 -163 47q-88 0 -156 -41q1 12 1 24q0 51 -15 79 q-20 34 -64 34q-11 0 -24 -2l-39 -65q-57 -242 -57 -459z" />
<glyph unicode="s" horiz-adv-x="649" d="M59 567q0 -98 95 -153q57 -31 116 -60q70 -37 109 -77.5t39 -81.5q0 -53 -58 -54q-29 0 -65 19q-8 4 -74 57q-51 45 -80 45q-37 0 -49 -67q-1 -6 -1 -13q0 -57 81 -119q76 -55 162 -75q45 -10 84 -11q170 0 170 170q0 115 -80 199q-33 35 -126 70t-127 75.5t-34 67.5 q0 51 92 51q87 0 138 -35q14 -8 30 -36q12 -18 45 -23q12 -2 22 -2q42 0 42 35q0 33 -32 81t-58 64q-94 61 -213 62q-90 0 -156 -47q-72 -53 -72 -142z" />
<glyph unicode="t" horiz-adv-x="884" d="M68 709q0 -76 282 -84q0 -201 25 -418q12 -117 33 -154q35 -57 131 -67q9 -1 18 -1q57 0 143 31q115 43 115 103q0 23 -18 47q-31 39 -68 39q-27 0 -74 -24.5t-63 -24.5q-46 0 -64 96q-25 129 -26 375q106 4 143 14q119 31 119 86q0 41 -88 66q-48 12 -116 12 q-26 0 -54 -2q1 34 1 66q0 378 -89 378q-8 0 -17 -4h-26q-53 -66 -53 -219q0 -72 18 -240q-53 -6 -150 -18l-102 -12q-20 -25 -20 -45z" />
<glyph unicode="u" horiz-adv-x="864" d="M109 547q0 -35 26 -293q33 -291 236 -291q43 0 90 12q109 31 174 123q37 -90 82 -90q39 0 65 74q14 41 15 94q0 39 -37 227q-6 27 -15 164q-5 109 -28 154l-12 24q-36 25 -62 25h-4q-76 -6 -88 -174q-8 -154 -16 -307q-23 -164 -125 -164q-35 0 -78 16q-80 31 -80 133 q0 41 12 111q14 78 17 102q1 13 1 26q0 62 -16 128q-20 100 -63 100q-29 0 -64 -47q-30 -38 -30 -140v-7z" />
<glyph unicode="v" horiz-adv-x="843" d="M86 723q59 -391 223 -741q94 72 260 299q188 258 189 372q0 72 -49 72q-66 0 -207 -199q-84 -124 -168 -247q4 12 4 34q0 109 -64 269q-68 174 -129 174q-18 0 -34 -19z" />
<glyph unicode="w" horiz-adv-x="1241" d="M96 668q0 -49 35 -136q23 -55 45 -112q20 -119 43 -238q37 -178 96 -188h3q46 0 171 225q118 210 118 258q0 4 -1 6q35 -113 68 -225q45 -135 102 -209q50 -65 89 -65h1q55 0 103 153q35 119 71 236q104 227 105 299q0 43 -31 43q-29 0 -84 -35q-23 -16 -113 -183 q-79 -146 -79 -173q0 -4 2 -5q-39 33 -70 136q-41 131 -57 163q-45 82 -123 91h-8q-74 0 -146 -134q-66 -127 -65 -219l-54 230q-55 168 -137 168q-84 0 -84 -86z" />
<glyph unicode="x" horiz-adv-x="856" d="M113 61q0 -57 57 -57q49 0 111 43q70 49 163 164q143 -227 197 -227q43 0 53 106v10q0 94 -135 246q70 61 137 125q80 80 80 158q0 26 -8 53q-18 70 -63 70q-53 0 -142 -97q-55 -66 -108 -131q-10 -10 -21 -20q-70 106 -100 143q-66 72 -139 86h-27q-51 0 -51 -43 q0 -86 192 -313q-137 -139 -178 -242q-18 -43 -18 -74z" />
<glyph unicode="y" horiz-adv-x="954" d="M84 -258q0 -55 92 -111q82 -51 137 -53h7q188 0 288 324l140 274q123 244 122 348q1 82 -71 88h-6q-122 0 -250 -383q-59 61 -162 179q-45 61 -92 122q-80 96 -129 97q-23 0 -41.5 -21.5t-18.5 -46.5q0 -57 95 -190q66 -82 129 -166q43 -63 153 -185q-43 -127 -55 -153 q-47 -102 -107 -103q-25 0 -84 21.5t-86 21.5q-61 0 -61 -63z" />
<glyph unicode="z" horiz-adv-x="839" d="M86 0zM102 61q0 -37 80 -49q55 -4 109 -8q54 -6 127 -6q58 0 127 4q70 2 86 6q49 10 49 43q0 16 -12 39q-27 51 -154 51q-31 0 -149 -10q90 86 178 170q100 102 155.5 192.5t55.5 143.5q0 37 -49 53q-39 9 -80 17q-99 29 -266 29q-33 0 -70 -1q-59 0 -72 -4 q-39 -9 -39 -44v-7q8 -66 94 -88q94 -27 216 -27q30 0 61 2q-57 -70 -150 -168q-115 -96 -182 -174q-33 -37 -67 -71q-47 -59 -48 -93z" />
<glyph unicode="{" horiz-adv-x="884" d="M-80 711q53 25 158 71q39 14 164 64q70 389 256 577q37 37 119.5 75t134.5 38q68 0 67 -70q0 -26 -10 -61q-6 -25 -80 -64q-82 -45 -94 -57q-66 -66 -128.5 -196t-80.5 -240q-10 -70 -10 -164q0 -254 61 -399q39 -90 157 -138.5t142 -109.5q23 -53 23 -90q0 -66 -74 -66 q-51 0 -125 31q-63 27 -94 51q-106 86 -193 264q-92 195 -94 371q-57 16 -299 113z" />
<glyph unicode="|" horiz-adv-x="374" d="M94 449q6 -442 99 -443q41 0 57 73t24 234q2 94 5 187q12 164 -3 628q-8 256 -67 256q-27 0 -69 -45t-42 -198q0 -29 2 -88q2 -51 0 -72q-8 -337 -6 -532z" />
<glyph unicode="}" horiz-adv-x="1073" d="M68 1466q0 -26 10 -61q8 -25 80 -64q84 -45 94 -57q66 -66 128 -196t81 -240q12 -70 12 -164q0 -254 -63 -399q-39 -90 -157 -138.5t-142 -109.5q-20 -53 -21 -90q0 -66 72 -66q51 0 127 31q61 27 94 51q104 86 190 264q92 195 95 371q57 16 299 113q-51 25 -158 71 q-39 14 -164 64q-70 389 -254 577q-37 37 -121 75t-133 38q-70 0 -69 -70z" />
<glyph unicode="~" horiz-adv-x="798" d="M100 643q0 -41 52 -41q31 2 72.5 53.5t80.5 51.5q47 0 125 -39t117 -39q55 0 103 53t48 121q0 63 -51 63q-27 0 -57 -49q-37 -55 -54.5 -64.5t-35.5 -9.5q-31 0 -76 31q-66 43 -70 47q-59 27 -96 27q-61 0 -111 -88q-47 -80 -47 -117z" />
<glyph unicode="&#xa1;" horiz-adv-x="403" d="M84 1249q0 63 57 94q23 12 43 13q47 0 82 -45t35 -97q0 -43 -27.5 -71.5t-70.5 -28.5q-47 0 -83 42t-36 93zM125 518q0 96 2 152q14 307 61 307q16 0 39 -29q94 -123 95 -510q0 -248 -48 -350q-41 -88 -71 -88q-78 0 -78 518z" />
<glyph unicode="&#xa2;" horiz-adv-x="1116" d="M45 516q0 -133 37 -231q51 -143 172 -219q111 -70 254 -70q127 0 251 54t206 149q47 55 47 106q0 43 -33 51q-37 11 -92 -30q-27 -20 -88 -103q-47 -66 -115 -86q-59 -18 -115 -18q-176 0 -286 162q-102 152 -90 342q12 170 107 262t247 92q55 0 112 -12q25 -4 127 -52 q82 -39 121 -32q61 10 62 47q0 39 -74 108q-104 100 -293 101q-227 0 -375 -123q-88 -74 -137 -217q-45 -131 -45 -281zM483 326q6 -442 99 -443q41 0 57 73t25 234q2 94 4 187q12 164 -2 629q-8 256 -68 256q-27 0 -69 -45.5t-42 -198.5q0 -29 2 -88q2 -51 0 -72 q-8 -337 -6 -532z" />
<glyph unicode="&#xa3;" horiz-adv-x="1280" d="M74 141q0 80 49 152t127 102q49 18 100 19q68 0 150 -39q-12 96 -64 270q-281 10 -340 49l31 64q59 25 262 45q-45 156 -45 239q0 160 154 252q133 80 299 72q311 -16 344 -262q8 -55 -11 -113q-20 -70 -69 -78q-51 -6 -90 74q-31 63 -60 127q-76 102 -172 103 q-139 0 -180 -177q-25 -102 -2 -229q299 6 307 -82q6 -74 -266 -84q23 -86 33 -137q20 -117 18 -219l35 -21q72 -41 143 -82q117 -59 183 -59q33 0 59.5 17.5t26.5 48.5q0 27 -57.5 80t-57.5 77q0 31 63 51q18 6 37 7q59 0 95 -68q31 -57 30 -139q1 -80 -28 -123 q-57 -86 -152 -86q-57 0 -139 35q-66 31 -131 61q-39 18 -121 57q-23 -94 -76 -145q-80 -78 -240 -78q-125 0 -182 62q-63 68 -63 157zM190 172q0 -41 35 -75t84 -34q31 0 62 13q89 41 118 131q-113 43 -184 43q-115 0 -115 -78z" />
<glyph unicode="&#xa4;" horiz-adv-x="1359" d="M-51 487q0 -57 117 -51q151 -2 456 4q16 0 62.5 -4t70.5 -4q94 0 123 53q20 35 21 62q0 72 -164 84q-33 4 -68 4q-72 0 -217 -17.5t-223 -17.5q-70 0 -124 -38t-54 -75zM-51 836q0 -57 117 -52q151 -2 456 4q16 0 62.5 -4t70.5 -4q94 0 123 54q20 37 21 63q0 70 -164 84 q-33 2 -68 2q-72 0 -217 -17.5t-223 -17.5q-70 0 -124 -37t-54 -75zM70 653q0 -168 45 -291q66 -184 219 -278q137 -88 319 -88q162 0 317.5 68.5t262.5 189.5q59 68 59 131q0 55 -43 68q-46 12 -116 -39q-35 -27 -113 -131q-59 -82 -143 -109q-74 -23 -146 -22 q-221 0 -362 204q-131 190 -113 432q16 215 136 332t310 117q70 0 144 -16q31 -6 158 -66q106 -49 153 -41q78 12 78 60q0 49 -92 137q-133 127 -371 127q-285 0 -473 -156q-113 -94 -174 -274q-55 -166 -55 -355z" />
<glyph unicode="&#xa5;" d="M84 868q12 37 46 62.5t71 21.5q2 0 2 -2q127 12 221 -2q-8 25 -6 47q6 66 59 66q25 0 36 -20.5t7 -49.5q-4 -31 -20 -61l12 -4l10 -4q2 -2 10 -4q2 0 7 -3q16 96 77 95q29 -2 39 -29q18 -49 -39 -113q98 -82 99 -211q0 -90 -58 -149q25 -29 48 -72q55 -10 120 -45 q27 18 52 17q6 -2 6 -11q0 -8 -8.5 -9t-32.5 -5q27 -17 39 -29q4 -8 0 -12q-6 -6 -15 0q-8 6 -28 23q6 -10 8 -21q0 -6 -6 -10q-8 -2 -11 4q-4 16 -12 33q-16 8 -49 22l-4 2q-18 6 -51 21q31 -68 47 -176q12 -4 22 -2q-23 33 6 51q8 6 17 6q29 0 29 -35q0 -14 -15 -24 q25 -6 35 16q4 8 12 6q10 -4 6 -14q-14 -29 -45 -29q-16 0 -30 8q-16 -4 -33 0q2 -25 10 -80q-4 -8 -16 -14q-53 0 -119 -2q2 -31 2 -86l2 -16q8 -12 -8.5 -15.5t-63.5 -5.5q-53 -4 -61 2q-23 12 0 27q8 4 61 0q29 0 50 -4q-2 33 -5 98q-96 -2 -143 -2h-72q2 -27 2 -66v-34 q10 -12 -6 -15.5t-65 -5.5q-51 -4 -60 2q-23 12 0 27q6 4 60 0q29 0 49 -4q0 -10 -2 96q-100 0 -162 4q-8 2 -14 14q14 102 20 138q14 78 39 133q-35 -16 -102 -43q-2 -10 -10 -33q-4 -6 -11 -4q-8 4 -6 10q2 8 6 21q-6 -6 -28 -23q-6 -6 -13 0q-6 4 0 12q10 12 37 29l-33 6 q-6 0 -6 8t6 11q25 2 52 -17q63 33 118 45q14 29 33 53q-63 55 -57 144q4 27 12 55q-27 4 -86 35q-68 33 -70 51q-39 33 -20 94zM109 872q-29 -59 14 -88q14 -10 31 -10q41 0 61 49q12 27 12 60q0 27 -26 49q-68 -6 -92 -60zM125 856q0 16 12 16q12 2 17 -12q3 -14 -7 -20 q-23 -10 -22 16zM158 756q57 -35 108 -49q2 2 4 5t9 1q6 -4 4 -11q6 -2 12 -3t6 -7q-2 -6 -8 -6h-17q-8 -27 -10 -51q-8 -92 70 -141q68 -43 160 -35q88 8 142 61t56 139q4 123 -90 197q-2 0 -4 -2q-4 -4 -10 0q-4 6 0 10l2 2q-18 10 -37 21q-4 -6 -10 -4q-8 2 -8 12 q-20 10 -45 18v-2q-8 0 -15 7q-12 4 -26 6q-6 -18 -17 -4l-4 8l-8 2h-2q-6 2 -17.5 3t-21.5 3q-74 6 -156 0q35 -33 13 -111q-20 -68 -80 -69zM174 854q0 14 12 16q12 0 17 -12q4 -14 -6 -20q-23 -10 -23 16zM295 866q-4 25 12.5 42.5t38.5 15.5q47 -5 47 -52q0 -35 -31 -45 q-23 -6 -43 6.5t-24 32.5zM311 633q6 4 15 2q10 -63 77 -66q59 0 89 54q4 6 10 2q8 -3 6 -11q-18 -61 -94 -61q-96 0 -103 80zM313 870q2 -14 17.5 -21t29.5 -1q19 6 15 31q-4 35 -35 26q-29 -8 -27 -35zM338 864q-4 8 0 17q4 8 14 8q11 0 13 -8q10 -23 -15 -23q-8 0 -12 6z M412 850q2 29 22 41q14 12 35 4q51 -21 41 -66q-10 -47 -59 -36q-41 10 -39 57zM430 852q-8 -37 27 -43q33 -6 37 27q4 20 -19 36q-12 10 -29 5q-12 -6 -16 -25zM438 999q-4 -25 8 -57q20 -4 37 -8q19 43 19 74q0 12 -4 22t-15 12h-3h-3h-2q-4 0 -6 -1l-4 -2t-4 -3 q-18 -12 -23 -37zM453 834q-4 6 1 14t13 8q10 0 14 -8q8 -20 -14 -23q-10 0 -14 9zM539 657q-29 49 9 85t75 20q18 -9 26 -27q16 -39 -6 -76.5t-63 -31.5q-25 2 -41 30zM559 905q23 -10 43 -26q33 38 39 69q4 31 -14 39q-8 4 -19 2q-10 -2 -22 -14q-20 -20 -27 -70zM795 252 q2 -4 8 -8q10 4 10 12q2 16 -10 16q-6 -4 -8 -20z" />
<glyph unicode="&#xa6;" horiz-adv-x="368" d="M90 389q0 -29 2 -88q2 -51 2 -72l-2 -127l187 7q-2 90 -9 268q-8 256 -67 256q-29 0 -68 -43q-45 -47 -45 -201zM90 1141q0 -29 2 -88q2 -51 2 -72l-2 -127l187 6q-2 90 -9 268q-8 256 -67 256q-29 0 -68 -43q-45 -47 -45 -200zM92 102l187 7q2 -109 -91 -109 q-98 23 -96 102zM92 854l187 6q2 -109 -91 -108q-98 23 -96 102z" />
<glyph unicode="&#xa7;" d="M84 868q12 37 46 62.5t71 21.5q2 0 2 -2q127 12 221 -2q-8 25 -6 47q6 66 59 66q25 0 36 -20.5t7 -49.5q-4 -31 -20 -61l12 -4l10 -4q2 -2 10 -4q2 0 7 -3q16 96 77 95q29 -2 39 -29q18 -49 -39 -113q98 -82 99 -211q0 -90 -58 -149q25 -29 48 -72q55 -10 120 -45 q27 18 52 17q6 -2 6 -11q0 -8 -8.5 -9t-32.5 -5q27 -17 39 -29q4 -8 0 -12q-6 -6 -15 0q-8 6 -28 23q6 -10 8 -21q0 -6 -6 -10q-8 -2 -11 4q-4 16 -12 33q-16 8 -49 22l-4 2q-18 6 -51 21q31 -68 47 -176q12 -4 22 -2q-23 33 6 51q8 6 17 6q29 0 29 -35q0 -14 -15 -24 q25 -6 35 16q4 8 12 6q10 -4 6 -14q-14 -29 -45 -29q-16 0 -30 8q-16 -4 -33 0q2 -25 10 -80q-4 -8 -16 -14q-53 0 -119 -2q2 -31 2 -86l2 -16q8 -12 -8.5 -15.5t-63.5 -5.5q-53 -4 -61 2q-23 12 0 27q8 4 61 0q29 0 50 -4q-2 33 -5 98q-96 -2 -143 -2h-72q2 -27 2 -66v-34 q10 -12 -6 -15.5t-65 -5.5q-51 -4 -60 2q-23 12 0 27q6 4 60 0q29 0 49 -4q0 -10 -2 96q-100 0 -162 4q-8 2 -14 14q14 102 20 138q14 78 39 133q-35 -16 -102 -43q-2 -10 -10 -33q-4 -6 -11 -4q-8 4 -6 10q2 8 6 21q-6 -6 -28 -23q-6 -6 -13 0q-6 4 0 12q10 12 37 29l-33 6 q-6 0 -6 8t6 11q25 2 52 -17q63 33 118 45q14 29 33 53q-63 55 -57 144q4 27 12 55q-27 4 -86 35q-68 33 -70 51q-39 33 -20 94zM109 872q-29 -59 14 -88q14 -10 31 -10q41 0 61 49q12 27 12 60q0 27 -26 49q-68 -6 -92 -60zM125 856q0 16 12 16q12 2 17 -12q3 -14 -7 -20 q-23 -10 -22 16zM158 756q57 -35 108 -49q2 2 4 5t9 1q6 -4 4 -11q6 -2 12 -3t6 -7q-2 -6 -8 -6h-17q-8 -27 -10 -51q-8 -92 70 -141q68 -43 160 -35q88 8 142 61t56 139q4 123 -90 197q-2 0 -4 -2q-4 -4 -10 0q-4 6 0 10l2 2q-18 10 -37 21q-4 -6 -10 -4q-8 2 -8 12 q-20 10 -45 18v-2q-8 0 -15 7q-12 4 -26 6q-6 -18 -17 -4l-4 8l-8 2h-2q-6 2 -17.5 3t-21.5 3q-74 6 -156 0q35 -33 13 -111q-20 -68 -80 -69zM174 854q0 14 12 16q12 0 17 -12q4 -14 -6 -20q-23 -10 -23 16zM295 866q-4 25 12.5 42.5t38.5 15.5q47 -5 47 -52q0 -35 -31 -45 q-23 -6 -43 6.5t-24 32.5zM311 633q6 4 15 2q10 -63 77 -66q59 0 89 54q4 6 10 2q8 -3 6 -11q-18 -61 -94 -61q-96 0 -103 80zM313 870q2 -14 17.5 -21t29.5 -1q19 6 15 31q-4 35 -35 26q-29 -8 -27 -35zM338 864q-4 8 0 17q4 8 14 8q11 0 13 -8q10 -23 -15 -23q-8 0 -12 6z M412 850q2 29 22 41q14 12 35 4q51 -21 41 -66q-10 -47 -59 -36q-41 10 -39 57zM430 852q-8 -37 27 -43q33 -6 37 27q4 20 -19 36q-12 10 -29 5q-12 -6 -16 -25zM438 999q-4 -25 8 -57q20 -4 37 -8q19 43 19 74q0 12 -4 22t-15 12h-3h-3h-2q-4 0 -6 -1l-4 -2t-4 -3 q-18 -12 -23 -37zM453 834q-4 6 1 14t13 8q10 0 14 -8q8 -20 -14 -23q-10 0 -14 9zM539 657q-29 49 9 85t75 20q18 -9 26 -27q16 -39 -6 -76.5t-63 -31.5q-25 2 -41 30zM559 905q23 -10 43 -26q33 38 39 69q4 31 -14 39q-8 4 -19 2q-10 -2 -22 -14q-20 -20 -27 -70zM795 252 q2 -4 8 -8q10 4 10 12q2 16 -10 16q-6 -4 -8 -20z" />
<glyph unicode="&#xa8;" horiz-adv-x="921" d="M29 1010q18 92 104 92q47 0 93 -33t46 -78q0 -59 -84 -98q-27 -10 -49 -10q-53 0 -88 37.5t-22 89.5zM526 1010q18 92 105 92q47 0 93 -33t46 -78q0 -59 -84 -98q-27 -10 -49 -10q-53 0 -88 37.5t-23 89.5z" />
<glyph unicode="&#xa9;" horiz-adv-x="1488" d="M115 487q-57 283 61 537q129 272 397 338q66 27 125.5 35t110.5 8q272 0 436 -197q147 -178 148 -436q0 -82 -17 -160q-86 -403 -325 -524q-182 -90 -346 -100q-170 -10 -306 71q-223 131 -284 428zM285 705q0 -303 157 -463q33 -35 76 -62q57 -41 84 -47q20 -4 47 -4 q61 2 148 29q68 20 104 41q338 172 338 536q0 127 -47 256q-39 109 -158 164q-102 47 -239 47q-88 0 -172 -18q-174 -43 -263 -183q-75 -122 -75 -296zM366 659q0 -156 136 -274q92 -82 223 -82q74 0 145 29q45 18 109 71q74 66 73 107q1 41 -79 49q-37 4 -135.5 -52 t-147.5 -59q-201 -6 -219 156q-10 96 47 170q53 68 145 98q82 6 162 13q119 8 119 53q0 23 -23 51l-39 27q-61 18 -124 18q-162 0 -277 -112.5t-115 -262.5z" />
<glyph unicode="&#xaa;" d="M84 868q12 37 46 62.5t71 21.5q2 0 2 -2q127 12 221 -2q-8 25 -6 47q6 66 59 66q25 0 36 -20.5t7 -49.5q-4 -31 -20 -61l12 -4l10 -4q2 -2 10 -4q2 0 7 -3q16 96 77 95q29 -2 39 -29q18 -49 -39 -113q98 -82 99 -211q0 -90 -58 -149q25 -29 48 -72q55 -10 120 -45 q27 18 52 17q6 -2 6 -11q0 -8 -8.5 -9t-32.5 -5q27 -17 39 -29q4 -8 0 -12q-6 -6 -15 0q-8 6 -28 23q6 -10 8 -21q0 -6 -6 -10q-8 -2 -11 4q-4 16 -12 33q-16 8 -49 22l-4 2q-18 6 -51 21q31 -68 47 -176q12 -4 22 -2q-23 33 6 51q8 6 17 6q29 0 29 -35q0 -14 -15 -24 q25 -6 35 16q4 8 12 6q10 -4 6 -14q-14 -29 -45 -29q-16 0 -30 8q-16 -4 -33 0q2 -25 10 -80q-4 -8 -16 -14q-53 0 -119 -2q2 -31 2 -86l2 -16q8 -12 -8.5 -15.5t-63.5 -5.5q-53 -4 -61 2q-23 12 0 27q8 4 61 0q29 0 50 -4q-2 33 -5 98q-96 -2 -143 -2h-72q2 -27 2 -66v-34 q10 -12 -6 -15.5t-65 -5.5q-51 -4 -60 2q-23 12 0 27q6 4 60 0q29 0 49 -4q0 -10 -2 96q-100 0 -162 4q-8 2 -14 14q14 102 20 138q14 78 39 133q-35 -16 -102 -43q-2 -10 -10 -33q-4 -6 -11 -4q-8 4 -6 10q2 8 6 21q-6 -6 -28 -23q-6 -6 -13 0q-6 4 0 12q10 12 37 29l-33 6 q-6 0 -6 8t6 11q25 2 52 -17q63 33 118 45q14 29 33 53q-63 55 -57 144q4 27 12 55q-27 4 -86 35q-68 33 -70 51q-39 33 -20 94zM109 872q-29 -59 14 -88q14 -10 31 -10q41 0 61 49q12 27 12 60q0 27 -26 49q-68 -6 -92 -60zM125 856q0 16 12 16q12 2 17 -12q3 -14 -7 -20 q-23 -10 -22 16zM158 756q57 -35 108 -49q2 2 4 5t9 1q6 -4 4 -11q6 -2 12 -3t6 -7q-2 -6 -8 -6h-17q-8 -27 -10 -51q-8 -92 70 -141q68 -43 160 -35q88 8 142 61t56 139q4 123 -90 197q-2 0 -4 -2q-4 -4 -10 0q-4 6 0 10l2 2q-18 10 -37 21q-4 -6 -10 -4q-8 2 -8 12 q-20 10 -45 18v-2q-8 0 -15 7q-12 4 -26 6q-6 -18 -17 -4l-4 8l-8 2h-2q-6 2 -17.5 3t-21.5 3q-74 6 -156 0q35 -33 13 -111q-20 -68 -80 -69zM174 854q0 14 12 16q12 0 17 -12q4 -14 -6 -20q-23 -10 -23 16zM295 866q-4 25 12.5 42.5t38.5 15.5q47 -5 47 -52q0 -35 -31 -45 q-23 -6 -43 6.5t-24 32.5zM311 633q6 4 15 2q10 -63 77 -66q59 0 89 54q4 6 10 2q8 -3 6 -11q-18 -61 -94 -61q-96 0 -103 80zM313 870q2 -14 17.5 -21t29.5 -1q19 6 15 31q-4 35 -35 26q-29 -8 -27 -35zM338 864q-4 8 0 17q4 8 14 8q11 0 13 -8q10 -23 -15 -23q-8 0 -12 6z M412 850q2 29 22 41q14 12 35 4q51 -21 41 -66q-10 -47 -59 -36q-41 10 -39 57zM430 852q-8 -37 27 -43q33 -6 37 27q4 20 -19 36q-12 10 -29 5q-12 -6 -16 -25zM438 999q-4 -25 8 -57q20 -4 37 -8q19 43 19 74q0 12 -4 22t-15 12h-3h-3h-2q-4 0 -6 -1l-4 -2t-4 -3 q-18 -12 -23 -37zM453 834q-4 6 1 14t13 8q10 0 14 -8q8 -20 -14 -23q-10 0 -14 9zM539 657q-29 49 9 85t75 20q18 -9 26 -27q16 -39 -6 -76.5t-63 -31.5q-25 2 -41 30zM559 905q23 -10 43 -26q33 38 39 69q4 31 -14 39q-8 4 -19 2q-10 -2 -22 -14q-20 -20 -27 -70zM795 252 q2 -4 8 -8q10 4 10 12q2 16 -10 16q-6 -4 -8 -20z" />
<glyph unicode="&#xab;" d="M84 868q12 37 46 62.5t71 21.5q2 0 2 -2q127 12 221 -2q-8 25 -6 47q6 66 59 66q25 0 36 -20.5t7 -49.5q-4 -31 -20 -61l12 -4l10 -4q2 -2 10 -4q2 0 7 -3q16 96 77 95q29 -2 39 -29q18 -49 -39 -113q98 -82 99 -211q0 -90 -58 -149q25 -29 48 -72q55 -10 120 -45 q27 18 52 17q6 -2 6 -11q0 -8 -8.5 -9t-32.5 -5q27 -17 39 -29q4 -8 0 -12q-6 -6 -15 0q-8 6 -28 23q6 -10 8 -21q0 -6 -6 -10q-8 -2 -11 4q-4 16 -12 33q-16 8 -49 22l-4 2q-18 6 -51 21q31 -68 47 -176q12 -4 22 -2q-23 33 6 51q8 6 17 6q29 0 29 -35q0 -14 -15 -24 q25 -6 35 16q4 8 12 6q10 -4 6 -14q-14 -29 -45 -29q-16 0 -30 8q-16 -4 -33 0q2 -25 10 -80q-4 -8 -16 -14q-53 0 -119 -2q2 -31 2 -86l2 -16q8 -12 -8.5 -15.5t-63.5 -5.5q-53 -4 -61 2q-23 12 0 27q8 4 61 0q29 0 50 -4q-2 33 -5 98q-96 -2 -143 -2h-72q2 -27 2 -66v-34 q10 -12 -6 -15.5t-65 -5.5q-51 -4 -60 2q-23 12 0 27q6 4 60 0q29 0 49 -4q0 -10 -2 96q-100 0 -162 4q-8 2 -14 14q14 102 20 138q14 78 39 133q-35 -16 -102 -43q-2 -10 -10 -33q-4 -6 -11 -4q-8 4 -6 10q2 8 6 21q-6 -6 -28 -23q-6 -6 -13 0q-6 4 0 12q10 12 37 29l-33 6 q-6 0 -6 8t6 11q25 2 52 -17q63 33 118 45q14 29 33 53q-63 55 -57 144q4 27 12 55q-27 4 -86 35q-68 33 -70 51q-39 33 -20 94zM109 872q-29 -59 14 -88q14 -10 31 -10q41 0 61 49q12 27 12 60q0 27 -26 49q-68 -6 -92 -60zM125 856q0 16 12 16q12 2 17 -12q3 -14 -7 -20 q-23 -10 -22 16zM158 756q57 -35 108 -49q2 2 4 5t9 1q6 -4 4 -11q6 -2 12 -3t6 -7q-2 -6 -8 -6h-17q-8 -27 -10 -51q-8 -92 70 -141q68 -43 160 -35q88 8 142 61t56 139q4 123 -90 197q-2 0 -4 -2q-4 -4 -10 0q-4 6 0 10l2 2q-18 10 -37 21q-4 -6 -10 -4q-8 2 -8 12 q-20 10 -45 18v-2q-8 0 -15 7q-12 4 -26 6q-6 -18 -17 -4l-4 8l-8 2h-2q-6 2 -17.5 3t-21.5 3q-74 6 -156 0q35 -33 13 -111q-20 -68 -80 -69zM174 854q0 14 12 16q12 0 17 -12q4 -14 -6 -20q-23 -10 -23 16zM295 866q-4 25 12.5 42.5t38.5 15.5q47 -5 47 -52q0 -35 -31 -45 q-23 -6 -43 6.5t-24 32.5zM311 633q6 4 15 2q10 -63 77 -66q59 0 89 54q4 6 10 2q8 -3 6 -11q-18 -61 -94 -61q-96 0 -103 80zM313 870q2 -14 17.5 -21t29.5 -1q19 6 15 31q-4 35 -35 26q-29 -8 -27 -35zM338 864q-4 8 0 17q4 8 14 8q11 0 13 -8q10 -23 -15 -23q-8 0 -12 6z M412 850q2 29 22 41q14 12 35 4q51 -21 41 -66q-10 -47 -59 -36q-41 10 -39 57zM430 852q-8 -37 27 -43q33 -6 37 27q4 20 -19 36q-12 10 -29 5q-12 -6 -16 -25zM438 999q-4 -25 8 -57q20 -4 37 -8q19 43 19 74q0 12 -4 22t-15 12h-3h-3h-2q-4 0 -6 -1l-4 -2t-4 -3 q-18 -12 -23 -37zM453 834q-4 6 1 14t13 8q10 0 14 -8q8 -20 -14 -23q-10 0 -14 9zM539 657q-29 49 9 85t75 20q18 -9 26 -27q16 -39 -6 -76.5t-63 -31.5q-25 2 -41 30zM559 905q23 -10 43 -26q33 38 39 69q4 31 -14 39q-8 4 -19 2q-10 -2 -22 -14q-20 -20 -27 -70zM795 252 q2 -4 8 -8q10 4 10 12q2 16 -10 16q-6 -4 -8 -20z" />
<glyph unicode="&#xac;" horiz-adv-x="1359" d="M119 696q0 -57 151 -53q197 -2 594 4q61 -4 193 -8q-2 -125 8 -205q6 -43 29 -90q29 -66 61 -65q55 0 76 221q12 147 12 180q-8 115 -76 139q-49 18 -157 25q-41 4 -86 4q-94 0 -283.5 -18.5t-285 -18.5t-166 -38t-70.5 -77z" />
<glyph unicode="&#xad;" horiz-adv-x="897" d="M102 395q0 -57 97 -53q122 -2 370 4q14 0 51 -4t58 -4q76 0 100 55q16 37 17 64q0 72 -133 86q-27 4 -56 4q-59 0 -178 -18.5t-178.5 -18.5t-103.5 -38t-44 -77z" />
<glyph unicode="&#xae;" horiz-adv-x="1488" d="M96 1638zM115 487q61 -297 284 -428q135 -82 306 -71q164 10 346 100q240 121 325 524q16 78 17 160q0 258 -148 436q-164 197 -436 197q-51 0 -110.5 -8t-125.5 -35q-268 -66 -397 -338q-119 -254 -61 -537zM285 705q0 174 75 296q88 139 263 183q84 18 172 18 q137 0 239 -47q119 -55 158 -164q47 -129 47 -256q0 -365 -338 -536q-37 -20 -104 -41q-86 -27 -148 -29q-27 0 -47 4q-27 6 -84 47q-43 27 -76 62q-157 160 -157 463zM457 719q-2 -127 2 -379v-21q10 -18 35 -22q33 -4 61 22q14 12 12 70v82q-2 90 4 131q57 -51 174 -156 q2 -2 7 -6q147 -133 206 -121q27 4 33 35q8 33 -125 148q-10 8 -26 22l-17 17q-37 35 -118 102q49 -2 94 10q182 51 196 174q14 127 -129 174q-106 35 -186 35q-82 0 -139 -37q-66 -41 -76 -114q-12 -96 -8 -166zM584 891q16 66 102 65q98 0 164 -51q37 -29 33 -76 q-4 -49 -45 -73q-61 -37 -144 -33q-59 0 -104 41q-29 27 -6 127z" />
<glyph unicode="&#xaf;" d="M84 868q12 37 46 62.5t71 21.5q2 0 2 -2q127 12 221 -2q-8 25 -6 47q6 66 59 66q25 0 36 -20.5t7 -49.5q-4 -31 -20 -61l12 -4l10 -4q2 -2 10 -4q2 0 7 -3q16 96 77 95q29 -2 39 -29q18 -49 -39 -113q98 -82 99 -211q0 -90 -58 -149q25 -29 48 -72q55 -10 120 -45 q27 18 52 17q6 -2 6 -11q0 -8 -8.5 -9t-32.5 -5q27 -17 39 -29q4 -8 0 -12q-6 -6 -15 0q-8 6 -28 23q6 -10 8 -21q0 -6 -6 -10q-8 -2 -11 4q-4 16 -12 33q-16 8 -49 22l-4 2q-18 6 -51 21q31 -68 47 -176q12 -4 22 -2q-23 33 6 51q8 6 17 6q29 0 29 -35q0 -14 -15 -24 q25 -6 35 16q4 8 12 6q10 -4 6 -14q-14 -29 -45 -29q-16 0 -30 8q-16 -4 -33 0q2 -25 10 -80q-4 -8 -16 -14q-53 0 -119 -2q2 -31 2 -86l2 -16q8 -12 -8.5 -15.5t-63.5 -5.5q-53 -4 -61 2q-23 12 0 27q8 4 61 0q29 0 50 -4q-2 33 -5 98q-96 -2 -143 -2h-72q2 -27 2 -66v-34 q10 -12 -6 -15.5t-65 -5.5q-51 -4 -60 2q-23 12 0 27q6 4 60 0q29 0 49 -4q0 -10 -2 96q-100 0 -162 4q-8 2 -14 14q14 102 20 138q14 78 39 133q-35 -16 -102 -43q-2 -10 -10 -33q-4 -6 -11 -4q-8 4 -6 10q2 8 6 21q-6 -6 -28 -23q-6 -6 -13 0q-6 4 0 12q10 12 37 29l-33 6 q-6 0 -6 8t6 11q25 2 52 -17q63 33 118 45q14 29 33 53q-63 55 -57 144q4 27 12 55q-27 4 -86 35q-68 33 -70 51q-39 33 -20 94zM109 872q-29 -59 14 -88q14 -10 31 -10q41 0 61 49q12 27 12 60q0 27 -26 49q-68 -6 -92 -60zM125 856q0 16 12 16q12 2 17 -12q3 -14 -7 -20 q-23 -10 -22 16zM158 756q57 -35 108 -49q2 2 4 5t9 1q6 -4 4 -11q6 -2 12 -3t6 -7q-2 -6 -8 -6h-17q-8 -27 -10 -51q-8 -92 70 -141q68 -43 160 -35q88 8 142 61t56 139q4 123 -90 197q-2 0 -4 -2q-4 -4 -10 0q-4 6 0 10l2 2q-18 10 -37 21q-4 -6 -10 -4q-8 2 -8 12 q-20 10 -45 18v-2q-8 0 -15 7q-12 4 -26 6q-6 -18 -17 -4l-4 8l-8 2h-2q-6 2 -17.5 3t-21.5 3q-74 6 -156 0q35 -33 13 -111q-20 -68 -80 -69zM174 854q0 14 12 16q12 0 17 -12q4 -14 -6 -20q-23 -10 -23 16zM295 866q-4 25 12.5 42.5t38.5 15.5q47 -5 47 -52q0 -35 -31 -45 q-23 -6 -43 6.5t-24 32.5zM311 633q6 4 15 2q10 -63 77 -66q59 0 89 54q4 6 10 2q8 -3 6 -11q-18 -61 -94 -61q-96 0 -103 80zM313 870q2 -14 17.5 -21t29.5 -1q19 6 15 31q-4 35 -35 26q-29 -8 -27 -35zM338 864q-4 8 0 17q4 8 14 8q11 0 13 -8q10 -23 -15 -23q-8 0 -12 6z M412 850q2 29 22 41q14 12 35 4q51 -21 41 -66q-10 -47 -59 -36q-41 10 -39 57zM430 852q-8 -37 27 -43q33 -6 37 27q4 20 -19 36q-12 10 -29 5q-12 -6 -16 -25zM438 999q-4 -25 8 -57q20 -4 37 -8q19 43 19 74q0 12 -4 22t-15 12h-3h-3h-2q-4 0 -6 -1l-4 -2t-4 -3 q-18 -12 -23 -37zM453 834q-4 6 1 14t13 8q10 0 14 -8q8 -20 -14 -23q-10 0 -14 9zM539 657q-29 49 9 85t75 20q18 -9 26 -27q16 -39 -6 -76.5t-63 -31.5q-25 2 -41 30zM559 905q23 -10 43 -26q33 38 39 69q4 31 -14 39q-8 4 -19 2q-10 -2 -22 -14q-20 -20 -27 -70zM795 252 q2 -4 8 -8q10 4 10 12q2 16 -10 16q-6 -4 -8 -20z" />
<glyph unicode="&#xb0;" d="M84 868q12 37 46 62.5t71 21.5q2 0 2 -2q127 12 221 -2q-8 25 -6 47q6 66 59 66q25 0 36 -20.5t7 -49.5q-4 -31 -20 -61l12 -4l10 -4q2 -2 10 -4q2 0 7 -3q16 96 77 95q29 -2 39 -29q18 -49 -39 -113q98 -82 99 -211q0 -90 -58 -149q25 -29 48 -72q55 -10 120 -45 q27 18 52 17q6 -2 6 -11q0 -8 -8.5 -9t-32.5 -5q27 -17 39 -29q4 -8 0 -12q-6 -6 -15 0q-8 6 -28 23q6 -10 8 -21q0 -6 -6 -10q-8 -2 -11 4q-4 16 -12 33q-16 8 -49 22l-4 2q-18 6 -51 21q31 -68 47 -176q12 -4 22 -2q-23 33 6 51q8 6 17 6q29 0 29 -35q0 -14 -15 -24 q25 -6 35 16q4 8 12 6q10 -4 6 -14q-14 -29 -45 -29q-16 0 -30 8q-16 -4 -33 0q2 -25 10 -80q-4 -8 -16 -14q-53 0 -119 -2q2 -31 2 -86l2 -16q8 -12 -8.5 -15.5t-63.5 -5.5q-53 -4 -61 2q-23 12 0 27q8 4 61 0q29 0 50 -4q-2 33 -5 98q-96 -2 -143 -2h-72q2 -27 2 -66v-34 q10 -12 -6 -15.5t-65 -5.5q-51 -4 -60 2q-23 12 0 27q6 4 60 0q29 0 49 -4q0 -10 -2 96q-100 0 -162 4q-8 2 -14 14q14 102 20 138q14 78 39 133q-35 -16 -102 -43q-2 -10 -10 -33q-4 -6 -11 -4q-8 4 -6 10q2 8 6 21q-6 -6 -28 -23q-6 -6 -13 0q-6 4 0 12q10 12 37 29l-33 6 q-6 0 -6 8t6 11q25 2 52 -17q63 33 118 45q14 29 33 53q-63 55 -57 144q4 27 12 55q-27 4 -86 35q-68 33 -70 51q-39 33 -20 94zM109 872q-29 -59 14 -88q14 -10 31 -10q41 0 61 49q12 27 12 60q0 27 -26 49q-68 -6 -92 -60zM125 856q0 16 12 16q12 2 17 -12q3 -14 -7 -20 q-23 -10 -22 16zM158 756q57 -35 108 -49q2 2 4 5t9 1q6 -4 4 -11q6 -2 12 -3t6 -7q-2 -6 -8 -6h-17q-8 -27 -10 -51q-8 -92 70 -141q68 -43 160 -35q88 8 142 61t56 139q4 123 -90 197q-2 0 -4 -2q-4 -4 -10 0q-4 6 0 10l2 2q-18 10 -37 21q-4 -6 -10 -4q-8 2 -8 12 q-20 10 -45 18v-2q-8 0 -15 7q-12 4 -26 6q-6 -18 -17 -4l-4 8l-8 2h-2q-6 2 -17.5 3t-21.5 3q-74 6 -156 0q35 -33 13 -111q-20 -68 -80 -69zM174 854q0 14 12 16q12 0 17 -12q4 -14 -6 -20q-23 -10 -23 16zM295 866q-4 25 12.5 42.5t38.5 15.5q47 -5 47 -52q0 -35 -31 -45 q-23 -6 -43 6.5t-24 32.5zM311 633q6 4 15 2q10 -63 77 -66q59 0 89 54q4 6 10 2q8 -3 6 -11q-18 -61 -94 -61q-96 0 -103 80zM313 870q2 -14 17.5 -21t29.5 -1q19 6 15 31q-4 35 -35 26q-29 -8 -27 -35zM338 864q-4 8 0 17q4 8 14 8q11 0 13 -8q10 -23 -15 -23q-8 0 -12 6z M412 850q2 29 22 41q14 12 35 4q51 -21 41 -66q-10 -47 -59 -36q-41 10 -39 57zM430 852q-8 -37 27 -43q33 -6 37 27q4 20 -19 36q-12 10 -29 5q-12 -6 -16 -25zM438 999q-4 -25 8 -57q20 -4 37 -8q19 43 19 74q0 12 -4 22t-15 12h-3h-3h-2q-4 0 -6 -1l-4 -2t-4 -3 q-18 -12 -23 -37zM453 834q-4 6 1 14t13 8q10 0 14 -8q8 -20 -14 -23q-10 0 -14 9zM539 657q-29 49 9 85t75 20q18 -9 26 -27q16 -39 -6 -76.5t-63 -31.5q-25 2 -41 30zM559 905q23 -10 43 -26q33 38 39 69q4 31 -14 39q-8 4 -19 2q-10 -2 -22 -14q-20 -20 -27 -70zM795 252 q2 -4 8 -8q10 4 10 12q2 16 -10 16q-6 -4 -8 -20z" />
<glyph unicode="&#xb1;" d="M84 868q12 37 46 62.5t71 21.5q2 0 2 -2q127 12 221 -2q-8 25 -6 47q6 66 59 66q25 0 36 -20.5t7 -49.5q-4 -31 -20 -61l12 -4l10 -4q2 -2 10 -4q2 0 7 -3q16 96 77 95q29 -2 39 -29q18 -49 -39 -113q98 -82 99 -211q0 -90 -58 -149q25 -29 48 -72q55 -10 120 -45 q27 18 52 17q6 -2 6 -11q0 -8 -8.5 -9t-32.5 -5q27 -17 39 -29q4 -8 0 -12q-6 -6 -15 0q-8 6 -28 23q6 -10 8 -21q0 -6 -6 -10q-8 -2 -11 4q-4 16 -12 33q-16 8 -49 22l-4 2q-18 6 -51 21q31 -68 47 -176q12 -4 22 -2q-23 33 6 51q8 6 17 6q29 0 29 -35q0 -14 -15 -24 q25 -6 35 16q4 8 12 6q10 -4 6 -14q-14 -29 -45 -29q-16 0 -30 8q-16 -4 -33 0q2 -25 10 -80q-4 -8 -16 -14q-53 0 -119 -2q2 -31 2 -86l2 -16q8 -12 -8.5 -15.5t-63.5 -5.5q-53 -4 -61 2q-23 12 0 27q8 4 61 0q29 0 50 -4q-2 33 -5 98q-96 -2 -143 -2h-72q2 -27 2 -66v-34 q10 -12 -6 -15.5t-65 -5.5q-51 -4 -60 2q-23 12 0 27q6 4 60 0q29 0 49 -4q0 -10 -2 96q-100 0 -162 4q-8 2 -14 14q14 102 20 138q14 78 39 133q-35 -16 -102 -43q-2 -10 -10 -33q-4 -6 -11 -4q-8 4 -6 10q2 8 6 21q-6 -6 -28 -23q-6 -6 -13 0q-6 4 0 12q10 12 37 29l-33 6 q-6 0 -6 8t6 11q25 2 52 -17q63 33 118 45q14 29 33 53q-63 55 -57 144q4 27 12 55q-27 4 -86 35q-68 33 -70 51q-39 33 -20 94zM109 872q-29 -59 14 -88q14 -10 31 -10q41 0 61 49q12 27 12 60q0 27 -26 49q-68 -6 -92 -60zM125 856q0 16 12 16q12 2 17 -12q3 -14 -7 -20 q-23 -10 -22 16zM158 756q57 -35 108 -49q2 2 4 5t9 1q6 -4 4 -11q6 -2 12 -3t6 -7q-2 -6 -8 -6h-17q-8 -27 -10 -51q-8 -92 70 -141q68 -43 160 -35q88 8 142 61t56 139q4 123 -90 197q-2 0 -4 -2q-4 -4 -10 0q-4 6 0 10l2 2q-18 10 -37 21q-4 -6 -10 -4q-8 2 -8 12 q-20 10 -45 18v-2q-8 0 -15 7q-12 4 -26 6q-6 -18 -17 -4l-4 8l-8 2h-2q-6 2 -17.5 3t-21.5 3q-74 6 -156 0q35 -33 13 -111q-20 -68 -80 -69zM174 854q0 14 12 16q12 0 17 -12q4 -14 -6 -20q-23 -10 -23 16zM295 866q-4 25 12.5 42.5t38.5 15.5q47 -5 47 -52q0 -35 -31 -45 q-23 -6 -43 6.5t-24 32.5zM311 633q6 4 15 2q10 -63 77 -66q59 0 89 54q4 6 10 2q8 -3 6 -11q-18 -61 -94 -61q-96 0 -103 80zM313 870q2 -14 17.5 -21t29.5 -1q19 6 15 31q-4 35 -35 26q-29 -8 -27 -35zM338 864q-4 8 0 17q4 8 14 8q11 0 13 -8q10 -23 -15 -23q-8 0 -12 6z M412 850q2 29 22 41q14 12 35 4q51 -21 41 -66q-10 -47 -59 -36q-41 10 -39 57zM430 852q-8 -37 27 -43q33 -6 37 27q4 20 -19 36q-12 10 -29 5q-12 -6 -16 -25zM438 999q-4 -25 8 -57q20 -4 37 -8q19 43 19 74q0 12 -4 22t-15 12h-3h-3h-2q-4 0 -6 -1l-4 -2t-4 -3 q-18 -12 -23 -37zM453 834q-4 6 1 14t13 8q10 0 14 -8q8 -20 -14 -23q-10 0 -14 9zM539 657q-29 49 9 85t75 20q18 -9 26 -27q16 -39 -6 -76.5t-63 -31.5q-25 2 -41 30zM559 905q23 -10 43 -26q33 38 39 69q4 31 -14 39q-8 4 -19 2q-10 -2 -22 -14q-20 -20 -27 -70zM795 252 q2 -4 8 -8q10 4 10 12q2 16 -10 16q-6 -4 -8 -20z" />
<glyph unicode="&#xb2;" d="M84 868q12 37 46 62.5t71 21.5q2 0 2 -2q127 12 221 -2q-8 25 -6 47q6 66 59 66q25 0 36 -20.5t7 -49.5q-4 -31 -20 -61l12 -4l10 -4q2 -2 10 -4q2 0 7 -3q16 96 77 95q29 -2 39 -29q18 -49 -39 -113q98 -82 99 -211q0 -90 -58 -149q25 -29 48 -72q55 -10 120 -45 q27 18 52 17q6 -2 6 -11q0 -8 -8.5 -9t-32.5 -5q27 -17 39 -29q4 -8 0 -12q-6 -6 -15 0q-8 6 -28 23q6 -10 8 -21q0 -6 -6 -10q-8 -2 -11 4q-4 16 -12 33q-16 8 -49 22l-4 2q-18 6 -51 21q31 -68 47 -176q12 -4 22 -2q-23 33 6 51q8 6 17 6q29 0 29 -35q0 -14 -15 -24 q25 -6 35 16q4 8 12 6q10 -4 6 -14q-14 -29 -45 -29q-16 0 -30 8q-16 -4 -33 0q2 -25 10 -80q-4 -8 -16 -14q-53 0 -119 -2q2 -31 2 -86l2 -16q8 -12 -8.5 -15.5t-63.5 -5.5q-53 -4 -61 2q-23 12 0 27q8 4 61 0q29 0 50 -4q-2 33 -5 98q-96 -2 -143 -2h-72q2 -27 2 -66v-34 q10 -12 -6 -15.5t-65 -5.5q-51 -4 -60 2q-23 12 0 27q6 4 60 0q29 0 49 -4q0 -10 -2 96q-100 0 -162 4q-8 2 -14 14q14 102 20 138q14 78 39 133q-35 -16 -102 -43q-2 -10 -10 -33q-4 -6 -11 -4q-8 4 -6 10q2 8 6 21q-6 -6 -28 -23q-6 -6 -13 0q-6 4 0 12q10 12 37 29l-33 6 q-6 0 -6 8t6 11q25 2 52 -17q63 33 118 45q14 29 33 53q-63 55 -57 144q4 27 12 55q-27 4 -86 35q-68 33 -70 51q-39 33 -20 94zM109 872q-29 -59 14 -88q14 -10 31 -10q41 0 61 49q12 27 12 60q0 27 -26 49q-68 -6 -92 -60zM125 856q0 16 12 16q12 2 17 -12q3 -14 -7 -20 q-23 -10 -22 16zM158 756q57 -35 108 -49q2 2 4 5t9 1q6 -4 4 -11q6 -2 12 -3t6 -7q-2 -6 -8 -6h-17q-8 -27 -10 -51q-8 -92 70 -141q68 -43 160 -35q88 8 142 61t56 139q4 123 -90 197q-2 0 -4 -2q-4 -4 -10 0q-4 6 0 10l2 2q-18 10 -37 21q-4 -6 -10 -4q-8 2 -8 12 q-20 10 -45 18v-2q-8 0 -15 7q-12 4 -26 6q-6 -18 -17 -4l-4 8l-8 2h-2q-6 2 -17.5 3t-21.5 3q-74 6 -156 0q35 -33 13 -111q-20 -68 -80 -69zM174 854q0 14 12 16q12 0 17 -12q4 -14 -6 -20q-23 -10 -23 16zM295 866q-4 25 12.5 42.5t38.5 15.5q47 -5 47 -52q0 -35 -31 -45 q-23 -6 -43 6.5t-24 32.5zM311 633q6 4 15 2q10 -63 77 -66q59 0 89 54q4 6 10 2q8 -3 6 -11q-18 -61 -94 -61q-96 0 -103 80zM313 870q2 -14 17.5 -21t29.5 -1q19 6 15 31q-4 35 -35 26q-29 -8 -27 -35zM338 864q-4 8 0 17q4 8 14 8q11 0 13 -8q10 -23 -15 -23q-8 0 -12 6z M412 850q2 29 22 41q14 12 35 4q51 -21 41 -66q-10 -47 -59 -36q-41 10 -39 57zM430 852q-8 -37 27 -43q33 -6 37 27q4 20 -19 36q-12 10 -29 5q-12 -6 -16 -25zM438 999q-4 -25 8 -57q20 -4 37 -8q19 43 19 74q0 12 -4 22t-15 12h-3h-3h-2q-4 0 -6 -1l-4 -2t-4 -3 q-18 -12 -23 -37zM453 834q-4 6 1 14t13 8q10 0 14 -8q8 -20 -14 -23q-10 0 -14 9zM539 657q-29 49 9 85t75 20q18 -9 26 -27q16 -39 -6 -76.5t-63 -31.5q-25 2 -41 30zM559 905q23 -10 43 -26q33 38 39 69q4 31 -14 39q-8 4 -19 2q-10 -2 -22 -14q-20 -20 -27 -70zM795 252 q2 -4 8 -8q10 4 10 12q2 16 -10 16q-6 -4 -8 -20z" />
<glyph unicode="&#xb3;" d="M84 868q12 37 46 62.5t71 21.5q2 0 2 -2q127 12 221 -2q-8 25 -6 47q6 66 59 66q25 0 36 -20.5t7 -49.5q-4 -31 -20 -61l12 -4l10 -4q2 -2 10 -4q2 0 7 -3q16 96 77 95q29 -2 39 -29q18 -49 -39 -113q98 -82 99 -211q0 -90 -58 -149q25 -29 48 -72q55 -10 120 -45 q27 18 52 17q6 -2 6 -11q0 -8 -8.5 -9t-32.5 -5q27 -17 39 -29q4 -8 0 -12q-6 -6 -15 0q-8 6 -28 23q6 -10 8 -21q0 -6 -6 -10q-8 -2 -11 4q-4 16 -12 33q-16 8 -49 22l-4 2q-18 6 -51 21q31 -68 47 -176q12 -4 22 -2q-23 33 6 51q8 6 17 6q29 0 29 -35q0 -14 -15 -24 q25 -6 35 16q4 8 12 6q10 -4 6 -14q-14 -29 -45 -29q-16 0 -30 8q-16 -4 -33 0q2 -25 10 -80q-4 -8 -16 -14q-53 0 -119 -2q2 -31 2 -86l2 -16q8 -12 -8.5 -15.5t-63.5 -5.5q-53 -4 -61 2q-23 12 0 27q8 4 61 0q29 0 50 -4q-2 33 -5 98q-96 -2 -143 -2h-72q2 -27 2 -66v-34 q10 -12 -6 -15.5t-65 -5.5q-51 -4 -60 2q-23 12 0 27q6 4 60 0q29 0 49 -4q0 -10 -2 96q-100 0 -162 4q-8 2 -14 14q14 102 20 138q14 78 39 133q-35 -16 -102 -43q-2 -10 -10 -33q-4 -6 -11 -4q-8 4 -6 10q2 8 6 21q-6 -6 -28 -23q-6 -6 -13 0q-6 4 0 12q10 12 37 29l-33 6 q-6 0 -6 8t6 11q25 2 52 -17q63 33 118 45q14 29 33 53q-63 55 -57 144q4 27 12 55q-27 4 -86 35q-68 33 -70 51q-39 33 -20 94zM109 872q-29 -59 14 -88q14 -10 31 -10q41 0 61 49q12 27 12 60q0 27 -26 49q-68 -6 -92 -60zM125 856q0 16 12 16q12 2 17 -12q3 -14 -7 -20 q-23 -10 -22 16zM158 756q57 -35 108 -49q2 2 4 5t9 1q6 -4 4 -11q6 -2 12 -3t6 -7q-2 -6 -8 -6h-17q-8 -27 -10 -51q-8 -92 70 -141q68 -43 160 -35q88 8 142 61t56 139q4 123 -90 197q-2 0 -4 -2q-4 -4 -10 0q-4 6 0 10l2 2q-18 10 -37 21q-4 -6 -10 -4q-8 2 -8 12 q-20 10 -45 18v-2q-8 0 -15 7q-12 4 -26 6q-6 -18 -17 -4l-4 8l-8 2h-2q-6 2 -17.5 3t-21.5 3q-74 6 -156 0q35 -33 13 -111q-20 -68 -80 -69zM174 854q0 14 12 16q12 0 17 -12q4 -14 -6 -20q-23 -10 -23 16zM295 866q-4 25 12.5 42.5t38.5 15.5q47 -5 47 -52q0 -35 -31 -45 q-23 -6 -43 6.5t-24 32.5zM311 633q6 4 15 2q10 -63 77 -66q59 0 89 54q4 6 10 2q8 -3 6 -11q-18 -61 -94 -61q-96 0 -103 80zM313 870q2 -14 17.5 -21t29.5 -1q19 6 15 31q-4 35 -35 26q-29 -8 -27 -35zM338 864q-4 8 0 17q4 8 14 8q11 0 13 -8q10 -23 -15 -23q-8 0 -12 6z M412 850q2 29 22 41q14 12 35 4q51 -21 41 -66q-10 -47 -59 -36q-41 10 -39 57zM430 852q-8 -37 27 -43q33 -6 37 27q4 20 -19 36q-12 10 -29 5q-12 -6 -16 -25zM438 999q-4 -25 8 -57q20 -4 37 -8q19 43 19 74q0 12 -4 22t-15 12h-3h-3h-2q-4 0 -6 -1l-4 -2t-4 -3 q-18 -12 -23 -37zM453 834q-4 6 1 14t13 8q10 0 14 -8q8 -20 -14 -23q-10 0 -14 9zM539 657q-29 49 9 85t75 20q18 -9 26 -27q16 -39 -6 -76.5t-63 -31.5q-25 2 -41 30zM559 905q23 -10 43 -26q33 38 39 69q4 31 -14 39q-8 4 -19 2q-10 -2 -22 -14q-20 -20 -27 -70zM795 252 q2 -4 8 -8q10 4 10 12q2 16 -10 16q-6 -4 -8 -20z" />
<glyph unicode="&#xb4;" horiz-adv-x="567" d="M98 967q0 57 97 190q68 92 112.5 138t73.5 46q41 0 82 -71q6 -14 6 -29q0 -33 -37 -80q-84 -105 -145 -162q-78 -70 -144 -69q-45 -2 -45 37z" />
<glyph unicode="&#xb5;" d="M84 868q12 37 46 62.5t71 21.5q2 0 2 -2q127 12 221 -2q-8 25 -6 47q6 66 59 66q25 0 36 -20.5t7 -49.5q-4 -31 -20 -61l12 -4l10 -4q2 -2 10 -4q2 0 7 -3q16 96 77 95q29 -2 39 -29q18 -49 -39 -113q98 -82 99 -211q0 -90 -58 -149q25 -29 48 -72q55 -10 120 -45 q27 18 52 17q6 -2 6 -11q0 -8 -8.5 -9t-32.5 -5q27 -17 39 -29q4 -8 0 -12q-6 -6 -15 0q-8 6 -28 23q6 -10 8 -21q0 -6 -6 -10q-8 -2 -11 4q-4 16 -12 33q-16 8 -49 22l-4 2q-18 6 -51 21q31 -68 47 -176q12 -4 22 -2q-23 33 6 51q8 6 17 6q29 0 29 -35q0 -14 -15 -24 q25 -6 35 16q4 8 12 6q10 -4 6 -14q-14 -29 -45 -29q-16 0 -30 8q-16 -4 -33 0q2 -25 10 -80q-4 -8 -16 -14q-53 0 -119 -2q2 -31 2 -86l2 -16q8 -12 -8.5 -15.5t-63.5 -5.5q-53 -4 -61 2q-23 12 0 27q8 4 61 0q29 0 50 -4q-2 33 -5 98q-96 -2 -143 -2h-72q2 -27 2 -66v-34 q10 -12 -6 -15.5t-65 -5.5q-51 -4 -60 2q-23 12 0 27q6 4 60 0q29 0 49 -4q0 -10 -2 96q-100 0 -162 4q-8 2 -14 14q14 102 20 138q14 78 39 133q-35 -16 -102 -43q-2 -10 -10 -33q-4 -6 -11 -4q-8 4 -6 10q2 8 6 21q-6 -6 -28 -23q-6 -6 -13 0q-6 4 0 12q10 12 37 29l-33 6 q-6 0 -6 8t6 11q25 2 52 -17q63 33 118 45q14 29 33 53q-63 55 -57 144q4 27 12 55q-27 4 -86 35q-68 33 -70 51q-39 33 -20 94zM109 872q-29 -59 14 -88q14 -10 31 -10q41 0 61 49q12 27 12 60q0 27 -26 49q-68 -6 -92 -60zM125 856q0 16 12 16q12 2 17 -12q3 -14 -7 -20 q-23 -10 -22 16zM158 756q57 -35 108 -49q2 2 4 5t9 1q6 -4 4 -11q6 -2 12 -3t6 -7q-2 -6 -8 -6h-17q-8 -27 -10 -51q-8 -92 70 -141q68 -43 160 -35q88 8 142 61t56 139q4 123 -90 197q-2 0 -4 -2q-4 -4 -10 0q-4 6 0 10l2 2q-18 10 -37 21q-4 -6 -10 -4q-8 2 -8 12 q-20 10 -45 18v-2q-8 0 -15 7q-12 4 -26 6q-6 -18 -17 -4l-4 8l-8 2h-2q-6 2 -17.5 3t-21.5 3q-74 6 -156 0q35 -33 13 -111q-20 -68 -80 -69zM174 854q0 14 12 16q12 0 17 -12q4 -14 -6 -20q-23 -10 -23 16zM295 866q-4 25 12.5 42.5t38.5 15.5q47 -5 47 -52q0 -35 -31 -45 q-23 -6 -43 6.5t-24 32.5zM311 633q6 4 15 2q10 -63 77 -66q59 0 89 54q4 6 10 2q8 -3 6 -11q-18 -61 -94 -61q-96 0 -103 80zM313 870q2 -14 17.5 -21t29.5 -1q19 6 15 31q-4 35 -35 26q-29 -8 -27 -35zM338 864q-4 8 0 17q4 8 14 8q11 0 13 -8q10 -23 -15 -23q-8 0 -12 6z M412 850q2 29 22 41q14 12 35 4q51 -21 41 -66q-10 -47 -59 -36q-41 10 -39 57zM430 852q-8 -37 27 -43q33 -6 37 27q4 20 -19 36q-12 10 -29 5q-12 -6 -16 -25zM438 999q-4 -25 8 -57q20 -4 37 -8q19 43 19 74q0 12 -4 22t-15 12h-3h-3h-2q-4 0 -6 -1l-4 -2t-4 -3 q-18 -12 -23 -37zM453 834q-4 6 1 14t13 8q10 0 14 -8q8 -20 -14 -23q-10 0 -14 9zM539 657q-29 49 9 85t75 20q18 -9 26 -27q16 -39 -6 -76.5t-63 -31.5q-25 2 -41 30zM559 905q23 -10 43 -26q33 38 39 69q4 31 -14 39q-8 4 -19 2q-10 -2 -22 -14q-20 -20 -27 -70zM795 252 q2 -4 8 -8q10 4 10 12q2 16 -10 16q-6 -4 -8 -20z" />
<glyph unicode="&#xb6;" horiz-adv-x="1226" d="M-18 1284q-6 -188 159 -295q121 -76 246 -78q-4 -328 -4 -379q2 -299 4 -317q20 -252 100 -190q35 27 50 270q4 152 8 305q18 287 6 733q2 45 0 146q63 4 123 -11q78 -20 100 -65q6 -12 0 -301q0 12 6 -590q2 -246 8 -305q23 -242 103 -184q53 39 59 542q-4 197 -6 658 q0 68 -2 104q74 -41 164 -41q139 0 139 103q0 53 -37.5 124.5t-74.5 71.5q-18 0 -56 -22q-43 -27 -68.5 -32t-43.5 -5q-33 0 -60 30q-37 39 -76 56q-98 39 -294 39q-215 0 -361 -76q-186 -96 -192 -291z" />
<glyph unicode="&#xb7;" horiz-adv-x="376" d="M98 727q14 66 78 66q35 0 70 -23.5t35 -58.5q0 -41 -64 -70q-18 -8 -37 -8q-39 0 -64.5 27.5t-17.5 66.5z" />
<glyph unicode="&#xb8;" horiz-adv-x="399" d="M12 -354q-2 -41 72 -64q33 -8 70 -8q90 0 158.5 49t68.5 129q0 20 -6 43q-14 59 -51 80q-43 14 -86 31q-23 6 -48 14q-8 4 -4 53q14 37 29 111l-86 -16q2 -20 -20.5 -95t-22.5 -106q0 -51 53 -51q14 0 47 7t47 7q53 0 54 -76q0 -92 -183 -86q-8 0 -29.5 4t-31.5 4 q-29 0 -31 -30z" />
<glyph unicode="&#xb9;" d="M84 868q12 37 46 62.5t71 21.5q2 0 2 -2q127 12 221 -2q-8 25 -6 47q6 66 59 66q25 0 36 -20.5t7 -49.5q-4 -31 -20 -61l12 -4l10 -4q2 -2 10 -4q2 0 7 -3q16 96 77 95q29 -2 39 -29q18 -49 -39 -113q98 -82 99 -211q0 -90 -58 -149q25 -29 48 -72q55 -10 120 -45 q27 18 52 17q6 -2 6 -11q0 -8 -8.5 -9t-32.5 -5q27 -17 39 -29q4 -8 0 -12q-6 -6 -15 0q-8 6 -28 23q6 -10 8 -21q0 -6 -6 -10q-8 -2 -11 4q-4 16 -12 33q-16 8 -49 22l-4 2q-18 6 -51 21q31 -68 47 -176q12 -4 22 -2q-23 33 6 51q8 6 17 6q29 0 29 -35q0 -14 -15 -24 q25 -6 35 16q4 8 12 6q10 -4 6 -14q-14 -29 -45 -29q-16 0 -30 8q-16 -4 -33 0q2 -25 10 -80q-4 -8 -16 -14q-53 0 -119 -2q2 -31 2 -86l2 -16q8 -12 -8.5 -15.5t-63.5 -5.5q-53 -4 -61 2q-23 12 0 27q8 4 61 0q29 0 50 -4q-2 33 -5 98q-96 -2 -143 -2h-72q2 -27 2 -66v-34 q10 -12 -6 -15.5t-65 -5.5q-51 -4 -60 2q-23 12 0 27q6 4 60 0q29 0 49 -4q0 -10 -2 96q-100 0 -162 4q-8 2 -14 14q14 102 20 138q14 78 39 133q-35 -16 -102 -43q-2 -10 -10 -33q-4 -6 -11 -4q-8 4 -6 10q2 8 6 21q-6 -6 -28 -23q-6 -6 -13 0q-6 4 0 12q10 12 37 29l-33 6 q-6 0 -6 8t6 11q25 2 52 -17q63 33 118 45q14 29 33 53q-63 55 -57 144q4 27 12 55q-27 4 -86 35q-68 33 -70 51q-39 33 -20 94zM109 872q-29 -59 14 -88q14 -10 31 -10q41 0 61 49q12 27 12 60q0 27 -26 49q-68 -6 -92 -60zM125 856q0 16 12 16q12 2 17 -12q3 -14 -7 -20 q-23 -10 -22 16zM158 756q57 -35 108 -49q2 2 4 5t9 1q6 -4 4 -11q6 -2 12 -3t6 -7q-2 -6 -8 -6h-17q-8 -27 -10 -51q-8 -92 70 -141q68 -43 160 -35q88 8 142 61t56 139q4 123 -90 197q-2 0 -4 -2q-4 -4 -10 0q-4 6 0 10l2 2q-18 10 -37 21q-4 -6 -10 -4q-8 2 -8 12 q-20 10 -45 18v-2q-8 0 -15 7q-12 4 -26 6q-6 -18 -17 -4l-4 8l-8 2h-2q-6 2 -17.5 3t-21.5 3q-74 6 -156 0q35 -33 13 -111q-20 -68 -80 -69zM174 854q0 14 12 16q12 0 17 -12q4 -14 -6 -20q-23 -10 -23 16zM295 866q-4 25 12.5 42.5t38.5 15.5q47 -5 47 -52q0 -35 -31 -45 q-23 -6 -43 6.5t-24 32.5zM311 633q6 4 15 2q10 -63 77 -66q59 0 89 54q4 6 10 2q8 -3 6 -11q-18 -61 -94 -61q-96 0 -103 80zM313 870q2 -14 17.5 -21t29.5 -1q19 6 15 31q-4 35 -35 26q-29 -8 -27 -35zM338 864q-4 8 0 17q4 8 14 8q11 0 13 -8q10 -23 -15 -23q-8 0 -12 6z M412 850q2 29 22 41q14 12 35 4q51 -21 41 -66q-10 -47 -59 -36q-41 10 -39 57zM430 852q-8 -37 27 -43q33 -6 37 27q4 20 -19 36q-12 10 -29 5q-12 -6 -16 -25zM438 999q-4 -25 8 -57q20 -4 37 -8q19 43 19 74q0 12 -4 22t-15 12h-3h-3h-2q-4 0 -6 -1l-4 -2t-4 -3 q-18 -12 -23 -37zM453 834q-4 6 1 14t13 8q10 0 14 -8q8 -20 -14 -23q-10 0 -14 9zM539 657q-29 49 9 85t75 20q18 -9 26 -27q16 -39 -6 -76.5t-63 -31.5q-25 2 -41 30zM559 905q23 -10 43 -26q33 38 39 69q4 31 -14 39q-8 4 -19 2q-10 -2 -22 -14q-20 -20 -27 -70zM795 252 q2 -4 8 -8q10 4 10 12q2 16 -10 16q-6 -4 -8 -20z" />
<glyph unicode="&#xba;" d="M326 1251q-4 49 2 83t32 63q53 49 109 53q96 8 130 -47t32 -152q0 -41 -14.5 -77.5t-53.5 -59.5q-41 -29 -89 -24.5t-77 18.5q-41 27 -54 64.5t-17 78.5zM416 1270q0 -14 2 -36t16 -36q12 -14 35 -15t41 7t24.5 13t10.5 16q12 27 11 43t-15 45q-16 33 -32.5 35.5 t-39.5 -1.5q-27 -4 -40 -23.5t-13 -47.5z" />
<glyph unicode="&#xbb;" d="M84 868q12 37 46 62.5t71 21.5q2 0 2 -2q127 12 221 -2q-8 25 -6 47q6 66 59 66q25 0 36 -20.5t7 -49.5q-4 -31 -20 -61l12 -4l10 -4q2 -2 10 -4q2 0 7 -3q16 96 77 95q29 -2 39 -29q18 -49 -39 -113q98 -82 99 -211q0 -90 -58 -149q25 -29 48 -72q55 -10 120 -45 q27 18 52 17q6 -2 6 -11q0 -8 -8.5 -9t-32.5 -5q27 -17 39 -29q4 -8 0 -12q-6 -6 -15 0q-8 6 -28 23q6 -10 8 -21q0 -6 -6 -10q-8 -2 -11 4q-4 16 -12 33q-16 8 -49 22l-4 2q-18 6 -51 21q31 -68 47 -176q12 -4 22 -2q-23 33 6 51q8 6 17 6q29 0 29 -35q0 -14 -15 -24 q25 -6 35 16q4 8 12 6q10 -4 6 -14q-14 -29 -45 -29q-16 0 -30 8q-16 -4 -33 0q2 -25 10 -80q-4 -8 -16 -14q-53 0 -119 -2q2 -31 2 -86l2 -16q8 -12 -8.5 -15.5t-63.5 -5.5q-53 -4 -61 2q-23 12 0 27q8 4 61 0q29 0 50 -4q-2 33 -5 98q-96 -2 -143 -2h-72q2 -27 2 -66v-34 q10 -12 -6 -15.5t-65 -5.5q-51 -4 -60 2q-23 12 0 27q6 4 60 0q29 0 49 -4q0 -10 -2 96q-100 0 -162 4q-8 2 -14 14q14 102 20 138q14 78 39 133q-35 -16 -102 -43q-2 -10 -10 -33q-4 -6 -11 -4q-8 4 -6 10q2 8 6 21q-6 -6 -28 -23q-6 -6 -13 0q-6 4 0 12q10 12 37 29l-33 6 q-6 0 -6 8t6 11q25 2 52 -17q63 33 118 45q14 29 33 53q-63 55 -57 144q4 27 12 55q-27 4 -86 35q-68 33 -70 51q-39 33 -20 94zM109 872q-29 -59 14 -88q14 -10 31 -10q41 0 61 49q12 27 12 60q0 27 -26 49q-68 -6 -92 -60zM125 856q0 16 12 16q12 2 17 -12q3 -14 -7 -20 q-23 -10 -22 16zM158 756q57 -35 108 -49q2 2 4 5t9 1q6 -4 4 -11q6 -2 12 -3t6 -7q-2 -6 -8 -6h-17q-8 -27 -10 -51q-8 -92 70 -141q68 -43 160 -35q88 8 142 61t56 139q4 123 -90 197q-2 0 -4 -2q-4 -4 -10 0q-4 6 0 10l2 2q-18 10 -37 21q-4 -6 -10 -4q-8 2 -8 12 q-20 10 -45 18v-2q-8 0 -15 7q-12 4 -26 6q-6 -18 -17 -4l-4 8l-8 2h-2q-6 2 -17.5 3t-21.5 3q-74 6 -156 0q35 -33 13 -111q-20 -68 -80 -69zM174 854q0 14 12 16q12 0 17 -12q4 -14 -6 -20q-23 -10 -23 16zM295 866q-4 25 12.5 42.5t38.5 15.5q47 -5 47 -52q0 -35 -31 -45 q-23 -6 -43 6.5t-24 32.5zM311 633q6 4 15 2q10 -63 77 -66q59 0 89 54q4 6 10 2q8 -3 6 -11q-18 -61 -94 -61q-96 0 -103 80zM313 870q2 -14 17.5 -21t29.5 -1q19 6 15 31q-4 35 -35 26q-29 -8 -27 -35zM338 864q-4 8 0 17q4 8 14 8q11 0 13 -8q10 -23 -15 -23q-8 0 -12 6z M412 850q2 29 22 41q14 12 35 4q51 -21 41 -66q-10 -47 -59 -36q-41 10 -39 57zM430 852q-8 -37 27 -43q33 -6 37 27q4 20 -19 36q-12 10 -29 5q-12 -6 -16 -25zM438 999q-4 -25 8 -57q20 -4 37 -8q19 43 19 74q0 12 -4 22t-15 12h-3h-3h-2q-4 0 -6 -1l-4 -2t-4 -3 q-18 -12 -23 -37zM453 834q-4 6 1 14t13 8q10 0 14 -8q8 -20 -14 -23q-10 0 -14 9zM539 657q-29 49 9 85t75 20q18 -9 26 -27q16 -39 -6 -76.5t-63 -31.5q-25 2 -41 30zM559 905q23 -10 43 -26q33 38 39 69q4 31 -14 39q-8 4 -19 2q-10 -2 -22 -14q-20 -20 -27 -70zM795 252 q2 -4 8 -8q10 4 10 12q2 16 -10 16q-6 -4 -8 -20z" />
<glyph unicode="&#xbc;" horiz-adv-x="960" d="M96 664q0 -20 49 -15q109 29 246 66q94 27 359 119q139 47 139 71q0 25 -55 25q-33 0 -99 -21q-47 -14 -92 -30q-194 -60 -305 -97q-242 -80 -242 -118zM299 180q-6 86 49 231.5t127 211.5q10 18 39 40.5t49 22.5q18 0 21 -27q4 -29 -52.5 -97t-97.5 -169 q-61 -141 -53 -166q63 -2 158 -4q4 12 7 77t3 67q8 47 37 47q31 -2 30 -33q0 -8 -2 -22.5t-2 -20.5q2 -37 4 -111q45 0 91 2q67 -6 57 -41q-10 -33 -64 -41l-82 -8q-4 -37 -6 -73q-6 -74 -37 -82q-51 -12 -51 63q0 29 8 74q6 35 7 35q-117 4 -127 4q-111 6 -113 20z M397 1493q0 -12 4 -25q35 -8 88 21v-84q-4 -156 -2 -246q2 -203 45 -203q20 0 28.5 34t10.5 108l4 86q4 74 -2 289q0 39 -8 100q-2 8 -16 24q-51 -2 -96 -26q-55 -31 -56 -78z" />
<glyph unicode="&#xbd;" horiz-adv-x="956" d="M94 670q0 -23 49 -15q109 29 246 66q94 27 359 119q139 47 139 71q0 25 -56 25q-33 0 -98 -21q-47 -16 -92 -30q-194 -60 -305 -97q-242 -82 -242 -118zM377 498q0 -29 29 -29q14 0 34 8q4 0 70 37q47 27 76 27q61 0 61 -72t-74 -201q-45 -53 -88 -106q-70 -84 -69 -127 q0 -12 6 -23q12 -20 137 -26q55 4 168 6q31 -2 61 -6q41 0 54 18q4 10 4 19q0 37 -58 47q-14 2 -71 -4q-70 -6 -99 -7q-68 0 -67 29q0 23 76 117q131 166 131 274q0 31 -8 60q-31 98 -148 98q-59 0 -115 -27q-96 -45 -108 -92q-2 -10 -2 -20zM401 1493q0 -12 5 -25 q33 -8 86 21q2 -33 2 -84q-4 -156 -2 -246q2 -203 45 -203q18 0 26 34t12 108q0 43 3 86q6 74 0 289q0 39 -9 100q-4 8 -16 24q-51 -2 -98 -26q-53 -31 -54 -78z" />
<glyph unicode="&#xbe;" horiz-adv-x="952" d="M92 670q0 -23 49 -15q109 29 246 66q94 27 358 119q139 47 140 71q0 25 -56 25q-33 0 -98 -21q-47 -16 -92 -30q-194 -60 -305 -97q-242 -82 -242 -118zM248 1536q0 -14 19.5 -17t37.5 -3q152 -23 250 -9q-49 -47 -156 -131q-27 -18 -53 -35q-41 -27 -41 -47 q0 -33 68 -39q45 -4 92 -6q98 -33 98 -116q0 -43 -28.5 -79t-69.5 -36q-20 0 -41 10q-4 0 -45 39q-37 33 -55 33q-20 0 -27 -37q-4 -31 45 -66q41 -29 76 -36q18 -6 39 -7q68 0 125 55.5t57 125.5t-51 123t-121 53q-20 0 -39 -4q25 29 98 77q66 45 93.5 85t27.5 67 q0 41 -78 51q-68 8 -153 2l-90 -4q-63 -10 -76 -39q-2 -6 -2 -10zM301 180q-6 86 49.5 231.5t124.5 211.5q12 18 41 40.5t47 22.5q20 0 23 -27q4 -29 -52.5 -97t-99.5 -169q-59 -141 -51 -166q63 -2 158 -4q2 12 5 77t3 67q8 47 39 47q31 -2 30 -33q0 -8 -2 -22.5t-4 -20.5 q4 -37 6 -111q45 0 91 2q67 -6 55 -41q-10 -33 -62 -41q-43 -4 -84 -8q-2 -37 -4 -73q-6 -74 -39 -82q-49 -12 -49 63q0 29 9 74l6 35q-117 4 -129 4q-109 6 -111 20z" />
<glyph unicode="&#xbf;" horiz-adv-x="966" d="M-70 344q0 -98 52.5 -182t142.5 -119q115 -43 227 -43q106 0 195 43q98 47 142 138t44 173q0 53 -20 97q-18 37 -68 36q-53 0 -86 -34.5t-59 -147.5q-25 -100 -82.5 -135t-112.5 -35q-76 0 -124 59.5t-48 137.5q0 37 12 71q31 78 146 158t145 168q25 72 17 156 q-4 49 -29 106q-33 70 -68 66q-49 -4 -59 -131q-12 -150 -18 -160q-37 -59 -97 -96q-92 -55 -108 -68q-47 -41 -60 -51q-35 -33 -49 -62q-35 -66 -35 -145zM258 1292q0 -43 27.5 -71.5t70.5 -28.5q47 0 83 42t36 93q0 63 -57 94q-20 10 -43 11q-47 0 -82 -44.5t-35 -95.5z " />
<glyph unicode="&#xc0;" d="M84 868q12 37 46 62.5t71 21.5q2 0 2 -2q127 12 221 -2q-8 25 -6 47q6 66 59 66q25 0 36 -20.5t7 -49.5q-4 -31 -20 -61l12 -4l10 -4q2 -2 10 -4q2 0 7 -3q16 96 77 95q29 -2 39 -29q18 -49 -39 -113q98 -82 99 -211q0 -90 -58 -149q25 -29 48 -72q55 -10 120 -45 q27 18 52 17q6 -2 6 -11q0 -8 -8.5 -9t-32.5 -5q27 -17 39 -29q4 -8 0 -12q-6 -6 -15 0q-8 6 -28 23q6 -10 8 -21q0 -6 -6 -10q-8 -2 -11 4q-4 16 -12 33q-16 8 -49 22l-4 2q-18 6 -51 21q31 -68 47 -176q12 -4 22 -2q-23 33 6 51q8 6 17 6q29 0 29 -35q0 -14 -15 -24 q25 -6 35 16q4 8 12 6q10 -4 6 -14q-14 -29 -45 -29q-16 0 -30 8q-16 -4 -33 0q2 -25 10 -80q-4 -8 -16 -14q-53 0 -119 -2q2 -31 2 -86l2 -16q8 -12 -8.5 -15.5t-63.5 -5.5q-53 -4 -61 2q-23 12 0 27q8 4 61 0q29 0 50 -4q-2 33 -5 98q-96 -2 -143 -2h-72q2 -27 2 -66v-34 q10 -12 -6 -15.5t-65 -5.5q-51 -4 -60 2q-23 12 0 27q6 4 60 0q29 0 49 -4q0 -10 -2 96q-100 0 -162 4q-8 2 -14 14q14 102 20 138q14 78 39 133q-35 -16 -102 -43q-2 -10 -10 -33q-4 -6 -11 -4q-8 4 -6 10q2 8 6 21q-6 -6 -28 -23q-6 -6 -13 0q-6 4 0 12q10 12 37 29l-33 6 q-6 0 -6 8t6 11q25 2 52 -17q63 33 118 45q14 29 33 53q-63 55 -57 144q4 27 12 55q-27 4 -86 35q-68 33 -70 51q-39 33 -20 94zM109 872q-29 -59 14 -88q14 -10 31 -10q41 0 61 49q12 27 12 60q0 27 -26 49q-68 -6 -92 -60zM125 856q0 16 12 16q12 2 17 -12q3 -14 -7 -20 q-23 -10 -22 16zM158 756q57 -35 108 -49q2 2 4 5t9 1q6 -4 4 -11q6 -2 12 -3t6 -7q-2 -6 -8 -6h-17q-8 -27 -10 -51q-8 -92 70 -141q68 -43 160 -35q88 8 142 61t56 139q4 123 -90 197q-2 0 -4 -2q-4 -4 -10 0q-4 6 0 10l2 2q-18 10 -37 21q-4 -6 -10 -4q-8 2 -8 12 q-20 10 -45 18v-2q-8 0 -15 7q-12 4 -26 6q-6 -18 -17 -4l-4 8l-8 2h-2q-6 2 -17.5 3t-21.5 3q-74 6 -156 0q35 -33 13 -111q-20 -68 -80 -69zM174 854q0 14 12 16q12 0 17 -12q4 -14 -6 -20q-23 -10 -23 16zM295 866q-4 25 12.5 42.5t38.5 15.5q47 -5 47 -52q0 -35 -31 -45 q-23 -6 -43 6.5t-24 32.5zM311 633q6 4 15 2q10 -63 77 -66q59 0 89 54q4 6 10 2q8 -3 6 -11q-18 -61 -94 -61q-96 0 -103 80zM313 870q2 -14 17.5 -21t29.5 -1q19 6 15 31q-4 35 -35 26q-29 -8 -27 -35zM338 864q-4 8 0 17q4 8 14 8q11 0 13 -8q10 -23 -15 -23q-8 0 -12 6z M412 850q2 29 22 41q14 12 35 4q51 -21 41 -66q-10 -47 -59 -36q-41 10 -39 57zM430 852q-8 -37 27 -43q33 -6 37 27q4 20 -19 36q-12 10 -29 5q-12 -6 -16 -25zM438 999q-4 -25 8 -57q20 -4 37 -8q19 43 19 74q0 12 -4 22t-15 12h-3h-3h-2q-4 0 -6 -1l-4 -2t-4 -3 q-18 -12 -23 -37zM453 834q-4 6 1 14t13 8q10 0 14 -8q8 -20 -14 -23q-10 0 -14 9zM539 657q-29 49 9 85t75 20q18 -9 26 -27q16 -39 -6 -76.5t-63 -31.5q-25 2 -41 30zM559 905q23 -10 43 -26q33 38 39 69q4 31 -14 39q-8 4 -19 2q-10 -2 -22 -14q-20 -20 -27 -70zM795 252 q2 -4 8 -8q10 4 10 12q2 16 -10 16q-6 -4 -8 -20z" />
<glyph unicode="&#xc1;" d="M84 868q12 37 46 62.5t71 21.5q2 0 2 -2q127 12 221 -2q-8 25 -6 47q6 66 59 66q25 0 36 -20.5t7 -49.5q-4 -31 -20 -61l12 -4l10 -4q2 -2 10 -4q2 0 7 -3q16 96 77 95q29 -2 39 -29q18 -49 -39 -113q98 -82 99 -211q0 -90 -58 -149q25 -29 48 -72q55 -10 120 -45 q27 18 52 17q6 -2 6 -11q0 -8 -8.5 -9t-32.5 -5q27 -17 39 -29q4 -8 0 -12q-6 -6 -15 0q-8 6 -28 23q6 -10 8 -21q0 -6 -6 -10q-8 -2 -11 4q-4 16 -12 33q-16 8 -49 22l-4 2q-18 6 -51 21q31 -68 47 -176q12 -4 22 -2q-23 33 6 51q8 6 17 6q29 0 29 -35q0 -14 -15 -24 q25 -6 35 16q4 8 12 6q10 -4 6 -14q-14 -29 -45 -29q-16 0 -30 8q-16 -4 -33 0q2 -25 10 -80q-4 -8 -16 -14q-53 0 -119 -2q2 -31 2 -86l2 -16q8 -12 -8.5 -15.5t-63.5 -5.5q-53 -4 -61 2q-23 12 0 27q8 4 61 0q29 0 50 -4q-2 33 -5 98q-96 -2 -143 -2h-72q2 -27 2 -66v-34 q10 -12 -6 -15.5t-65 -5.5q-51 -4 -60 2q-23 12 0 27q6 4 60 0q29 0 49 -4q0 -10 -2 96q-100 0 -162 4q-8 2 -14 14q14 102 20 138q14 78 39 133q-35 -16 -102 -43q-2 -10 -10 -33q-4 -6 -11 -4q-8 4 -6 10q2 8 6 21q-6 -6 -28 -23q-6 -6 -13 0q-6 4 0 12q10 12 37 29l-33 6 q-6 0 -6 8t6 11q25 2 52 -17q63 33 118 45q14 29 33 53q-63 55 -57 144q4 27 12 55q-27 4 -86 35q-68 33 -70 51q-39 33 -20 94zM109 872q-29 -59 14 -88q14 -10 31 -10q41 0 61 49q12 27 12 60q0 27 -26 49q-68 -6 -92 -60zM125 856q0 16 12 16q12 2 17 -12q3 -14 -7 -20 q-23 -10 -22 16zM158 756q57 -35 108 -49q2 2 4 5t9 1q6 -4 4 -11q6 -2 12 -3t6 -7q-2 -6 -8 -6h-17q-8 -27 -10 -51q-8 -92 70 -141q68 -43 160 -35q88 8 142 61t56 139q4 123 -90 197q-2 0 -4 -2q-4 -4 -10 0q-4 6 0 10l2 2q-18 10 -37 21q-4 -6 -10 -4q-8 2 -8 12 q-20 10 -45 18v-2q-8 0 -15 7q-12 4 -26 6q-6 -18 -17 -4l-4 8l-8 2h-2q-6 2 -17.5 3t-21.5 3q-74 6 -156 0q35 -33 13 -111q-20 -68 -80 -69zM174 854q0 14 12 16q12 0 17 -12q4 -14 -6 -20q-23 -10 -23 16zM295 866q-4 25 12.5 42.5t38.5 15.5q47 -5 47 -52q0 -35 -31 -45 q-23 -6 -43 6.5t-24 32.5zM311 633q6 4 15 2q10 -63 77 -66q59 0 89 54q4 6 10 2q8 -3 6 -11q-18 -61 -94 -61q-96 0 -103 80zM313 870q2 -14 17.5 -21t29.5 -1q19 6 15 31q-4 35 -35 26q-29 -8 -27 -35zM338 864q-4 8 0 17q4 8 14 8q11 0 13 -8q10 -23 -15 -23q-8 0 -12 6z M412 850q2 29 22 41q14 12 35 4q51 -21 41 -66q-10 -47 -59 -36q-41 10 -39 57zM430 852q-8 -37 27 -43q33 -6 37 27q4 20 -19 36q-12 10 -29 5q-12 -6 -16 -25zM438 999q-4 -25 8 -57q20 -4 37 -8q19 43 19 74q0 12 -4 22t-15 12h-3h-3h-2q-4 0 -6 -1l-4 -2t-4 -3 q-18 -12 -23 -37zM453 834q-4 6 1 14t13 8q10 0 14 -8q8 -20 -14 -23q-10 0 -14 9zM539 657q-29 49 9 85t75 20q18 -9 26 -27q16 -39 -6 -76.5t-63 -31.5q-25 2 -41 30zM559 905q23 -10 43 -26q33 38 39 69q4 31 -14 39q-8 4 -19 2q-10 -2 -22 -14q-20 -20 -27 -70zM795 252 q2 -4 8 -8q10 4 10 12q2 16 -10 16q-6 -4 -8 -20z" />
<glyph unicode="&#xc2;" d="M84 868q12 37 46 62.5t71 21.5q2 0 2 -2q127 12 221 -2q-8 25 -6 47q6 66 59 66q25 0 36 -20.5t7 -49.5q-4 -31 -20 -61l12 -4l10 -4q2 -2 10 -4q2 0 7 -3q16 96 77 95q29 -2 39 -29q18 -49 -39 -113q98 -82 99 -211q0 -90 -58 -149q25 -29 48 -72q55 -10 120 -45 q27 18 52 17q6 -2 6 -11q0 -8 -8.5 -9t-32.5 -5q27 -17 39 -29q4 -8 0 -12q-6 -6 -15 0q-8 6 -28 23q6 -10 8 -21q0 -6 -6 -10q-8 -2 -11 4q-4 16 -12 33q-16 8 -49 22l-4 2q-18 6 -51 21q31 -68 47 -176q12 -4 22 -2q-23 33 6 51q8 6 17 6q29 0 29 -35q0 -14 -15 -24 q25 -6 35 16q4 8 12 6q10 -4 6 -14q-14 -29 -45 -29q-16 0 -30 8q-16 -4 -33 0q2 -25 10 -80q-4 -8 -16 -14q-53 0 -119 -2q2 -31 2 -86l2 -16q8 -12 -8.5 -15.5t-63.5 -5.5q-53 -4 -61 2q-23 12 0 27q8 4 61 0q29 0 50 -4q-2 33 -5 98q-96 -2 -143 -2h-72q2 -27 2 -66v-34 q10 -12 -6 -15.5t-65 -5.5q-51 -4 -60 2q-23 12 0 27q6 4 60 0q29 0 49 -4q0 -10 -2 96q-100 0 -162 4q-8 2 -14 14q14 102 20 138q14 78 39 133q-35 -16 -102 -43q-2 -10 -10 -33q-4 -6 -11 -4q-8 4 -6 10q2 8 6 21q-6 -6 -28 -23q-6 -6 -13 0q-6 4 0 12q10 12 37 29l-33 6 q-6 0 -6 8t6 11q25 2 52 -17q63 33 118 45q14 29 33 53q-63 55 -57 144q4 27 12 55q-27 4 -86 35q-68 33 -70 51q-39 33 -20 94zM109 872q-29 -59 14 -88q14 -10 31 -10q41 0 61 49q12 27 12 60q0 27 -26 49q-68 -6 -92 -60zM125 856q0 16 12 16q12 2 17 -12q3 -14 -7 -20 q-23 -10 -22 16zM158 756q57 -35 108 -49q2 2 4 5t9 1q6 -4 4 -11q6 -2 12 -3t6 -7q-2 -6 -8 -6h-17q-8 -27 -10 -51q-8 -92 70 -141q68 -43 160 -35q88 8 142 61t56 139q4 123 -90 197q-2 0 -4 -2q-4 -4 -10 0q-4 6 0 10l2 2q-18 10 -37 21q-4 -6 -10 -4q-8 2 -8 12 q-20 10 -45 18v-2q-8 0 -15 7q-12 4 -26 6q-6 -18 -17 -4l-4 8l-8 2h-2q-6 2 -17.5 3t-21.5 3q-74 6 -156 0q35 -33 13 -111q-20 -68 -80 -69zM174 854q0 14 12 16q12 0 17 -12q4 -14 -6 -20q-23 -10 -23 16zM295 866q-4 25 12.5 42.5t38.5 15.5q47 -5 47 -52q0 -35 -31 -45 q-23 -6 -43 6.5t-24 32.5zM311 633q6 4 15 2q10 -63 77 -66q59 0 89 54q4 6 10 2q8 -3 6 -11q-18 -61 -94 -61q-96 0 -103 80zM313 870q2 -14 17.5 -21t29.5 -1q19 6 15 31q-4 35 -35 26q-29 -8 -27 -35zM338 864q-4 8 0 17q4 8 14 8q11 0 13 -8q10 -23 -15 -23q-8 0 -12 6z M412 850q2 29 22 41q14 12 35 4q51 -21 41 -66q-10 -47 -59 -36q-41 10 -39 57zM430 852q-8 -37 27 -43q33 -6 37 27q4 20 -19 36q-12 10 -29 5q-12 -6 -16 -25zM438 999q-4 -25 8 -57q20 -4 37 -8q19 43 19 74q0 12 -4 22t-15 12h-3h-3h-2q-4 0 -6 -1l-4 -2t-4 -3 q-18 -12 -23 -37zM453 834q-4 6 1 14t13 8q10 0 14 -8q8 -20 -14 -23q-10 0 -14 9zM539 657q-29 49 9 85t75 20q18 -9 26 -27q16 -39 -6 -76.5t-63 -31.5q-25 2 -41 30zM559 905q23 -10 43 -26q33 38 39 69q4 31 -14 39q-8 4 -19 2q-10 -2 -22 -14q-20 -20 -27 -70zM795 252 q2 -4 8 -8q10 4 10 12q2 16 -10 16q-6 -4 -8 -20z" />
<glyph unicode="&#xc3;" d="M84 868q12 37 46 62.5t71 21.5q2 0 2 -2q127 12 221 -2q-8 25 -6 47q6 66 59 66q25 0 36 -20.5t7 -49.5q-4 -31 -20 -61l12 -4l10 -4q2 -2 10 -4q2 0 7 -3q16 96 77 95q29 -2 39 -29q18 -49 -39 -113q98 -82 99 -211q0 -90 -58 -149q25 -29 48 -72q55 -10 120 -45 q27 18 52 17q6 -2 6 -11q0 -8 -8.5 -9t-32.5 -5q27 -17 39 -29q4 -8 0 -12q-6 -6 -15 0q-8 6 -28 23q6 -10 8 -21q0 -6 -6 -10q-8 -2 -11 4q-4 16 -12 33q-16 8 -49 22l-4 2q-18 6 -51 21q31 -68 47 -176q12 -4 22 -2q-23 33 6 51q8 6 17 6q29 0 29 -35q0 -14 -15 -24 q25 -6 35 16q4 8 12 6q10 -4 6 -14q-14 -29 -45 -29q-16 0 -30 8q-16 -4 -33 0q2 -25 10 -80q-4 -8 -16 -14q-53 0 -119 -2q2 -31 2 -86l2 -16q8 -12 -8.5 -15.5t-63.5 -5.5q-53 -4 -61 2q-23 12 0 27q8 4 61 0q29 0 50 -4q-2 33 -5 98q-96 -2 -143 -2h-72q2 -27 2 -66v-34 q10 -12 -6 -15.5t-65 -5.5q-51 -4 -60 2q-23 12 0 27q6 4 60 0q29 0 49 -4q0 -10 -2 96q-100 0 -162 4q-8 2 -14 14q14 102 20 138q14 78 39 133q-35 -16 -102 -43q-2 -10 -10 -33q-4 -6 -11 -4q-8 4 -6 10q2 8 6 21q-6 -6 -28 -23q-6 -6 -13 0q-6 4 0 12q10 12 37 29l-33 6 q-6 0 -6 8t6 11q25 2 52 -17q63 33 118 45q14 29 33 53q-63 55 -57 144q4 27 12 55q-27 4 -86 35q-68 33 -70 51q-39 33 -20 94zM109 872q-29 -59 14 -88q14 -10 31 -10q41 0 61 49q12 27 12 60q0 27 -26 49q-68 -6 -92 -60zM125 856q0 16 12 16q12 2 17 -12q3 -14 -7 -20 q-23 -10 -22 16zM158 756q57 -35 108 -49q2 2 4 5t9 1q6 -4 4 -11q6 -2 12 -3t6 -7q-2 -6 -8 -6h-17q-8 -27 -10 -51q-8 -92 70 -141q68 -43 160 -35q88 8 142 61t56 139q4 123 -90 197q-2 0 -4 -2q-4 -4 -10 0q-4 6 0 10l2 2q-18 10 -37 21q-4 -6 -10 -4q-8 2 -8 12 q-20 10 -45 18v-2q-8 0 -15 7q-12 4 -26 6q-6 -18 -17 -4l-4 8l-8 2h-2q-6 2 -17.5 3t-21.5 3q-74 6 -156 0q35 -33 13 -111q-20 -68 -80 -69zM174 854q0 14 12 16q12 0 17 -12q4 -14 -6 -20q-23 -10 -23 16zM295 866q-4 25 12.5 42.5t38.5 15.5q47 -5 47 -52q0 -35 -31 -45 q-23 -6 -43 6.5t-24 32.5zM311 633q6 4 15 2q10 -63 77 -66q59 0 89 54q4 6 10 2q8 -3 6 -11q-18 -61 -94 -61q-96 0 -103 80zM313 870q2 -14 17.5 -21t29.5 -1q19 6 15 31q-4 35 -35 26q-29 -8 -27 -35zM338 864q-4 8 0 17q4 8 14 8q11 0 13 -8q10 -23 -15 -23q-8 0 -12 6z M412 850q2 29 22 41q14 12 35 4q51 -21 41 -66q-10 -47 -59 -36q-41 10 -39 57zM430 852q-8 -37 27 -43q33 -6 37 27q4 20 -19 36q-12 10 -29 5q-12 -6 -16 -25zM438 999q-4 -25 8 -57q20 -4 37 -8q19 43 19 74q0 12 -4 22t-15 12h-3h-3h-2q-4 0 -6 -1l-4 -2t-4 -3 q-18 -12 -23 -37zM453 834q-4 6 1 14t13 8q10 0 14 -8q8 -20 -14 -23q-10 0 -14 9zM539 657q-29 49 9 85t75 20q18 -9 26 -27q16 -39 -6 -76.5t-63 -31.5q-25 2 -41 30zM559 905q23 -10 43 -26q33 38 39 69q4 31 -14 39q-8 4 -19 2q-10 -2 -22 -14q-20 -20 -27 -70zM795 252 q2 -4 8 -8q10 4 10 12q2 16 -10 16q-6 -4 -8 -20z" />
<glyph unicode="&#xc4;" horiz-adv-x="1144" d="M86 33q0 -53 33 -53q29 0 84 40q68 51 116 187q35 111 68 219q20 59 62 184q231 -29 352 -2q25 -160 49 -319q43 -221 129 -271q20 -12 37 -12q41 0 41 84q0 127 -62 326q-74 239 -86 319q-53 369 -159 559q-61 113 -119 113q-57 0 -117 -131q-43 -113 -86 -223 q-20 -45 -113 -348q-23 -78 -69 -189q-70 -166 -76 -182q-84 -215 -84 -301zM277 1635q18 92 104 92q47 0 93 -33t46 -78q0 -59 -84 -98q-27 -10 -49 -10q-53 0 -88 37.5t-22 89.5zM485 731q16 47 27 80q6 14 84 164q70 131 66 149q0 -2 108 -393q-84 14 -285 0zM774 1635 q18 92 105 92q47 0 93 -33t46 -78q0 -59 -84 -98q-27 -10 -49 -10q-53 0 -88 37.5t-23 89.5z" />
<glyph unicode="&#xc5;" horiz-adv-x="1144" d="M86 33q0 -53 33 -53q29 0 84 40q68 51 116 187q35 111 68 219q20 59 62 184q231 -29 352 -2q25 -160 49 -319q43 -221 129 -271q20 -12 37 -12q41 0 41 84q0 127 -62 326q-74 239 -86 319q-53 369 -159 559q-61 113 -119 113q-57 0 -117 -131q-43 -113 -86 -223 q-20 -45 -113 -348q-23 -78 -69 -189q-70 -166 -76 -182q-84 -215 -84 -301zM485 731q16 47 27 80q6 14 84 164q70 131 66 149q0 -2 108 -393q-84 14 -285 0zM496 1611q-4 49 2 83t32 63q53 49 109 53q96 8 130 -47t32 -152q0 -41 -14.5 -77.5t-53.5 -59.5 q-41 -29 -89 -24.5t-77 18.5q-41 27 -54 64.5t-17 78.5zM586 1630q0 -14 2 -36t16 -36q12 -14 35 -15t41 7t24.5 13t10.5 16q12 27 11 43t-15 45q-16 33 -32.5 35.5t-39.5 -1.5q-27 -4 -40 -23.5t-13 -47.5z" />
<glyph unicode="&#xc6;" horiz-adv-x="1597" d="M87 2q-5 29 5 76t26.5 96t34 93t25.5 67q27 94 60.5 175t64.5 185q29 96 57.5 181.5t69.5 179.5q20 41 50 101.5t66 116.5t74.5 100t75.5 50l152 11l225 12l-166 -160q0 -20 2 -44.5t3 -48.5t3.5 -42t2.5 -25q0 -94 3 -179t3 -167l-2 -159q0 -29 -2 -63t-2 -62v-55 t-2.5 -79.5t-6.5 -93.5t-10 -96l16 -154q-88 14 -126.5 49t-50 89.5t-6.5 126t5 159.5v144q-68 0 -144.5 2t-143.5 16q-14 -41 -27.5 -90t-26.5 -90q-20 -47 -38.5 -104.5t-40 -115t-50 -109.5t-69.5 -85q-55 -41 -80 -39t-30 31zM485 731h252v234v217q0 14 -2 37.5t-2 37.5 q-27 -61 -61.5 -132.5t-66.5 -137t-55.5 -116t-29.5 -68.5t-16.5 -37t-18.5 -35zM729 231q0 29 5 107t5 125q-2 195 6 532q0 29 -6 99.5t-6 107.5q0 86 29 131q70 113 356 113q43 0 154 -4q266 -14 266 -88q0 -31 -55 -70q-31 -20 -107 -20q-55 0 -174 14q-111 14 -143 12 q-47 -10 -144 -20q2 -35 7 -127q4 -113 10 -336q195 25 325 24q244 0 244 -88q0 -8 -4 -18q-20 -84 -344 -84q-111 0 -223 10q-2 -74 -6 -137q0 -96 -15 -317q94 12 221 12q172 0 263 -27q113 -35 57 -110q-57 -80 -254 -80q-98 0 -291 28q-102 16 -143 72q-33 47 -33 139z " />
<glyph unicode="&#xc7;" d="M84 868q12 37 46 62.5t71 21.5q2 0 2 -2q127 12 221 -2q-8 25 -6 47q6 66 59 66q25 0 36 -20.5t7 -49.5q-4 -31 -20 -61l12 -4l10 -4q2 -2 10 -4q2 0 7 -3q16 96 77 95q29 -2 39 -29q18 -49 -39 -113q98 -82 99 -211q0 -90 -58 -149q25 -29 48 -72q55 -10 120 -45 q27 18 52 17q6 -2 6 -11q0 -8 -8.5 -9t-32.5 -5q27 -17 39 -29q4 -8 0 -12q-6 -6 -15 0q-8 6 -28 23q6 -10 8 -21q0 -6 -6 -10q-8 -2 -11 4q-4 16 -12 33q-16 8 -49 22l-4 2q-18 6 -51 21q31 -68 47 -176q12 -4 22 -2q-23 33 6 51q8 6 17 6q29 0 29 -35q0 -14 -15 -24 q25 -6 35 16q4 8 12 6q10 -4 6 -14q-14 -29 -45 -29q-16 0 -30 8q-16 -4 -33 0q2 -25 10 -80q-4 -8 -16 -14q-53 0 -119 -2q2 -31 2 -86l2 -16q8 -12 -8.5 -15.5t-63.5 -5.5q-53 -4 -61 2q-23 12 0 27q8 4 61 0q29 0 50 -4q-2 33 -5 98q-96 -2 -143 -2h-72q2 -27 2 -66v-34 q10 -12 -6 -15.5t-65 -5.5q-51 -4 -60 2q-23 12 0 27q6 4 60 0q29 0 49 -4q0 -10 -2 96q-100 0 -162 4q-8 2 -14 14q14 102 20 138q14 78 39 133q-35 -16 -102 -43q-2 -10 -10 -33q-4 -6 -11 -4q-8 4 -6 10q2 8 6 21q-6 -6 -28 -23q-6 -6 -13 0q-6 4 0 12q10 12 37 29l-33 6 q-6 0 -6 8t6 11q25 2 52 -17q63 33 118 45q14 29 33 53q-63 55 -57 144q4 27 12 55q-27 4 -86 35q-68 33 -70 51q-39 33 -20 94zM109 872q-29 -59 14 -88q14 -10 31 -10q41 0 61 49q12 27 12 60q0 27 -26 49q-68 -6 -92 -60zM125 856q0 16 12 16q12 2 17 -12q3 -14 -7 -20 q-23 -10 -22 16zM158 756q57 -35 108 -49q2 2 4 5t9 1q6 -4 4 -11q6 -2 12 -3t6 -7q-2 -6 -8 -6h-17q-8 -27 -10 -51q-8 -92 70 -141q68 -43 160 -35q88 8 142 61t56 139q4 123 -90 197q-2 0 -4 -2q-4 -4 -10 0q-4 6 0 10l2 2q-18 10 -37 21q-4 -6 -10 -4q-8 2 -8 12 q-20 10 -45 18v-2q-8 0 -15 7q-12 4 -26 6q-6 -18 -17 -4l-4 8l-8 2h-2q-6 2 -17.5 3t-21.5 3q-74 6 -156 0q35 -33 13 -111q-20 -68 -80 -69zM174 854q0 14 12 16q12 0 17 -12q4 -14 -6 -20q-23 -10 -23 16zM295 866q-4 25 12.5 42.5t38.5 15.5q47 -5 47 -52q0 -35 -31 -45 q-23 -6 -43 6.5t-24 32.5zM311 633q6 4 15 2q10 -63 77 -66q59 0 89 54q4 6 10 2q8 -3 6 -11q-18 -61 -94 -61q-96 0 -103 80zM313 870q2 -14 17.5 -21t29.5 -1q19 6 15 31q-4 35 -35 26q-29 -8 -27 -35zM338 864q-4 8 0 17q4 8 14 8q11 0 13 -8q10 -23 -15 -23q-8 0 -12 6z M412 850q2 29 22 41q14 12 35 4q51 -21 41 -66q-10 -47 -59 -36q-41 10 -39 57zM430 852q-8 -37 27 -43q33 -6 37 27q4 20 -19 36q-12 10 -29 5q-12 -6 -16 -25zM438 999q-4 -25 8 -57q20 -4 37 -8q19 43 19 74q0 12 -4 22t-15 12h-3h-3h-2q-4 0 -6 -1l-4 -2t-4 -3 q-18 -12 -23 -37zM453 834q-4 6 1 14t13 8q10 0 14 -8q8 -20 -14 -23q-10 0 -14 9zM539 657q-29 49 9 85t75 20q18 -9 26 -27q16 -39 -6 -76.5t-63 -31.5q-25 2 -41 30zM559 905q23 -10 43 -26q33 38 39 69q4 31 -14 39q-8 4 -19 2q-10 -2 -22 -14q-20 -20 -27 -70zM795 252 q2 -4 8 -8q10 4 10 12q2 16 -10 16q-6 -4 -8 -20z" />
<glyph unicode="&#xc8;" horiz-adv-x="884" d="M37 231q0 29 5 107t5 125q-2 195 6 532q0 29 -6 99.5t-6 107.5q0 86 29 131q70 113 356 113q43 0 154 -4q266 -14 266 -88q0 -31 -55 -70q-31 -20 -107 -20q-55 0 -174 14q-111 14 -143 12q-47 -10 -144 -20q2 -35 6 -127q4 -113 11 -336q195 25 325 24q244 0 244 -88 q0 -8 -4 -18q-20 -84 -344 -84q-111 0 -223 10q-2 -74 -7 -137q0 -96 -14 -317q94 12 221 12q172 0 262 -27q113 -35 58 -110q-57 -80 -254 -80q-98 0 -291 28q-102 16 -143 72q-33 47 -33 139zM92 1814q0 -33 37 -80q84 -105 145 -162q78 -70 142 -69q47 -2 47 37 q0 57 -96 190q-68 92 -113 138t-74 46q-43 0 -82 -71q-6 -14 -6 -29z" />
<glyph unicode="&#xc9;" horiz-adv-x="884" d="M37 231q0 29 5 107t5 125q-2 195 6 532q0 29 -6 99.5t-6 107.5q0 86 29 131q70 113 356 113q43 0 154 -4q266 -14 266 -88q0 -31 -55 -70q-31 -20 -107 -20q-55 0 -174 14q-111 14 -143 12q-47 -10 -144 -20q2 -35 6 -127q4 -113 11 -336q195 25 325 24q244 0 244 -88 q0 -8 -4 -18q-20 -84 -344 -84q-111 0 -223 10q-2 -74 -7 -137q0 -96 -14 -317q94 12 221 12q172 0 262 -27q113 -35 58 -110q-57 -80 -254 -80q-98 0 -291 28q-102 16 -143 72q-33 47 -33 139zM262 1540q0 57 97 190q68 92 112.5 138t73.5 46q41 0 82 -71q6 -14 6 -29 q0 -33 -37 -80q-84 -105 -145 -162q-78 -70 -144 -69q-45 -2 -45 37z" />
<glyph unicode="&#xca;" horiz-adv-x="884" d="M37 231q0 29 5 107t5 125q-2 195 6 532q0 29 -6 99.5t-6 107.5q0 86 29 131q70 113 356 113q43 0 154 -4q266 -14 266 -88q0 -31 -55 -70q-31 -20 -107 -20q-55 0 -174 14q-111 14 -143 12q-47 -10 -144 -20q2 -35 6 -127q4 -113 11 -336q195 25 325 24q244 0 244 -88 q0 -8 -4 -18q-20 -84 -344 -84q-111 0 -223 10q-2 -74 -7 -137q0 -96 -14 -317q94 12 221 12q172 0 262 -27q113 -35 58 -110q-57 -80 -254 -80q-98 0 -291 28q-102 16 -143 72q-33 47 -33 139zM172 1546q0 -51 53 -43q29 6 72 60q31 39 60.5 77.5t62.5 88.5q37 -59 72 -103 q29 -39 55 -80q41 -53 71 -57q51 -10 52 43q0 61 -72 199q-51 96 -86 145q-51 74 -98 74q-41 0 -82 -58q-37 -49 -88 -147q-72 -137 -72 -199z" />
<glyph unicode="&#xcb;" horiz-adv-x="884" d="M37 231q0 29 5 107t5 125q-2 195 6 532q0 29 -6 99.5t-6 107.5q0 86 29 131q70 113 356 113q43 0 154 -4q266 -14 266 -88q0 -31 -55 -70q-31 -20 -107 -20q-55 0 -174 14q-111 14 -143 12q-47 -10 -144 -20q2 -35 6 -127q4 -113 11 -336q195 25 325 24q244 0 244 -88 q0 -8 -4 -18q-20 -84 -344 -84q-111 0 -223 10q-2 -74 -7 -137q0 -96 -14 -317q94 12 221 12q172 0 262 -27q113 -35 58 -110q-57 -80 -254 -80q-98 0 -291 28q-102 16 -143 72q-33 47 -33 139zM45 1667q18 92 104 92q47 0 93 -33t46 -78q0 -59 -84 -98q-27 -10 -49 -10 q-53 0 -88 37.5t-22 89.5zM542 1667q18 92 105 92q47 0 93 -33t46 -78q0 -59 -84 -98q-27 -10 -49 -10q-53 0 -88 37.5t-23 89.5z" />
<glyph unicode="&#xcc;" horiz-adv-x="600" d="M-105 1780q0 -33 37 -80q84 -105 145 -162q78 -70 142 -69q47 -2 47 37q0 57 -96 190q-68 92 -113 138t-74 46q-43 0 -82 -71q-6 -14 -6 -29zM94 436q4 -430 96 -430q41 0 58.5 70.5t23.5 228.5q2 90 7 180q10 158 -5 611q-6 248 -67 247q-27 0 -69 -44t-42 -193 q0 -27 2 -81t2 -73q-8 -328 -6 -516z" />
<glyph unicode="&#xcd;" horiz-adv-x="536" d="M94 436q4 -430 96 -430q41 0 58.5 70.5t23.5 228.5q2 90 7 180q10 158 -5 611q-6 248 -67 247q-27 0 -69 -44t-42 -193q0 -27 2 -81t2 -73q-8 -328 -6 -516zM110 1504q0 57 97 190q68 92 112.5 138t73.5 46q41 0 82 -71q6 -14 6 -29q0 -33 -37 -80q-84 -105 -145 -162 q-78 -70 -144 -69q-45 -2 -45 37z" />
<glyph unicode="&#xce;" horiz-adv-x="577" d="M-55 1509q0 -51 53 -43q29 6 72 60q31 39 60.5 77.5t62.5 88.5q37 -59 72 -103q29 -39 55 -80q41 -53 71 -57q51 -10 52 43q0 61 -72 199q-51 96 -86 145q-51 74 -98 74q-41 0 -82 -58q-37 -49 -88 -147q-72 -137 -72 -199zM94 436q4 -430 96 -430q41 0 58.5 70.5 t23.5 228.5q2 90 7 180q10 158 -5 611q-6 248 -67 247q-27 0 -69 -44t-42 -193q0 -27 2 -81t2 -73q-8 -328 -6 -516z" />
<glyph unicode="&#xcf;" horiz-adv-x="681" d="M-164 1626q18 92 104 92q47 0 93 -33t46 -78q0 -59 -84 -98q-27 -10 -49 -10q-53 0 -88 37.5t-22 89.5zM94 436q4 -430 96 -430q41 0 58.5 70.5t23.5 228.5q2 90 7 180q10 158 -5 611q-6 248 -67 247q-27 0 -69 -44t-42 -193q0 -27 2 -81t2 -73q-8 -328 -6 -516z M333 1626q18 92 105 92q47 0 93 -33t46 -78q0 -59 -84 -98q-27 -10 -49 -10q-53 0 -88 37.5t-23 89.5z" />
<glyph unicode="&#xd0;" d="M84 868q12 37 46 62.5t71 21.5q2 0 2 -2q127 12 221 -2q-8 25 -6 47q6 66 59 66q25 0 36 -20.5t7 -49.5q-4 -31 -20 -61l12 -4l10 -4q2 -2 10 -4q2 0 7 -3q16 96 77 95q29 -2 39 -29q18 -49 -39 -113q98 -82 99 -211q0 -90 -58 -149q25 -29 48 -72q55 -10 120 -45 q27 18 52 17q6 -2 6 -11q0 -8 -8.5 -9t-32.5 -5q27 -17 39 -29q4 -8 0 -12q-6 -6 -15 0q-8 6 -28 23q6 -10 8 -21q0 -6 -6 -10q-8 -2 -11 4q-4 16 -12 33q-16 8 -49 22l-4 2q-18 6 -51 21q31 -68 47 -176q12 -4 22 -2q-23 33 6 51q8 6 17 6q29 0 29 -35q0 -14 -15 -24 q25 -6 35 16q4 8 12 6q10 -4 6 -14q-14 -29 -45 -29q-16 0 -30 8q-16 -4 -33 0q2 -25 10 -80q-4 -8 -16 -14q-53 0 -119 -2q2 -31 2 -86l2 -16q8 -12 -8.5 -15.5t-63.5 -5.5q-53 -4 -61 2q-23 12 0 27q8 4 61 0q29 0 50 -4q-2 33 -5 98q-96 -2 -143 -2h-72q2 -27 2 -66v-34 q10 -12 -6 -15.5t-65 -5.5q-51 -4 -60 2q-23 12 0 27q6 4 60 0q29 0 49 -4q0 -10 -2 96q-100 0 -162 4q-8 2 -14 14q14 102 20 138q14 78 39 133q-35 -16 -102 -43q-2 -10 -10 -33q-4 -6 -11 -4q-8 4 -6 10q2 8 6 21q-6 -6 -28 -23q-6 -6 -13 0q-6 4 0 12q10 12 37 29l-33 6 q-6 0 -6 8t6 11q25 2 52 -17q63 33 118 45q14 29 33 53q-63 55 -57 144q4 27 12 55q-27 4 -86 35q-68 33 -70 51q-39 33 -20 94zM109 872q-29 -59 14 -88q14 -10 31 -10q41 0 61 49q12 27 12 60q0 27 -26 49q-68 -6 -92 -60zM125 856q0 16 12 16q12 2 17 -12q3 -14 -7 -20 q-23 -10 -22 16zM158 756q57 -35 108 -49q2 2 4 5t9 1q6 -4 4 -11q6 -2 12 -3t6 -7q-2 -6 -8 -6h-17q-8 -27 -10 -51q-8 -92 70 -141q68 -43 160 -35q88 8 142 61t56 139q4 123 -90 197q-2 0 -4 -2q-4 -4 -10 0q-4 6 0 10l2 2q-18 10 -37 21q-4 -6 -10 -4q-8 2 -8 12 q-20 10 -45 18v-2q-8 0 -15 7q-12 4 -26 6q-6 -18 -17 -4l-4 8l-8 2h-2q-6 2 -17.5 3t-21.5 3q-74 6 -156 0q35 -33 13 -111q-20 -68 -80 -69zM174 854q0 14 12 16q12 0 17 -12q4 -14 -6 -20q-23 -10 -23 16zM295 866q-4 25 12.5 42.5t38.5 15.5q47 -5 47 -52q0 -35 -31 -45 q-23 -6 -43 6.5t-24 32.5zM311 633q6 4 15 2q10 -63 77 -66q59 0 89 54q4 6 10 2q8 -3 6 -11q-18 -61 -94 -61q-96 0 -103 80zM313 870q2 -14 17.5 -21t29.5 -1q19 6 15 31q-4 35 -35 26q-29 -8 -27 -35zM338 864q-4 8 0 17q4 8 14 8q11 0 13 -8q10 -23 -15 -23q-8 0 -12 6z M412 850q2 29 22 41q14 12 35 4q51 -21 41 -66q-10 -47 -59 -36q-41 10 -39 57zM430 852q-8 -37 27 -43q33 -6 37 27q4 20 -19 36q-12 10 -29 5q-12 -6 -16 -25zM438 999q-4 -25 8 -57q20 -4 37 -8q19 43 19 74q0 12 -4 22t-15 12h-3h-3h-2q-4 0 -6 -1l-4 -2t-4 -3 q-18 -12 -23 -37zM453 834q-4 6 1 14t13 8q10 0 14 -8q8 -20 -14 -23q-10 0 -14 9zM539 657q-29 49 9 85t75 20q18 -9 26 -27q16 -39 -6 -76.5t-63 -31.5q-25 2 -41 30zM559 905q23 -10 43 -26q33 38 39 69q4 31 -14 39q-8 4 -19 2q-10 -2 -22 -14q-20 -20 -27 -70zM795 252 q2 -4 8 -8q10 4 10 12q2 16 -10 16q-6 -4 -8 -20z" />
<glyph unicode="&#xd1;" horiz-adv-x="1091" d="M82 250q0 164 47 627q-4 -33 -4 272q0 174 31 205q14 12 30 12q72 0 205 -242q76 -156 154 -311q96 -188 131 -252q82 -145 149 -225q10 182 -6 446q-18 295 -18 285q0 154 49 256q35 74 70 74q12 0 26 -11q64 -53 64 -196q0 -59 -17 -160q-20 -123 -22 -151 q-10 -119 -8 -332q4 -236 -2 -330q-12 -223 -76 -223q-31 0 -45 22q-10 2 -19 4q-51 10 -106 144q-37 94 -74 186q-74 115 -203 340q-45 98 -139 293v-43v-365q-2 -219 -25 -360q-29 -205 -104 -205q-37 0 -63.5 64.5t-24.5 175.5zM290 1571q0 -41 52 -41q31 2 72.5 53.5 t80.5 51.5q47 0 125 -39t117 -39q55 0 103 53t48 121q0 63 -51 63q-27 0 -57 -49q-37 -55 -54.5 -64.5t-35.5 -9.5q-31 0 -76 31q-66 43 -70 47q-59 27 -96 27q-61 0 -111 -88q-47 -80 -47 -117z" />
<glyph unicode="&#xd2;" horiz-adv-x="1538" d="M115 487q-57 283 61 537q129 272 397 338q66 27 125.5 35t110.5 8q272 0 436 -197q147 -178 148 -436q0 -82 -17 -160q-86 -403 -325 -524q-182 -90 -346 -100q-170 -10 -306 71q-223 131 -284 428zM285 705q0 -303 157 -463q33 -35 76 -62q57 -41 84 -47q20 -4 47 -4 q61 2 148 29q68 20 104 41q338 172 338 536q0 127 -47 256q-39 109 -158 164q-102 47 -239 47q-88 0 -172 -18q-174 -43 -263 -183q-75 -122 -75 -296zM651 1812q0 -33 37 -80q84 -105 145 -162q78 -70 142 -69q47 -2 47 37q0 57 -96 190q-68 92 -113 138t-74 46 q-43 0 -82 -71q-6 -14 -6 -29z" />
<glyph unicode="&#xd3;" horiz-adv-x="1523" d="M115 487q-57 283 61 537q129 272 397 338q66 27 125.5 35t110.5 8q272 0 436 -197q147 -178 148 -436q0 -82 -17 -160q-86 -403 -325 -524q-182 -90 -346 -100q-170 -10 -306 71q-223 131 -284 428zM285 705q0 -303 157 -463q33 -35 76 -62q57 -41 84 -47q20 -4 47 -4 q61 2 148 29q68 20 104 41q338 172 338 536q0 127 -47 256q-39 109 -158 164q-102 47 -239 47q-88 0 -172 -18q-174 -43 -263 -183q-75 -122 -75 -296zM727 1549q0 57 97 190q68 92 112.5 138t73.5 46q41 0 82 -71q6 -14 6 -29q0 -33 -37 -80q-84 -105 -145 -162 q-78 -70 -144 -69q-45 -2 -45 37z" />
<glyph unicode="&#xd4;" horiz-adv-x="1519" d="M115 487q-57 283 61 537q129 272 397 338q66 27 125.5 35t110.5 8q272 0 436 -197q147 -178 148 -436q0 -82 -17 -160q-86 -403 -325 -524q-182 -90 -346 -100q-170 -10 -306 71q-223 131 -284 428zM285 705q0 -303 157 -463q33 -35 76 -62q57 -41 84 -47q20 -4 47 -4 q61 2 148 29q68 20 104 41q338 172 338 536q0 127 -47 256q-39 109 -158 164q-102 47 -239 47q-88 0 -172 -18q-174 -43 -263 -183q-75 -122 -75 -296zM553 1523q0 -51 53 -43q29 6 72 60q31 39 60.5 77.5t62.5 88.5q37 -59 72 -103q29 -39 55 -80q41 -53 71 -57 q51 -10 52 43q0 61 -72 199q-51 96 -86 145q-51 74 -98 74q-41 0 -82 -58q-37 -49 -88 -147q-72 -137 -72 -199z" />
<glyph unicode="&#xd5;" horiz-adv-x="1527" d="M115 487q-57 283 61 537q129 272 397 338q66 27 125.5 35t110.5 8q272 0 436 -197q147 -178 148 -436q0 -82 -17 -160q-86 -403 -325 -524q-182 -90 -346 -100q-170 -10 -306 71q-223 131 -284 428zM285 705q0 -303 157 -463q33 -35 76 -62q57 -41 84 -47q20 -4 47 -4 q61 2 148 29q68 20 104 41q338 172 338 536q0 127 -47 256q-39 109 -158 164q-102 47 -239 47q-88 0 -172 -18q-174 -43 -263 -183q-75 -122 -75 -296zM508 1548q0 -41 52 -41q31 2 72.5 53.5t80.5 51.5q47 0 125 -39t117 -39q55 0 103 53t48 121q0 63 -51 63q-27 0 -57 -49 q-37 -55 -54.5 -64.5t-35.5 -9.5q-31 0 -76 31q-66 43 -70 47q-59 27 -96 27q-61 0 -111 -88q-47 -80 -47 -117z" />
<glyph unicode="&#xd6;" horiz-adv-x="1509" d="M135 487q-57 283 61 537q129 272 397 338q66 27 125.5 35t110.5 8q272 0 436 -197q147 -178 148 -436q0 -82 -17 -160q-86 -403 -325 -524q-182 -90 -346 -100q-170 -10 -306 71q-223 131 -284 428zM305 705q0 -303 157 -463q33 -35 76 -62q57 -41 84 -47q20 -4 47 -4 q61 2 148 29q68 20 104 41q338 172 338 536q0 127 -47 256q-39 109 -158 164q-102 47 -239 47q-88 0 -172 -18q-174 -43 -263 -183q-75 -122 -75 -296zM445 1647q18 92 104 92q47 0 93 -33t46 -78q0 -59 -84 -98q-27 -10 -49 -10q-53 0 -88 37.5t-22 89.5zM942 1647 q18 92 105 92q47 0 93 -33t46 -78q0 -59 -84 -98q-27 -10 -49 -10q-53 0 -88 37.5t-23 89.5z" />
<glyph unicode="&#xd7;" horiz-adv-x="962" d="M0 1638zM8 354q14 -80 68 -80q51 0 172 107q80 70 176 184q82 -86 164 -170q131 -129 172 -129q39 0 39 58q-1 102 -99 198q-63 66 -159 180q88 106 149 168q98 96 98 199q0 57 -40 57q-39 0 -166 -125q-78 -80 -156 -161q-92 106 -168 172q-121 106 -172 106t-66 -80 q-12 -66 72 -149q63 -59 129 -119q14 -14 66 -68q-25 -27 -76 -79q-66 -59 -131 -119q-84 -84 -72 -150z" />
<glyph unicode="&#xd8;" horiz-adv-x="1488" d="M115 487q-57 283 61 537q129 272 397 338q66 27 125.5 35t110.5 8q272 0 436 -197q147 -178 148 -436q0 -82 -17 -160q-86 -403 -325 -524q-182 -90 -346 -100q-170 -10 -306 71q-223 131 -284 428zM285 705q0 -303 157 -463q33 -35 76 -62q57 -41 84 -47q20 -4 47 -4 q61 2 148 29q68 20 104 41q338 172 338 536q0 127 -47 256q-39 109 -158 164q-102 47 -239 47q-88 0 -172 -18q-174 -43 -263 -183q-75 -122 -75 -296zM329 10q13 66 93 242q150 328 159 350q92 199 172 344q74 139 146 279q121 221 166 231q12 2 22 0q43 -8 27 -100 q-23 -127 -166 -432q-100 -215 -291 -586q-47 -104 -96 -207q-72 -139 -131 -172q-49 -25 -76 -20q-37 6 -25 71z" />
<glyph unicode="&#xd9;" d="M84 868q12 37 46 62.5t71 21.5q2 0 2 -2q127 12 221 -2q-8 25 -6 47q6 66 59 66q25 0 36 -20.5t7 -49.5q-4 -31 -20 -61l12 -4l10 -4q2 -2 10 -4q2 0 7 -3q16 96 77 95q29 -2 39 -29q18 -49 -39 -113q98 -82 99 -211q0 -90 -58 -149q25 -29 48 -72q55 -10 120 -45 q27 18 52 17q6 -2 6 -11q0 -8 -8.5 -9t-32.5 -5q27 -17 39 -29q4 -8 0 -12q-6 -6 -15 0q-8 6 -28 23q6 -10 8 -21q0 -6 -6 -10q-8 -2 -11 4q-4 16 -12 33q-16 8 -49 22l-4 2q-18 6 -51 21q31 -68 47 -176q12 -4 22 -2q-23 33 6 51q8 6 17 6q29 0 29 -35q0 -14 -15 -24 q25 -6 35 16q4 8 12 6q10 -4 6 -14q-14 -29 -45 -29q-16 0 -30 8q-16 -4 -33 0q2 -25 10 -80q-4 -8 -16 -14q-53 0 -119 -2q2 -31 2 -86l2 -16q8 -12 -8.5 -15.5t-63.5 -5.5q-53 -4 -61 2q-23 12 0 27q8 4 61 0q29 0 50 -4q-2 33 -5 98q-96 -2 -143 -2h-72q2 -27 2 -66v-34 q10 -12 -6 -15.5t-65 -5.5q-51 -4 -60 2q-23 12 0 27q6 4 60 0q29 0 49 -4q0 -10 -2 96q-100 0 -162 4q-8 2 -14 14q14 102 20 138q14 78 39 133q-35 -16 -102 -43q-2 -10 -10 -33q-4 -6 -11 -4q-8 4 -6 10q2 8 6 21q-6 -6 -28 -23q-6 -6 -13 0q-6 4 0 12q10 12 37 29l-33 6 q-6 0 -6 8t6 11q25 2 52 -17q63 33 118 45q14 29 33 53q-63 55 -57 144q4 27 12 55q-27 4 -86 35q-68 33 -70 51q-39 33 -20 94zM109 872q-29 -59 14 -88q14 -10 31 -10q41 0 61 49q12 27 12 60q0 27 -26 49q-68 -6 -92 -60zM125 856q0 16 12 16q12 2 17 -12q3 -14 -7 -20 q-23 -10 -22 16zM158 756q57 -35 108 -49q2 2 4 5t9 1q6 -4 4 -11q6 -2 12 -3t6 -7q-2 -6 -8 -6h-17q-8 -27 -10 -51q-8 -92 70 -141q68 -43 160 -35q88 8 142 61t56 139q4 123 -90 197q-2 0 -4 -2q-4 -4 -10 0q-4 6 0 10l2 2q-18 10 -37 21q-4 -6 -10 -4q-8 2 -8 12 q-20 10 -45 18v-2q-8 0 -15 7q-12 4 -26 6q-6 -18 -17 -4l-4 8l-8 2h-2q-6 2 -17.5 3t-21.5 3q-74 6 -156 0q35 -33 13 -111q-20 -68 -80 -69zM174 854q0 14 12 16q12 0 17 -12q4 -14 -6 -20q-23 -10 -23 16zM295 866q-4 25 12.5 42.5t38.5 15.5q47 -5 47 -52q0 -35 -31 -45 q-23 -6 -43 6.5t-24 32.5zM311 633q6 4 15 2q10 -63 77 -66q59 0 89 54q4 6 10 2q8 -3 6 -11q-18 -61 -94 -61q-96 0 -103 80zM313 870q2 -14 17.5 -21t29.5 -1q19 6 15 31q-4 35 -35 26q-29 -8 -27 -35zM338 864q-4 8 0 17q4 8 14 8q11 0 13 -8q10 -23 -15 -23q-8 0 -12 6z M412 850q2 29 22 41q14 12 35 4q51 -21 41 -66q-10 -47 -59 -36q-41 10 -39 57zM430 852q-8 -37 27 -43q33 -6 37 27q4 20 -19 36q-12 10 -29 5q-12 -6 -16 -25zM438 999q-4 -25 8 -57q20 -4 37 -8q19 43 19 74q0 12 -4 22t-15 12h-3h-3h-2q-4 0 -6 -1l-4 -2t-4 -3 q-18 -12 -23 -37zM453 834q-4 6 1 14t13 8q10 0 14 -8q8 -20 -14 -23q-10 0 -14 9zM539 657q-29 49 9 85t75 20q18 -9 26 -27q16 -39 -6 -76.5t-63 -31.5q-25 2 -41 30zM559 905q23 -10 43 -26q33 38 39 69q4 31 -14 39q-8 4 -19 2q-10 -2 -22 -14q-20 -20 -27 -70zM795 252 q2 -4 8 -8q10 4 10 12q2 16 -10 16q-6 -4 -8 -20z" />
<glyph unicode="&#xda;" d="M84 868q12 37 46 62.5t71 21.5q2 0 2 -2q127 12 221 -2q-8 25 -6 47q6 66 59 66q25 0 36 -20.5t7 -49.5q-4 -31 -20 -61l12 -4l10 -4q2 -2 10 -4q2 0 7 -3q16 96 77 95q29 -2 39 -29q18 -49 -39 -113q98 -82 99 -211q0 -90 -58 -149q25 -29 48 -72q55 -10 120 -45 q27 18 52 17q6 -2 6 -11q0 -8 -8.5 -9t-32.5 -5q27 -17 39 -29q4 -8 0 -12q-6 -6 -15 0q-8 6 -28 23q6 -10 8 -21q0 -6 -6 -10q-8 -2 -11 4q-4 16 -12 33q-16 8 -49 22l-4 2q-18 6 -51 21q31 -68 47 -176q12 -4 22 -2q-23 33 6 51q8 6 17 6q29 0 29 -35q0 -14 -15 -24 q25 -6 35 16q4 8 12 6q10 -4 6 -14q-14 -29 -45 -29q-16 0 -30 8q-16 -4 -33 0q2 -25 10 -80q-4 -8 -16 -14q-53 0 -119 -2q2 -31 2 -86l2 -16q8 -12 -8.5 -15.5t-63.5 -5.5q-53 -4 -61 2q-23 12 0 27q8 4 61 0q29 0 50 -4q-2 33 -5 98q-96 -2 -143 -2h-72q2 -27 2 -66v-34 q10 -12 -6 -15.5t-65 -5.5q-51 -4 -60 2q-23 12 0 27q6 4 60 0q29 0 49 -4q0 -10 -2 96q-100 0 -162 4q-8 2 -14 14q14 102 20 138q14 78 39 133q-35 -16 -102 -43q-2 -10 -10 -33q-4 -6 -11 -4q-8 4 -6 10q2 8 6 21q-6 -6 -28 -23q-6 -6 -13 0q-6 4 0 12q10 12 37 29l-33 6 q-6 0 -6 8t6 11q25 2 52 -17q63 33 118 45q14 29 33 53q-63 55 -57 144q4 27 12 55q-27 4 -86 35q-68 33 -70 51q-39 33 -20 94zM109 872q-29 -59 14 -88q14 -10 31 -10q41 0 61 49q12 27 12 60q0 27 -26 49q-68 -6 -92 -60zM125 856q0 16 12 16q12 2 17 -12q3 -14 -7 -20 q-23 -10 -22 16zM158 756q57 -35 108 -49q2 2 4 5t9 1q6 -4 4 -11q6 -2 12 -3t6 -7q-2 -6 -8 -6h-17q-8 -27 -10 -51q-8 -92 70 -141q68 -43 160 -35q88 8 142 61t56 139q4 123 -90 197q-2 0 -4 -2q-4 -4 -10 0q-4 6 0 10l2 2q-18 10 -37 21q-4 -6 -10 -4q-8 2 -8 12 q-20 10 -45 18v-2q-8 0 -15 7q-12 4 -26 6q-6 -18 -17 -4l-4 8l-8 2h-2q-6 2 -17.5 3t-21.5 3q-74 6 -156 0q35 -33 13 -111q-20 -68 -80 -69zM174 854q0 14 12 16q12 0 17 -12q4 -14 -6 -20q-23 -10 -23 16zM295 866q-4 25 12.5 42.5t38.5 15.5q47 -5 47 -52q0 -35 -31 -45 q-23 -6 -43 6.5t-24 32.5zM311 633q6 4 15 2q10 -63 77 -66q59 0 89 54q4 6 10 2q8 -3 6 -11q-18 -61 -94 -61q-96 0 -103 80zM313 870q2 -14 17.5 -21t29.5 -1q19 6 15 31q-4 35 -35 26q-29 -8 -27 -35zM338 864q-4 8 0 17q4 8 14 8q11 0 13 -8q10 -23 -15 -23q-8 0 -12 6z M412 850q2 29 22 41q14 12 35 4q51 -21 41 -66q-10 -47 -59 -36q-41 10 -39 57zM430 852q-8 -37 27 -43q33 -6 37 27q4 20 -19 36q-12 10 -29 5q-12 -6 -16 -25zM438 999q-4 -25 8 -57q20 -4 37 -8q19 43 19 74q0 12 -4 22t-15 12h-3h-3h-2q-4 0 -6 -1l-4 -2t-4 -3 q-18 -12 -23 -37zM453 834q-4 6 1 14t13 8q10 0 14 -8q8 -20 -14 -23q-10 0 -14 9zM539 657q-29 49 9 85t75 20q18 -9 26 -27q16 -39 -6 -76.5t-63 -31.5q-25 2 -41 30zM559 905q23 -10 43 -26q33 38 39 69q4 31 -14 39q-8 4 -19 2q-10 -2 -22 -14q-20 -20 -27 -70zM795 252 q2 -4 8 -8q10 4 10 12q2 16 -10 16q-6 -4 -8 -20z" />
<glyph unicode="&#xdb;" d="M84 868q12 37 46 62.5t71 21.5q2 0 2 -2q127 12 221 -2q-8 25 -6 47q6 66 59 66q25 0 36 -20.5t7 -49.5q-4 -31 -20 -61l12 -4l10 -4q2 -2 10 -4q2 0 7 -3q16 96 77 95q29 -2 39 -29q18 -49 -39 -113q98 -82 99 -211q0 -90 -58 -149q25 -29 48 -72q55 -10 120 -45 q27 18 52 17q6 -2 6 -11q0 -8 -8.5 -9t-32.5 -5q27 -17 39 -29q4 -8 0 -12q-6 -6 -15 0q-8 6 -28 23q6 -10 8 -21q0 -6 -6 -10q-8 -2 -11 4q-4 16 -12 33q-16 8 -49 22l-4 2q-18 6 -51 21q31 -68 47 -176q12 -4 22 -2q-23 33 6 51q8 6 17 6q29 0 29 -35q0 -14 -15 -24 q25 -6 35 16q4 8 12 6q10 -4 6 -14q-14 -29 -45 -29q-16 0 -30 8q-16 -4 -33 0q2 -25 10 -80q-4 -8 -16 -14q-53 0 -119 -2q2 -31 2 -86l2 -16q8 -12 -8.5 -15.5t-63.5 -5.5q-53 -4 -61 2q-23 12 0 27q8 4 61 0q29 0 50 -4q-2 33 -5 98q-96 -2 -143 -2h-72q2 -27 2 -66v-34 q10 -12 -6 -15.5t-65 -5.5q-51 -4 -60 2q-23 12 0 27q6 4 60 0q29 0 49 -4q0 -10 -2 96q-100 0 -162 4q-8 2 -14 14q14 102 20 138q14 78 39 133q-35 -16 -102 -43q-2 -10 -10 -33q-4 -6 -11 -4q-8 4 -6 10q2 8 6 21q-6 -6 -28 -23q-6 -6 -13 0q-6 4 0 12q10 12 37 29l-33 6 q-6 0 -6 8t6 11q25 2 52 -17q63 33 118 45q14 29 33 53q-63 55 -57 144q4 27 12 55q-27 4 -86 35q-68 33 -70 51q-39 33 -20 94zM109 872q-29 -59 14 -88q14 -10 31 -10q41 0 61 49q12 27 12 60q0 27 -26 49q-68 -6 -92 -60zM125 856q0 16 12 16q12 2 17 -12q3 -14 -7 -20 q-23 -10 -22 16zM158 756q57 -35 108 -49q2 2 4 5t9 1q6 -4 4 -11q6 -2 12 -3t6 -7q-2 -6 -8 -6h-17q-8 -27 -10 -51q-8 -92 70 -141q68 -43 160 -35q88 8 142 61t56 139q4 123 -90 197q-2 0 -4 -2q-4 -4 -10 0q-4 6 0 10l2 2q-18 10 -37 21q-4 -6 -10 -4q-8 2 -8 12 q-20 10 -45 18v-2q-8 0 -15 7q-12 4 -26 6q-6 -18 -17 -4l-4 8l-8 2h-2q-6 2 -17.5 3t-21.5 3q-74 6 -156 0q35 -33 13 -111q-20 -68 -80 -69zM174 854q0 14 12 16q12 0 17 -12q4 -14 -6 -20q-23 -10 -23 16zM295 866q-4 25 12.5 42.5t38.5 15.5q47 -5 47 -52q0 -35 -31 -45 q-23 -6 -43 6.5t-24 32.5zM311 633q6 4 15 2q10 -63 77 -66q59 0 89 54q4 6 10 2q8 -3 6 -11q-18 -61 -94 -61q-96 0 -103 80zM313 870q2 -14 17.5 -21t29.5 -1q19 6 15 31q-4 35 -35 26q-29 -8 -27 -35zM338 864q-4 8 0 17q4 8 14 8q11 0 13 -8q10 -23 -15 -23q-8 0 -12 6z M412 850q2 29 22 41q14 12 35 4q51 -21 41 -66q-10 -47 -59 -36q-41 10 -39 57zM430 852q-8 -37 27 -43q33 -6 37 27q4 20 -19 36q-12 10 -29 5q-12 -6 -16 -25zM438 999q-4 -25 8 -57q20 -4 37 -8q19 43 19 74q0 12 -4 22t-15 12h-3h-3h-2q-4 0 -6 -1l-4 -2t-4 -3 q-18 -12 -23 -37zM453 834q-4 6 1 14t13 8q10 0 14 -8q8 -20 -14 -23q-10 0 -14 9zM539 657q-29 49 9 85t75 20q18 -9 26 -27q16 -39 -6 -76.5t-63 -31.5q-25 2 -41 30zM559 905q23 -10 43 -26q33 38 39 69q4 31 -14 39q-8 4 -19 2q-10 -2 -22 -14q-20 -20 -27 -70zM795 252 q2 -4 8 -8q10 4 10 12q2 16 -10 16q-6 -4 -8 -20z" />
<glyph unicode="&#xdc;" d="M84 868q12 37 46 62.5t71 21.5q2 0 2 -2q127 12 221 -2q-8 25 -6 47q6 66 59 66q25 0 36 -20.5t7 -49.5q-4 -31 -20 -61l12 -4l10 -4q2 -2 10 -4q2 0 7 -3q16 96 77 95q29 -2 39 -29q18 -49 -39 -113q98 -82 99 -211q0 -90 -58 -149q25 -29 48 -72q55 -10 120 -45 q27 18 52 17q6 -2 6 -11q0 -8 -8.5 -9t-32.5 -5q27 -17 39 -29q4 -8 0 -12q-6 -6 -15 0q-8 6 -28 23q6 -10 8 -21q0 -6 -6 -10q-8 -2 -11 4q-4 16 -12 33q-16 8 -49 22l-4 2q-18 6 -51 21q31 -68 47 -176q12 -4 22 -2q-23 33 6 51q8 6 17 6q29 0 29 -35q0 -14 -15 -24 q25 -6 35 16q4 8 12 6q10 -4 6 -14q-14 -29 -45 -29q-16 0 -30 8q-16 -4 -33 0q2 -25 10 -80q-4 -8 -16 -14q-53 0 -119 -2q2 -31 2 -86l2 -16q8 -12 -8.5 -15.5t-63.5 -5.5q-53 -4 -61 2q-23 12 0 27q8 4 61 0q29 0 50 -4q-2 33 -5 98q-96 -2 -143 -2h-72q2 -27 2 -66v-34 q10 -12 -6 -15.5t-65 -5.5q-51 -4 -60 2q-23 12 0 27q6 4 60 0q29 0 49 -4q0 -10 -2 96q-100 0 -162 4q-8 2 -14 14q14 102 20 138q14 78 39 133q-35 -16 -102 -43q-2 -10 -10 -33q-4 -6 -11 -4q-8 4 -6 10q2 8 6 21q-6 -6 -28 -23q-6 -6 -13 0q-6 4 0 12q10 12 37 29l-33 6 q-6 0 -6 8t6 11q25 2 52 -17q63 33 118 45q14 29 33 53q-63 55 -57 144q4 27 12 55q-27 4 -86 35q-68 33 -70 51q-39 33 -20 94zM109 872q-29 -59 14 -88q14 -10 31 -10q41 0 61 49q12 27 12 60q0 27 -26 49q-68 -6 -92 -60zM125 856q0 16 12 16q12 2 17 -12q3 -14 -7 -20 q-23 -10 -22 16zM158 756q57 -35 108 -49q2 2 4 5t9 1q6 -4 4 -11q6 -2 12 -3t6 -7q-2 -6 -8 -6h-17q-8 -27 -10 -51q-8 -92 70 -141q68 -43 160 -35q88 8 142 61t56 139q4 123 -90 197q-2 0 -4 -2q-4 -4 -10 0q-4 6 0 10l2 2q-18 10 -37 21q-4 -6 -10 -4q-8 2 -8 12 q-20 10 -45 18v-2q-8 0 -15 7q-12 4 -26 6q-6 -18 -17 -4l-4 8l-8 2h-2q-6 2 -17.5 3t-21.5 3q-74 6 -156 0q35 -33 13 -111q-20 -68 -80 -69zM174 854q0 14 12 16q12 0 17 -12q4 -14 -6 -20q-23 -10 -23 16zM295 866q-4 25 12.5 42.5t38.5 15.5q47 -5 47 -52q0 -35 -31 -45 q-23 -6 -43 6.5t-24 32.5zM311 633q6 4 15 2q10 -63 77 -66q59 0 89 54q4 6 10 2q8 -3 6 -11q-18 -61 -94 -61q-96 0 -103 80zM313 870q2 -14 17.5 -21t29.5 -1q19 6 15 31q-4 35 -35 26q-29 -8 -27 -35zM338 864q-4 8 0 17q4 8 14 8q11 0 13 -8q10 -23 -15 -23q-8 0 -12 6z M412 850q2 29 22 41q14 12 35 4q51 -21 41 -66q-10 -47 -59 -36q-41 10 -39 57zM430 852q-8 -37 27 -43q33 -6 37 27q4 20 -19 36q-12 10 -29 5q-12 -6 -16 -25zM438 999q-4 -25 8 -57q20 -4 37 -8q19 43 19 74q0 12 -4 22t-15 12h-3h-3h-2q-4 0 -6 -1l-4 -2t-4 -3 q-18 -12 -23 -37zM453 834q-4 6 1 14t13 8q10 0 14 -8q8 -20 -14 -23q-10 0 -14 9zM539 657q-29 49 9 85t75 20q18 -9 26 -27q16 -39 -6 -76.5t-63 -31.5q-25 2 -41 30zM559 905q23 -10 43 -26q33 38 39 69q4 31 -14 39q-8 4 -19 2q-10 -2 -22 -14q-20 -20 -27 -70zM795 252 q2 -4 8 -8q10 4 10 12q2 16 -10 16q-6 -4 -8 -20z" />
<glyph unicode="&#xdd;" d="M84 868q12 37 46 62.5t71 21.5q2 0 2 -2q127 12 221 -2q-8 25 -6 47q6 66 59 66q25 0 36 -20.5t7 -49.5q-4 -31 -20 -61l12 -4l10 -4q2 -2 10 -4q2 0 7 -3q16 96 77 95q29 -2 39 -29q18 -49 -39 -113q98 -82 99 -211q0 -90 -58 -149q25 -29 48 -72q55 -10 120 -45 q27 18 52 17q6 -2 6 -11q0 -8 -8.5 -9t-32.5 -5q27 -17 39 -29q4 -8 0 -12q-6 -6 -15 0q-8 6 -28 23q6 -10 8 -21q0 -6 -6 -10q-8 -2 -11 4q-4 16 -12 33q-16 8 -49 22l-4 2q-18 6 -51 21q31 -68 47 -176q12 -4 22 -2q-23 33 6 51q8 6 17 6q29 0 29 -35q0 -14 -15 -24 q25 -6 35 16q4 8 12 6q10 -4 6 -14q-14 -29 -45 -29q-16 0 -30 8q-16 -4 -33 0q2 -25 10 -80q-4 -8 -16 -14q-53 0 -119 -2q2 -31 2 -86l2 -16q8 -12 -8.5 -15.5t-63.5 -5.5q-53 -4 -61 2q-23 12 0 27q8 4 61 0q29 0 50 -4q-2 33 -5 98q-96 -2 -143 -2h-72q2 -27 2 -66v-34 q10 -12 -6 -15.5t-65 -5.5q-51 -4 -60 2q-23 12 0 27q6 4 60 0q29 0 49 -4q0 -10 -2 96q-100 0 -162 4q-8 2 -14 14q14 102 20 138q14 78 39 133q-35 -16 -102 -43q-2 -10 -10 -33q-4 -6 -11 -4q-8 4 -6 10q2 8 6 21q-6 -6 -28 -23q-6 -6 -13 0q-6 4 0 12q10 12 37 29l-33 6 q-6 0 -6 8t6 11q25 2 52 -17q63 33 118 45q14 29 33 53q-63 55 -57 144q4 27 12 55q-27 4 -86 35q-68 33 -70 51q-39 33 -20 94zM109 872q-29 -59 14 -88q14 -10 31 -10q41 0 61 49q12 27 12 60q0 27 -26 49q-68 -6 -92 -60zM125 856q0 16 12 16q12 2 17 -12q3 -14 -7 -20 q-23 -10 -22 16zM158 756q57 -35 108 -49q2 2 4 5t9 1q6 -4 4 -11q6 -2 12 -3t6 -7q-2 -6 -8 -6h-17q-8 -27 -10 -51q-8 -92 70 -141q68 -43 160 -35q88 8 142 61t56 139q4 123 -90 197q-2 0 -4 -2q-4 -4 -10 0q-4 6 0 10l2 2q-18 10 -37 21q-4 -6 -10 -4q-8 2 -8 12 q-20 10 -45 18v-2q-8 0 -15 7q-12 4 -26 6q-6 -18 -17 -4l-4 8l-8 2h-2q-6 2 -17.5 3t-21.5 3q-74 6 -156 0q35 -33 13 -111q-20 -68 -80 -69zM174 854q0 14 12 16q12 0 17 -12q4 -14 -6 -20q-23 -10 -23 16zM295 866q-4 25 12.5 42.5t38.5 15.5q47 -5 47 -52q0 -35 -31 -45 q-23 -6 -43 6.5t-24 32.5zM311 633q6 4 15 2q10 -63 77 -66q59 0 89 54q4 6 10 2q8 -3 6 -11q-18 -61 -94 -61q-96 0 -103 80zM313 870q2 -14 17.5 -21t29.5 -1q19 6 15 31q-4 35 -35 26q-29 -8 -27 -35zM338 864q-4 8 0 17q4 8 14 8q11 0 13 -8q10 -23 -15 -23q-8 0 -12 6z M412 850q2 29 22 41q14 12 35 4q51 -21 41 -66q-10 -47 -59 -36q-41 10 -39 57zM430 852q-8 -37 27 -43q33 -6 37 27q4 20 -19 36q-12 10 -29 5q-12 -6 -16 -25zM438 999q-4 -25 8 -57q20 -4 37 -8q19 43 19 74q0 12 -4 22t-15 12h-3h-3h-2q-4 0 -6 -1l-4 -2t-4 -3 q-18 -12 -23 -37zM453 834q-4 6 1 14t13 8q10 0 14 -8q8 -20 -14 -23q-10 0 -14 9zM539 657q-29 49 9 85t75 20q18 -9 26 -27q16 -39 -6 -76.5t-63 -31.5q-25 2 -41 30zM559 905q23 -10 43 -26q33 38 39 69q4 31 -14 39q-8 4 -19 2q-10 -2 -22 -14q-20 -20 -27 -70zM795 252 q2 -4 8 -8q10 4 10 12q2 16 -10 16q-6 -4 -8 -20z" />
<glyph unicode="&#xde;" d="M84 868q12 37 46 62.5t71 21.5q2 0 2 -2q127 12 221 -2q-8 25 -6 47q6 66 59 66q25 0 36 -20.5t7 -49.5q-4 -31 -20 -61l12 -4l10 -4q2 -2 10 -4q2 0 7 -3q16 96 77 95q29 -2 39 -29q18 -49 -39 -113q98 -82 99 -211q0 -90 -58 -149q25 -29 48 -72q55 -10 120 -45 q27 18 52 17q6 -2 6 -11q0 -8 -8.5 -9t-32.5 -5q27 -17 39 -29q4 -8 0 -12q-6 -6 -15 0q-8 6 -28 23q6 -10 8 -21q0 -6 -6 -10q-8 -2 -11 4q-4 16 -12 33q-16 8 -49 22l-4 2q-18 6 -51 21q31 -68 47 -176q12 -4 22 -2q-23 33 6 51q8 6 17 6q29 0 29 -35q0 -14 -15 -24 q25 -6 35 16q4 8 12 6q10 -4 6 -14q-14 -29 -45 -29q-16 0 -30 8q-16 -4 -33 0q2 -25 10 -80q-4 -8 -16 -14q-53 0 -119 -2q2 -31 2 -86l2 -16q8 -12 -8.5 -15.5t-63.5 -5.5q-53 -4 -61 2q-23 12 0 27q8 4 61 0q29 0 50 -4q-2 33 -5 98q-96 -2 -143 -2h-72q2 -27 2 -66v-34 q10 -12 -6 -15.5t-65 -5.5q-51 -4 -60 2q-23 12 0 27q6 4 60 0q29 0 49 -4q0 -10 -2 96q-100 0 -162 4q-8 2 -14 14q14 102 20 138q14 78 39 133q-35 -16 -102 -43q-2 -10 -10 -33q-4 -6 -11 -4q-8 4 -6 10q2 8 6 21q-6 -6 -28 -23q-6 -6 -13 0q-6 4 0 12q10 12 37 29l-33 6 q-6 0 -6 8t6 11q25 2 52 -17q63 33 118 45q14 29 33 53q-63 55 -57 144q4 27 12 55q-27 4 -86 35q-68 33 -70 51q-39 33 -20 94zM109 872q-29 -59 14 -88q14 -10 31 -10q41 0 61 49q12 27 12 60q0 27 -26 49q-68 -6 -92 -60zM125 856q0 16 12 16q12 2 17 -12q3 -14 -7 -20 q-23 -10 -22 16zM158 756q57 -35 108 -49q2 2 4 5t9 1q6 -4 4 -11q6 -2 12 -3t6 -7q-2 -6 -8 -6h-17q-8 -27 -10 -51q-8 -92 70 -141q68 -43 160 -35q88 8 142 61t56 139q4 123 -90 197q-2 0 -4 -2q-4 -4 -10 0q-4 6 0 10l2 2q-18 10 -37 21q-4 -6 -10 -4q-8 2 -8 12 q-20 10 -45 18v-2q-8 0 -15 7q-12 4 -26 6q-6 -18 -17 -4l-4 8l-8 2h-2q-6 2 -17.5 3t-21.5 3q-74 6 -156 0q35 -33 13 -111q-20 -68 -80 -69zM174 854q0 14 12 16q12 0 17 -12q4 -14 -6 -20q-23 -10 -23 16zM295 866q-4 25 12.5 42.5t38.5 15.5q47 -5 47 -52q0 -35 -31 -45 q-23 -6 -43 6.5t-24 32.5zM311 633q6 4 15 2q10 -63 77 -66q59 0 89 54q4 6 10 2q8 -3 6 -11q-18 -61 -94 -61q-96 0 -103 80zM313 870q2 -14 17.5 -21t29.5 -1q19 6 15 31q-4 35 -35 26q-29 -8 -27 -35zM338 864q-4 8 0 17q4 8 14 8q11 0 13 -8q10 -23 -15 -23q-8 0 -12 6z M412 850q2 29 22 41q14 12 35 4q51 -21 41 -66q-10 -47 -59 -36q-41 10 -39 57zM430 852q-8 -37 27 -43q33 -6 37 27q4 20 -19 36q-12 10 -29 5q-12 -6 -16 -25zM438 999q-4 -25 8 -57q20 -4 37 -8q19 43 19 74q0 12 -4 22t-15 12h-3h-3h-2q-4 0 -6 -1l-4 -2t-4 -3 q-18 -12 -23 -37zM453 834q-4 6 1 14t13 8q10 0 14 -8q8 -20 -14 -23q-10 0 -14 9zM539 657q-29 49 9 85t75 20q18 -9 26 -27q16 -39 -6 -76.5t-63 -31.5q-25 2 -41 30zM559 905q23 -10 43 -26q33 38 39 69q4 31 -14 39q-8 4 -19 2q-10 -2 -22 -14q-20 -20 -27 -70zM795 252 q2 -4 8 -8q10 4 10 12q2 16 -10 16q-6 -4 -8 -20z" />
<glyph unicode="&#xdf;" horiz-adv-x="1130" d="M97 870.5q1 120.5 17.5 233.5t66.5 200t141.5 139t240.5 52q68 0 130.5 -19.5t111.5 -56.5t81 -90t38 -121q8 -63 -12.5 -114.5t-52.5 -96.5t-63.5 -87t-44 -87t3 -96t79.5 -115q63 -59 100 -129.5t48 -142.5t-5 -139.5t-59.5 -120.5t-114 -85t-168.5 -32q-20 0 -69.5 7 t-95.5 24.5t-71.5 45.5t0.5 69q14 12 44 14t64 -1t64.5 -8t44.5 -5q88 0 133.5 44t53.5 104t-17.5 124.5t-78.5 105.5q-27 33 -55.5 68t-52.5 69.5t-39 71.5t-15 78q0 55 25.5 97t59.5 79t66.5 73t46.5 77q12 53 -7 87t-48 75q-27 29 -64.5 59.5t-78.5 30.5q-78 0 -123 -27 t-70.5 -70t-33 -97t-8.5 -112.5t1 -115t-2 -101.5q0 -96 -8 -181t-8 -179q0 -47 5 -97t8 -101.5t1 -101.5t-14 -97q-6 -35 -23.5 -54.5t-39 -25.5t-43.5 1t-40 25q-14 14 -25 28.5t-16 43.5q-6 37 -6 80t3 86t6.5 83t3.5 75q0 98 -8.5 217t-7.5 239.5z" />
<glyph unicode="&#xe0;" horiz-adv-x="937" d="M51 385q0 -168 92 -283q98 -121 260 -120q162 0 232 108q27 -66 78 -90q29 -12 57 -12q68 0 66 67v2q-4 53 -39 83t-72 57q-43 39 -52 111.5t-18 142.5q-12 78 -47 129q-18 27 -69 67q-90 70 -203 70q-55 0 -105 -21q-88 -33 -137 -127q-43 -82 -43 -184zM92 1241 q0 -33 37 -80q84 -105 145 -162q78 -70 142 -69q47 -2 47 37q0 57 -96 190q-68 92 -113 138t-74 46q-43 0 -82 -71q-6 -14 -6 -29zM160 350q0 86 41 152q53 82 135 82q55 0 117.5 -38t93.5 -157q33 -129 -11 -207t-116 -78q-43 0 -113 33q-47 20 -67 35q-35 27 -57.5 72 t-22.5 106z" />
<glyph unicode="&#xe1;" horiz-adv-x="944" d="M51 385q0 -168 92 -283q98 -121 260 -120q162 0 232 108q27 -66 78 -90q29 -12 57 -12q68 0 66 67v2q-4 53 -39 83t-72 57q-43 39 -52 111.5t-18 142.5q-12 78 -47 129q-18 27 -69 67q-90 70 -203 70q-55 0 -105 -21q-88 -33 -137 -127q-43 -82 -43 -184zM160 350 q0 86 41 152q53 82 135 82q55 0 117.5 -38t93.5 -157q33 -129 -11 -207t-116 -78q-43 0 -113 33q-47 20 -67 35q-35 27 -57.5 72t-22.5 106zM303 967q0 57 97 190q68 92 112.5 138t73.5 46q41 0 82 -71q6 -14 6 -29q0 -33 -37 -80q-84 -105 -145 -162q-78 -70 -144 -69 q-45 -2 -45 37z" />
<glyph unicode="&#xe2;" horiz-adv-x="956" d="M51 385q0 -168 92 -283q98 -121 260 -120q162 0 232 108q27 -66 78 -90q29 -12 57 -12q68 0 66 67v2q-4 53 -39 83t-72 57q-43 39 -52 111.5t-18 142.5q-12 78 -47 129q-18 27 -69 67q-90 70 -203 70q-55 0 -105 -21q-88 -33 -137 -127q-43 -82 -43 -184zM92 952 q0 -51 53 -43q29 6 72 60q31 39 60.5 77.5t62.5 88.5q37 -59 72 -103q29 -39 55 -80q41 -53 71 -57q51 -10 52 43q0 61 -72 199q-51 96 -86 145q-51 74 -98 74q-41 0 -82 -58q-37 -49 -88 -147q-72 -137 -72 -199zM160 350q0 86 41 152q53 82 135 82q55 0 117.5 -38 t93.5 -157q33 -129 -11 -207t-116 -78q-43 0 -113 33q-47 20 -67 35q-35 27 -57.5 72t-22.5 106z" />
<glyph unicode="&#xe3;" horiz-adv-x="956" d="M51 385q0 -168 92 -283q98 -121 260 -120q162 0 232 108q27 -66 78 -90q29 -12 57 -12q68 0 66 67v2q-4 53 -39 83t-72 57q-43 39 -52 111.5t-18 142.5q-12 78 -47 129q-18 27 -69 67q-90 70 -203 70q-55 0 -105 -21q-88 -33 -137 -127q-43 -82 -43 -184zM141 909 q0 -41 52 -41q31 2 72.5 53.5t80.5 51.5q47 0 125 -39t117 -39q55 0 103 53t48 121q0 63 -51 63q-27 0 -57 -49q-37 -55 -54.5 -64.5t-35.5 -9.5q-31 0 -76 31q-66 43 -70 47q-59 27 -96 27q-61 0 -111 -88q-47 -80 -47 -117zM160 350q0 86 41 152q53 82 135 82 q55 0 117.5 -38t93.5 -157q33 -129 -11 -207t-116 -78q-43 0 -113 33q-47 20 -67 35q-35 27 -57.5 72t-22.5 106z" />
<glyph unicode="&#xe4;" horiz-adv-x="1064" d="M76 1010q18 92 104 92q47 0 93 -33t46 -78q0 -59 -84 -98q-27 -10 -49 -10q-53 0 -88 37.5t-22 89.5zM160 385q0 -168 92 -283q98 -121 260 -120q162 0 232 108q27 -66 78 -90q29 -12 57 -12q68 0 66 67v2q-4 53 -39 83t-72 57q-43 39 -52 111.5t-18 142.5 q-12 78 -47 129q-18 27 -69 67q-90 70 -203 70q-55 0 -105 -21q-88 -33 -137 -127q-43 -82 -43 -184zM269 350q0 86 41 152q53 82 135 82q55 0 117.5 -38t93.5 -157q33 -129 -11 -207t-116 -78q-43 0 -113 33q-47 20 -67 35q-35 27 -57.5 72t-22.5 106zM573 1010 q18 92 105 92q47 0 93 -33t46 -78q0 -59 -84 -98q-27 -10 -49 -10q-53 0 -88 37.5t-23 89.5z" />
<glyph unicode="&#xe5;" horiz-adv-x="790" d="M51 385q0 -168 92 -283q98 -121 260 -120q162 0 232 108q27 -66 78 -90q29 -12 57 -12q68 0 66 67v2q-4 53 -39 83t-72 57q-43 39 -52 111.5t-18 142.5q-12 78 -47 129q-18 27 -69 67q-90 70 -203 70q-55 0 -105 -21q-88 -33 -137 -127q-43 -82 -43 -184zM160 350 q0 86 41 152q53 82 135 82q55 0 117.5 -38t93.5 -157q33 -129 -11 -207t-116 -78q-43 0 -113 33q-47 20 -67 35q-35 27 -57.5 72t-22.5 106zM211 954q-4 49 2 83t32 63q53 49 109 53q96 8 130 -47t32 -152q0 -41 -14.5 -77.5t-53.5 -59.5q-41 -29 -89 -24.5t-77 18.5 q-41 27 -54 64.5t-17 78.5zM301 973q0 -14 2 -36t16 -36q12 -14 35 -15t41 7t24.5 13t10.5 16q12 27 11 43t-15 45q-16 33 -32.5 35.5t-39.5 -1.5q-27 -4 -40 -23.5t-13 -47.5z" />
<glyph unicode="&#xe6;" horiz-adv-x="1210" d="M4 305q-6 88 35 146.5t110.5 91t155.5 40t166 -7.5q0 12 -8 25q-4 6 -6 10q-23 41 -62 59.5t-83 20.5t-88 -10t-77 -33q-20 -20 -41.5 -19t-37 15t-20.5 35.5t9 42.5q41 53 94.5 79.5t113 30t122 -13t121.5 -49.5q29 -16 52.5 -48t37.5 -73q14 14 26.5 27.5t26.5 27.5 q16 16 57.5 31t95.5 22t113.5 3t112.5 -23.5t92.5 -58t53.5 -101.5q8 -63 -15.5 -102t-68.5 -59.5t-105.5 -25.5t-123 0t-123 17.5t-105.5 26.5q-12 -23 -15.5 -43t-3.5 -47q0 -35 4.5 -67.5t15.5 -60.5t32.5 -47.5t56.5 -23.5q70 -10 116 -12t99 12q29 14 63.5 34t63.5 20 q14 0 27.5 -1t29.5 -30q10 -16 0 -39t-22 -37q-39 -43 -71 -60.5t-73 -29.5q-68 -14 -152.5 1t-154.5 52q-27 14 -33 18.5t-20 18.5q-29 25 -53 53l-74 -37q-35 -12 -70.5 -24t-72.5 -19.5t-74 -6.5t-70 16q-68 27 -124 83t-56 150zM129 324q6 -68 46 -92.5t90 -22.5 t102.5 21.5t87.5 39.5q16 57 25 100.5t9 96.5q-47 0 -109.5 -4t-117.5 -19.5t-94 -44t-39 -75.5zM670 522q6 0 27.5 -3t45 -6t45 -6t27.5 -3q53 -8 84 -14.5t59 -4.5q14 0 30 12.5t24 31t6 41t-23 42.5q-41 27 -84 39.5t-96 -4.5q-29 -8 -46 -14.5t-44 -20.5 q-8 -8 -16.5 -21t-18.5 -30q-10 -18 -20 -39z" />
<glyph unicode="&#xe7;" horiz-adv-x="825" d="M59 358q0 -156 136 -274q92 -82 223 -82q74 0 145 29q45 18 109 71q74 66 73 107q1 41 -79 49q-37 4 -135.5 -52t-147.5 -59q-201 -6 -219 156q-10 96 47 170q53 68 145 98q82 6 162 13q119 8 119 53q0 23 -23 51l-39 27q-61 18 -124 18q-162 0 -277 -112.5t-115 -262.5z M217 -354q-2 -41 72 -64q33 -8 70 -8q90 0 158.5 49t68.5 129q0 20 -6 43q-14 59 -51 80q-43 14 -86 31q-23 6 -48 14q-8 4 -4 53q14 37 29 111l-86 -16q2 -20 -20.5 -95t-22.5 -106q0 -51 53 -51q14 0 47 7t47 7q53 0 54 -76q0 -92 -183 -86q-8 0 -29.5 4t-31.5 4 q-29 0 -31 -30z" />
<glyph unicode="&#xe8;" horiz-adv-x="849" d="M6 377q0 -217 176 -320q100 -59 215 -59q156 0 232 96q31 41 30 62q0 49 -69 51q-16 0 -57 -23.5t-54 -25.5q-80 -18 -215 -2q-119 12 -121 188q-2 51 19 98q154 -45 295 -45q250 0 250 156q0 16 -5 37q-33 186 -256 186q-145 0 -266 -74q-174 -106 -174 -325zM153 1241 q0 -33 37 -80q84 -105 145 -162q78 -70 142 -69q47 -2 47 37q0 57 -96 190q-68 92 -113 138t-74 46q-43 0 -82 -71q-6 -14 -6 -29zM201 524q20 35 61 92q16 16 90 35q25 6 51 6q72 0 129 -47q25 -18 25 -45q0 -55 -63 -67q-37 -6 -140 8q-143 20 -153 18z" />
<glyph unicode="&#xe9;" horiz-adv-x="874" d="M6 377q0 -217 176 -320q100 -59 215 -59q156 0 232 96q31 41 30 62q0 49 -69 51q-16 0 -57 -23.5t-54 -25.5q-80 -18 -215 -2q-119 12 -121 188q-2 51 19 98q154 -45 295 -45q250 0 250 156q0 16 -5 37q-33 186 -256 186q-145 0 -266 -74q-174 -106 -174 -325zM201 524 q20 35 61 92q16 16 90 35q25 6 51 6q72 0 129 -47q25 -18 25 -45q0 -55 -63 -67q-37 -6 -140 8q-143 20 -153 18zM426 967q0 57 97 190q68 92 112.5 138t73.5 46q41 0 82 -71q6 -14 6 -29q0 -33 -37 -80q-84 -105 -145 -162q-78 -70 -144 -69q-45 -2 -45 37z" />
<glyph unicode="&#xea;" horiz-adv-x="862" d="M6 377q0 -217 176 -320q100 -59 215 -59q156 0 232 96q31 41 30 62q0 49 -69 51q-16 0 -57 -23.5t-54 -25.5q-80 -18 -215 -2q-119 12 -121 188q-2 51 19 98q154 -45 295 -45q250 0 250 156q0 16 -5 37q-33 186 -256 186q-145 0 -266 -74q-174 -106 -174 -325zM172 952 q0 -51 53 -43q29 6 72 60q31 39 60.5 77.5t62.5 88.5q37 -59 72 -103q29 -39 55 -80q41 -53 71 -57q51 -10 52 43q0 61 -72 199q-51 96 -86 145q-51 74 -98 74q-41 0 -82 -58q-37 -49 -88 -147q-72 -137 -72 -199zM201 524q20 35 61 92q16 16 90 35q25 6 51 6q72 0 129 -47 q25 -18 25 -45q0 -55 -63 -67q-37 -6 -140 8q-143 20 -153 18z" />
<glyph unicode="&#xeb;" horiz-adv-x="899" d="M22 377q0 -217 176 -320q100 -59 215 -59q156 0 232 96q31 41 30 62q0 49 -69 51q-16 0 -57 -23.5t-54 -25.5q-80 -18 -215 -2q-119 12 -121 188q-2 51 19 98q154 -45 295 -45q250 0 250 156q0 16 -5 37q-33 186 -256 186q-145 0 -266 -74q-174 -106 -174 -325zM66 1010 q18 92 104 92q47 0 93 -33t46 -78q0 -59 -84 -98q-27 -10 -49 -10q-53 0 -88 37.5t-22 89.5zM217 524q20 35 61 92q16 16 90 35q25 6 51 6q72 0 129 -47q25 -18 25 -45q0 -55 -63 -67q-37 -6 -140 8q-143 20 -153 18zM563 1010q18 92 105 92q47 0 93 -33t46 -78 q0 -59 -84 -98q-27 -10 -49 -10q-53 0 -88 37.5t-23 89.5z" />
<glyph unicode="&#xec;" d="M0 868q10 37 44 62.5t71 21.5q2 0 4 -2q125 12 219 -2q-8 25 -6 47q6 66 61 66q25 0 35 -20.5t6 -49.5q-4 -31 -20 -61h2l10 -4l10 -4q4 -2 13 -4l4 -3q18 96 79 95q29 -2 39 -29q16 -49 -41 -113q100 -82 99 -211q0 -90 -58 -149q27 -29 47 -72q57 -10 121 -45 q27 18 52 17q8 -2 6 -11q0 -8 -8.5 -9t-30.5 -5q27 -17 37 -29q6 -8 0 -12q-6 -6 -13 0q-10 6 -28 23q4 -10 6 -21q2 -6 -6 -10q-6 -2 -11 4q-4 16 -12 33q-16 8 -49 22l-4 2q-16 6 -49 21q29 -68 47 -176q10 -4 20 -2q-23 33 6 51q8 6 17 6q29 0 29 -35q0 -14 -13 -24 q25 -6 33 16q4 8 14 6q8 -4 4 -14q-12 -29 -45 -29q-16 0 -28 8q-18 -4 -35 0q4 -23 12 -80q-4 -8 -16 -14q-53 0 -121 -2q2 -31 4 -86v-16q10 -12 -6 -15.5t-66 -5.5q-51 -4 -59 2q-23 12 0 27q6 4 59 0q29 0 50 -4q0 33 -3 98q-98 -2 -143 -2h-74q2 -27 2 -66l2 -34 q8 -12 -8 -15.5t-63 -5.5q-53 -4 -62 2q-23 12 0 27q8 4 62 0q29 0 49 -4q0 -10 -4 96q-100 0 -160 4q-8 2 -16 14q14 102 20 138q16 78 39 133q-35 -16 -100 -43q-4 -10 -13 -33q-2 -6 -10 -4q-6 4 -6 10q2 8 8 21q-8 -6 -28 -23q-8 -6 -13 0q-6 4 0 12q10 12 37 29l-35 6 q-6 0 -6 8t6 11q25 2 52 -17q63 33 118 45q16 29 35 53q-66 55 -57 144q2 27 12 55q-27 4 -88 35q-68 33 -70 51q-37 33 -18 94zM23 872q-27 -59 14 -88q16 -10 33 -10q41 0 61 49q12 27 12 60q0 27 -26 49q-70 -6 -94 -60zM39 856q0 16 14 16q12 2 17 -12q3 -14 -9 -20 q-23 -10 -22 16zM74 756q55 -35 108 -49v2q6 6 11 4q6 -4 9 -8.5t8 -5.5t5 -7t-6 -6h-16q-8 -27 -13 -51q-6 -92 70 -141q68 -43 160 -35q88 8 143 61t57 139q2 123 -92 197l-2 -2q-6 -4 -10 0q-4 6 0 10v2q-16 10 -37 21q-4 -6 -10 -4t-6 12q-20 10 -47 18v-2q-8 0 -13 7 q-14 4 -26 6q-6 -18 -17 -4l-4 8l-10 2q-8 2 -19.5 3t-21.5 3q-72 6 -154 0q35 -33 11 -111q-20 -68 -78 -69zM88 854q0 14 14 16q12 0 17 -12q4 -14 -8 -20q-23 -10 -23 16zM211 866q-4 25 11.5 42.5t39.5 15.5q45 -5 45 -52q0 -35 -31 -45q-20 -6 -40.5 6.5t-24.5 32.5z M225 633q6 4 15 2q12 -63 77 -66q61 0 89 54q4 6 12 2q8 -3 4 -11q-18 -61 -94 -61q-96 0 -103 80zM229 870q2 -14 17.5 -21t27.5 -1q19 6 17 31q-6 35 -35 26q-31 -8 -27 -35zM252 864q-4 8 0 17q4 8 14 8q11 0 15 -8q8 -23 -15 -23q-10 0 -14 6zM328 850q2 29 19.5 41 t37.5 4q49 -21 39 -66q-10 -47 -59 -36q-41 10 -37 57zM346 852q-10 -37 27 -43q31 -6 37 27q2 20 -19 36q-14 10 -29 5q-12 -6 -16 -25zM352 999q-4 -25 8 -57q20 -4 39 -8q17 43 17 74q0 12 -4 22t-15 12h-3h-3h-2q-4 0 -6 -1l-4 -2t-4 -3q-16 -12 -23 -37zM369 834 q-4 6 0 14t14 8t12 -8q10 -20 -14 -23q-8 0 -12 9zM455 657q-31 49 7 85t77 20q16 -9 24 -27q16 -39 -6 -76.5t-61 -31.5q-25 2 -41 30zM473 905q25 -10 45 -26q33 38 37 69t-14 39q-8 4 -19 2q-10 -2 -20 -14q-23 -20 -29 -70zM709 252l8 -8q10 4 12 12q2 16 -10 16 q-8 -4 -10 -20z" />
<glyph unicode="&#xed;" d="M0 868q10 37 44 62.5t71 21.5q2 0 4 -2q125 12 219 -2q-8 25 -6 47q6 66 61 66q25 0 35 -20.5t6 -49.5q-4 -31 -20 -61h2l10 -4l10 -4q4 -2 13 -4l4 -3q18 96 79 95q29 -2 39 -29q16 -49 -41 -113q100 -82 99 -211q0 -90 -58 -149q27 -29 47 -72q57 -10 121 -45 q27 18 52 17q8 -2 6 -11q0 -8 -8.5 -9t-30.5 -5q27 -17 37 -29q6 -8 0 -12q-6 -6 -13 0q-10 6 -28 23q4 -10 6 -21q2 -6 -6 -10q-6 -2 -11 4q-4 16 -12 33q-16 8 -49 22l-4 2q-16 6 -49 21q29 -68 47 -176q10 -4 20 -2q-23 33 6 51q8 6 17 6q29 0 29 -35q0 -14 -13 -24 q25 -6 33 16q4 8 14 6q8 -4 4 -14q-12 -29 -45 -29q-16 0 -28 8q-18 -4 -35 0q4 -23 12 -80q-4 -8 -16 -14q-53 0 -121 -2q2 -31 4 -86v-16q10 -12 -6 -15.5t-66 -5.5q-51 -4 -59 2q-23 12 0 27q6 4 59 0q29 0 50 -4q0 33 -3 98q-98 -2 -143 -2h-74q2 -27 2 -66l2 -34 q8 -12 -8 -15.5t-63 -5.5q-53 -4 -62 2q-23 12 0 27q8 4 62 0q29 0 49 -4q0 -10 -4 96q-100 0 -160 4q-8 2 -16 14q14 102 20 138q16 78 39 133q-35 -16 -100 -43q-4 -10 -13 -33q-2 -6 -10 -4q-6 4 -6 10q2 8 8 21q-8 -6 -28 -23q-8 -6 -13 0q-6 4 0 12q10 12 37 29l-35 6 q-6 0 -6 8t6 11q25 2 52 -17q63 33 118 45q16 29 35 53q-66 55 -57 144q2 27 12 55q-27 4 -88 35q-68 33 -70 51q-37 33 -18 94zM23 872q-27 -59 14 -88q16 -10 33 -10q41 0 61 49q12 27 12 60q0 27 -26 49q-70 -6 -94 -60zM39 856q0 16 14 16q12 2 17 -12q3 -14 -9 -20 q-23 -10 -22 16zM74 756q55 -35 108 -49v2q6 6 11 4q6 -4 9 -8.5t8 -5.5t5 -7t-6 -6h-16q-8 -27 -13 -51q-6 -92 70 -141q68 -43 160 -35q88 8 143 61t57 139q2 123 -92 197l-2 -2q-6 -4 -10 0q-4 6 0 10v2q-16 10 -37 21q-4 -6 -10 -4t-6 12q-20 10 -47 18v-2q-8 0 -13 7 q-14 4 -26 6q-6 -18 -17 -4l-4 8l-10 2q-8 2 -19.5 3t-21.5 3q-72 6 -154 0q35 -33 11 -111q-20 -68 -78 -69zM88 854q0 14 14 16q12 0 17 -12q4 -14 -8 -20q-23 -10 -23 16zM211 866q-4 25 11.5 42.5t39.5 15.5q45 -5 45 -52q0 -35 -31 -45q-20 -6 -40.5 6.5t-24.5 32.5z M225 633q6 4 15 2q12 -63 77 -66q61 0 89 54q4 6 12 2q8 -3 4 -11q-18 -61 -94 -61q-96 0 -103 80zM229 870q2 -14 17.5 -21t27.5 -1q19 6 17 31q-6 35 -35 26q-31 -8 -27 -35zM252 864q-4 8 0 17q4 8 14 8q11 0 15 -8q8 -23 -15 -23q-10 0 -14 6zM328 850q2 29 19.5 41 t37.5 4q49 -21 39 -66q-10 -47 -59 -36q-41 10 -37 57zM346 852q-10 -37 27 -43q31 -6 37 27q2 20 -19 36q-14 10 -29 5q-12 -6 -16 -25zM352 999q-4 -25 8 -57q20 -4 39 -8q17 43 17 74q0 12 -4 22t-15 12h-3h-3h-2q-4 0 -6 -1l-4 -2t-4 -3q-16 -12 -23 -37zM369 834 q-4 6 0 14t14 8t12 -8q10 -20 -14 -23q-8 0 -12 9zM455 657q-31 49 7 85t77 20q16 -9 24 -27q16 -39 -6 -76.5t-61 -31.5q-25 2 -41 30zM473 905q25 -10 45 -26q33 38 37 69t-14 39q-8 4 -19 2q-10 -2 -20 -14q-23 -20 -29 -70zM709 252l8 -8q10 4 12 12q2 16 -10 16 q-8 -4 -10 -20z" />
<glyph unicode="&#xee;" d="M0 868q10 37 44 62.5t71 21.5q2 0 4 -2q125 12 219 -2q-8 25 -6 47q6 66 61 66q25 0 35 -20.5t6 -49.5q-4 -31 -20 -61h2l10 -4l10 -4q4 -2 13 -4l4 -3q18 96 79 95q29 -2 39 -29q16 -49 -41 -113q100 -82 99 -211q0 -90 -58 -149q27 -29 47 -72q57 -10 121 -45 q27 18 52 17q8 -2 6 -11q0 -8 -8.5 -9t-30.5 -5q27 -17 37 -29q6 -8 0 -12q-6 -6 -13 0q-10 6 -28 23q4 -10 6 -21q2 -6 -6 -10q-6 -2 -11 4q-4 16 -12 33q-16 8 -49 22l-4 2q-16 6 -49 21q29 -68 47 -176q10 -4 20 -2q-23 33 6 51q8 6 17 6q29 0 29 -35q0 -14 -13 -24 q25 -6 33 16q4 8 14 6q8 -4 4 -14q-12 -29 -45 -29q-16 0 -28 8q-18 -4 -35 0q4 -23 12 -80q-4 -8 -16 -14q-53 0 -121 -2q2 -31 4 -86v-16q10 -12 -6 -15.5t-66 -5.5q-51 -4 -59 2q-23 12 0 27q6 4 59 0q29 0 50 -4q0 33 -3 98q-98 -2 -143 -2h-74q2 -27 2 -66l2 -34 q8 -12 -8 -15.5t-63 -5.5q-53 -4 -62 2q-23 12 0 27q8 4 62 0q29 0 49 -4q0 -10 -4 96q-100 0 -160 4q-8 2 -16 14q14 102 20 138q16 78 39 133q-35 -16 -100 -43q-4 -10 -13 -33q-2 -6 -10 -4q-6 4 -6 10q2 8 8 21q-8 -6 -28 -23q-8 -6 -13 0q-6 4 0 12q10 12 37 29l-35 6 q-6 0 -6 8t6 11q25 2 52 -17q63 33 118 45q16 29 35 53q-66 55 -57 144q2 27 12 55q-27 4 -88 35q-68 33 -70 51q-37 33 -18 94zM23 872q-27 -59 14 -88q16 -10 33 -10q41 0 61 49q12 27 12 60q0 27 -26 49q-70 -6 -94 -60zM39 856q0 16 14 16q12 2 17 -12q3 -14 -9 -20 q-23 -10 -22 16zM74 756q55 -35 108 -49v2q6 6 11 4q6 -4 9 -8.5t8 -5.5t5 -7t-6 -6h-16q-8 -27 -13 -51q-6 -92 70 -141q68 -43 160 -35q88 8 143 61t57 139q2 123 -92 197l-2 -2q-6 -4 -10 0q-4 6 0 10v2q-16 10 -37 21q-4 -6 -10 -4t-6 12q-20 10 -47 18v-2q-8 0 -13 7 q-14 4 -26 6q-6 -18 -17 -4l-4 8l-10 2q-8 2 -19.5 3t-21.5 3q-72 6 -154 0q35 -33 11 -111q-20 -68 -78 -69zM88 854q0 14 14 16q12 0 17 -12q4 -14 -8 -20q-23 -10 -23 16zM211 866q-4 25 11.5 42.5t39.5 15.5q45 -5 45 -52q0 -35 -31 -45q-20 -6 -40.5 6.5t-24.5 32.5z M225 633q6 4 15 2q12 -63 77 -66q61 0 89 54q4 6 12 2q8 -3 4 -11q-18 -61 -94 -61q-96 0 -103 80zM229 870q2 -14 17.5 -21t27.5 -1q19 6 17 31q-6 35 -35 26q-31 -8 -27 -35zM252 864q-4 8 0 17q4 8 14 8q11 0 15 -8q8 -23 -15 -23q-10 0 -14 6zM328 850q2 29 19.5 41 t37.5 4q49 -21 39 -66q-10 -47 -59 -36q-41 10 -37 57zM346 852q-10 -37 27 -43q31 -6 37 27q2 20 -19 36q-14 10 -29 5q-12 -6 -16 -25zM352 999q-4 -25 8 -57q20 -4 39 -8q17 43 17 74q0 12 -4 22t-15 12h-3h-3h-2q-4 0 -6 -1l-4 -2t-4 -3q-16 -12 -23 -37zM369 834 q-4 6 0 14t14 8t12 -8q10 -20 -14 -23q-8 0 -12 9zM455 657q-31 49 7 85t77 20q16 -9 24 -27q16 -39 -6 -76.5t-61 -31.5q-25 2 -41 30zM473 905q25 -10 45 -26q33 38 37 69t-14 39q-8 4 -19 2q-10 -2 -20 -14q-23 -20 -29 -70zM709 252l8 -8q10 4 12 12q2 16 -10 16 q-8 -4 -10 -20z" />
<glyph unicode="&#xef;" d="M0 868q10 37 44 62.5t71 21.5q2 0 4 -2q125 12 219 -2q-8 25 -6 47q6 66 61 66q25 0 35 -20.5t6 -49.5q-4 -31 -20 -61h2l10 -4l10 -4q4 -2 13 -4l4 -3q18 96 79 95q29 -2 39 -29q16 -49 -41 -113q100 -82 99 -211q0 -90 -58 -149q27 -29 47 -72q57 -10 121 -45 q27 18 52 17q8 -2 6 -11q0 -8 -8.5 -9t-30.5 -5q27 -17 37 -29q6 -8 0 -12q-6 -6 -13 0q-10 6 -28 23q4 -10 6 -21q2 -6 -6 -10q-6 -2 -11 4q-4 16 -12 33q-16 8 -49 22l-4 2q-16 6 -49 21q29 -68 47 -176q10 -4 20 -2q-23 33 6 51q8 6 17 6q29 0 29 -35q0 -14 -13 -24 q25 -6 33 16q4 8 14 6q8 -4 4 -14q-12 -29 -45 -29q-16 0 -28 8q-18 -4 -35 0q4 -23 12 -80q-4 -8 -16 -14q-53 0 -121 -2q2 -31 4 -86v-16q10 -12 -6 -15.5t-66 -5.5q-51 -4 -59 2q-23 12 0 27q6 4 59 0q29 0 50 -4q0 33 -3 98q-98 -2 -143 -2h-74q2 -27 2 -66l2 -34 q8 -12 -8 -15.5t-63 -5.5q-53 -4 -62 2q-23 12 0 27q8 4 62 0q29 0 49 -4q0 -10 -4 96q-100 0 -160 4q-8 2 -16 14q14 102 20 138q16 78 39 133q-35 -16 -100 -43q-4 -10 -13 -33q-2 -6 -10 -4q-6 4 -6 10q2 8 8 21q-8 -6 -28 -23q-8 -6 -13 0q-6 4 0 12q10 12 37 29l-35 6 q-6 0 -6 8t6 11q25 2 52 -17q63 33 118 45q16 29 35 53q-66 55 -57 144q2 27 12 55q-27 4 -88 35q-68 33 -70 51q-37 33 -18 94zM23 872q-27 -59 14 -88q16 -10 33 -10q41 0 61 49q12 27 12 60q0 27 -26 49q-70 -6 -94 -60zM39 856q0 16 14 16q12 2 17 -12q3 -14 -9 -20 q-23 -10 -22 16zM74 756q55 -35 108 -49v2q6 6 11 4q6 -4 9 -8.5t8 -5.5t5 -7t-6 -6h-16q-8 -27 -13 -51q-6 -92 70 -141q68 -43 160 -35q88 8 143 61t57 139q2 123 -92 197l-2 -2q-6 -4 -10 0q-4 6 0 10v2q-16 10 -37 21q-4 -6 -10 -4t-6 12q-20 10 -47 18v-2q-8 0 -13 7 q-14 4 -26 6q-6 -18 -17 -4l-4 8l-10 2q-8 2 -19.5 3t-21.5 3q-72 6 -154 0q35 -33 11 -111q-20 -68 -78 -69zM88 854q0 14 14 16q12 0 17 -12q4 -14 -8 -20q-23 -10 -23 16zM211 866q-4 25 11.5 42.5t39.5 15.5q45 -5 45 -52q0 -35 -31 -45q-20 -6 -40.5 6.5t-24.5 32.5z M225 633q6 4 15 2q12 -63 77 -66q61 0 89 54q4 6 12 2q8 -3 4 -11q-18 -61 -94 -61q-96 0 -103 80zM229 870q2 -14 17.5 -21t27.5 -1q19 6 17 31q-6 35 -35 26q-31 -8 -27 -35zM252 864q-4 8 0 17q4 8 14 8q11 0 15 -8q8 -23 -15 -23q-10 0 -14 6zM328 850q2 29 19.5 41 t37.5 4q49 -21 39 -66q-10 -47 -59 -36q-41 10 -37 57zM346 852q-10 -37 27 -43q31 -6 37 27q2 20 -19 36q-14 10 -29 5q-12 -6 -16 -25zM352 999q-4 -25 8 -57q20 -4 39 -8q17 43 17 74q0 12 -4 22t-15 12h-3h-3h-2q-4 0 -6 -1l-4 -2t-4 -3q-16 -12 -23 -37zM369 834 q-4 6 0 14t14 8t12 -8q10 -20 -14 -23q-8 0 -12 9zM455 657q-31 49 7 85t77 20q16 -9 24 -27q16 -39 -6 -76.5t-61 -31.5q-25 2 -41 30zM473 905q25 -10 45 -26q33 38 37 69t-14 39q-8 4 -19 2q-10 -2 -20 -14q-23 -20 -29 -70zM709 252l8 -8q10 4 12 12q2 16 -10 16 q-8 -4 -10 -20z" />
<glyph unicode="&#xf0;" d="M84 868q12 37 46 62.5t71 21.5q2 0 2 -2q127 12 221 -2q-8 25 -6 47q6 66 59 66q25 0 36 -20.5t7 -49.5q-4 -31 -20 -61l12 -4l10 -4q2 -2 10 -4q2 0 7 -3q16 96 77 95q29 -2 39 -29q18 -49 -39 -113q98 -82 99 -211q0 -90 -58 -149q25 -29 48 -72q55 -10 120 -45 q27 18 52 17q6 -2 6 -11q0 -8 -8.5 -9t-32.5 -5q27 -17 39 -29q4 -8 0 -12q-6 -6 -15 0q-8 6 -28 23q6 -10 8 -21q0 -6 -6 -10q-8 -2 -11 4q-4 16 -12 33q-16 8 -49 22l-4 2q-18 6 -51 21q31 -68 47 -176q12 -4 22 -2q-23 33 6 51q8 6 17 6q29 0 29 -35q0 -14 -15 -24 q25 -6 35 16q4 8 12 6q10 -4 6 -14q-14 -29 -45 -29q-16 0 -30 8q-16 -4 -33 0q2 -25 10 -80q-4 -8 -16 -14q-53 0 -119 -2q2 -31 2 -86l2 -16q8 -12 -8.5 -15.5t-63.5 -5.5q-53 -4 -61 2q-23 12 0 27q8 4 61 0q29 0 50 -4q-2 33 -5 98q-96 -2 -143 -2h-72q2 -27 2 -66v-34 q10 -12 -6 -15.5t-65 -5.5q-51 -4 -60 2q-23 12 0 27q6 4 60 0q29 0 49 -4q0 -10 -2 96q-100 0 -162 4q-8 2 -14 14q14 102 20 138q14 78 39 133q-35 -16 -102 -43q-2 -10 -10 -33q-4 -6 -11 -4q-8 4 -6 10q2 8 6 21q-6 -6 -28 -23q-6 -6 -13 0q-6 4 0 12q10 12 37 29l-33 6 q-6 0 -6 8t6 11q25 2 52 -17q63 33 118 45q14 29 33 53q-63 55 -57 144q4 27 12 55q-27 4 -86 35q-68 33 -70 51q-39 33 -20 94zM109 872q-29 -59 14 -88q14 -10 31 -10q41 0 61 49q12 27 12 60q0 27 -26 49q-68 -6 -92 -60zM125 856q0 16 12 16q12 2 17 -12q3 -14 -7 -20 q-23 -10 -22 16zM158 756q57 -35 108 -49q2 2 4 5t9 1q6 -4 4 -11q6 -2 12 -3t6 -7q-2 -6 -8 -6h-17q-8 -27 -10 -51q-8 -92 70 -141q68 -43 160 -35q88 8 142 61t56 139q4 123 -90 197q-2 0 -4 -2q-4 -4 -10 0q-4 6 0 10l2 2q-18 10 -37 21q-4 -6 -10 -4q-8 2 -8 12 q-20 10 -45 18v-2q-8 0 -15 7q-12 4 -26 6q-6 -18 -17 -4l-4 8l-8 2h-2q-6 2 -17.5 3t-21.5 3q-74 6 -156 0q35 -33 13 -111q-20 -68 -80 -69zM174 854q0 14 12 16q12 0 17 -12q4 -14 -6 -20q-23 -10 -23 16zM295 866q-4 25 12.5 42.5t38.5 15.5q47 -5 47 -52q0 -35 -31 -45 q-23 -6 -43 6.5t-24 32.5zM311 633q6 4 15 2q10 -63 77 -66q59 0 89 54q4 6 10 2q8 -3 6 -11q-18 -61 -94 -61q-96 0 -103 80zM313 870q2 -14 17.5 -21t29.5 -1q19 6 15 31q-4 35 -35 26q-29 -8 -27 -35zM338 864q-4 8 0 17q4 8 14 8q11 0 13 -8q10 -23 -15 -23q-8 0 -12 6z M412 850q2 29 22 41q14 12 35 4q51 -21 41 -66q-10 -47 -59 -36q-41 10 -39 57zM430 852q-8 -37 27 -43q33 -6 37 27q4 20 -19 36q-12 10 -29 5q-12 -6 -16 -25zM438 999q-4 -25 8 -57q20 -4 37 -8q19 43 19 74q0 12 -4 22t-15 12h-3h-3h-2q-4 0 -6 -1l-4 -2t-4 -3 q-18 -12 -23 -37zM453 834q-4 6 1 14t13 8q10 0 14 -8q8 -20 -14 -23q-10 0 -14 9zM539 657q-29 49 9 85t75 20q18 -9 26 -27q16 -39 -6 -76.5t-63 -31.5q-25 2 -41 30zM559 905q23 -10 43 -26q33 38 39 69q4 31 -14 39q-8 4 -19 2q-10 -2 -22 -14q-20 -20 -27 -70zM795 252 q2 -4 8 -8q10 4 10 12q2 16 -10 16q-6 -4 -8 -20z" />
<glyph unicode="&#xf1;" d="M84 868q12 37 46 62.5t71 21.5q2 0 2 -2q127 12 221 -2q-8 25 -6 47q6 66 59 66q25 0 36 -20.5t7 -49.5q-4 -31 -20 -61l12 -4l10 -4q2 -2 10 -4q2 0 7 -3q16 96 77 95q29 -2 39 -29q18 -49 -39 -113q98 -82 99 -211q0 -90 -58 -149q25 -29 48 -72q55 -10 120 -45 q27 18 52 17q6 -2 6 -11q0 -8 -8.5 -9t-32.5 -5q27 -17 39 -29q4 -8 0 -12q-6 -6 -15 0q-8 6 -28 23q6 -10 8 -21q0 -6 -6 -10q-8 -2 -11 4q-4 16 -12 33q-16 8 -49 22l-4 2q-18 6 -51 21q31 -68 47 -176q12 -4 22 -2q-23 33 6 51q8 6 17 6q29 0 29 -35q0 -14 -15 -24 q25 -6 35 16q4 8 12 6q10 -4 6 -14q-14 -29 -45 -29q-16 0 -30 8q-16 -4 -33 0q2 -25 10 -80q-4 -8 -16 -14q-53 0 -119 -2q2 -31 2 -86l2 -16q8 -12 -8.5 -15.5t-63.5 -5.5q-53 -4 -61 2q-23 12 0 27q8 4 61 0q29 0 50 -4q-2 33 -5 98q-96 -2 -143 -2h-72q2 -27 2 -66v-34 q10 -12 -6 -15.5t-65 -5.5q-51 -4 -60 2q-23 12 0 27q6 4 60 0q29 0 49 -4q0 -10 -2 96q-100 0 -162 4q-8 2 -14 14q14 102 20 138q14 78 39 133q-35 -16 -102 -43q-2 -10 -10 -33q-4 -6 -11 -4q-8 4 -6 10q2 8 6 21q-6 -6 -28 -23q-6 -6 -13 0q-6 4 0 12q10 12 37 29l-33 6 q-6 0 -6 8t6 11q25 2 52 -17q63 33 118 45q14 29 33 53q-63 55 -57 144q4 27 12 55q-27 4 -86 35q-68 33 -70 51q-39 33 -20 94zM109 872q-29 -59 14 -88q14 -10 31 -10q41 0 61 49q12 27 12 60q0 27 -26 49q-68 -6 -92 -60zM125 856q0 16 12 16q12 2 17 -12q3 -14 -7 -20 q-23 -10 -22 16zM158 756q57 -35 108 -49q2 2 4 5t9 1q6 -4 4 -11q6 -2 12 -3t6 -7q-2 -6 -8 -6h-17q-8 -27 -10 -51q-8 -92 70 -141q68 -43 160 -35q88 8 142 61t56 139q4 123 -90 197q-2 0 -4 -2q-4 -4 -10 0q-4 6 0 10l2 2q-18 10 -37 21q-4 -6 -10 -4q-8 2 -8 12 q-20 10 -45 18v-2q-8 0 -15 7q-12 4 -26 6q-6 -18 -17 -4l-4 8l-8 2h-2q-6 2 -17.5 3t-21.5 3q-74 6 -156 0q35 -33 13 -111q-20 -68 -80 -69zM174 854q0 14 12 16q12 0 17 -12q4 -14 -6 -20q-23 -10 -23 16zM295 866q-4 25 12.5 42.5t38.5 15.5q47 -5 47 -52q0 -35 -31 -45 q-23 -6 -43 6.5t-24 32.5zM311 633q6 4 15 2q10 -63 77 -66q59 0 89 54q4 6 10 2q8 -3 6 -11q-18 -61 -94 -61q-96 0 -103 80zM313 870q2 -14 17.5 -21t29.5 -1q19 6 15 31q-4 35 -35 26q-29 -8 -27 -35zM338 864q-4 8 0 17q4 8 14 8q11 0 13 -8q10 -23 -15 -23q-8 0 -12 6z M412 850q2 29 22 41q14 12 35 4q51 -21 41 -66q-10 -47 -59 -36q-41 10 -39 57zM430 852q-8 -37 27 -43q33 -6 37 27q4 20 -19 36q-12 10 -29 5q-12 -6 -16 -25zM438 999q-4 -25 8 -57q20 -4 37 -8q19 43 19 74q0 12 -4 22t-15 12h-3h-3h-2q-4 0 -6 -1l-4 -2t-4 -3 q-18 -12 -23 -37zM453 834q-4 6 1 14t13 8q10 0 14 -8q8 -20 -14 -23q-10 0 -14 9zM539 657q-29 49 9 85t75 20q18 -9 26 -27q16 -39 -6 -76.5t-63 -31.5q-25 2 -41 30zM559 905q23 -10 43 -26q33 38 39 69q4 31 -14 39q-8 4 -19 2q-10 -2 -22 -14q-20 -20 -27 -70zM795 252 q2 -4 8 -8q10 4 10 12q2 16 -10 16q-6 -4 -8 -20z" />
<glyph unicode="&#xf2;" horiz-adv-x="946" d="M94 340q0 82 45 145q41 97 109 152q102 88 270 88q121 0 220.5 -53.5t135.5 -153.5q20 -59 21 -121q0 -168 -134 -298t-304 -130q-35 0 -68 6q-117 23 -206 132.5t-89 232.5zM235 1241q0 -33 37 -80q84 -105 145 -162q78 -70 142 -69q47 -2 47 37q0 57 -96 190 q-68 92 -113 138t-74 46q-43 0 -82 -71q-6 -14 -6 -29zM246 281q0 -45 24 -84q64 -101 166 -101q61 0 134 36t118 104.5t45 138.5q0 68 -43 112q-49 47 -135 48q-29 0 -59 -7q-92 -14 -168 -88q-82 -76 -82 -159z" />
<glyph unicode="&#xf3;" horiz-adv-x="946" d="M94 340q0 82 45 145q41 97 109 152q102 88 270 88q121 0 220.5 -53.5t135.5 -153.5q20 -59 21 -121q0 -168 -134 -298t-304 -130q-35 0 -68 6q-117 23 -206 132.5t-89 232.5zM246 281q0 -45 24 -84q64 -101 166 -101q61 0 134 36t118 104.5t45 138.5q0 68 -43 112 q-49 47 -135 48q-29 0 -59 -7q-92 -14 -168 -88q-82 -76 -82 -159zM323 967q0 57 97 190q68 92 112.5 138t73.5 46q41 0 82 -71q6 -14 6 -29q0 -33 -37 -80q-84 -105 -145 -162q-78 -70 -144 -69q-45 -2 -45 37z" />
<glyph unicode="&#xf4;" horiz-adv-x="989" d="M94 340q0 82 45 145q41 97 109 152q102 88 270 88q121 0 220.5 -53.5t135.5 -153.5q20 -59 21 -121q0 -168 -134 -298t-304 -130q-35 0 -68 6q-117 23 -206 132.5t-89 232.5zM238 952q0 -51 53 -43q29 6 72 60q31 39 60.5 77.5t62.5 88.5q37 -59 72 -103q29 -39 55 -80 q41 -53 71 -57q51 -10 52 43q0 61 -72 199q-51 96 -86 145q-51 74 -98 74q-41 0 -82 -58q-37 -49 -88 -147q-72 -137 -72 -199zM246 281q0 -45 24 -84q64 -101 166 -101q61 0 134 36t118 104.5t45 138.5q0 68 -43 112q-49 47 -135 48q-29 0 -59 -7q-92 -14 -168 -88 q-82 -76 -82 -159z" />
<glyph unicode="&#xf5;" horiz-adv-x="946" d="M94 340q0 82 45 145q41 97 109 152q102 88 270 88q121 0 220.5 -53.5t135.5 -153.5q20 -59 21 -121q0 -168 -134 -298t-304 -130q-35 0 -68 6q-117 23 -206 132.5t-89 232.5zM202 917q0 -41 52 -41q31 2 72.5 53.5t80.5 51.5q47 0 125 -39t117 -39q55 0 103 53t48 121 q0 63 -51 63q-27 0 -57 -49q-37 -55 -54.5 -64.5t-35.5 -9.5q-31 0 -76 31q-66 43 -70 47q-59 27 -96 27q-61 0 -111 -88q-47 -80 -47 -117zM246 281q0 -45 24 -84q64 -101 166 -101q61 0 134 36t118 104.5t45 138.5q0 68 -43 112q-49 47 -135 48q-29 0 -59 -7 q-92 -14 -168 -88q-82 -76 -82 -159z" />
<glyph unicode="&#xf6;" horiz-adv-x="1044" d="M94 340q0 82 45 145q41 97 109 152q102 88 270 88q121 0 220.5 -53.5t135.5 -153.5q20 -59 21 -121q0 -168 -134 -298t-304 -130q-35 0 -68 6q-117 23 -206 132.5t-89 232.5zM148 996q18 92 104 92q47 0 93 -33t46 -78q0 -59 -84 -98q-27 -10 -49 -10q-53 0 -88 37.5 t-22 89.5zM246 281q0 -45 24 -84q64 -101 166 -101q61 0 134 36t118 104.5t45 138.5q0 68 -43 112q-49 47 -135 48q-29 0 -59 -7q-92 -14 -168 -88q-82 -76 -82 -159zM645 996q18 92 105 92q47 0 93 -33t46 -78q0 -59 -84 -98q-27 -10 -49 -10q-53 0 -88 37.5t-23 89.5z" />
<glyph unicode="&#xf7;" d="M84 868q12 37 46 62.5t71 21.5q2 0 2 -2q127 12 221 -2q-8 25 -6 47q6 66 59 66q25 0 36 -20.5t7 -49.5q-4 -31 -20 -61l12 -4l10 -4q2 -2 10 -4q2 0 7 -3q16 96 77 95q29 -2 39 -29q18 -49 -39 -113q98 -82 99 -211q0 -90 -58 -149q25 -29 48 -72q55 -10 120 -45 q27 18 52 17q6 -2 6 -11q0 -8 -8.5 -9t-32.5 -5q27 -17 39 -29q4 -8 0 -12q-6 -6 -15 0q-8 6 -28 23q6 -10 8 -21q0 -6 -6 -10q-8 -2 -11 4q-4 16 -12 33q-16 8 -49 22l-4 2q-18 6 -51 21q31 -68 47 -176q12 -4 22 -2q-23 33 6 51q8 6 17 6q29 0 29 -35q0 -14 -15 -24 q25 -6 35 16q4 8 12 6q10 -4 6 -14q-14 -29 -45 -29q-16 0 -30 8q-16 -4 -33 0q2 -25 10 -80q-4 -8 -16 -14q-53 0 -119 -2q2 -31 2 -86l2 -16q8 -12 -8.5 -15.5t-63.5 -5.5q-53 -4 -61 2q-23 12 0 27q8 4 61 0q29 0 50 -4q-2 33 -5 98q-96 -2 -143 -2h-72q2 -27 2 -66v-34 q10 -12 -6 -15.5t-65 -5.5q-51 -4 -60 2q-23 12 0 27q6 4 60 0q29 0 49 -4q0 -10 -2 96q-100 0 -162 4q-8 2 -14 14q14 102 20 138q14 78 39 133q-35 -16 -102 -43q-2 -10 -10 -33q-4 -6 -11 -4q-8 4 -6 10q2 8 6 21q-6 -6 -28 -23q-6 -6 -13 0q-6 4 0 12q10 12 37 29l-33 6 q-6 0 -6 8t6 11q25 2 52 -17q63 33 118 45q14 29 33 53q-63 55 -57 144q4 27 12 55q-27 4 -86 35q-68 33 -70 51q-39 33 -20 94zM109 872q-29 -59 14 -88q14 -10 31 -10q41 0 61 49q12 27 12 60q0 27 -26 49q-68 -6 -92 -60zM125 856q0 16 12 16q12 2 17 -12q3 -14 -7 -20 q-23 -10 -22 16zM158 756q57 -35 108 -49q2 2 4 5t9 1q6 -4 4 -11q6 -2 12 -3t6 -7q-2 -6 -8 -6h-17q-8 -27 -10 -51q-8 -92 70 -141q68 -43 160 -35q88 8 142 61t56 139q4 123 -90 197q-2 0 -4 -2q-4 -4 -10 0q-4 6 0 10l2 2q-18 10 -37 21q-4 -6 -10 -4q-8 2 -8 12 q-20 10 -45 18v-2q-8 0 -15 7q-12 4 -26 6q-6 -18 -17 -4l-4 8l-8 2h-2q-6 2 -17.5 3t-21.5 3q-74 6 -156 0q35 -33 13 -111q-20 -68 -80 -69zM174 854q0 14 12 16q12 0 17 -12q4 -14 -6 -20q-23 -10 -23 16zM295 866q-4 25 12.5 42.5t38.5 15.5q47 -5 47 -52q0 -35 -31 -45 q-23 -6 -43 6.5t-24 32.5zM311 633q6 4 15 2q10 -63 77 -66q59 0 89 54q4 6 10 2q8 -3 6 -11q-18 -61 -94 -61q-96 0 -103 80zM313 870q2 -14 17.5 -21t29.5 -1q19 6 15 31q-4 35 -35 26q-29 -8 -27 -35zM338 864q-4 8 0 17q4 8 14 8q11 0 13 -8q10 -23 -15 -23q-8 0 -12 6z M412 850q2 29 22 41q14 12 35 4q51 -21 41 -66q-10 -47 -59 -36q-41 10 -39 57zM430 852q-8 -37 27 -43q33 -6 37 27q4 20 -19 36q-12 10 -29 5q-12 -6 -16 -25zM438 999q-4 -25 8 -57q20 -4 37 -8q19 43 19 74q0 12 -4 22t-15 12h-3h-3h-2q-4 0 -6 -1l-4 -2t-4 -3 q-18 -12 -23 -37zM453 834q-4 6 1 14t13 8q10 0 14 -8q8 -20 -14 -23q-10 0 -14 9zM539 657q-29 49 9 85t75 20q18 -9 26 -27q16 -39 -6 -76.5t-63 -31.5q-25 2 -41 30zM559 905q23 -10 43 -26q33 38 39 69q4 31 -14 39q-8 4 -19 2q-10 -2 -22 -14q-20 -20 -27 -70zM795 252 q2 -4 8 -8q10 4 10 12q2 16 -10 16q-6 -4 -8 -20z" />
<glyph unicode="&#xf8;" horiz-adv-x="946" d="M94 340q0 82 45 145q41 97 109 152q102 88 270 88q121 0 220.5 -53.5t135.5 -153.5q20 -59 21 -121q0 -168 -134 -298t-304 -130q-35 0 -68 6q-117 23 -206 132.5t-89 232.5zM232 -118q9 44 63 162q100 219 106 234q62 133 115 230q50 93 98 187q81 148 111 155q8 1 15 0 q29 -6 18 -67q-15 -85 -111 -289q-67 -144 -195 -393l-64 -138q-49 -93 -88 -115q-33 -17 -51 -14q-25 4 -17 48zM246 281q0 -45 24 -84q64 -101 166 -101q61 0 134 36t118 104.5t45 138.5q0 68 -43 112q-49 47 -135 48q-29 0 -59 -7q-92 -14 -168 -88q-82 -76 -82 -159z " />
<glyph unicode="&#xf9;" horiz-adv-x="851" d="M92 1241q0 -33 37 -80q84 -105 145 -162q78 -70 142 -69q47 -2 47 37q0 57 -96 190q-68 92 -113 138t-74 46q-43 0 -82 -71q-6 -14 -6 -29zM109 547q0 -35 26 -293q33 -291 236 -291q43 0 90 12q109 31 174 123q37 -90 82 -90q39 0 65 74q14 41 15 94q0 39 -37 227 q-6 27 -15 164q-5 109 -28 154l-12 24q-39 27 -66 25q-76 -6 -88 -174q-8 -154 -16 -307q-23 -164 -125 -164q-35 0 -78 16q-80 31 -80 133q0 41 12 111q14 78 17 102q4 74 -15 154q-20 100 -63 100q-29 0 -64 -47q-31 -39 -30 -147z" />
<glyph unicode="&#xfa;" horiz-adv-x="856" d="M109 547q0 -35 26 -293q33 -291 236 -291q43 0 90 12q109 31 174 123q37 -90 82 -90q39 0 65 74q14 41 15 94q0 39 -37 227q-6 27 -15 164q-5 109 -28 154l-12 24q-39 27 -66 25q-76 -6 -88 -174q-8 -154 -16 -307q-23 -164 -125 -164q-35 0 -78 16q-80 31 -80 133 q0 41 12 111q14 78 17 102q4 74 -15 154q-20 100 -63 100q-29 0 -64 -47q-31 -39 -30 -147zM262 967q0 57 97 190q68 92 112.5 138t73.5 46q41 0 82 -71q6 -14 6 -29q0 -33 -37 -80q-84 -105 -145 -162q-78 -70 -144 -69q-45 -2 -45 37z" />
<glyph unicode="&#xfb;" d="M211 547q0 -35 26 -293q33 -291 236 -291q43 0 90 12q109 31 174 123q37 -90 82 -90q39 0 65 74q14 41 15 94q0 39 -37 227q-6 27 -15 164q-5 109 -28 154l-12 24q-39 27 -66 25q-76 -6 -88 -174q-8 -154 -16 -307q-23 -164 -125 -164q-35 0 -78 16q-80 31 -80 133 q0 41 12 111q14 78 17 102q4 74 -15 154q-20 100 -63 100q-29 0 -64 -47q-31 -39 -30 -147zM278 952q0 -51 53 -43q29 6 72 60q31 39 60.5 77.5t62.5 88.5q37 -59 72 -103q29 -39 55 -80q41 -53 71 -57q51 -10 52 43q0 61 -72 199q-51 96 -86 145q-51 74 -98 74 q-41 0 -82 -58q-37 -49 -88 -147q-72 -137 -72 -199z" />
<glyph unicode="&#xfc;" horiz-adv-x="944" d="M131 1010q18 92 104 92q47 0 93 -33t46 -78q0 -59 -84 -98q-27 -10 -49 -10q-53 0 -88 37.5t-22 89.5zM191 547q0 -35 26 -293q33 -291 236 -291q43 0 90 12q109 31 174 123q37 -90 82 -90q39 0 65 74q14 41 15 94q0 39 -37 227q-6 27 -15 164q-5 109 -28 154l-12 24 q-39 27 -66 25q-76 -6 -88 -174q-8 -154 -16 -307q-23 -164 -125 -164q-35 0 -78 16q-80 31 -80 133q0 41 12 111q14 78 17 102q4 74 -15 154q-20 100 -63 100q-29 0 -64 -47q-31 -39 -30 -147zM628 1010q18 92 105 92q47 0 93 -33t46 -78q0 -59 -84 -98q-27 -10 -49 -10 q-53 0 -88 37.5t-23 89.5z" />
<glyph unicode="&#xfd;" d="M84 868q12 37 46 62.5t71 21.5q2 0 2 -2q127 12 221 -2q-8 25 -6 47q6 66 59 66q25 0 36 -20.5t7 -49.5q-4 -31 -20 -61l12 -4l10 -4q2 -2 10 -4q2 0 7 -3q16 96 77 95q29 -2 39 -29q18 -49 -39 -113q98 -82 99 -211q0 -90 -58 -149q25 -29 48 -72q55 -10 120 -45 q27 18 52 17q6 -2 6 -11q0 -8 -8.5 -9t-32.5 -5q27 -17 39 -29q4 -8 0 -12q-6 -6 -15 0q-8 6 -28 23q6 -10 8 -21q0 -6 -6 -10q-8 -2 -11 4q-4 16 -12 33q-16 8 -49 22l-4 2q-18 6 -51 21q31 -68 47 -176q12 -4 22 -2q-23 33 6 51q8 6 17 6q29 0 29 -35q0 -14 -15 -24 q25 -6 35 16q4 8 12 6q10 -4 6 -14q-14 -29 -45 -29q-16 0 -30 8q-16 -4 -33 0q2 -25 10 -80q-4 -8 -16 -14q-53 0 -119 -2q2 -31 2 -86l2 -16q8 -12 -8.5 -15.5t-63.5 -5.5q-53 -4 -61 2q-23 12 0 27q8 4 61 0q29 0 50 -4q-2 33 -5 98q-96 -2 -143 -2h-72q2 -27 2 -66v-34 q10 -12 -6 -15.5t-65 -5.5q-51 -4 -60 2q-23 12 0 27q6 4 60 0q29 0 49 -4q0 -10 -2 96q-100 0 -162 4q-8 2 -14 14q14 102 20 138q14 78 39 133q-35 -16 -102 -43q-2 -10 -10 -33q-4 -6 -11 -4q-8 4 -6 10q2 8 6 21q-6 -6 -28 -23q-6 -6 -13 0q-6 4 0 12q10 12 37 29l-33 6 q-6 0 -6 8t6 11q25 2 52 -17q63 33 118 45q14 29 33 53q-63 55 -57 144q4 27 12 55q-27 4 -86 35q-68 33 -70 51q-39 33 -20 94zM109 872q-29 -59 14 -88q14 -10 31 -10q41 0 61 49q12 27 12 60q0 27 -26 49q-68 -6 -92 -60zM125 856q0 16 12 16q12 2 17 -12q3 -14 -7 -20 q-23 -10 -22 16zM158 756q57 -35 108 -49q2 2 4 5t9 1q6 -4 4 -11q6 -2 12 -3t6 -7q-2 -6 -8 -6h-17q-8 -27 -10 -51q-8 -92 70 -141q68 -43 160 -35q88 8 142 61t56 139q4 123 -90 197q-2 0 -4 -2q-4 -4 -10 0q-4 6 0 10l2 2q-18 10 -37 21q-4 -6 -10 -4q-8 2 -8 12 q-20 10 -45 18v-2q-8 0 -15 7q-12 4 -26 6q-6 -18 -17 -4l-4 8l-8 2h-2q-6 2 -17.5 3t-21.5 3q-74 6 -156 0q35 -33 13 -111q-20 -68 -80 -69zM174 854q0 14 12 16q12 0 17 -12q4 -14 -6 -20q-23 -10 -23 16zM295 866q-4 25 12.5 42.5t38.5 15.5q47 -5 47 -52q0 -35 -31 -45 q-23 -6 -43 6.5t-24 32.5zM311 633q6 4 15 2q10 -63 77 -66q59 0 89 54q4 6 10 2q8 -3 6 -11q-18 -61 -94 -61q-96 0 -103 80zM313 870q2 -14 17.5 -21t29.5 -1q19 6 15 31q-4 35 -35 26q-29 -8 -27 -35zM338 864q-4 8 0 17q4 8 14 8q11 0 13 -8q10 -23 -15 -23q-8 0 -12 6z M412 850q2 29 22 41q14 12 35 4q51 -21 41 -66q-10 -47 -59 -36q-41 10 -39 57zM430 852q-8 -37 27 -43q33 -6 37 27q4 20 -19 36q-12 10 -29 5q-12 -6 -16 -25zM438 999q-4 -25 8 -57q20 -4 37 -8q19 43 19 74q0 12 -4 22t-15 12h-3h-3h-2q-4 0 -6 -1l-4 -2t-4 -3 q-18 -12 -23 -37zM453 834q-4 6 1 14t13 8q10 0 14 -8q8 -20 -14 -23q-10 0 -14 9zM539 657q-29 49 9 85t75 20q18 -9 26 -27q16 -39 -6 -76.5t-63 -31.5q-25 2 -41 30zM559 905q23 -10 43 -26q33 38 39 69q4 31 -14 39q-8 4 -19 2q-10 -2 -22 -14q-20 -20 -27 -70zM795 252 q2 -4 8 -8q10 4 10 12q2 16 -10 16q-6 -4 -8 -20z" />
<glyph unicode="&#xfe;" d="M84 868q12 37 46 62.5t71 21.5q2 0 2 -2q127 12 221 -2q-8 25 -6 47q6 66 59 66q25 0 36 -20.5t7 -49.5q-4 -31 -20 -61l12 -4l10 -4q2 -2 10 -4q2 0 7 -3q16 96 77 95q29 -2 39 -29q18 -49 -39 -113q98 -82 99 -211q0 -90 -58 -149q25 -29 48 -72q55 -10 120 -45 q27 18 52 17q6 -2 6 -11q0 -8 -8.5 -9t-32.5 -5q27 -17 39 -29q4 -8 0 -12q-6 -6 -15 0q-8 6 -28 23q6 -10 8 -21q0 -6 -6 -10q-8 -2 -11 4q-4 16 -12 33q-16 8 -49 22l-4 2q-18 6 -51 21q31 -68 47 -176q12 -4 22 -2q-23 33 6 51q8 6 17 6q29 0 29 -35q0 -14 -15 -24 q25 -6 35 16q4 8 12 6q10 -4 6 -14q-14 -29 -45 -29q-16 0 -30 8q-16 -4 -33 0q2 -25 10 -80q-4 -8 -16 -14q-53 0 -119 -2q2 -31 2 -86l2 -16q8 -12 -8.5 -15.5t-63.5 -5.5q-53 -4 -61 2q-23 12 0 27q8 4 61 0q29 0 50 -4q-2 33 -5 98q-96 -2 -143 -2h-72q2 -27 2 -66v-34 q10 -12 -6 -15.5t-65 -5.5q-51 -4 -60 2q-23 12 0 27q6 4 60 0q29 0 49 -4q0 -10 -2 96q-100 0 -162 4q-8 2 -14 14q14 102 20 138q14 78 39 133q-35 -16 -102 -43q-2 -10 -10 -33q-4 -6 -11 -4q-8 4 -6 10q2 8 6 21q-6 -6 -28 -23q-6 -6 -13 0q-6 4 0 12q10 12 37 29l-33 6 q-6 0 -6 8t6 11q25 2 52 -17q63 33 118 45q14 29 33 53q-63 55 -57 144q4 27 12 55q-27 4 -86 35q-68 33 -70 51q-39 33 -20 94zM109 872q-29 -59 14 -88q14 -10 31 -10q41 0 61 49q12 27 12 60q0 27 -26 49q-68 -6 -92 -60zM125 856q0 16 12 16q12 2 17 -12q3 -14 -7 -20 q-23 -10 -22 16zM158 756q57 -35 108 -49q2 2 4 5t9 1q6 -4 4 -11q6 -2 12 -3t6 -7q-2 -6 -8 -6h-17q-8 -27 -10 -51q-8 -92 70 -141q68 -43 160 -35q88 8 142 61t56 139q4 123 -90 197q-2 0 -4 -2q-4 -4 -10 0q-4 6 0 10l2 2q-18 10 -37 21q-4 -6 -10 -4q-8 2 -8 12 q-20 10 -45 18v-2q-8 0 -15 7q-12 4 -26 6q-6 -18 -17 -4l-4 8l-8 2h-2q-6 2 -17.5 3t-21.5 3q-74 6 -156 0q35 -33 13 -111q-20 -68 -80 -69zM174 854q0 14 12 16q12 0 17 -12q4 -14 -6 -20q-23 -10 -23 16zM295 866q-4 25 12.5 42.5t38.5 15.5q47 -5 47 -52q0 -35 -31 -45 q-23 -6 -43 6.5t-24 32.5zM311 633q6 4 15 2q10 -63 77 -66q59 0 89 54q4 6 10 2q8 -3 6 -11q-18 -61 -94 -61q-96 0 -103 80zM313 870q2 -14 17.5 -21t29.5 -1q19 6 15 31q-4 35 -35 26q-29 -8 -27 -35zM338 864q-4 8 0 17q4 8 14 8q11 0 13 -8q10 -23 -15 -23q-8 0 -12 6z M412 850q2 29 22 41q14 12 35 4q51 -21 41 -66q-10 -47 -59 -36q-41 10 -39 57zM430 852q-8 -37 27 -43q33 -6 37 27q4 20 -19 36q-12 10 -29 5q-12 -6 -16 -25zM438 999q-4 -25 8 -57q20 -4 37 -8q19 43 19 74q0 12 -4 22t-15 12h-3h-3h-2q-4 0 -6 -1l-4 -2t-4 -3 q-18 -12 -23 -37zM453 834q-4 6 1 14t13 8q10 0 14 -8q8 -20 -14 -23q-10 0 -14 9zM539 657q-29 49 9 85t75 20q18 -9 26 -27q16 -39 -6 -76.5t-63 -31.5q-25 2 -41 30zM559 905q23 -10 43 -26q33 38 39 69q4 31 -14 39q-8 4 -19 2q-10 -2 -22 -14q-20 -20 -27 -70zM795 252 q2 -4 8 -8q10 4 10 12q2 16 -10 16q-6 -4 -8 -20z" />
<glyph unicode="&#xff;" d="M84 868q12 37 46 62.5t71 21.5q2 0 2 -2q127 12 221 -2q-8 25 -6 47q6 66 59 66q25 0 36 -20.5t7 -49.5q-4 -31 -20 -61l12 -4l10 -4q2 -2 10 -4q2 0 7 -3q16 96 77 95q29 -2 39 -29q18 -49 -39 -113q98 -82 99 -211q0 -90 -58 -149q25 -29 48 -72q55 -10 120 -45 q27 18 52 17q6 -2 6 -11q0 -8 -8.5 -9t-32.5 -5q27 -17 39 -29q4 -8 0 -12q-6 -6 -15 0q-8 6 -28 23q6 -10 8 -21q0 -6 -6 -10q-8 -2 -11 4q-4 16 -12 33q-16 8 -49 22l-4 2q-18 6 -51 21q31 -68 47 -176q12 -4 22 -2q-23 33 6 51q8 6 17 6q29 0 29 -35q0 -14 -15 -24 q25 -6 35 16q4 8 12 6q10 -4 6 -14q-14 -29 -45 -29q-16 0 -30 8q-16 -4 -33 0q2 -25 10 -80q-4 -8 -16 -14q-53 0 -119 -2q2 -31 2 -86l2 -16q8 -12 -8.5 -15.5t-63.5 -5.5q-53 -4 -61 2q-23 12 0 27q8 4 61 0q29 0 50 -4q-2 33 -5 98q-96 -2 -143 -2h-72q2 -27 2 -66v-34 q10 -12 -6 -15.5t-65 -5.5q-51 -4 -60 2q-23 12 0 27q6 4 60 0q29 0 49 -4q0 -10 -2 96q-100 0 -162 4q-8 2 -14 14q14 102 20 138q14 78 39 133q-35 -16 -102 -43q-2 -10 -10 -33q-4 -6 -11 -4q-8 4 -6 10q2 8 6 21q-6 -6 -28 -23q-6 -6 -13 0q-6 4 0 12q10 12 37 29l-33 6 q-6 0 -6 8t6 11q25 2 52 -17q63 33 118 45q14 29 33 53q-63 55 -57 144q4 27 12 55q-27 4 -86 35q-68 33 -70 51q-39 33 -20 94zM109 872q-29 -59 14 -88q14 -10 31 -10q41 0 61 49q12 27 12 60q0 27 -26 49q-68 -6 -92 -60zM125 856q0 16 12 16q12 2 17 -12q3 -14 -7 -20 q-23 -10 -22 16zM158 756q57 -35 108 -49q2 2 4 5t9 1q6 -4 4 -11q6 -2 12 -3t6 -7q-2 -6 -8 -6h-17q-8 -27 -10 -51q-8 -92 70 -141q68 -43 160 -35q88 8 142 61t56 139q4 123 -90 197q-2 0 -4 -2q-4 -4 -10 0q-4 6 0 10l2 2q-18 10 -37 21q-4 -6 -10 -4q-8 2 -8 12 q-20 10 -45 18v-2q-8 0 -15 7q-12 4 -26 6q-6 -18 -17 -4l-4 8l-8 2h-2q-6 2 -17.5 3t-21.5 3q-74 6 -156 0q35 -33 13 -111q-20 -68 -80 -69zM174 854q0 14 12 16q12 0 17 -12q4 -14 -6 -20q-23 -10 -23 16zM295 866q-4 25 12.5 42.5t38.5 15.5q47 -5 47 -52q0 -35 -31 -45 q-23 -6 -43 6.5t-24 32.5zM311 633q6 4 15 2q10 -63 77 -66q59 0 89 54q4 6 10 2q8 -3 6 -11q-18 -61 -94 -61q-96 0 -103 80zM313 870q2 -14 17.5 -21t29.5 -1q19 6 15 31q-4 35 -35 26q-29 -8 -27 -35zM338 864q-4 8 0 17q4 8 14 8q11 0 13 -8q10 -23 -15 -23q-8 0 -12 6z M412 850q2 29 22 41q14 12 35 4q51 -21 41 -66q-10 -47 -59 -36q-41 10 -39 57zM430 852q-8 -37 27 -43q33 -6 37 27q4 20 -19 36q-12 10 -29 5q-12 -6 -16 -25zM438 999q-4 -25 8 -57q20 -4 37 -8q19 43 19 74q0 12 -4 22t-15 12h-3h-3h-2q-4 0 -6 -1l-4 -2t-4 -3 q-18 -12 -23 -37zM453 834q-4 6 1 14t13 8q10 0 14 -8q8 -20 -14 -23q-10 0 -14 9zM539 657q-29 49 9 85t75 20q18 -9 26 -27q16 -39 -6 -76.5t-63 -31.5q-25 2 -41 30zM559 905q23 -10 43 -26q33 38 39 69q4 31 -14 39q-8 4 -19 2q-10 -2 -22 -14q-20 -20 -27 -70zM795 252 q2 -4 8 -8q10 4 10 12q2 16 -10 16q-6 -4 -8 -20z" />
<glyph unicode="&#x2dc;" horiz-adv-x="1024" />
<glyph unicode="&#x2000;" horiz-adv-x="975" />
<glyph unicode="&#x2001;" horiz-adv-x="1950" />
<glyph unicode="&#x2002;" horiz-adv-x="975" />
<glyph unicode="&#x2003;" horiz-adv-x="1950" />
<glyph unicode="&#x2004;" horiz-adv-x="650" />
<glyph unicode="&#x2005;" horiz-adv-x="487" />
<glyph unicode="&#x2006;" horiz-adv-x="325" />
<glyph unicode="&#x2007;" horiz-adv-x="325" />
<glyph unicode="&#x2008;" horiz-adv-x="243" />
<glyph unicode="&#x2009;" horiz-adv-x="390" />
<glyph unicode="&#x200a;" horiz-adv-x="108" />
<glyph unicode="&#x2010;" horiz-adv-x="897" d="M102 395q0 -57 97 -53q122 -2 370 4q14 0 51 -4t58 -4q76 0 100 55q16 37 17 64q0 72 -133 86q-27 4 -56 4q-59 0 -178 -18.5t-178.5 -18.5t-103.5 -38t-44 -77z" />
<glyph unicode="&#x2011;" horiz-adv-x="897" d="M102 395q0 -57 97 -53q122 -2 370 4q14 0 51 -4t58 -4q76 0 100 55q16 37 17 64q0 72 -133 86q-27 4 -56 4q-59 0 -178 -18.5t-178.5 -18.5t-103.5 -38t-44 -77z" />
<glyph unicode="&#x2012;" horiz-adv-x="897" d="M102 395q0 -57 97 -53q122 -2 370 4q14 0 51 -4t58 -4q76 0 100 55q16 37 17 64q0 72 -133 86q-27 4 -56 4q-59 0 -178 -18.5t-178.5 -18.5t-103.5 -38t-44 -77z" />
<glyph unicode="&#x2013;" d="M84 868q12 37 46 62.5t71 21.5q2 0 2 -2q127 12 221 -2q-8 25 -6 47q6 66 59 66q25 0 36 -20.5t7 -49.5q-4 -31 -20 -61l12 -4l10 -4q2 -2 10 -4q2 0 7 -3q16 96 77 95q29 -2 39 -29q18 -49 -39 -113q98 -82 99 -211q0 -90 -58 -149q25 -29 48 -72q55 -10 120 -45 q27 18 52 17q6 -2 6 -11q0 -8 -8.5 -9t-32.5 -5q27 -17 39 -29q4 -8 0 -12q-6 -6 -15 0q-8 6 -28 23q6 -10 8 -21q0 -6 -6 -10q-8 -2 -11 4q-4 16 -12 33q-16 8 -49 22l-4 2q-18 6 -51 21q31 -68 47 -176q12 -4 22 -2q-23 33 6 51q8 6 17 6q29 0 29 -35q0 -14 -15 -24 q25 -6 35 16q4 8 12 6q10 -4 6 -14q-14 -29 -45 -29q-16 0 -30 8q-16 -4 -33 0q2 -25 10 -80q-4 -8 -16 -14q-53 0 -119 -2q2 -31 2 -86l2 -16q8 -12 -8.5 -15.5t-63.5 -5.5q-53 -4 -61 2q-23 12 0 27q8 4 61 0q29 0 50 -4q-2 33 -5 98q-96 -2 -143 -2h-72q2 -27 2 -66v-34 q10 -12 -6 -15.5t-65 -5.5q-51 -4 -60 2q-23 12 0 27q6 4 60 0q29 0 49 -4q0 -10 -2 96q-100 0 -162 4q-8 2 -14 14q14 102 20 138q14 78 39 133q-35 -16 -102 -43q-2 -10 -10 -33q-4 -6 -11 -4q-8 4 -6 10q2 8 6 21q-6 -6 -28 -23q-6 -6 -13 0q-6 4 0 12q10 12 37 29l-33 6 q-6 0 -6 8t6 11q25 2 52 -17q63 33 118 45q14 29 33 53q-63 55 -57 144q4 27 12 55q-27 4 -86 35q-68 33 -70 51q-39 33 -20 94zM109 872q-29 -59 14 -88q14 -10 31 -10q41 0 61 49q12 27 12 60q0 27 -26 49q-68 -6 -92 -60zM125 856q0 16 12 16q12 2 17 -12q3 -14 -7 -20 q-23 -10 -22 16zM158 756q57 -35 108 -49q2 2 4 5t9 1q6 -4 4 -11q6 -2 12 -3t6 -7q-2 -6 -8 -6h-17q-8 -27 -10 -51q-8 -92 70 -141q68 -43 160 -35q88 8 142 61t56 139q4 123 -90 197q-2 0 -4 -2q-4 -4 -10 0q-4 6 0 10l2 2q-18 10 -37 21q-4 -6 -10 -4q-8 2 -8 12 q-20 10 -45 18v-2q-8 0 -15 7q-12 4 -26 6q-6 -18 -17 -4l-4 8l-8 2h-2q-6 2 -17.5 3t-21.5 3q-74 6 -156 0q35 -33 13 -111q-20 -68 -80 -69zM174 854q0 14 12 16q12 0 17 -12q4 -14 -6 -20q-23 -10 -23 16zM295 866q-4 25 12.5 42.5t38.5 15.5q47 -5 47 -52q0 -35 -31 -45 q-23 -6 -43 6.5t-24 32.5zM311 633q6 4 15 2q10 -63 77 -66q59 0 89 54q4 6 10 2q8 -3 6 -11q-18 -61 -94 -61q-96 0 -103 80zM313 870q2 -14 17.5 -21t29.5 -1q19 6 15 31q-4 35 -35 26q-29 -8 -27 -35zM338 864q-4 8 0 17q4 8 14 8q11 0 13 -8q10 -23 -15 -23q-8 0 -12 6z M412 850q2 29 22 41q14 12 35 4q51 -21 41 -66q-10 -47 -59 -36q-41 10 -39 57zM430 852q-8 -37 27 -43q33 -6 37 27q4 20 -19 36q-12 10 -29 5q-12 -6 -16 -25zM438 999q-4 -25 8 -57q20 -4 37 -8q19 43 19 74q0 12 -4 22t-15 12h-3h-3h-2q-4 0 -6 -1l-4 -2t-4 -3 q-18 -12 -23 -37zM453 834q-4 6 1 14t13 8q10 0 14 -8q8 -20 -14 -23q-10 0 -14 9zM539 657q-29 49 9 85t75 20q18 -9 26 -27q16 -39 -6 -76.5t-63 -31.5q-25 2 -41 30zM559 905q23 -10 43 -26q33 38 39 69q4 31 -14 39q-8 4 -19 2q-10 -2 -22 -14q-20 -20 -27 -70zM795 252 q2 -4 8 -8q10 4 10 12q2 16 -10 16q-6 -4 -8 -20z" />
<glyph unicode="&#x2014;" d="M84 868q12 37 46 62.5t71 21.5q2 0 2 -2q127 12 221 -2q-8 25 -6 47q6 66 59 66q25 0 36 -20.5t7 -49.5q-4 -31 -20 -61l12 -4l10 -4q2 -2 10 -4q2 0 7 -3q16 96 77 95q29 -2 39 -29q18 -49 -39 -113q98 -82 99 -211q0 -90 -58 -149q25 -29 48 -72q55 -10 120 -45 q27 18 52 17q6 -2 6 -11q0 -8 -8.5 -9t-32.5 -5q27 -17 39 -29q4 -8 0 -12q-6 -6 -15 0q-8 6 -28 23q6 -10 8 -21q0 -6 -6 -10q-8 -2 -11 4q-4 16 -12 33q-16 8 -49 22l-4 2q-18 6 -51 21q31 -68 47 -176q12 -4 22 -2q-23 33 6 51q8 6 17 6q29 0 29 -35q0 -14 -15 -24 q25 -6 35 16q4 8 12 6q10 -4 6 -14q-14 -29 -45 -29q-16 0 -30 8q-16 -4 -33 0q2 -25 10 -80q-4 -8 -16 -14q-53 0 -119 -2q2 -31 2 -86l2 -16q8 -12 -8.5 -15.5t-63.5 -5.5q-53 -4 -61 2q-23 12 0 27q8 4 61 0q29 0 50 -4q-2 33 -5 98q-96 -2 -143 -2h-72q2 -27 2 -66v-34 q10 -12 -6 -15.5t-65 -5.5q-51 -4 -60 2q-23 12 0 27q6 4 60 0q29 0 49 -4q0 -10 -2 96q-100 0 -162 4q-8 2 -14 14q14 102 20 138q14 78 39 133q-35 -16 -102 -43q-2 -10 -10 -33q-4 -6 -11 -4q-8 4 -6 10q2 8 6 21q-6 -6 -28 -23q-6 -6 -13 0q-6 4 0 12q10 12 37 29l-33 6 q-6 0 -6 8t6 11q25 2 52 -17q63 33 118 45q14 29 33 53q-63 55 -57 144q4 27 12 55q-27 4 -86 35q-68 33 -70 51q-39 33 -20 94zM109 872q-29 -59 14 -88q14 -10 31 -10q41 0 61 49q12 27 12 60q0 27 -26 49q-68 -6 -92 -60zM125 856q0 16 12 16q12 2 17 -12q3 -14 -7 -20 q-23 -10 -22 16zM158 756q57 -35 108 -49q2 2 4 5t9 1q6 -4 4 -11q6 -2 12 -3t6 -7q-2 -6 -8 -6h-17q-8 -27 -10 -51q-8 -92 70 -141q68 -43 160 -35q88 8 142 61t56 139q4 123 -90 197q-2 0 -4 -2q-4 -4 -10 0q-4 6 0 10l2 2q-18 10 -37 21q-4 -6 -10 -4q-8 2 -8 12 q-20 10 -45 18v-2q-8 0 -15 7q-12 4 -26 6q-6 -18 -17 -4l-4 8l-8 2h-2q-6 2 -17.5 3t-21.5 3q-74 6 -156 0q35 -33 13 -111q-20 -68 -80 -69zM174 854q0 14 12 16q12 0 17 -12q4 -14 -6 -20q-23 -10 -23 16zM295 866q-4 25 12.5 42.5t38.5 15.5q47 -5 47 -52q0 -35 -31 -45 q-23 -6 -43 6.5t-24 32.5zM311 633q6 4 15 2q10 -63 77 -66q59 0 89 54q4 6 10 2q8 -3 6 -11q-18 -61 -94 -61q-96 0 -103 80zM313 870q2 -14 17.5 -21t29.5 -1q19 6 15 31q-4 35 -35 26q-29 -8 -27 -35zM338 864q-4 8 0 17q4 8 14 8q11 0 13 -8q10 -23 -15 -23q-8 0 -12 6z M412 850q2 29 22 41q14 12 35 4q51 -21 41 -66q-10 -47 -59 -36q-41 10 -39 57zM430 852q-8 -37 27 -43q33 -6 37 27q4 20 -19 36q-12 10 -29 5q-12 -6 -16 -25zM438 999q-4 -25 8 -57q20 -4 37 -8q19 43 19 74q0 12 -4 22t-15 12h-3h-3h-2q-4 0 -6 -1l-4 -2t-4 -3 q-18 -12 -23 -37zM453 834q-4 6 1 14t13 8q10 0 14 -8q8 -20 -14 -23q-10 0 -14 9zM539 657q-29 49 9 85t75 20q18 -9 26 -27q16 -39 -6 -76.5t-63 -31.5q-25 2 -41 30zM559 905q23 -10 43 -26q33 38 39 69q4 31 -14 39q-8 4 -19 2q-10 -2 -22 -14q-20 -20 -27 -70zM795 252 q2 -4 8 -8q10 4 10 12q2 16 -10 16q-6 -4 -8 -20z" />
<glyph unicode="&#x2018;" horiz-adv-x="389" d="M59 1186q0 -53 23 -92t84 -39q29 0 53 10q45 20 45 68q0 23 -10 59q-14 51 -14 57q-10 53 8 86q6 12 41 33t39 33q2 6 2 14q0 27 -51 27q-49 0 -84 -17q-57 -31 -96.5 -99.5t-39.5 -139.5z" />
<glyph unicode="&#x2019;" horiz-adv-x="458" d="M94 934q0 -29 49 -29q51 0 84 17q59 31 98.5 99.5t39.5 139.5q0 53 -23 92t-84 39q-31 0 -55 -10q-43 -20 -43 -68q0 -23 10 -59q12 -51 14 -57q10 -53 -8 -86q-8 -12 -42 -31.5t-38 -34.5q-2 -6 -2 -12z" />
<glyph unicode="&#x201a;" d="M84 868q12 37 46 62.5t71 21.5q2 0 2 -2q127 12 221 -2q-8 25 -6 47q6 66 59 66q25 0 36 -20.5t7 -49.5q-4 -31 -20 -61l12 -4l10 -4q2 -2 10 -4q2 0 7 -3q16 96 77 95q29 -2 39 -29q18 -49 -39 -113q98 -82 99 -211q0 -90 -58 -149q25 -29 48 -72q55 -10 120 -45 q27 18 52 17q6 -2 6 -11q0 -8 -8.5 -9t-32.5 -5q27 -17 39 -29q4 -8 0 -12q-6 -6 -15 0q-8 6 -28 23q6 -10 8 -21q0 -6 -6 -10q-8 -2 -11 4q-4 16 -12 33q-16 8 -49 22l-4 2q-18 6 -51 21q31 -68 47 -176q12 -4 22 -2q-23 33 6 51q8 6 17 6q29 0 29 -35q0 -14 -15 -24 q25 -6 35 16q4 8 12 6q10 -4 6 -14q-14 -29 -45 -29q-16 0 -30 8q-16 -4 -33 0q2 -25 10 -80q-4 -8 -16 -14q-53 0 -119 -2q2 -31 2 -86l2 -16q8 -12 -8.5 -15.5t-63.5 -5.5q-53 -4 -61 2q-23 12 0 27q8 4 61 0q29 0 50 -4q-2 33 -5 98q-96 -2 -143 -2h-72q2 -27 2 -66v-34 q10 -12 -6 -15.5t-65 -5.5q-51 -4 -60 2q-23 12 0 27q6 4 60 0q29 0 49 -4q0 -10 -2 96q-100 0 -162 4q-8 2 -14 14q14 102 20 138q14 78 39 133q-35 -16 -102 -43q-2 -10 -10 -33q-4 -6 -11 -4q-8 4 -6 10q2 8 6 21q-6 -6 -28 -23q-6 -6 -13 0q-6 4 0 12q10 12 37 29l-33 6 q-6 0 -6 8t6 11q25 2 52 -17q63 33 118 45q14 29 33 53q-63 55 -57 144q4 27 12 55q-27 4 -86 35q-68 33 -70 51q-39 33 -20 94zM109 872q-29 -59 14 -88q14 -10 31 -10q41 0 61 49q12 27 12 60q0 27 -26 49q-68 -6 -92 -60zM125 856q0 16 12 16q12 2 17 -12q3 -14 -7 -20 q-23 -10 -22 16zM158 756q57 -35 108 -49q2 2 4 5t9 1q6 -4 4 -11q6 -2 12 -3t6 -7q-2 -6 -8 -6h-17q-8 -27 -10 -51q-8 -92 70 -141q68 -43 160 -35q88 8 142 61t56 139q4 123 -90 197q-2 0 -4 -2q-4 -4 -10 0q-4 6 0 10l2 2q-18 10 -37 21q-4 -6 -10 -4q-8 2 -8 12 q-20 10 -45 18v-2q-8 0 -15 7q-12 4 -26 6q-6 -18 -17 -4l-4 8l-8 2h-2q-6 2 -17.5 3t-21.5 3q-74 6 -156 0q35 -33 13 -111q-20 -68 -80 -69zM174 854q0 14 12 16q12 0 17 -12q4 -14 -6 -20q-23 -10 -23 16zM295 866q-4 25 12.5 42.5t38.5 15.5q47 -5 47 -52q0 -35 -31 -45 q-23 -6 -43 6.5t-24 32.5zM311 633q6 4 15 2q10 -63 77 -66q59 0 89 54q4 6 10 2q8 -3 6 -11q-18 -61 -94 -61q-96 0 -103 80zM313 870q2 -14 17.5 -21t29.5 -1q19 6 15 31q-4 35 -35 26q-29 -8 -27 -35zM338 864q-4 8 0 17q4 8 14 8q11 0 13 -8q10 -23 -15 -23q-8 0 -12 6z M412 850q2 29 22 41q14 12 35 4q51 -21 41 -66q-10 -47 -59 -36q-41 10 -39 57zM430 852q-8 -37 27 -43q33 -6 37 27q4 20 -19 36q-12 10 -29 5q-12 -6 -16 -25zM438 999q-4 -25 8 -57q20 -4 37 -8q19 43 19 74q0 12 -4 22t-15 12h-3h-3h-2q-4 0 -6 -1l-4 -2t-4 -3 q-18 -12 -23 -37zM453 834q-4 6 1 14t13 8q10 0 14 -8q8 -20 -14 -23q-10 0 -14 9zM539 657q-29 49 9 85t75 20q18 -9 26 -27q16 -39 -6 -76.5t-63 -31.5q-25 2 -41 30zM559 905q23 -10 43 -26q33 38 39 69q4 31 -14 39q-8 4 -19 2q-10 -2 -22 -14q-20 -20 -27 -70zM795 252 q2 -4 8 -8q10 4 10 12q2 16 -10 16q-6 -4 -8 -20z" />
<glyph unicode="&#x201c;" horiz-adv-x="727" d="M66 1186q0 -53 22.5 -92t83.5 -39q31 0 53 10q45 20 45 68q0 23 -10 59q-12 51 -14 57q-10 53 8 86q8 12 42 33t38 33q2 6 2 14q0 27 -51 27q-49 0 -84 -17q-57 -31 -96 -99.5t-39 -139.5zM391 1186q0 -53 23 -92t84 -39q31 0 53 10q45 20 45 68q0 23 -10 59 q-14 51 -15 57q-10 53 9 86q8 12 41.5 33t37.5 33q2 6 3 14q0 27 -52 27q-49 0 -84 -17q-57 -31 -96 -99.5t-39 -139.5z" />
<glyph unicode="&#x201d;" horiz-adv-x="798" d="M100 934q0 -29 52 -29q51 0 84 17q59 31 98 99.5t39 139.5q0 53 -24 92t-85 39q-29 0 -53 -10q-45 -20 -45 -68q0 -23 10 -59q14 -51 17 -57q10 -53 -9 -86q-8 -12 -41.5 -31.5t-38.5 -34.5q-4 -6 -4 -12zM426 934q0 -29 51 -29t84 17q59 31 98 99.5t39 139.5 q0 53 -23.5 92t-84.5 39q-29 0 -53 -10q-45 -20 -45 -68q0 -23 10 -59q14 -51 16 -57q10 -53 -8 -86q-8 -12 -42 -31.5t-38 -34.5q-4 -6 -4 -12z" />
<glyph unicode="&#x201e;" d="M84 868q12 37 46 62.5t71 21.5q2 0 2 -2q127 12 221 -2q-8 25 -6 47q6 66 59 66q25 0 36 -20.5t7 -49.5q-4 -31 -20 -61l12 -4l10 -4q2 -2 10 -4q2 0 7 -3q16 96 77 95q29 -2 39 -29q18 -49 -39 -113q98 -82 99 -211q0 -90 -58 -149q25 -29 48 -72q55 -10 120 -45 q27 18 52 17q6 -2 6 -11q0 -8 -8.5 -9t-32.5 -5q27 -17 39 -29q4 -8 0 -12q-6 -6 -15 0q-8 6 -28 23q6 -10 8 -21q0 -6 -6 -10q-8 -2 -11 4q-4 16 -12 33q-16 8 -49 22l-4 2q-18 6 -51 21q31 -68 47 -176q12 -4 22 -2q-23 33 6 51q8 6 17 6q29 0 29 -35q0 -14 -15 -24 q25 -6 35 16q4 8 12 6q10 -4 6 -14q-14 -29 -45 -29q-16 0 -30 8q-16 -4 -33 0q2 -25 10 -80q-4 -8 -16 -14q-53 0 -119 -2q2 -31 2 -86l2 -16q8 -12 -8.5 -15.5t-63.5 -5.5q-53 -4 -61 2q-23 12 0 27q8 4 61 0q29 0 50 -4q-2 33 -5 98q-96 -2 -143 -2h-72q2 -27 2 -66v-34 q10 -12 -6 -15.5t-65 -5.5q-51 -4 -60 2q-23 12 0 27q6 4 60 0q29 0 49 -4q0 -10 -2 96q-100 0 -162 4q-8 2 -14 14q14 102 20 138q14 78 39 133q-35 -16 -102 -43q-2 -10 -10 -33q-4 -6 -11 -4q-8 4 -6 10q2 8 6 21q-6 -6 -28 -23q-6 -6 -13 0q-6 4 0 12q10 12 37 29l-33 6 q-6 0 -6 8t6 11q25 2 52 -17q63 33 118 45q14 29 33 53q-63 55 -57 144q4 27 12 55q-27 4 -86 35q-68 33 -70 51q-39 33 -20 94zM109 872q-29 -59 14 -88q14 -10 31 -10q41 0 61 49q12 27 12 60q0 27 -26 49q-68 -6 -92 -60zM125 856q0 16 12 16q12 2 17 -12q3 -14 -7 -20 q-23 -10 -22 16zM158 756q57 -35 108 -49q2 2 4 5t9 1q6 -4 4 -11q6 -2 12 -3t6 -7q-2 -6 -8 -6h-17q-8 -27 -10 -51q-8 -92 70 -141q68 -43 160 -35q88 8 142 61t56 139q4 123 -90 197q-2 0 -4 -2q-4 -4 -10 0q-4 6 0 10l2 2q-18 10 -37 21q-4 -6 -10 -4q-8 2 -8 12 q-20 10 -45 18v-2q-8 0 -15 7q-12 4 -26 6q-6 -18 -17 -4l-4 8l-8 2h-2q-6 2 -17.5 3t-21.5 3q-74 6 -156 0q35 -33 13 -111q-20 -68 -80 -69zM174 854q0 14 12 16q12 0 17 -12q4 -14 -6 -20q-23 -10 -23 16zM295 866q-4 25 12.5 42.5t38.5 15.5q47 -5 47 -52q0 -35 -31 -45 q-23 -6 -43 6.5t-24 32.5zM311 633q6 4 15 2q10 -63 77 -66q59 0 89 54q4 6 10 2q8 -3 6 -11q-18 -61 -94 -61q-96 0 -103 80zM313 870q2 -14 17.5 -21t29.5 -1q19 6 15 31q-4 35 -35 26q-29 -8 -27 -35zM338 864q-4 8 0 17q4 8 14 8q11 0 13 -8q10 -23 -15 -23q-8 0 -12 6z M412 850q2 29 22 41q14 12 35 4q51 -21 41 -66q-10 -47 -59 -36q-41 10 -39 57zM430 852q-8 -37 27 -43q33 -6 37 27q4 20 -19 36q-12 10 -29 5q-12 -6 -16 -25zM438 999q-4 -25 8 -57q20 -4 37 -8q19 43 19 74q0 12 -4 22t-15 12h-3h-3h-2q-4 0 -6 -1l-4 -2t-4 -3 q-18 -12 -23 -37zM453 834q-4 6 1 14t13 8q10 0 14 -8q8 -20 -14 -23q-10 0 -14 9zM539 657q-29 49 9 85t75 20q18 -9 26 -27q16 -39 -6 -76.5t-63 -31.5q-25 2 -41 30zM559 905q23 -10 43 -26q33 38 39 69q4 31 -14 39q-8 4 -19 2q-10 -2 -22 -14q-20 -20 -27 -70zM795 252 q2 -4 8 -8q10 4 10 12q2 16 -10 16q-6 -4 -8 -20z" />
<glyph unicode="&#x2022;" horiz-adv-x="512" d="M104 694q0 59 37 99.5t95 40.5q57 0 114.5 -40.5t57.5 -95.5q0 -70 -105 -116q-31 -12 -61 -13q-55 0 -96.5 36t-41.5 89z" />
<glyph unicode="&#x2026;" horiz-adv-x="993" d="M98 92q16 66 78 66q35 0 70 -23.5t35 -58.5q0 -41 -64 -70q-16 -8 -37 -8q-37 0 -63.5 27.5t-18.5 66.5zM406 92q16 66 77 66q35 0 70 -23.5t35 -58.5q0 -41 -64 -70q-16 -8 -37 -8q-37 0 -63.5 27.5t-17.5 66.5zM713 92q16 66 78 66q35 0 69.5 -23.5t34.5 -58.5 q0 -41 -64 -70q-16 -8 -36 -8q-37 0 -63.5 27.5t-18.5 66.5z" />
<glyph unicode="&#x202f;" horiz-adv-x="390" />
<glyph unicode="&#x2039;" d="M84 868q12 37 46 62.5t71 21.5q2 0 2 -2q127 12 221 -2q-8 25 -6 47q6 66 59 66q25 0 36 -20.5t7 -49.5q-4 -31 -20 -61l12 -4l10 -4q2 -2 10 -4q2 0 7 -3q16 96 77 95q29 -2 39 -29q18 -49 -39 -113q98 -82 99 -211q0 -90 -58 -149q25 -29 48 -72q55 -10 120 -45 q27 18 52 17q6 -2 6 -11q0 -8 -8.5 -9t-32.5 -5q27 -17 39 -29q4 -8 0 -12q-6 -6 -15 0q-8 6 -28 23q6 -10 8 -21q0 -6 -6 -10q-8 -2 -11 4q-4 16 -12 33q-16 8 -49 22l-4 2q-18 6 -51 21q31 -68 47 -176q12 -4 22 -2q-23 33 6 51q8 6 17 6q29 0 29 -35q0 -14 -15 -24 q25 -6 35 16q4 8 12 6q10 -4 6 -14q-14 -29 -45 -29q-16 0 -30 8q-16 -4 -33 0q2 -25 10 -80q-4 -8 -16 -14q-53 0 -119 -2q2 -31 2 -86l2 -16q8 -12 -8.5 -15.5t-63.5 -5.5q-53 -4 -61 2q-23 12 0 27q8 4 61 0q29 0 50 -4q-2 33 -5 98q-96 -2 -143 -2h-72q2 -27 2 -66v-34 q10 -12 -6 -15.5t-65 -5.5q-51 -4 -60 2q-23 12 0 27q6 4 60 0q29 0 49 -4q0 -10 -2 96q-100 0 -162 4q-8 2 -14 14q14 102 20 138q14 78 39 133q-35 -16 -102 -43q-2 -10 -10 -33q-4 -6 -11 -4q-8 4 -6 10q2 8 6 21q-6 -6 -28 -23q-6 -6 -13 0q-6 4 0 12q10 12 37 29l-33 6 q-6 0 -6 8t6 11q25 2 52 -17q63 33 118 45q14 29 33 53q-63 55 -57 144q4 27 12 55q-27 4 -86 35q-68 33 -70 51q-39 33 -20 94zM109 872q-29 -59 14 -88q14 -10 31 -10q41 0 61 49q12 27 12 60q0 27 -26 49q-68 -6 -92 -60zM125 856q0 16 12 16q12 2 17 -12q3 -14 -7 -20 q-23 -10 -22 16zM158 756q57 -35 108 -49q2 2 4 5t9 1q6 -4 4 -11q6 -2 12 -3t6 -7q-2 -6 -8 -6h-17q-8 -27 -10 -51q-8 -92 70 -141q68 -43 160 -35q88 8 142 61t56 139q4 123 -90 197q-2 0 -4 -2q-4 -4 -10 0q-4 6 0 10l2 2q-18 10 -37 21q-4 -6 -10 -4q-8 2 -8 12 q-20 10 -45 18v-2q-8 0 -15 7q-12 4 -26 6q-6 -18 -17 -4l-4 8l-8 2h-2q-6 2 -17.5 3t-21.5 3q-74 6 -156 0q35 -33 13 -111q-20 -68 -80 -69zM174 854q0 14 12 16q12 0 17 -12q4 -14 -6 -20q-23 -10 -23 16zM295 866q-4 25 12.5 42.5t38.5 15.5q47 -5 47 -52q0 -35 -31 -45 q-23 -6 -43 6.5t-24 32.5zM311 633q6 4 15 2q10 -63 77 -66q59 0 89 54q4 6 10 2q8 -3 6 -11q-18 -61 -94 -61q-96 0 -103 80zM313 870q2 -14 17.5 -21t29.5 -1q19 6 15 31q-4 35 -35 26q-29 -8 -27 -35zM338 864q-4 8 0 17q4 8 14 8q11 0 13 -8q10 -23 -15 -23q-8 0 -12 6z M412 850q2 29 22 41q14 12 35 4q51 -21 41 -66q-10 -47 -59 -36q-41 10 -39 57zM430 852q-8 -37 27 -43q33 -6 37 27q4 20 -19 36q-12 10 -29 5q-12 -6 -16 -25zM438 999q-4 -25 8 -57q20 -4 37 -8q19 43 19 74q0 12 -4 22t-15 12h-3h-3h-2q-4 0 -6 -1l-4 -2t-4 -3 q-18 -12 -23 -37zM453 834q-4 6 1 14t13 8q10 0 14 -8q8 -20 -14 -23q-10 0 -14 9zM539 657q-29 49 9 85t75 20q18 -9 26 -27q16 -39 -6 -76.5t-63 -31.5q-25 2 -41 30zM559 905q23 -10 43 -26q33 38 39 69q4 31 -14 39q-8 4 -19 2q-10 -2 -22 -14q-20 -20 -27 -70zM795 252 q2 -4 8 -8q10 4 10 12q2 16 -10 16q-6 -4 -8 -20z" />
<glyph unicode="&#x203a;" d="M84 868q12 37 46 62.5t71 21.5q2 0 2 -2q127 12 221 -2q-8 25 -6 47q6 66 59 66q25 0 36 -20.5t7 -49.5q-4 -31 -20 -61l12 -4l10 -4q2 -2 10 -4q2 0 7 -3q16 96 77 95q29 -2 39 -29q18 -49 -39 -113q98 -82 99 -211q0 -90 -58 -149q25 -29 48 -72q55 -10 120 -45 q27 18 52 17q6 -2 6 -11q0 -8 -8.5 -9t-32.5 -5q27 -17 39 -29q4 -8 0 -12q-6 -6 -15 0q-8 6 -28 23q6 -10 8 -21q0 -6 -6 -10q-8 -2 -11 4q-4 16 -12 33q-16 8 -49 22l-4 2q-18 6 -51 21q31 -68 47 -176q12 -4 22 -2q-23 33 6 51q8 6 17 6q29 0 29 -35q0 -14 -15 -24 q25 -6 35 16q4 8 12 6q10 -4 6 -14q-14 -29 -45 -29q-16 0 -30 8q-16 -4 -33 0q2 -25 10 -80q-4 -8 -16 -14q-53 0 -119 -2q2 -31 2 -86l2 -16q8 -12 -8.5 -15.5t-63.5 -5.5q-53 -4 -61 2q-23 12 0 27q8 4 61 0q29 0 50 -4q-2 33 -5 98q-96 -2 -143 -2h-72q2 -27 2 -66v-34 q10 -12 -6 -15.5t-65 -5.5q-51 -4 -60 2q-23 12 0 27q6 4 60 0q29 0 49 -4q0 -10 -2 96q-100 0 -162 4q-8 2 -14 14q14 102 20 138q14 78 39 133q-35 -16 -102 -43q-2 -10 -10 -33q-4 -6 -11 -4q-8 4 -6 10q2 8 6 21q-6 -6 -28 -23q-6 -6 -13 0q-6 4 0 12q10 12 37 29l-33 6 q-6 0 -6 8t6 11q25 2 52 -17q63 33 118 45q14 29 33 53q-63 55 -57 144q4 27 12 55q-27 4 -86 35q-68 33 -70 51q-39 33 -20 94zM109 872q-29 -59 14 -88q14 -10 31 -10q41 0 61 49q12 27 12 60q0 27 -26 49q-68 -6 -92 -60zM125 856q0 16 12 16q12 2 17 -12q3 -14 -7 -20 q-23 -10 -22 16zM158 756q57 -35 108 -49q2 2 4 5t9 1q6 -4 4 -11q6 -2 12 -3t6 -7q-2 -6 -8 -6h-17q-8 -27 -10 -51q-8 -92 70 -141q68 -43 160 -35q88 8 142 61t56 139q4 123 -90 197q-2 0 -4 -2q-4 -4 -10 0q-4 6 0 10l2 2q-18 10 -37 21q-4 -6 -10 -4q-8 2 -8 12 q-20 10 -45 18v-2q-8 0 -15 7q-12 4 -26 6q-6 -18 -17 -4l-4 8l-8 2h-2q-6 2 -17.5 3t-21.5 3q-74 6 -156 0q35 -33 13 -111q-20 -68 -80 -69zM174 854q0 14 12 16q12 0 17 -12q4 -14 -6 -20q-23 -10 -23 16zM295 866q-4 25 12.5 42.5t38.5 15.5q47 -5 47 -52q0 -35 -31 -45 q-23 -6 -43 6.5t-24 32.5zM311 633q6 4 15 2q10 -63 77 -66q59 0 89 54q4 6 10 2q8 -3 6 -11q-18 -61 -94 -61q-96 0 -103 80zM313 870q2 -14 17.5 -21t29.5 -1q19 6 15 31q-4 35 -35 26q-29 -8 -27 -35zM338 864q-4 8 0 17q4 8 14 8q11 0 13 -8q10 -23 -15 -23q-8 0 -12 6z M412 850q2 29 22 41q14 12 35 4q51 -21 41 -66q-10 -47 -59 -36q-41 10 -39 57zM430 852q-8 -37 27 -43q33 -6 37 27q4 20 -19 36q-12 10 -29 5q-12 -6 -16 -25zM438 999q-4 -25 8 -57q20 -4 37 -8q19 43 19 74q0 12 -4 22t-15 12h-3h-3h-2q-4 0 -6 -1l-4 -2t-4 -3 q-18 -12 -23 -37zM453 834q-4 6 1 14t13 8q10 0 14 -8q8 -20 -14 -23q-10 0 -14 9zM539 657q-29 49 9 85t75 20q18 -9 26 -27q16 -39 -6 -76.5t-63 -31.5q-25 2 -41 30zM559 905q23 -10 43 -26q33 38 39 69q4 31 -14 39q-8 4 -19 2q-10 -2 -22 -14q-20 -20 -27 -70zM795 252 q2 -4 8 -8q10 4 10 12q2 16 -10 16q-6 -4 -8 -20z" />
<glyph unicode="&#x205f;" horiz-adv-x="487" />
<glyph unicode="&#x20ac;" horiz-adv-x="1359" d="M-51 487q0 -57 117 -51q151 -2 456 4q16 0 62.5 -4t70.5 -4q94 0 123 53q20 35 21 62q0 72 -164 84q-33 4 -68 4q-72 0 -217 -17.5t-223 -17.5q-70 0 -124 -38t-54 -75zM-51 836q0 -57 117 -52q151 -2 456 4q16 0 62.5 -4t70.5 -4q94 0 123 54q20 37 21 63q0 70 -164 84 q-33 2 -68 2q-72 0 -217 -17.5t-223 -17.5q-70 0 -124 -37t-54 -75zM70 653q0 -168 45 -291q66 -184 219 -278q137 -88 319 -88q162 0 317.5 68.5t262.5 189.5q59 68 59 131q0 55 -43 68q-46 12 -116 -39q-35 -27 -113 -131q-59 -82 -143 -109q-74 -23 -146 -22 q-221 0 -362 204q-131 190 -113 432q16 215 136 332t310 117q70 0 144 -16q31 -6 158 -66q106 -49 153 -41q78 12 78 60q0 49 -92 137q-133 127 -371 127q-285 0 -473 -156q-113 -94 -174 -274q-55 -166 -55 -355z" />
<glyph unicode="&#x2122;" horiz-adv-x="1798" d="M-16 1325q-8 43 90 59q172 27 362 -4q86 -2 211 -12q12 -2 12 -12q0 -14 -17 -38t-26 -28q-45 -33 -225 -18q-8 -326 -8 -342q2 -8 9 -75t7 -105q0 -129 -67 -129q-10 0 -23 2q-27 39 -26 114q0 29 4 76q4 55 6 68q14 313 -12 401h-7q-8 0 -49 -2q-49 -2 -78 -2 q-156 0 -163 47zM819 854q2 -209 51 -238q18 -8 39 2q29 16 25 197v62q4 41 6 235q14 -29 49 -100l21 -39q51 -100 92 -189q20 -53 74 -157q6 -10 18 -11q31 0 117 144q29 47 37 57t84 141q16 31 81 129l7 11l-2 -45q-2 -145 -2 -176v-21q-6 -207 36 -231q39 -23 56 41 q12 47 10 223v22v74q0 244 -4 285l-2 2v12q-6 43 -10 62q-10 33 -27 38q-29 8 -47 -24l-64 -105q-23 -39 -78 -135q-57 -111 -174 -332q-43 96 -129 289q-115 242 -151 281q-29 33 -53 24q-51 -20 -56 -241l-2 -107q-2 -123 -2 -174v-6z" />
<glyph unicode="&#x25fc;" horiz-adv-x="747" d="M0 0v748h748v-748h-748z" />
<glyph unicode="&#xfb01;" horiz-adv-x="432" />
<glyph unicode="&#xfb02;" horiz-adv-x="432" />
</font>
</defs>
</svg>
